M48
METRIC,LZ,000.000
;FILE_FORMAT=3:3
;TYPE=PLATED
;Layer: PTH_Through_Via
;EasyEDA v6.5.44, 2024-08-25 02:09:30
;b6d350bfa83344e8a21db83960d40df2,c23a61fc8c4145e6967fd80801f93d45,10
;Gerber Generator version 0.2
;Holesize 1 = 0.306 mm
T01C0.306
;Holesize 2 = 0.310 mm
T02C0.310
%
G05
G90
T01
X150000Y001500
X150495Y000889
X149987Y000254
X149479Y000889
X149479Y-000254
X151003Y000254
X150495Y-000254
X148971Y000254
X148971Y-000762
X149987Y-000762
X151003Y-000762
X156591Y-000762
X157607Y-000762
X158623Y-000762
X158115Y-000254
X157099Y-000254
X156591Y000254
X157607Y000254
X158623Y000254
X158115Y000889
X157099Y000889
X156620Y001500
X157620Y001500
X158620Y001500
X138433Y000659
X138433Y-000484
X138941Y000024
X138938Y001270
X168783Y001270
X169291Y000762
X169799Y000254
X168783Y000254
X169291Y-000254
X168783Y-000762
X056134Y001270
X056642Y000762
X056134Y000254
X056642Y-000254
X056134Y-000762
X045720Y001143
X045212Y000635
X045720Y000127
X044704Y000127
X045212Y-000381
X044196Y-000381
X043688Y000127
X044196Y000635
X044704Y001143
X043688Y001143
X038227Y001143
X037719Y000635
X038227Y000127
X037719Y-000381
X036703Y-000381
X036195Y000127
X036703Y000635
X037211Y000127
X037211Y001143
X036195Y001143
X026289Y001270
X025784Y000659
X026292Y000024
X025784Y-000484
X025276Y000024
X046355Y-010144
X046355Y-011144
X045744Y-010639
X045109Y-011147
X044601Y-010639
X044093Y-011147
X043585Y-010639
X043077Y-011147
X043077Y-010131
X044093Y-010131
X045109Y-010131
X036703Y-011176
X035687Y-011176
X036195Y-010668
X035687Y-010160
X036703Y-010160
X037211Y-010668
X037719Y-010160
X037719Y-011176
X038354Y-010668
X038965Y-011173
X038965Y-010173
X031623Y-010160
X030607Y-010160
X027051Y-010668
X028067Y-010668
X029083Y-010668
X034163Y-010668
X035179Y-010668
X032131Y-010668
X033147Y-010668
X030099Y-010668
X031115Y-010668
X031115Y-009652
X046990Y-010668
X048006Y-010668
X049022Y-010668
X050038Y-010668
X050546Y-010160
X051054Y-009652
X051054Y-010668
X051562Y-010160
X052070Y-010668
X053086Y-010668
X054102Y-010668
X055118Y-010668
X139827Y-010668
X140843Y-010668
X141859Y-010668
X142875Y-010668
X143383Y-010160
X143891Y-010668
X144399Y-010160
X143891Y-009652
X144907Y-010668
X145923Y-010668
X146939Y-010668
X147955Y-010668
X148463Y-010160
X148971Y-010668
X148463Y-011176
X149479Y-011176
X149987Y-010668
X149479Y-010160
X150495Y-010160
X150495Y-011176
X151741Y-011173
X151130Y-010668
X151741Y-010173
X155853Y-010131
X156361Y-010639
X155853Y-011147
X156869Y-011147
X157377Y-010639
X157885Y-010131
X158520Y-010639
X157885Y-011147
X159131Y-011144
X159131Y-010144
X159766Y-010668
X160782Y-010668
X161798Y-010668
X162814Y-010668
X163322Y-010160
X163830Y-009652
X164338Y-010160
X163830Y-010668
X164846Y-010668
X165862Y-010668
X166878Y-010668
X167894Y-010668
X151000Y001500
X149000Y001500
T02
X000762Y-000381
X000762Y-001016
X000762Y-001651
X001316Y-001329
X001316Y-000694
X001905Y-001633
X001905Y-000998
X001905Y-000363
X002477Y-001334
X002477Y-000699
X003048Y-001633
X003048Y-000998
X003048Y-000363
X003620Y-000699
X003620Y-001334
X004191Y-001633
X004191Y-000998
X004191Y-000363
X004763Y-000699
X004763Y-001334
X188468Y-001905
X188468Y-002540
X189103Y-002540
X189103Y-003175
X190627Y-003175
X190627Y-002540
X191262Y-002540
X191262Y-001905
X191262Y-003175
X188468Y-003175
X188849Y-000127
X188849Y000508
X190881Y000508
X190881Y-000127
X188214Y-000127
X188214Y000508
X191516Y-000127
X191516Y000508
X187579Y-000127
X187579Y000508
X192151Y-000127
X192151Y000508
X185928Y-003175
X185293Y-003175
X185293Y-002540
X185928Y-002540
X185928Y-001905
X183769Y-003175
X183134Y-003175
X183134Y-002540
X183769Y-002540
X183134Y-001905
X183515Y-000127
X182880Y-000127
X182245Y-000127
X182245Y000508
X182880Y000508
X183515Y000508
X185547Y-000127
X185547Y000508
X186182Y000508
X186182Y-000127
X186817Y-000127
X186817Y000508
X180594Y-003175
X179959Y-003175
X179959Y-002540
X180594Y-002540
X180594Y-001905
X178435Y-003175
X177800Y-003175
X177800Y-002540
X178435Y-002540
X177800Y-001905
X178181Y-000127
X177546Y-000127
X176911Y-000127
X176911Y000508
X177546Y000508
X178181Y000508
X180213Y-000127
X180213Y000508
X180848Y000508
X180848Y-000127
X181483Y-000127
X181483Y000508
X175260Y-003175
X174625Y-003175
X174625Y-002540
X175260Y-002540
X175260Y-001905
X172847Y-000127
X172212Y-000127
X171577Y-000127
X171577Y000508
X172212Y000508
X172847Y000508
X174879Y-000127
X174879Y000508
X175514Y000508
X175514Y-000127
X176149Y-000127
X176149Y000508
X133096Y-003281
X132461Y-003281
X132461Y-002646
X133096Y-002646
X132461Y-002011
X132842Y-000233
X132207Y-000233
X131572Y-000233
X131572Y000402
X132207Y000402
X132842Y000402
X134874Y-000233
X134874Y000402
X135509Y000402
X135509Y-000233
X136144Y-000233
X136144Y000402
X129794Y-003175
X129159Y-003175
X129159Y-002540
X129794Y-002540
X129794Y-001905
X127635Y-003175
X127000Y-003175
X127000Y-002540
X127635Y-002540
X127000Y-001905
X127381Y-000127
X126746Y-000127
X126111Y-000127
X126111Y000508
X126746Y000508
X127381Y000508
X129413Y-000127
X129413Y000508
X130048Y000508
X130048Y-000127
X130683Y-000127
X130683Y000508
X124333Y-003175
X123698Y-003175
X123698Y-002540
X124333Y-002540
X124333Y-001905
X122174Y-003175
X121539Y-003175
X121539Y-002540
X122174Y-002540
X121539Y-001905
X121920Y-000127
X121285Y-000127
X120650Y-000127
X120650Y000508
X121285Y000508
X121920Y000508
X123952Y-000127
X123952Y000508
X124587Y000508
X124587Y-000127
X125222Y-000127
X125222Y000508
X118872Y-003175
X118237Y-003175
X118237Y-002540
X118872Y-002540
X118872Y-001905
X116713Y-003175
X116078Y-003175
X116078Y-002540
X116713Y-002540
X116078Y-001905
X116459Y-000127
X115824Y-000127
X115189Y-000127
X115189Y000508
X115824Y000508
X116459Y000508
X118491Y-000127
X118491Y000508
X119126Y000508
X119126Y-000127
X119761Y-000127
X119761Y000508
X113411Y-003175
X112776Y-003175
X112776Y-002540
X113411Y-002540
X113411Y-001905
X111252Y-003175
X110617Y-003175
X110617Y-002540
X111252Y-002540
X110617Y-001905
X110998Y-000127
X110363Y-000127
X109728Y-000127
X109728Y000508
X110363Y000508
X110998Y000508
X113030Y-000127
X113030Y000508
X113665Y000508
X113665Y-000127
X114300Y-000127
X114300Y000508
X107950Y-003175
X107315Y-003175
X107315Y-002540
X107950Y-002540
X107950Y-001905
X105791Y-003175
X105156Y-003175
X105156Y-002540
X105791Y-002540
X105156Y-001905
X105537Y-000127
X104902Y-000127
X104267Y-000127
X104267Y000508
X104902Y000508
X105537Y000508
X107569Y-000127
X107569Y000508
X108204Y000508
X108204Y-000127
X108839Y-000127
X108839Y000508
X102489Y-003175
X101854Y-003175
X101854Y-002540
X102489Y-002540
X102489Y-001905
X100330Y-003175
X099695Y-003175
X099695Y-002540
X100330Y-002540
X099695Y-001905
X100076Y-000127
X099441Y-000127
X098806Y-000127
X098806Y000508
X099441Y000508
X100076Y000508
X102108Y-000127
X102108Y000508
X102743Y000508
X102743Y-000127
X103378Y-000127
X103378Y000508
X095377Y-003175
X094742Y-003175
X094742Y-002540
X095377Y-002540
X095377Y-001905
X093218Y-003175
X092583Y-003175
X092583Y-002540
X093218Y-002540
X092583Y-001905
X092964Y-000127
X092329Y-000127
X091694Y-000127
X091694Y000508
X092329Y000508
X092964Y000508
X094996Y-000127
X094996Y000508
X095631Y000508
X095631Y-000127
X096266Y-000127
X096266Y000508
X089916Y-003175
X089281Y-003175
X089281Y-002540
X089916Y-002540
X089916Y-001905
X087757Y-003175
X087122Y-003175
X087122Y-002540
X087757Y-002540
X087122Y-001905
X087503Y-000127
X086868Y-000127
X086233Y-000127
X086233Y000508
X086868Y000508
X087503Y000508
X089535Y-000127
X089535Y000508
X090170Y000508
X090170Y-000127
X090805Y-000127
X090805Y000508
X084455Y-003175
X083820Y-003175
X083820Y-002540
X084455Y-002540
X084455Y-001905
X082296Y-003175
X081661Y-003175
X081661Y-002540
X082296Y-002540
X081661Y-001905
X082042Y-000127
X081407Y-000127
X080772Y-000127
X080772Y000508
X081407Y000508
X082042Y000508
X084074Y-000127
X084074Y000508
X084709Y000508
X084709Y-000127
X085344Y-000127
X085344Y000508
X078994Y-003175
X078359Y-003175
X078359Y-002540
X078994Y-002540
X078994Y-001905
X076835Y-003175
X076200Y-003175
X076200Y-002540
X076835Y-002540
X076200Y-001905
X076581Y-000127
X075946Y-000127
X075311Y-000127
X075311Y000508
X075946Y000508
X076581Y000508
X078613Y-000127
X078613Y000508
X079248Y000508
X079248Y-000127
X079883Y-000127
X079883Y000508
X073533Y-003175
X072898Y-003175
X072898Y-002540
X073533Y-002540
X073533Y-001905
X071374Y-003175
X070739Y-003175
X070739Y-002540
X071374Y-002540
X070739Y-001905
X071120Y-000127
X070485Y-000127
X069850Y-000127
X069850Y000508
X070485Y000508
X071120Y000508
X073152Y-000127
X073152Y000508
X073787Y000508
X073787Y-000127
X074422Y-000127
X074422Y000508
X068072Y-003175
X067437Y-003175
X067437Y-002540
X068072Y-002540
X068072Y-001905
X065913Y-003175
X065278Y-003175
X065278Y-002540
X065913Y-002540
X065278Y-001905
X065659Y-000127
X065024Y-000127
X064389Y-000127
X064389Y000508
X065024Y000508
X065659Y000508
X067691Y-000127
X067691Y000508
X068326Y000508
X068326Y-000127
X068961Y-000127
X068961Y000508
X062611Y-003175
X061976Y-003175
X061976Y-002540
X062611Y-002540
X062611Y-001905
X060452Y-003175
X059817Y-003175
X059817Y-002540
X060452Y-002540
X059817Y-001905
X060198Y-000127
X059563Y-000127
X058928Y-000127
X058928Y000508
X059563Y000508
X060198Y000508
X062230Y-000127
X062230Y000508
X062865Y000508
X062865Y-000127
X063500Y-000127
X063500Y000508
X022479Y-003175
X021844Y-003175
X021844Y-002540
X022479Y-002540
X022479Y-001905
X020320Y-003175
X019685Y-003175
X019685Y-002540
X020320Y-002540
X019685Y-001905
X020066Y-000127
X019431Y-000127
X018796Y-000127
X018796Y000508
X019431Y000508
X020066Y000508
X022098Y-000127
X022098Y000508
X022733Y000508
X022733Y-000127
X023368Y-000127
X023368Y000508
X017145Y-003175
X016510Y-003175
X016510Y-002540
X017145Y-002540
X017145Y-001905
X014986Y-003175
X014351Y-003175
X014351Y-002540
X014986Y-002540
X014351Y-001905
X014732Y-000127
X014097Y-000127
X013462Y-000127
X013462Y000508
X014097Y000508
X014732Y000508
X016764Y-000127
X016764Y000508
X017399Y000508
X017399Y-000127
X018034Y-000127
X018034Y000508
X011811Y-003175
X011176Y-003175
X011176Y-002540
X011811Y-002540
X011811Y-001905
X009652Y-003175
X009017Y-003175
X009017Y-002540
X009652Y-002540
X009017Y-001905
X009398Y-000127
X008763Y-000127
X008128Y-000127
X008128Y000508
X008763Y000508
X009398Y000508
X011430Y-000127
X011430Y000508
X012065Y000508
X012065Y-000127
X012700Y-000127
X012700Y000508
X006096Y-000127
X006096Y000508
X006731Y000508
X006731Y-000127
X007366Y-000127
X007366Y000508
X010414Y-002959
X001016Y-004953
X002286Y-004953
X002286Y-004318
X001651Y-004318
X001016Y-004318
X001016Y-003683
X001651Y-003683
X002286Y-003683
X000762Y-006985
X000762Y-007620
X000762Y-006350
X001329Y-006672
X001329Y-007307
X002472Y-007307
X002472Y-006672
X001905Y-006985
X001905Y-006350
X001905Y-007620
X003615Y-007307
X003615Y-006672
X003048Y-006985
X003048Y-007620
X150495Y-005207
X045085Y-005207
X045085Y-003556
X150368Y-003429
M30
