G04 Layer: TopPasteMaskLayer*
G04 EasyEDA v6.5.44, 2024-08-25 02:09:30*
G04 b6d350bfa83344e8a21db83960d40df2,c23a61fc8c4145e6967fd80801f93d45,10*
G04 Gerber Generator version 0.2*
G04 Scale: 100 percent, Rotated: No, Reflected: No *
G04 Dimensions in millimeters *
G04 leading zeros omitted , absolute positions ,4 integer and 5 decimal *
%FSLAX45Y45*%
%MOMM*%

%ADD10R,1.0000X1.8000*%
%ADD11R,5.0000X1.8000*%
%ADD12R,2.2000X1.2500*%
%ADD13R,2.2000X2.2000*%

%LPD*%
G36*
X14891918Y-678891D02*
G01*
X14886889Y-683920D01*
X14886889Y-763879D01*
X14891918Y-768908D01*
X14971877Y-768908D01*
X14976906Y-763879D01*
X14976906Y-741121D01*
X14939924Y-741121D01*
X14939924Y-708101D01*
X14976906Y-708101D01*
X14976906Y-683920D01*
X14971877Y-678891D01*
G37*
G36*
X15050922Y-678891D02*
G01*
X15045893Y-683920D01*
X15045893Y-706678D01*
X15082875Y-706678D01*
X15082875Y-739698D01*
X15045893Y-739698D01*
X15045893Y-763879D01*
X15050922Y-768908D01*
X15130881Y-768908D01*
X15135910Y-763879D01*
X15135910Y-683920D01*
X15130881Y-678891D01*
G37*
G36*
X14907920Y-345389D02*
G01*
X14902891Y-350418D01*
X14902891Y-430377D01*
X14907920Y-435406D01*
X14930678Y-435406D01*
X14930678Y-398373D01*
X14963698Y-398373D01*
X14963698Y-435406D01*
X14987879Y-435406D01*
X14992908Y-430377D01*
X14992908Y-350418D01*
X14987879Y-345389D01*
G37*
G36*
X14907920Y-504393D02*
G01*
X14902891Y-509422D01*
X14902891Y-589381D01*
X14907920Y-594410D01*
X14987879Y-594410D01*
X14992908Y-589381D01*
X14992908Y-509422D01*
X14987879Y-504393D01*
X14965121Y-504393D01*
X14965121Y-541426D01*
X14932101Y-541426D01*
X14932101Y-504393D01*
G37*
G36*
X4379620Y-358089D02*
G01*
X4374591Y-363118D01*
X4374591Y-443077D01*
X4379620Y-448106D01*
X4402378Y-448106D01*
X4402378Y-411073D01*
X4435398Y-411073D01*
X4435398Y-448106D01*
X4459579Y-448106D01*
X4464608Y-443077D01*
X4464608Y-363118D01*
X4459579Y-358089D01*
G37*
G36*
X4379620Y-517093D02*
G01*
X4374591Y-522122D01*
X4374591Y-602081D01*
X4379620Y-607110D01*
X4459579Y-607110D01*
X4464608Y-602081D01*
X4464608Y-522122D01*
X4459579Y-517093D01*
X4436821Y-517093D01*
X4436821Y-554126D01*
X4403801Y-554126D01*
X4403801Y-517093D01*
G37*
G36*
X4363618Y-678891D02*
G01*
X4358589Y-683920D01*
X4358589Y-763879D01*
X4363618Y-768908D01*
X4443577Y-768908D01*
X4448606Y-763879D01*
X4448606Y-741121D01*
X4411624Y-741121D01*
X4411624Y-708101D01*
X4448606Y-708101D01*
X4448606Y-683920D01*
X4443577Y-678891D01*
G37*
G36*
X4522622Y-678891D02*
G01*
X4517593Y-683920D01*
X4517593Y-706678D01*
X4554575Y-706678D01*
X4554575Y-739698D01*
X4517593Y-739698D01*
X4517593Y-763879D01*
X4522622Y-768908D01*
X4602581Y-768908D01*
X4607610Y-763879D01*
X4607610Y-683920D01*
X4602581Y-678891D01*
G37*
G36*
X485495Y-214121D02*
G01*
X480517Y-219100D01*
X480517Y-267106D01*
X485495Y-274116D01*
X530504Y-274116D01*
X535482Y-267106D01*
X535482Y-219100D01*
X530504Y-214121D01*
G37*
G36*
X485495Y-310083D02*
G01*
X480517Y-317093D01*
X480517Y-365099D01*
X485495Y-370078D01*
X530504Y-370078D01*
X535482Y-365099D01*
X535482Y-317093D01*
X530504Y-310083D01*
G37*
G36*
X1018895Y-21996D02*
G01*
X1013917Y-26974D01*
X1013917Y-74980D01*
X1018895Y-81991D01*
X1063904Y-81991D01*
X1068882Y-74980D01*
X1068882Y-26974D01*
X1063904Y-21996D01*
G37*
G36*
X1018895Y-118008D02*
G01*
X1013917Y-125018D01*
X1013917Y-172974D01*
X1018895Y-178003D01*
X1063904Y-178003D01*
X1068882Y-172974D01*
X1068882Y-125018D01*
X1063904Y-118008D01*
G37*
G36*
X1552295Y-21996D02*
G01*
X1547317Y-26974D01*
X1547317Y-74980D01*
X1552295Y-81991D01*
X1597304Y-81991D01*
X1602282Y-74980D01*
X1602282Y-26974D01*
X1597304Y-21996D01*
G37*
G36*
X1552295Y-118008D02*
G01*
X1547317Y-125018D01*
X1547317Y-172974D01*
X1552295Y-178003D01*
X1597304Y-178003D01*
X1602282Y-172974D01*
X1602282Y-125018D01*
X1597304Y-118008D01*
G37*
G36*
X2085695Y-21996D02*
G01*
X2080717Y-26974D01*
X2080717Y-74980D01*
X2085695Y-81991D01*
X2130704Y-81991D01*
X2135682Y-74980D01*
X2135682Y-26974D01*
X2130704Y-21996D01*
G37*
G36*
X2085695Y-118008D02*
G01*
X2080717Y-125018D01*
X2080717Y-172974D01*
X2085695Y-178003D01*
X2130704Y-178003D01*
X2135682Y-172974D01*
X2135682Y-125018D01*
X2130704Y-118008D01*
G37*
G36*
X6098895Y-21996D02*
G01*
X6093917Y-26974D01*
X6093917Y-74980D01*
X6098895Y-81991D01*
X6143904Y-81991D01*
X6148882Y-74980D01*
X6148882Y-26974D01*
X6143904Y-21996D01*
G37*
G36*
X6098895Y-118008D02*
G01*
X6093917Y-125018D01*
X6093917Y-172974D01*
X6098895Y-178003D01*
X6143904Y-178003D01*
X6148882Y-172974D01*
X6148882Y-125018D01*
X6143904Y-118008D01*
G37*
G36*
X6644995Y-21996D02*
G01*
X6640017Y-26974D01*
X6640017Y-74980D01*
X6644995Y-81991D01*
X6690004Y-81991D01*
X6694982Y-74980D01*
X6694982Y-26974D01*
X6690004Y-21996D01*
G37*
G36*
X6644995Y-118008D02*
G01*
X6640017Y-125018D01*
X6640017Y-172974D01*
X6644995Y-178003D01*
X6690004Y-178003D01*
X6694982Y-172974D01*
X6694982Y-125018D01*
X6690004Y-118008D01*
G37*
G36*
X7191095Y-21996D02*
G01*
X7186117Y-26974D01*
X7186117Y-74980D01*
X7191095Y-81991D01*
X7236104Y-81991D01*
X7241082Y-74980D01*
X7241082Y-26974D01*
X7236104Y-21996D01*
G37*
G36*
X7191095Y-118008D02*
G01*
X7186117Y-125018D01*
X7186117Y-172974D01*
X7191095Y-178003D01*
X7236104Y-178003D01*
X7241082Y-172974D01*
X7241082Y-125018D01*
X7236104Y-118008D01*
G37*
G36*
X7737195Y-21996D02*
G01*
X7732217Y-26974D01*
X7732217Y-74980D01*
X7737195Y-81991D01*
X7782204Y-81991D01*
X7787182Y-74980D01*
X7787182Y-26974D01*
X7782204Y-21996D01*
G37*
G36*
X7737195Y-118008D02*
G01*
X7732217Y-125018D01*
X7732217Y-172974D01*
X7737195Y-178003D01*
X7782204Y-178003D01*
X7787182Y-172974D01*
X7787182Y-125018D01*
X7782204Y-118008D01*
G37*
G36*
X8283295Y-21996D02*
G01*
X8278317Y-26974D01*
X8278317Y-74980D01*
X8283295Y-81991D01*
X8328304Y-81991D01*
X8333282Y-74980D01*
X8333282Y-26974D01*
X8328304Y-21996D01*
G37*
G36*
X8283295Y-118008D02*
G01*
X8278317Y-125018D01*
X8278317Y-172974D01*
X8283295Y-178003D01*
X8328304Y-178003D01*
X8333282Y-172974D01*
X8333282Y-125018D01*
X8328304Y-118008D01*
G37*
G36*
X8829395Y-21996D02*
G01*
X8824417Y-26974D01*
X8824417Y-74980D01*
X8829395Y-81991D01*
X8874404Y-81991D01*
X8879382Y-74980D01*
X8879382Y-26974D01*
X8874404Y-21996D01*
G37*
G36*
X8829395Y-118008D02*
G01*
X8824417Y-125018D01*
X8824417Y-172974D01*
X8829395Y-178003D01*
X8874404Y-178003D01*
X8879382Y-172974D01*
X8879382Y-125018D01*
X8874404Y-118008D01*
G37*
G36*
X9375495Y-21996D02*
G01*
X9370517Y-26974D01*
X9370517Y-74980D01*
X9375495Y-81991D01*
X9420504Y-81991D01*
X9425482Y-74980D01*
X9425482Y-26974D01*
X9420504Y-21996D01*
G37*
G36*
X9375495Y-118008D02*
G01*
X9370517Y-125018D01*
X9370517Y-172974D01*
X9375495Y-178003D01*
X9420504Y-178003D01*
X9425482Y-172974D01*
X9425482Y-125018D01*
X9420504Y-118008D01*
G37*
G36*
X10086695Y-21996D02*
G01*
X10081717Y-26974D01*
X10081717Y-74980D01*
X10086695Y-81991D01*
X10131704Y-81991D01*
X10136682Y-74980D01*
X10136682Y-26974D01*
X10131704Y-21996D01*
G37*
G36*
X10086695Y-118008D02*
G01*
X10081717Y-125018D01*
X10081717Y-172974D01*
X10086695Y-178003D01*
X10131704Y-178003D01*
X10136682Y-172974D01*
X10136682Y-125018D01*
X10131704Y-118008D01*
G37*
G36*
X10632795Y-21996D02*
G01*
X10627817Y-26974D01*
X10627817Y-74980D01*
X10632795Y-81991D01*
X10677804Y-81991D01*
X10682782Y-74980D01*
X10682782Y-26974D01*
X10677804Y-21996D01*
G37*
G36*
X10632795Y-118008D02*
G01*
X10627817Y-125018D01*
X10627817Y-172974D01*
X10632795Y-178003D01*
X10677804Y-178003D01*
X10682782Y-172974D01*
X10682782Y-125018D01*
X10677804Y-118008D01*
G37*
G36*
X11178895Y-21996D02*
G01*
X11173917Y-26974D01*
X11173917Y-74980D01*
X11178895Y-81991D01*
X11223904Y-81991D01*
X11228882Y-74980D01*
X11228882Y-26974D01*
X11223904Y-21996D01*
G37*
G36*
X11178895Y-118008D02*
G01*
X11173917Y-125018D01*
X11173917Y-172974D01*
X11178895Y-178003D01*
X11223904Y-178003D01*
X11228882Y-172974D01*
X11228882Y-125018D01*
X11223904Y-118008D01*
G37*
G36*
X11724995Y-21996D02*
G01*
X11720017Y-26974D01*
X11720017Y-74980D01*
X11724995Y-81991D01*
X11770004Y-81991D01*
X11774982Y-74980D01*
X11774982Y-26974D01*
X11770004Y-21996D01*
G37*
G36*
X11724995Y-118008D02*
G01*
X11720017Y-125018D01*
X11720017Y-172974D01*
X11724995Y-178003D01*
X11770004Y-178003D01*
X11774982Y-172974D01*
X11774982Y-125018D01*
X11770004Y-118008D01*
G37*
G36*
X12271095Y-21996D02*
G01*
X12266117Y-26974D01*
X12266117Y-74980D01*
X12271095Y-81991D01*
X12316104Y-81991D01*
X12321082Y-74980D01*
X12321082Y-26974D01*
X12316104Y-21996D01*
G37*
G36*
X12271095Y-118008D02*
G01*
X12266117Y-125018D01*
X12266117Y-172974D01*
X12271095Y-178003D01*
X12316104Y-178003D01*
X12321082Y-172974D01*
X12321082Y-125018D01*
X12316104Y-118008D01*
G37*
G36*
X12817195Y-21996D02*
G01*
X12812217Y-26974D01*
X12812217Y-74980D01*
X12817195Y-81991D01*
X12862204Y-81991D01*
X12867182Y-74980D01*
X12867182Y-26974D01*
X12862204Y-21996D01*
G37*
G36*
X12817195Y-118008D02*
G01*
X12812217Y-125018D01*
X12812217Y-172974D01*
X12817195Y-178003D01*
X12862204Y-178003D01*
X12867182Y-172974D01*
X12867182Y-125018D01*
X12862204Y-118008D01*
G37*
G36*
X13363295Y-21996D02*
G01*
X13358317Y-26974D01*
X13358317Y-74980D01*
X13363295Y-81991D01*
X13408304Y-81991D01*
X13413282Y-74980D01*
X13413282Y-26974D01*
X13408304Y-21996D01*
G37*
G36*
X13363295Y-118008D02*
G01*
X13358317Y-125018D01*
X13358317Y-172974D01*
X13363295Y-178003D01*
X13408304Y-178003D01*
X13413282Y-172974D01*
X13413282Y-125018D01*
X13408304Y-118008D01*
G37*
G36*
X17363795Y-21996D02*
G01*
X17358817Y-26974D01*
X17358817Y-74980D01*
X17363795Y-81991D01*
X17408804Y-81991D01*
X17413782Y-74980D01*
X17413782Y-26974D01*
X17408804Y-21996D01*
G37*
G36*
X17363795Y-118008D02*
G01*
X17358817Y-125018D01*
X17358817Y-172974D01*
X17363795Y-178003D01*
X17408804Y-178003D01*
X17413782Y-172974D01*
X17413782Y-125018D01*
X17408804Y-118008D01*
G37*
G36*
X17897195Y-21996D02*
G01*
X17892217Y-26974D01*
X17892217Y-74980D01*
X17897195Y-81991D01*
X17942204Y-81991D01*
X17947182Y-74980D01*
X17947182Y-26974D01*
X17942204Y-21996D01*
G37*
G36*
X17897195Y-118008D02*
G01*
X17892217Y-125018D01*
X17892217Y-172974D01*
X17897195Y-178003D01*
X17942204Y-178003D01*
X17947182Y-172974D01*
X17947182Y-125018D01*
X17942204Y-118008D01*
G37*
G36*
X18430595Y-21996D02*
G01*
X18425617Y-26974D01*
X18425617Y-74980D01*
X18430595Y-81991D01*
X18475604Y-81991D01*
X18480582Y-74980D01*
X18480582Y-26974D01*
X18475604Y-21996D01*
G37*
G36*
X18430595Y-118008D02*
G01*
X18425617Y-125018D01*
X18425617Y-172974D01*
X18430595Y-178003D01*
X18475604Y-178003D01*
X18480582Y-172974D01*
X18480582Y-125018D01*
X18475604Y-118008D01*
G37*
G36*
X18963995Y-21996D02*
G01*
X18959017Y-26974D01*
X18959017Y-74980D01*
X18963995Y-81991D01*
X19009004Y-81991D01*
X19013982Y-74980D01*
X19013982Y-26974D01*
X19009004Y-21996D01*
G37*
G36*
X18963995Y-118008D02*
G01*
X18959017Y-125018D01*
X18959017Y-172974D01*
X18963995Y-178003D01*
X19009004Y-178003D01*
X19013982Y-172974D01*
X19013982Y-125018D01*
X19009004Y-118008D01*
G37*
G36*
X2694686Y-433019D02*
G01*
X2684678Y-442976D01*
X2684678Y-551230D01*
X2694686Y-561238D01*
X3020314Y-561238D01*
X3030321Y-551230D01*
X3030321Y-442976D01*
X3020314Y-433019D01*
X2926232Y-433019D01*
X2916275Y-442976D01*
X2916275Y-466598D01*
X2906268Y-476605D01*
X2808732Y-476605D01*
X2798724Y-466598D01*
X2798724Y-442976D01*
X2788767Y-433019D01*
G37*
G36*
X2694686Y180238D02*
G01*
X2684678Y170230D01*
X2684678Y61976D01*
X2694686Y52019D01*
X2788767Y52019D01*
X2798724Y61976D01*
X2798724Y85598D01*
X2808732Y95605D01*
X2906268Y95605D01*
X2916275Y85598D01*
X2916275Y61976D01*
X2926232Y52019D01*
X3020314Y52019D01*
X3030321Y61976D01*
X3030321Y170230D01*
X3020314Y180238D01*
G37*
G36*
X3189986Y-433019D02*
G01*
X3179978Y-442976D01*
X3179978Y-551230D01*
X3189986Y-561238D01*
X3515614Y-561238D01*
X3525621Y-551230D01*
X3525621Y-442976D01*
X3515614Y-433019D01*
X3421532Y-433019D01*
X3411575Y-442976D01*
X3411575Y-466598D01*
X3401568Y-476605D01*
X3304032Y-476605D01*
X3294024Y-466598D01*
X3294024Y-442976D01*
X3284067Y-433019D01*
G37*
G36*
X3189986Y180238D02*
G01*
X3179978Y170230D01*
X3179978Y61976D01*
X3189986Y52019D01*
X3284067Y52019D01*
X3294024Y61976D01*
X3294024Y85598D01*
X3304032Y95605D01*
X3401568Y95605D01*
X3411575Y85598D01*
X3411575Y61976D01*
X3421532Y52019D01*
X3515614Y52019D01*
X3525621Y61976D01*
X3525621Y170230D01*
X3515614Y180238D01*
G37*
G36*
X3939286Y-433019D02*
G01*
X3929278Y-442976D01*
X3929278Y-551230D01*
X3939286Y-561238D01*
X4264914Y-561238D01*
X4274921Y-551230D01*
X4274921Y-442976D01*
X4264914Y-433019D01*
X4170832Y-433019D01*
X4160875Y-442976D01*
X4160875Y-466598D01*
X4150868Y-476605D01*
X4053332Y-476605D01*
X4043324Y-466598D01*
X4043324Y-442976D01*
X4033367Y-433019D01*
G37*
G36*
X3939286Y180238D02*
G01*
X3929278Y170230D01*
X3929278Y61976D01*
X3939286Y52019D01*
X4033367Y52019D01*
X4043324Y61976D01*
X4043324Y85598D01*
X4053332Y95605D01*
X4150868Y95605D01*
X4160875Y85598D01*
X4160875Y61976D01*
X4170832Y52019D01*
X4264914Y52019D01*
X4274921Y61976D01*
X4274921Y170230D01*
X4264914Y180238D01*
G37*
G36*
X4688586Y-433019D02*
G01*
X4678578Y-442976D01*
X4678578Y-551230D01*
X4688586Y-561238D01*
X5014214Y-561238D01*
X5024221Y-551230D01*
X5024221Y-442976D01*
X5014214Y-433019D01*
X4920132Y-433019D01*
X4910175Y-442976D01*
X4910175Y-466598D01*
X4900168Y-476605D01*
X4802632Y-476605D01*
X4792624Y-466598D01*
X4792624Y-442976D01*
X4782667Y-433019D01*
G37*
G36*
X4688586Y180238D02*
G01*
X4678578Y170230D01*
X4678578Y61976D01*
X4688586Y52019D01*
X4782667Y52019D01*
X4792624Y61976D01*
X4792624Y85598D01*
X4802632Y95605D01*
X4900168Y95605D01*
X4910175Y85598D01*
X4910175Y61976D01*
X4920132Y52019D01*
X5014214Y52019D01*
X5024221Y61976D01*
X5024221Y170230D01*
X5014214Y180238D01*
G37*
G36*
X5183886Y-433019D02*
G01*
X5173878Y-442976D01*
X5173878Y-551230D01*
X5183886Y-561238D01*
X5509514Y-561238D01*
X5519521Y-551230D01*
X5519521Y-442976D01*
X5509514Y-433019D01*
X5415432Y-433019D01*
X5405475Y-442976D01*
X5405475Y-466598D01*
X5395468Y-476605D01*
X5297932Y-476605D01*
X5287924Y-466598D01*
X5287924Y-442976D01*
X5277967Y-433019D01*
G37*
G36*
X5183886Y180238D02*
G01*
X5173878Y170230D01*
X5173878Y61976D01*
X5183886Y52019D01*
X5277967Y52019D01*
X5287924Y61976D01*
X5287924Y85598D01*
X5297932Y95605D01*
X5395468Y95605D01*
X5405475Y85598D01*
X5405475Y61976D01*
X5415432Y52019D01*
X5509514Y52019D01*
X5519521Y61976D01*
X5519521Y170230D01*
X5509514Y180238D01*
G37*
G36*
X13984986Y-433019D02*
G01*
X13974978Y-442976D01*
X13974978Y-551230D01*
X13984986Y-561238D01*
X14310613Y-561238D01*
X14320621Y-551230D01*
X14320621Y-442976D01*
X14310613Y-433019D01*
X14216532Y-433019D01*
X14206575Y-442976D01*
X14206575Y-466598D01*
X14196568Y-476605D01*
X14099032Y-476605D01*
X14089024Y-466598D01*
X14089024Y-442976D01*
X14079067Y-433019D01*
G37*
G36*
X13984986Y180238D02*
G01*
X13974978Y170230D01*
X13974978Y61976D01*
X13984986Y52019D01*
X14079067Y52019D01*
X14089024Y61976D01*
X14089024Y85598D01*
X14099032Y95605D01*
X14196568Y95605D01*
X14206575Y85598D01*
X14206575Y61976D01*
X14216532Y52019D01*
X14310613Y52019D01*
X14320621Y61976D01*
X14320621Y170230D01*
X14310613Y180238D01*
G37*
G36*
X14480286Y-433019D02*
G01*
X14470278Y-442976D01*
X14470278Y-551230D01*
X14480286Y-561238D01*
X14805913Y-561238D01*
X14815921Y-551230D01*
X14815921Y-442976D01*
X14805913Y-433019D01*
X14711832Y-433019D01*
X14701875Y-442976D01*
X14701875Y-466598D01*
X14691868Y-476605D01*
X14594332Y-476605D01*
X14584324Y-466598D01*
X14584324Y-442976D01*
X14574367Y-433019D01*
G37*
G36*
X14480286Y180238D02*
G01*
X14470278Y170230D01*
X14470278Y61976D01*
X14480286Y52019D01*
X14574367Y52019D01*
X14584324Y61976D01*
X14584324Y85598D01*
X14594332Y95605D01*
X14691868Y95605D01*
X14701875Y85598D01*
X14701875Y61976D01*
X14711832Y52019D01*
X14805913Y52019D01*
X14815921Y61976D01*
X14815921Y170230D01*
X14805913Y180238D01*
G37*
G36*
X15216886Y-433019D02*
G01*
X15206878Y-442976D01*
X15206878Y-551230D01*
X15216886Y-561238D01*
X15542513Y-561238D01*
X15552521Y-551230D01*
X15552521Y-442976D01*
X15542513Y-433019D01*
X15448432Y-433019D01*
X15438475Y-442976D01*
X15438475Y-466598D01*
X15428468Y-476605D01*
X15330932Y-476605D01*
X15320924Y-466598D01*
X15320924Y-442976D01*
X15310967Y-433019D01*
G37*
G36*
X15216886Y180238D02*
G01*
X15206878Y170230D01*
X15206878Y61976D01*
X15216886Y52019D01*
X15310967Y52019D01*
X15320924Y61976D01*
X15320924Y85598D01*
X15330932Y95605D01*
X15428468Y95605D01*
X15438475Y85598D01*
X15438475Y61976D01*
X15448432Y52019D01*
X15542513Y52019D01*
X15552521Y61976D01*
X15552521Y170230D01*
X15542513Y180238D01*
G37*
G36*
X15978886Y-433019D02*
G01*
X15968878Y-442976D01*
X15968878Y-551230D01*
X15978886Y-561238D01*
X16304513Y-561238D01*
X16314521Y-551230D01*
X16314521Y-442976D01*
X16304513Y-433019D01*
X16210432Y-433019D01*
X16200475Y-442976D01*
X16200475Y-466598D01*
X16190468Y-476605D01*
X16092932Y-476605D01*
X16082924Y-466598D01*
X16082924Y-442976D01*
X16072967Y-433019D01*
G37*
G36*
X15978886Y180238D02*
G01*
X15968878Y170230D01*
X15968878Y61976D01*
X15978886Y52019D01*
X16072967Y52019D01*
X16082924Y61976D01*
X16082924Y85598D01*
X16092932Y95605D01*
X16190468Y95605D01*
X16200475Y85598D01*
X16200475Y61976D01*
X16210432Y52019D01*
X16304513Y52019D01*
X16314521Y61976D01*
X16314521Y170230D01*
X16304513Y180238D01*
G37*
G36*
X16474186Y-433019D02*
G01*
X16464178Y-442976D01*
X16464178Y-551230D01*
X16474186Y-561238D01*
X16799814Y-561238D01*
X16809821Y-551230D01*
X16809821Y-442976D01*
X16799814Y-433019D01*
X16705732Y-433019D01*
X16695775Y-442976D01*
X16695775Y-466598D01*
X16685768Y-476605D01*
X16588232Y-476605D01*
X16578224Y-466598D01*
X16578224Y-442976D01*
X16568267Y-433019D01*
G37*
G36*
X16474186Y180238D02*
G01*
X16464178Y170230D01*
X16464178Y61976D01*
X16474186Y52019D01*
X16568267Y52019D01*
X16578224Y61976D01*
X16578224Y85598D01*
X16588232Y95605D01*
X16685768Y95605D01*
X16695775Y85598D01*
X16695775Y61976D01*
X16705732Y52019D01*
X16799814Y52019D01*
X16809821Y61976D01*
X16809821Y170230D01*
X16799814Y180238D01*
G37*
D10*
G01*
X667994Y-999286D03*
G01*
X348005Y-999286D03*
G01*
X348005Y-499313D03*
G01*
X667994Y-499313D03*
G01*
X1201394Y-999286D03*
G01*
X881405Y-999286D03*
G01*
X881405Y-499313D03*
G01*
X1201394Y-499313D03*
G01*
X1734794Y-999286D03*
G01*
X1414805Y-999286D03*
G01*
X1414805Y-499313D03*
G01*
X1734794Y-499313D03*
G01*
X2268194Y-999286D03*
G01*
X1948205Y-999286D03*
G01*
X1948205Y-499313D03*
G01*
X2268194Y-499313D03*
G01*
X6281394Y-999286D03*
G01*
X5961405Y-999286D03*
G01*
X5961405Y-499313D03*
G01*
X6281394Y-499313D03*
G01*
X6827494Y-999286D03*
G01*
X6507505Y-999286D03*
G01*
X6507505Y-499313D03*
G01*
X6827494Y-499313D03*
G01*
X7373594Y-999286D03*
G01*
X7053605Y-999286D03*
G01*
X7053605Y-499313D03*
G01*
X7373594Y-499313D03*
G01*
X7919694Y-999286D03*
G01*
X7599705Y-999286D03*
G01*
X7599705Y-499313D03*
G01*
X7919694Y-499313D03*
G01*
X8465794Y-999286D03*
G01*
X8145805Y-999286D03*
G01*
X8145805Y-499313D03*
G01*
X8465794Y-499313D03*
G01*
X9011894Y-999286D03*
G01*
X8691905Y-999286D03*
G01*
X8691905Y-499313D03*
G01*
X9011894Y-499313D03*
G01*
X9557994Y-999286D03*
G01*
X9238005Y-999286D03*
G01*
X9238005Y-499313D03*
G01*
X9557994Y-499313D03*
G01*
X10269194Y-999286D03*
G01*
X9949205Y-999286D03*
G01*
X9949205Y-499313D03*
G01*
X10269194Y-499313D03*
G01*
X10815294Y-999286D03*
G01*
X10495305Y-999286D03*
G01*
X10495305Y-499313D03*
G01*
X10815294Y-499313D03*
G01*
X11361394Y-999286D03*
G01*
X11041405Y-999286D03*
G01*
X11041405Y-499313D03*
G01*
X11361394Y-499313D03*
G01*
X11907494Y-999286D03*
G01*
X11587505Y-999286D03*
G01*
X11587505Y-499313D03*
G01*
X11907494Y-499313D03*
G01*
X12453594Y-999286D03*
G01*
X12133605Y-999286D03*
G01*
X12133605Y-499313D03*
G01*
X12453594Y-499313D03*
G01*
X12999694Y-999286D03*
G01*
X12679705Y-999286D03*
G01*
X12679705Y-499313D03*
G01*
X12999694Y-499313D03*
G01*
X13545794Y-999286D03*
G01*
X13225805Y-999286D03*
G01*
X13225805Y-499313D03*
G01*
X13545794Y-499313D03*
G01*
X17546294Y-999286D03*
G01*
X17226305Y-999286D03*
G01*
X17226305Y-499313D03*
G01*
X17546294Y-499313D03*
G01*
X18079694Y-999286D03*
G01*
X17759705Y-999286D03*
G01*
X17759705Y-499313D03*
G01*
X18079694Y-499313D03*
G01*
X18613094Y-999286D03*
G01*
X18293105Y-999286D03*
G01*
X18293105Y-499313D03*
G01*
X18613094Y-499313D03*
G01*
X19146494Y-999286D03*
G01*
X18826505Y-999286D03*
G01*
X18826505Y-499313D03*
G01*
X19146494Y-499313D03*
D11*
G01*
X292100Y-101600D03*
D12*
G01*
X2857500Y-676147D03*
D13*
G01*
X2857500Y-898652D03*
D12*
G01*
X3352800Y-676147D03*
D13*
G01*
X3352800Y-898652D03*
D12*
G01*
X4102100Y-704011D03*
D13*
G01*
X4102100Y-926515D03*
D12*
G01*
X4851400Y-676147D03*
D13*
G01*
X4851400Y-898652D03*
D12*
G01*
X5346700Y-676147D03*
D13*
G01*
X5346700Y-898652D03*
D12*
G01*
X14147800Y-676147D03*
D13*
G01*
X14147800Y-898652D03*
D12*
G01*
X14643100Y-676147D03*
D13*
G01*
X14643100Y-898652D03*
D12*
G01*
X15379700Y-676147D03*
D13*
G01*
X15379700Y-898652D03*
D12*
G01*
X16141700Y-676147D03*
D13*
G01*
X16141700Y-898652D03*
D12*
G01*
X16637000Y-676147D03*
D13*
G01*
X16637000Y-898652D03*
M02*
