G04 Layer: TopLayer*
G04 EasyEDA v6.5.44, 2024-08-25 02:09:30*
G04 b6d350bfa83344e8a21db83960d40df2,c23a61fc8c4145e6967fd80801f93d45,10*
G04 Gerber Generator version 0.2*
G04 Scale: 100 percent, Rotated: No, Reflected: No *
G04 Dimensions in millimeters *
G04 leading zeros omitted , absolute positions ,4 integer and 5 decimal *
%FSLAX45Y45*%
%MOMM*%

%AMMACRO1*21,1,$1,$2,0,0,$3*%
%ADD10C,0.8000*%
%ADD11C,1.0000*%
%ADD12MACRO1,0.864X0.8065X-90.0000*%
%ADD13MACRO1,0.864X0.8065X0.0000*%
%ADD14R,0.8640X0.8065*%
%ADD15MACRO1,0.54X0.7901X0.0000*%
%ADD16R,0.5400X0.7901*%
%ADD17R,1.0000X1.8000*%
%ADD18MACRO1,3.456X1.2825X0.0000*%
%ADD19R,3.4560X1.2825*%
%ADD20R,5.0000X1.8000*%
%ADD21R,2.2000X1.2500*%
%ADD22R,2.2000X2.2000*%
%ADD23C,0.6200*%
%ADD24C,0.6100*%
%ADD25C,0.0104*%

%LPD*%
G36*
X2530703Y-114300D02*
G01*
X2527452Y-113792D01*
X2524607Y-112268D01*
X2480564Y-79248D01*
X2478379Y-77012D01*
X2476957Y-74218D01*
X2476500Y-71120D01*
X2476500Y110083D01*
X2477262Y113995D01*
X2479497Y117297D01*
X2537002Y174802D01*
X2540304Y177038D01*
X2544216Y177800D01*
X2648610Y177800D01*
X2652522Y177038D01*
X2655824Y174802D01*
X2658008Y171551D01*
X2658770Y167640D01*
X2658770Y154533D01*
X2764739Y154533D01*
X2764739Y167640D01*
X2765501Y171551D01*
X2767736Y174802D01*
X2771038Y177038D01*
X2774899Y177800D01*
X2940100Y177800D01*
X2943961Y177038D01*
X2947263Y174802D01*
X2949498Y171551D01*
X2950260Y167640D01*
X2950260Y154533D01*
X3056229Y154533D01*
X3056229Y167640D01*
X3056991Y171551D01*
X3059176Y174802D01*
X3062478Y177038D01*
X3066389Y177800D01*
X3143910Y177800D01*
X3147822Y177038D01*
X3151124Y174802D01*
X3153308Y171551D01*
X3154070Y167640D01*
X3154070Y154533D01*
X3260039Y154533D01*
X3260039Y167640D01*
X3260801Y171551D01*
X3263036Y174802D01*
X3266338Y177038D01*
X3270199Y177800D01*
X3435400Y177800D01*
X3439261Y177038D01*
X3442563Y174802D01*
X3444798Y171551D01*
X3445560Y167640D01*
X3445560Y154533D01*
X3551529Y154533D01*
X3551529Y167640D01*
X3552291Y171551D01*
X3554476Y174802D01*
X3557778Y177038D01*
X3561689Y177800D01*
X3893210Y177800D01*
X3897122Y177038D01*
X3900424Y174802D01*
X3902608Y171551D01*
X3903370Y167640D01*
X3903370Y154533D01*
X4009339Y154533D01*
X4009339Y167640D01*
X4010101Y171551D01*
X4012336Y174802D01*
X4015638Y177038D01*
X4019499Y177800D01*
X4184700Y177800D01*
X4188561Y177038D01*
X4191863Y174802D01*
X4194098Y171551D01*
X4194860Y167640D01*
X4194860Y154533D01*
X4300829Y154533D01*
X4300829Y167640D01*
X4301591Y171551D01*
X4303776Y174802D01*
X4307078Y177038D01*
X4310989Y177800D01*
X4642510Y177800D01*
X4646422Y177038D01*
X4649724Y174802D01*
X4651908Y171551D01*
X4652670Y167640D01*
X4652670Y154533D01*
X4758639Y154533D01*
X4758639Y167640D01*
X4759401Y171551D01*
X4761636Y174802D01*
X4764938Y177038D01*
X4768799Y177800D01*
X4934000Y177800D01*
X4937861Y177038D01*
X4941163Y174802D01*
X4943398Y171551D01*
X4944160Y167640D01*
X4944160Y154533D01*
X5050129Y154533D01*
X5050129Y167640D01*
X5050891Y171551D01*
X5053076Y174802D01*
X5056378Y177038D01*
X5060289Y177800D01*
X5137810Y177800D01*
X5141722Y177038D01*
X5145024Y174802D01*
X5147208Y171551D01*
X5147970Y167640D01*
X5147970Y154533D01*
X5253939Y154533D01*
X5253939Y167640D01*
X5254701Y171551D01*
X5256936Y174802D01*
X5260238Y177038D01*
X5264099Y177800D01*
X5429300Y177800D01*
X5433161Y177038D01*
X5436463Y174802D01*
X5438698Y171551D01*
X5439460Y167640D01*
X5439460Y154533D01*
X5545429Y154533D01*
X5545429Y167640D01*
X5546191Y171551D01*
X5548376Y174802D01*
X5551678Y177038D01*
X5555589Y177800D01*
X5659983Y177800D01*
X5663895Y177038D01*
X5667197Y174802D01*
X5724702Y117297D01*
X5726938Y113995D01*
X5727700Y110083D01*
X5727700Y-71120D01*
X5727242Y-74218D01*
X5725820Y-77012D01*
X5723636Y-79248D01*
X5679592Y-112268D01*
X5676747Y-113792D01*
X5673496Y-114300D01*
G37*

%LPC*%
G36*
X4194860Y26111D02*
G01*
X4274312Y26111D01*
X4280662Y26822D01*
X4286097Y28702D01*
X4291025Y31800D01*
X4295089Y35864D01*
X4298188Y40792D01*
X4300118Y46228D01*
X4300829Y52578D01*
X4300829Y77724D01*
X4194860Y77724D01*
G37*
G36*
X3929887Y26111D02*
G01*
X4009339Y26111D01*
X4009339Y77724D01*
X3903370Y77724D01*
X3903370Y52578D01*
X3904081Y46228D01*
X3906012Y40792D01*
X3909110Y35864D01*
X3913174Y31800D01*
X3918102Y28702D01*
X3923537Y26822D01*
G37*
G36*
X4679188Y26111D02*
G01*
X4758639Y26111D01*
X4758639Y77724D01*
X4652670Y77724D01*
X4652670Y52578D01*
X4653381Y46228D01*
X4655312Y40792D01*
X4658410Y35864D01*
X4662474Y31800D01*
X4667402Y28702D01*
X4672838Y26822D01*
G37*
G36*
X3445560Y26111D02*
G01*
X3525012Y26111D01*
X3531362Y26822D01*
X3536797Y28702D01*
X3541725Y31800D01*
X3545789Y35864D01*
X3548887Y40792D01*
X3550818Y46228D01*
X3551529Y52578D01*
X3551529Y77724D01*
X3445560Y77724D01*
G37*
G36*
X4944160Y26111D02*
G01*
X5023612Y26111D01*
X5029962Y26822D01*
X5035397Y28702D01*
X5040325Y31800D01*
X5044389Y35864D01*
X5047488Y40792D01*
X5049418Y46228D01*
X5050129Y52578D01*
X5050129Y77724D01*
X4944160Y77724D01*
G37*
G36*
X3180588Y26111D02*
G01*
X3260039Y26111D01*
X3260039Y77724D01*
X3154070Y77724D01*
X3154070Y52578D01*
X3154781Y46228D01*
X3156712Y40792D01*
X3159810Y35864D01*
X3163874Y31800D01*
X3168802Y28702D01*
X3174238Y26822D01*
G37*
G36*
X5174488Y26111D02*
G01*
X5253939Y26111D01*
X5253939Y77724D01*
X5147970Y77724D01*
X5147970Y52578D01*
X5148681Y46228D01*
X5150612Y40792D01*
X5153710Y35864D01*
X5157774Y31800D01*
X5162702Y28702D01*
X5168138Y26822D01*
G37*
G36*
X2950260Y26111D02*
G01*
X3029712Y26111D01*
X3036062Y26822D01*
X3041497Y28702D01*
X3046425Y31800D01*
X3050489Y35864D01*
X3053588Y40792D01*
X3055518Y46228D01*
X3056229Y52578D01*
X3056229Y77724D01*
X2950260Y77724D01*
G37*
G36*
X5439460Y26111D02*
G01*
X5518912Y26111D01*
X5525262Y26822D01*
X5530697Y28702D01*
X5535625Y31800D01*
X5539689Y35864D01*
X5542788Y40792D01*
X5544718Y46228D01*
X5545429Y52578D01*
X5545429Y77724D01*
X5439460Y77724D01*
G37*
G36*
X2685288Y26111D02*
G01*
X2764739Y26111D01*
X2764739Y77724D01*
X2658770Y77724D01*
X2658770Y52578D01*
X2659481Y46228D01*
X2661412Y40792D01*
X2664510Y35864D01*
X2668574Y31800D01*
X2673502Y28702D01*
X2678938Y26822D01*
G37*

%LPD*%
G36*
X13821816Y-127000D02*
G01*
X13817904Y-126237D01*
X13814602Y-124002D01*
X13769797Y-79197D01*
X13767562Y-75895D01*
X13766800Y-71983D01*
X13766800Y110083D01*
X13767562Y113995D01*
X13769797Y117297D01*
X13827302Y174802D01*
X13830604Y177038D01*
X13834516Y177800D01*
X13938910Y177800D01*
X13942822Y177038D01*
X13946124Y174802D01*
X13948308Y171551D01*
X13949070Y167640D01*
X13949070Y154533D01*
X14055039Y154533D01*
X14055039Y167640D01*
X14055801Y171551D01*
X14058036Y174802D01*
X14061338Y177038D01*
X14065199Y177800D01*
X14230400Y177800D01*
X14234261Y177038D01*
X14237563Y174802D01*
X14239798Y171551D01*
X14240560Y167640D01*
X14240560Y154533D01*
X14346529Y154533D01*
X14346529Y167640D01*
X14347291Y171551D01*
X14349476Y174802D01*
X14352778Y177038D01*
X14356689Y177800D01*
X14434210Y177800D01*
X14438122Y177038D01*
X14441424Y174802D01*
X14443608Y171551D01*
X14444370Y167640D01*
X14444370Y154533D01*
X14550339Y154533D01*
X14550339Y167640D01*
X14551101Y171551D01*
X14553336Y174802D01*
X14556638Y177038D01*
X14560499Y177800D01*
X14725700Y177800D01*
X14729561Y177038D01*
X14732863Y174802D01*
X14735098Y171551D01*
X14735860Y167640D01*
X14735860Y154533D01*
X14841829Y154533D01*
X14841829Y167640D01*
X14842591Y171551D01*
X14844776Y174802D01*
X14848078Y177038D01*
X14851989Y177800D01*
X15170810Y177800D01*
X15174722Y177038D01*
X15178024Y174802D01*
X15180208Y171551D01*
X15180970Y167640D01*
X15180970Y154533D01*
X15286939Y154533D01*
X15286939Y167640D01*
X15287701Y171551D01*
X15289936Y174802D01*
X15293238Y177038D01*
X15297099Y177800D01*
X15462300Y177800D01*
X15466161Y177038D01*
X15469463Y174802D01*
X15471698Y171551D01*
X15472460Y167640D01*
X15472460Y154533D01*
X15578429Y154533D01*
X15578429Y167640D01*
X15579191Y171551D01*
X15581376Y174802D01*
X15584678Y177038D01*
X15588589Y177800D01*
X15932810Y177800D01*
X15936722Y177038D01*
X15940024Y174802D01*
X15942208Y171551D01*
X15942970Y167640D01*
X15942970Y154533D01*
X16048939Y154533D01*
X16048939Y167640D01*
X16049701Y171551D01*
X16051936Y174802D01*
X16055238Y177038D01*
X16059099Y177800D01*
X16224300Y177800D01*
X16228161Y177038D01*
X16231463Y174802D01*
X16233698Y171551D01*
X16234460Y167640D01*
X16234460Y154533D01*
X16340429Y154533D01*
X16340429Y167640D01*
X16341191Y171551D01*
X16343376Y174802D01*
X16346678Y177038D01*
X16350589Y177800D01*
X16428110Y177800D01*
X16432022Y177038D01*
X16435324Y174802D01*
X16437508Y171551D01*
X16438270Y167640D01*
X16438270Y154533D01*
X16544239Y154533D01*
X16544239Y167640D01*
X16545001Y171551D01*
X16547236Y174802D01*
X16550538Y177038D01*
X16554399Y177800D01*
X16719600Y177800D01*
X16723461Y177038D01*
X16726763Y174802D01*
X16728998Y171551D01*
X16729760Y167640D01*
X16729760Y154533D01*
X16835729Y154533D01*
X16835729Y167640D01*
X16836491Y171551D01*
X16838676Y174802D01*
X16841978Y177038D01*
X16845889Y177800D01*
X16950283Y177800D01*
X16954195Y177038D01*
X16957497Y174802D01*
X17015002Y117297D01*
X17017238Y113995D01*
X17018000Y110083D01*
X17018000Y-71120D01*
X17017542Y-74218D01*
X17016120Y-77012D01*
X17013936Y-79248D01*
X16969892Y-112268D01*
X16967047Y-113792D01*
X16963847Y-114300D01*
G37*

%LPC*%
G36*
X15472460Y26111D02*
G01*
X15551912Y26111D01*
X15558262Y26822D01*
X15563697Y28702D01*
X15568625Y31800D01*
X15572689Y35864D01*
X15575788Y40792D01*
X15577718Y46228D01*
X15578429Y52578D01*
X15578429Y77724D01*
X15472460Y77724D01*
G37*
G36*
X15207488Y26111D02*
G01*
X15286939Y26111D01*
X15286939Y77724D01*
X15180970Y77724D01*
X15180970Y52578D01*
X15181681Y46228D01*
X15183612Y40792D01*
X15186710Y35864D01*
X15190774Y31800D01*
X15195702Y28702D01*
X15201138Y26822D01*
G37*
G36*
X15969488Y26111D02*
G01*
X16048939Y26111D01*
X16048939Y77724D01*
X15942970Y77724D01*
X15942970Y52578D01*
X15943681Y46228D01*
X15945612Y40792D01*
X15948710Y35864D01*
X15952774Y31800D01*
X15957702Y28702D01*
X15963138Y26822D01*
G37*
G36*
X14735860Y26111D02*
G01*
X14815312Y26111D01*
X14821662Y26822D01*
X14827097Y28702D01*
X14832025Y31800D01*
X14836089Y35864D01*
X14839188Y40792D01*
X14841118Y46228D01*
X14841829Y52578D01*
X14841829Y77724D01*
X14735860Y77724D01*
G37*
G36*
X16234460Y26111D02*
G01*
X16313912Y26111D01*
X16320262Y26822D01*
X16325697Y28702D01*
X16330625Y31800D01*
X16334689Y35864D01*
X16337788Y40792D01*
X16339718Y46228D01*
X16340429Y52578D01*
X16340429Y77724D01*
X16234460Y77724D01*
G37*
G36*
X14470888Y26111D02*
G01*
X14550339Y26111D01*
X14550339Y77724D01*
X14444370Y77724D01*
X14444370Y52578D01*
X14445081Y46228D01*
X14447012Y40792D01*
X14450110Y35864D01*
X14454174Y31800D01*
X14459102Y28702D01*
X14464538Y26822D01*
G37*
G36*
X16464788Y26111D02*
G01*
X16544239Y26111D01*
X16544239Y77724D01*
X16438270Y77724D01*
X16438270Y52578D01*
X16438981Y46228D01*
X16440912Y40792D01*
X16444010Y35864D01*
X16448074Y31800D01*
X16453002Y28702D01*
X16458438Y26822D01*
G37*
G36*
X14240560Y26111D02*
G01*
X14320012Y26111D01*
X14326362Y26822D01*
X14331797Y28702D01*
X14336725Y31800D01*
X14340789Y35864D01*
X14343888Y40792D01*
X14345818Y46228D01*
X14346529Y52578D01*
X14346529Y77724D01*
X14240560Y77724D01*
G37*
G36*
X16729760Y26111D02*
G01*
X16809212Y26111D01*
X16815562Y26822D01*
X16820997Y28702D01*
X16825925Y31800D01*
X16829989Y35864D01*
X16833088Y40792D01*
X16835018Y46228D01*
X16835729Y52578D01*
X16835729Y77724D01*
X16729760Y77724D01*
G37*
G36*
X13975588Y26111D02*
G01*
X14055039Y26111D01*
X14055039Y77724D01*
X13949070Y77724D01*
X13949070Y52578D01*
X13949781Y46228D01*
X13951712Y40792D01*
X13954810Y35864D01*
X13958874Y31800D01*
X13963802Y28702D01*
X13969238Y26822D01*
G37*

%LPD*%
G36*
X433476Y-1104900D02*
G01*
X429310Y-1104036D01*
X425907Y-1101496D01*
X423773Y-1097838D01*
X423367Y-1093622D01*
X423926Y-1088745D01*
X423926Y-909878D01*
X423214Y-903528D01*
X421284Y-898093D01*
X418185Y-893216D01*
X416864Y-891844D01*
X414680Y-888542D01*
X413867Y-884682D01*
X413867Y-775716D01*
X414680Y-771855D01*
X416864Y-768553D01*
X554329Y-631088D01*
X561289Y-622909D01*
X566674Y-614121D01*
X570636Y-604570D01*
X572922Y-595020D01*
X574802Y-591108D01*
X578154Y-588365D01*
X582320Y-587197D01*
X586587Y-587908D01*
X590143Y-590346D01*
X592429Y-594004D01*
X594715Y-600506D01*
X597763Y-605434D01*
X601878Y-609498D01*
X606755Y-612597D01*
X612241Y-614476D01*
X618540Y-615238D01*
X636625Y-615238D01*
X636625Y-550672D01*
X584047Y-550672D01*
X580186Y-549859D01*
X576884Y-547674D01*
X574700Y-544372D01*
X573887Y-540512D01*
X573887Y-458114D01*
X574700Y-454202D01*
X576884Y-450951D01*
X580186Y-448716D01*
X584047Y-447954D01*
X636625Y-447954D01*
X636625Y-383387D01*
X618540Y-383387D01*
X612241Y-384098D01*
X606755Y-386029D01*
X601878Y-389077D01*
X597763Y-393192D01*
X594715Y-398068D01*
X593648Y-401066D01*
X591566Y-404520D01*
X588314Y-406908D01*
X584403Y-407873D01*
X580390Y-407162D01*
X576986Y-404977D01*
X574700Y-401675D01*
X573887Y-397713D01*
X573887Y-343306D01*
X573074Y-332587D01*
X570636Y-322529D01*
X566674Y-312978D01*
X561543Y-304546D01*
X560578Y-302564D01*
X558139Y-295402D01*
X557580Y-292100D01*
X558139Y-288747D01*
X560171Y-282854D01*
X560933Y-276504D01*
X560933Y-263702D01*
X527862Y-263702D01*
X527862Y-267614D01*
X526999Y-271678D01*
X524611Y-275031D01*
X521004Y-277215D01*
X516890Y-277723D01*
X508000Y-277012D01*
X499109Y-277723D01*
X494995Y-277215D01*
X491388Y-275031D01*
X489000Y-271678D01*
X488137Y-267614D01*
X488137Y-263702D01*
X455117Y-263702D01*
X455117Y-276504D01*
X455828Y-282854D01*
X457860Y-288747D01*
X458419Y-292100D01*
X457860Y-295452D01*
X455422Y-302412D01*
X454507Y-304342D01*
X449326Y-312978D01*
X445363Y-322529D01*
X442925Y-332587D01*
X442112Y-343306D01*
X442112Y-397764D01*
X441299Y-401726D01*
X439013Y-405028D01*
X435609Y-407212D01*
X431596Y-407924D01*
X427685Y-406958D01*
X424434Y-404571D01*
X422351Y-401116D01*
X421284Y-398068D01*
X418185Y-393192D01*
X414121Y-389077D01*
X409194Y-386029D01*
X403758Y-384098D01*
X397408Y-383387D01*
X302768Y-383387D01*
X298856Y-382625D01*
X295605Y-380441D01*
X293370Y-377139D01*
X292608Y-373227D01*
X292608Y-330758D01*
X291896Y-324459D01*
X289966Y-318973D01*
X286918Y-314096D01*
X282803Y-309981D01*
X277926Y-306933D01*
X272440Y-305003D01*
X266141Y-304292D01*
X64058Y-304292D01*
X57759Y-305003D01*
X52273Y-306933D01*
X47396Y-309981D01*
X43230Y-314147D01*
X39979Y-316331D01*
X36068Y-317093D01*
X32156Y-316331D01*
X28905Y-314147D01*
X26670Y-310845D01*
X25908Y-306933D01*
X25908Y-226974D01*
X26771Y-222859D01*
X29311Y-219405D01*
X32969Y-217322D01*
X37185Y-216916D01*
X42672Y-217525D01*
X160731Y-217525D01*
X160731Y-152958D01*
X36068Y-152958D01*
X32156Y-152196D01*
X28905Y-149961D01*
X26670Y-146659D01*
X25908Y-142798D01*
X25908Y-60401D01*
X26670Y-56540D01*
X28905Y-53238D01*
X32156Y-51003D01*
X36068Y-50241D01*
X160731Y-50241D01*
X160731Y14325D01*
X42672Y14325D01*
X37541Y14579D01*
X33934Y16560D01*
X31394Y19761D01*
X30327Y23774D01*
X30988Y27838D01*
X33020Y32969D01*
X38150Y42214D01*
X44551Y50596D01*
X52120Y57962D01*
X60604Y64211D01*
X69951Y69189D01*
X79857Y72796D01*
X90170Y74930D01*
X101244Y75692D01*
X2415489Y75692D01*
X2421636Y74472D01*
X2427528Y74371D01*
X2431592Y73812D01*
X2435148Y71678D01*
X2437536Y68275D01*
X2438400Y64262D01*
X2438400Y-100330D01*
X2439162Y-102209D01*
X2501138Y-151790D01*
X2502611Y-152400D01*
X5701284Y-152400D01*
X5702858Y-151942D01*
X5764784Y-102412D01*
X5765800Y-100584D01*
X5765800Y64363D01*
X5766663Y68478D01*
X5769051Y71831D01*
X5772658Y73964D01*
X5776772Y74523D01*
X5780938Y74168D01*
X13715288Y74168D01*
X13717320Y74422D01*
X13721588Y74015D01*
X13725296Y71932D01*
X13727785Y68478D01*
X13728700Y64312D01*
X13728700Y-100584D01*
X13729411Y-102311D01*
X13791488Y-164388D01*
X13793216Y-165100D01*
X16991584Y-152400D01*
X16993158Y-151942D01*
X17055084Y-102412D01*
X17056100Y-100584D01*
X17056100Y64414D01*
X17056963Y68478D01*
X17059351Y71831D01*
X17062907Y74015D01*
X17067022Y74523D01*
X17071644Y74168D01*
X19398488Y74168D01*
X19411137Y73152D01*
X19421500Y70764D01*
X19431355Y67005D01*
X19440550Y61823D01*
X19448932Y55422D01*
X19456349Y47904D01*
X19462597Y39370D01*
X19467576Y30073D01*
X19471132Y20167D01*
X19473265Y9804D01*
X19474078Y-1219D01*
X19474078Y-1094740D01*
X19473265Y-1098651D01*
X19471081Y-1101902D01*
X19467779Y-1104138D01*
X19463918Y-1104900D01*
X19231914Y-1104900D01*
X19227800Y-1104036D01*
X19224345Y-1101496D01*
X19222262Y-1097838D01*
X19221856Y-1093622D01*
X19222364Y-1088745D01*
X19222364Y-909878D01*
X19221653Y-903528D01*
X19219773Y-898093D01*
X19216674Y-893216D01*
X19212610Y-889101D01*
X19207683Y-886002D01*
X19202247Y-884123D01*
X19195897Y-883412D01*
X19097040Y-883412D01*
X19090741Y-884123D01*
X19085255Y-886002D01*
X19080378Y-889101D01*
X19076263Y-893216D01*
X19073215Y-898093D01*
X19071285Y-903528D01*
X19070574Y-909878D01*
X19070574Y-1088745D01*
X19071132Y-1093622D01*
X19070726Y-1097838D01*
X19068592Y-1101496D01*
X19065189Y-1104036D01*
X19061023Y-1104900D01*
X18911976Y-1104900D01*
X18907810Y-1104036D01*
X18904407Y-1101496D01*
X18902273Y-1097838D01*
X18901867Y-1093622D01*
X18902426Y-1088745D01*
X18902426Y-909878D01*
X18901714Y-903528D01*
X18899784Y-898093D01*
X18896482Y-892860D01*
X18895212Y-889711D01*
X18895009Y-886307D01*
X18895974Y-883056D01*
X18897904Y-880262D01*
X19032829Y-745388D01*
X19039789Y-737209D01*
X19045174Y-728421D01*
X19049136Y-718870D01*
X19051574Y-708812D01*
X19052387Y-698093D01*
X19052387Y-600913D01*
X19053200Y-596950D01*
X19055486Y-593598D01*
X19058890Y-591464D01*
X19062903Y-590753D01*
X19066814Y-591718D01*
X19070066Y-594106D01*
X19072148Y-597560D01*
X19073215Y-600506D01*
X19076263Y-605434D01*
X19080378Y-609498D01*
X19085255Y-612597D01*
X19090741Y-614476D01*
X19097040Y-615238D01*
X19115125Y-615238D01*
X19115125Y-550672D01*
X19062547Y-550672D01*
X19058686Y-549859D01*
X19055384Y-547674D01*
X19053200Y-544372D01*
X19052387Y-540512D01*
X19052387Y-458114D01*
X19053200Y-454202D01*
X19055384Y-450951D01*
X19058686Y-448716D01*
X19062547Y-447954D01*
X19115125Y-447954D01*
X19115125Y-391668D01*
X19115887Y-387756D01*
X19118122Y-384505D01*
X19121374Y-382270D01*
X19125285Y-381508D01*
X19163741Y-381508D01*
X19166535Y-381203D01*
X19170751Y-381609D01*
X19174460Y-383692D01*
X19176949Y-387146D01*
X19177812Y-391312D01*
X19177812Y-447954D01*
X19222364Y-447954D01*
X19222364Y-409854D01*
X19221653Y-403555D01*
X19219773Y-398068D01*
X19216674Y-393192D01*
X19212610Y-389077D01*
X19207683Y-386029D01*
X19202298Y-384149D01*
X19194526Y-383336D01*
X19190614Y-382117D01*
X19187515Y-379425D01*
X19185686Y-375767D01*
X19185483Y-371652D01*
X19187566Y-366826D01*
X19189496Y-361340D01*
X19190208Y-355041D01*
X19190208Y-114858D01*
X19189496Y-108559D01*
X19187566Y-103073D01*
X19184518Y-98196D01*
X19180403Y-94081D01*
X19175526Y-91033D01*
X19170040Y-89103D01*
X19163741Y-88392D01*
X19049593Y-88392D01*
X19045682Y-87630D01*
X19042380Y-85394D01*
X19040195Y-82143D01*
X19039433Y-78232D01*
X19039433Y-71577D01*
X19006362Y-71577D01*
X19006362Y-78232D01*
X19005600Y-82143D01*
X19003365Y-85394D01*
X19000063Y-87630D01*
X18996202Y-88392D01*
X18976797Y-88392D01*
X18972936Y-87630D01*
X18969634Y-85394D01*
X18967399Y-82143D01*
X18966637Y-78232D01*
X18966637Y-71577D01*
X18933617Y-71577D01*
X18933617Y-78232D01*
X18932804Y-82143D01*
X18930620Y-85394D01*
X18927318Y-87630D01*
X18923457Y-88392D01*
X18809258Y-88392D01*
X18802959Y-89103D01*
X18797473Y-91033D01*
X18792596Y-94081D01*
X18788481Y-98196D01*
X18785433Y-103073D01*
X18783503Y-108559D01*
X18782792Y-114858D01*
X18782792Y-355041D01*
X18783503Y-361340D01*
X18785433Y-366826D01*
X18787516Y-371652D01*
X18787313Y-375767D01*
X18785484Y-379425D01*
X18782385Y-382117D01*
X18778474Y-383336D01*
X18770701Y-384149D01*
X18765266Y-386029D01*
X18760389Y-389077D01*
X18756274Y-393192D01*
X18753226Y-398068D01*
X18751296Y-403555D01*
X18750584Y-409854D01*
X18750584Y-606958D01*
X18749822Y-610870D01*
X18747587Y-614172D01*
X18557595Y-804214D01*
X18550534Y-813053D01*
X18545911Y-820674D01*
X18544794Y-822858D01*
X18541390Y-831087D01*
X18540628Y-833424D01*
X18538494Y-842060D01*
X18538088Y-844499D01*
X18537275Y-853338D01*
X18537174Y-1088745D01*
X18537732Y-1093622D01*
X18537326Y-1097838D01*
X18535192Y-1101496D01*
X18531789Y-1104036D01*
X18527623Y-1104900D01*
X18378576Y-1104900D01*
X18374410Y-1104036D01*
X18371007Y-1101496D01*
X18368873Y-1097838D01*
X18368467Y-1093622D01*
X18369026Y-1088745D01*
X18369026Y-909878D01*
X18368314Y-903528D01*
X18366384Y-898093D01*
X18363082Y-892860D01*
X18361812Y-889711D01*
X18361609Y-886307D01*
X18362574Y-883056D01*
X18364504Y-880262D01*
X18499429Y-745388D01*
X18506389Y-737209D01*
X18511774Y-728421D01*
X18515736Y-718870D01*
X18518174Y-708812D01*
X18518987Y-698093D01*
X18518987Y-600913D01*
X18519800Y-596950D01*
X18522086Y-593598D01*
X18525490Y-591464D01*
X18529503Y-590753D01*
X18533414Y-591718D01*
X18536666Y-594106D01*
X18538748Y-597560D01*
X18539815Y-600506D01*
X18542863Y-605434D01*
X18546978Y-609498D01*
X18551855Y-612597D01*
X18557341Y-614476D01*
X18563640Y-615238D01*
X18581725Y-615238D01*
X18581725Y-550672D01*
X18529147Y-550672D01*
X18525286Y-549859D01*
X18521984Y-547674D01*
X18519800Y-544372D01*
X18518987Y-540512D01*
X18518987Y-458114D01*
X18519800Y-454202D01*
X18521984Y-450951D01*
X18525286Y-448716D01*
X18529147Y-447954D01*
X18581725Y-447954D01*
X18581725Y-391668D01*
X18582487Y-387756D01*
X18584722Y-384505D01*
X18587974Y-382270D01*
X18591885Y-381508D01*
X18630341Y-381508D01*
X18633135Y-381203D01*
X18637351Y-381609D01*
X18641060Y-383692D01*
X18643549Y-387146D01*
X18644412Y-391312D01*
X18644412Y-447954D01*
X18688964Y-447954D01*
X18688964Y-409854D01*
X18688253Y-403555D01*
X18686373Y-398068D01*
X18683274Y-393192D01*
X18679210Y-389077D01*
X18674283Y-386029D01*
X18668898Y-384149D01*
X18661126Y-383336D01*
X18657214Y-382117D01*
X18654115Y-379425D01*
X18652286Y-375767D01*
X18652083Y-371652D01*
X18654166Y-366826D01*
X18656096Y-361340D01*
X18656808Y-355041D01*
X18656808Y-114858D01*
X18656096Y-108559D01*
X18654166Y-103073D01*
X18651118Y-98196D01*
X18647003Y-94081D01*
X18642126Y-91033D01*
X18636640Y-89103D01*
X18630341Y-88392D01*
X18516193Y-88392D01*
X18512282Y-87630D01*
X18508980Y-85394D01*
X18506795Y-82143D01*
X18506033Y-78232D01*
X18506033Y-71577D01*
X18472962Y-71577D01*
X18472962Y-78232D01*
X18472200Y-82143D01*
X18469965Y-85394D01*
X18466663Y-87630D01*
X18462802Y-88392D01*
X18443397Y-88392D01*
X18439536Y-87630D01*
X18436234Y-85394D01*
X18433999Y-82143D01*
X18433237Y-78232D01*
X18433237Y-71577D01*
X18400217Y-71577D01*
X18400217Y-78232D01*
X18399404Y-82143D01*
X18397220Y-85394D01*
X18393918Y-87630D01*
X18390057Y-88392D01*
X18275858Y-88392D01*
X18269559Y-89103D01*
X18264073Y-91033D01*
X18259196Y-94081D01*
X18255081Y-98196D01*
X18252033Y-103073D01*
X18250103Y-108559D01*
X18249392Y-114858D01*
X18249392Y-355041D01*
X18250103Y-361340D01*
X18252033Y-366826D01*
X18254116Y-371652D01*
X18253913Y-375767D01*
X18252084Y-379425D01*
X18248985Y-382117D01*
X18245074Y-383336D01*
X18237301Y-384149D01*
X18231866Y-386029D01*
X18226989Y-389077D01*
X18222874Y-393192D01*
X18219826Y-398068D01*
X18217896Y-403555D01*
X18217184Y-409854D01*
X18217184Y-606958D01*
X18216422Y-610870D01*
X18214187Y-614172D01*
X18024195Y-804214D01*
X18017134Y-813053D01*
X18012511Y-820674D01*
X18011394Y-822858D01*
X18007990Y-831087D01*
X18007228Y-833424D01*
X18005094Y-842060D01*
X18004688Y-844499D01*
X18003875Y-853338D01*
X18003774Y-1088745D01*
X18004332Y-1093622D01*
X18003926Y-1097838D01*
X18001792Y-1101496D01*
X17998389Y-1104036D01*
X17994223Y-1104900D01*
X17845176Y-1104900D01*
X17841010Y-1104036D01*
X17837607Y-1101496D01*
X17835473Y-1097838D01*
X17835067Y-1093622D01*
X17835626Y-1088745D01*
X17835626Y-909878D01*
X17834914Y-903528D01*
X17832984Y-898093D01*
X17829682Y-892860D01*
X17828412Y-889711D01*
X17828209Y-886307D01*
X17829174Y-883056D01*
X17831104Y-880262D01*
X17966029Y-745388D01*
X17972989Y-737209D01*
X17978374Y-728421D01*
X17982336Y-718870D01*
X17984774Y-708812D01*
X17985587Y-698093D01*
X17985587Y-600913D01*
X17986400Y-596950D01*
X17988686Y-593598D01*
X17992090Y-591464D01*
X17996103Y-590753D01*
X18000014Y-591718D01*
X18003266Y-594106D01*
X18005348Y-597560D01*
X18006415Y-600506D01*
X18009463Y-605434D01*
X18013578Y-609498D01*
X18018455Y-612597D01*
X18023941Y-614476D01*
X18030240Y-615238D01*
X18048325Y-615238D01*
X18048325Y-550672D01*
X17995747Y-550672D01*
X17991886Y-549859D01*
X17988584Y-547674D01*
X17986400Y-544372D01*
X17985587Y-540512D01*
X17985587Y-458114D01*
X17986400Y-454202D01*
X17988584Y-450951D01*
X17991886Y-448716D01*
X17995747Y-447954D01*
X18048325Y-447954D01*
X18048325Y-391668D01*
X18049087Y-387756D01*
X18051322Y-384505D01*
X18054574Y-382270D01*
X18058485Y-381508D01*
X18096941Y-381508D01*
X18099735Y-381203D01*
X18103951Y-381609D01*
X18107660Y-383692D01*
X18110149Y-387146D01*
X18111012Y-391312D01*
X18111012Y-447954D01*
X18155564Y-447954D01*
X18155564Y-409854D01*
X18154853Y-403555D01*
X18152973Y-398068D01*
X18149874Y-393192D01*
X18145810Y-389077D01*
X18140883Y-386029D01*
X18135498Y-384149D01*
X18127726Y-383336D01*
X18123814Y-382117D01*
X18120715Y-379425D01*
X18118886Y-375767D01*
X18118683Y-371652D01*
X18120766Y-366826D01*
X18122696Y-361340D01*
X18123408Y-355041D01*
X18123408Y-114858D01*
X18122696Y-108559D01*
X18120766Y-103073D01*
X18117718Y-98196D01*
X18113603Y-94081D01*
X18108726Y-91033D01*
X18103240Y-89103D01*
X18096941Y-88392D01*
X17982793Y-88392D01*
X17978882Y-87630D01*
X17975580Y-85394D01*
X17973395Y-82143D01*
X17972633Y-78232D01*
X17972633Y-71577D01*
X17939562Y-71577D01*
X17939562Y-78232D01*
X17938800Y-82143D01*
X17936565Y-85394D01*
X17933263Y-87630D01*
X17929402Y-88392D01*
X17909997Y-88392D01*
X17906136Y-87630D01*
X17902834Y-85394D01*
X17900599Y-82143D01*
X17899837Y-78232D01*
X17899837Y-71577D01*
X17866817Y-71577D01*
X17866817Y-78232D01*
X17866004Y-82143D01*
X17863820Y-85394D01*
X17860518Y-87630D01*
X17856657Y-88392D01*
X17742458Y-88392D01*
X17736159Y-89103D01*
X17730673Y-91033D01*
X17725796Y-94081D01*
X17721681Y-98196D01*
X17718633Y-103073D01*
X17716703Y-108559D01*
X17715992Y-114858D01*
X17715992Y-355041D01*
X17716703Y-361340D01*
X17718633Y-366826D01*
X17720716Y-371652D01*
X17720513Y-375767D01*
X17718684Y-379425D01*
X17715585Y-382117D01*
X17711674Y-383336D01*
X17703901Y-384149D01*
X17698466Y-386029D01*
X17693589Y-389077D01*
X17689474Y-393192D01*
X17686426Y-398068D01*
X17684496Y-403555D01*
X17683784Y-409854D01*
X17683784Y-606958D01*
X17683022Y-610870D01*
X17680787Y-614172D01*
X17490795Y-804214D01*
X17483734Y-813053D01*
X17479111Y-820674D01*
X17477994Y-822858D01*
X17474590Y-831087D01*
X17473828Y-833424D01*
X17471694Y-842060D01*
X17471288Y-844499D01*
X17470475Y-853338D01*
X17470374Y-1088745D01*
X17470932Y-1093622D01*
X17470526Y-1097838D01*
X17468392Y-1101496D01*
X17464989Y-1104036D01*
X17460823Y-1104900D01*
X17311776Y-1104900D01*
X17307610Y-1104036D01*
X17304207Y-1101496D01*
X17302073Y-1097838D01*
X17301667Y-1093622D01*
X17302226Y-1088745D01*
X17302226Y-909878D01*
X17301514Y-903528D01*
X17299584Y-898093D01*
X17296282Y-892860D01*
X17295012Y-889711D01*
X17294809Y-886307D01*
X17295774Y-883056D01*
X17297704Y-880262D01*
X17432629Y-745388D01*
X17439589Y-737209D01*
X17444974Y-728421D01*
X17448936Y-718870D01*
X17451374Y-708812D01*
X17452187Y-698093D01*
X17452187Y-600913D01*
X17453000Y-596950D01*
X17455286Y-593598D01*
X17458690Y-591464D01*
X17462703Y-590753D01*
X17466614Y-591718D01*
X17469866Y-594106D01*
X17471948Y-597560D01*
X17473015Y-600506D01*
X17476063Y-605434D01*
X17480178Y-609498D01*
X17485055Y-612597D01*
X17490541Y-614476D01*
X17496840Y-615238D01*
X17514925Y-615238D01*
X17514925Y-550672D01*
X17462347Y-550672D01*
X17458486Y-549859D01*
X17455184Y-547674D01*
X17453000Y-544372D01*
X17452187Y-540512D01*
X17452187Y-458114D01*
X17453000Y-454202D01*
X17455184Y-450951D01*
X17458486Y-448716D01*
X17462347Y-447954D01*
X17514925Y-447954D01*
X17514925Y-391668D01*
X17515687Y-387756D01*
X17517922Y-384505D01*
X17521174Y-382270D01*
X17525085Y-381508D01*
X17563541Y-381508D01*
X17566335Y-381203D01*
X17570551Y-381609D01*
X17574260Y-383692D01*
X17576749Y-387146D01*
X17577612Y-391312D01*
X17577612Y-447954D01*
X17622164Y-447954D01*
X17622164Y-409854D01*
X17621453Y-403555D01*
X17619573Y-398068D01*
X17616474Y-393192D01*
X17612410Y-389077D01*
X17607483Y-386029D01*
X17602098Y-384149D01*
X17594326Y-383336D01*
X17590414Y-382117D01*
X17587315Y-379425D01*
X17585486Y-375767D01*
X17585283Y-371652D01*
X17587366Y-366826D01*
X17589296Y-361340D01*
X17590008Y-355041D01*
X17590008Y-114858D01*
X17589296Y-108559D01*
X17587366Y-103073D01*
X17584318Y-98196D01*
X17580203Y-94081D01*
X17575326Y-91033D01*
X17569840Y-89103D01*
X17563541Y-88392D01*
X17449393Y-88392D01*
X17445482Y-87630D01*
X17442180Y-85394D01*
X17439995Y-82143D01*
X17439233Y-78232D01*
X17439233Y-71577D01*
X17406162Y-71577D01*
X17406162Y-78232D01*
X17405400Y-82143D01*
X17403165Y-85394D01*
X17399863Y-87630D01*
X17396002Y-88392D01*
X17376597Y-88392D01*
X17372736Y-87630D01*
X17369434Y-85394D01*
X17367199Y-82143D01*
X17366437Y-78232D01*
X17366437Y-71577D01*
X17333417Y-71577D01*
X17333417Y-78232D01*
X17332604Y-82143D01*
X17330420Y-85394D01*
X17327118Y-87630D01*
X17323257Y-88392D01*
X17310404Y-88392D01*
X17304359Y-89052D01*
X17298873Y-90982D01*
X17293945Y-94081D01*
X17291558Y-96164D01*
X17279264Y-108458D01*
X17275454Y-113233D01*
X17272965Y-118465D01*
X17271695Y-124104D01*
X17271492Y-127304D01*
X17271492Y-355041D01*
X17272203Y-361340D01*
X17274133Y-366826D01*
X17276216Y-371856D01*
X17275860Y-376174D01*
X17273828Y-379933D01*
X17270374Y-382473D01*
X17266158Y-383387D01*
X17176851Y-383387D01*
X17170552Y-384098D01*
X17165066Y-386029D01*
X17160189Y-389077D01*
X17156074Y-393192D01*
X17153026Y-398068D01*
X17151096Y-403555D01*
X17150384Y-409854D01*
X17150384Y-463702D01*
X17149622Y-467563D01*
X17147438Y-470865D01*
X17000575Y-617778D01*
X16993514Y-626618D01*
X16988891Y-634238D01*
X16987774Y-636422D01*
X16984370Y-644652D01*
X16983608Y-646988D01*
X16981474Y-655624D01*
X16981068Y-658063D01*
X16980255Y-666902D01*
X16980204Y-777646D01*
X16979442Y-781558D01*
X16977207Y-784860D01*
X16973905Y-787044D01*
X16970044Y-787806D01*
X16966133Y-787044D01*
X16962831Y-784860D01*
X16957903Y-779881D01*
X16953026Y-776833D01*
X16947540Y-774903D01*
X16941241Y-774192D01*
X16863466Y-774192D01*
X16859554Y-773430D01*
X16856252Y-771194D01*
X16854068Y-767943D01*
X16853306Y-764032D01*
X16854068Y-760120D01*
X16856252Y-756869D01*
X16860418Y-752703D01*
X16863466Y-747826D01*
X16865396Y-742340D01*
X16866108Y-736041D01*
X16866108Y-432358D01*
X16865396Y-426059D01*
X16863466Y-420573D01*
X16860418Y-415696D01*
X16856303Y-411581D01*
X16851426Y-408533D01*
X16845940Y-406603D01*
X16839641Y-405892D01*
X16434358Y-405892D01*
X16428059Y-406603D01*
X16422573Y-408533D01*
X16417696Y-411581D01*
X16413581Y-415696D01*
X16410533Y-420573D01*
X16408603Y-426059D01*
X16407892Y-432358D01*
X16407892Y-736041D01*
X16408603Y-742340D01*
X16410533Y-747826D01*
X16413581Y-752703D01*
X16417747Y-756869D01*
X16419931Y-760120D01*
X16420693Y-764032D01*
X16419931Y-767943D01*
X16417747Y-771194D01*
X16414445Y-773430D01*
X16410533Y-774192D01*
X16368166Y-774192D01*
X16364254Y-773430D01*
X16360952Y-771194D01*
X16358768Y-767943D01*
X16358006Y-764032D01*
X16358768Y-760120D01*
X16360952Y-756869D01*
X16365118Y-752703D01*
X16368166Y-747826D01*
X16370096Y-742340D01*
X16370807Y-736041D01*
X16370807Y-432358D01*
X16370096Y-426059D01*
X16368166Y-420573D01*
X16365118Y-415696D01*
X16361003Y-411581D01*
X16356126Y-408533D01*
X16350640Y-406603D01*
X16344341Y-405892D01*
X15939058Y-405892D01*
X15932759Y-406603D01*
X15927273Y-408533D01*
X15922396Y-411581D01*
X15918281Y-415696D01*
X15915233Y-420573D01*
X15913303Y-426059D01*
X15912592Y-432358D01*
X15912592Y-736041D01*
X15913303Y-742340D01*
X15915233Y-747826D01*
X15918281Y-752703D01*
X15922447Y-756869D01*
X15924631Y-760120D01*
X15925393Y-764032D01*
X15924631Y-767943D01*
X15922447Y-771194D01*
X15919145Y-773430D01*
X15915233Y-774192D01*
X15606166Y-774192D01*
X15602254Y-773430D01*
X15598952Y-771194D01*
X15596768Y-767943D01*
X15596006Y-764032D01*
X15596768Y-760120D01*
X15598952Y-756869D01*
X15603118Y-752703D01*
X15606166Y-747826D01*
X15608096Y-742340D01*
X15608807Y-736041D01*
X15608807Y-432358D01*
X15608096Y-426059D01*
X15606166Y-420573D01*
X15603118Y-415696D01*
X15599003Y-411581D01*
X15594126Y-408533D01*
X15588640Y-406603D01*
X15582341Y-405892D01*
X15177058Y-405892D01*
X15170759Y-406603D01*
X15165273Y-408533D01*
X15160396Y-411581D01*
X15156281Y-415696D01*
X15153233Y-420573D01*
X15151303Y-426059D01*
X15150592Y-432358D01*
X15150592Y-647395D01*
X15149880Y-651205D01*
X15147798Y-654456D01*
X15144648Y-656640D01*
X15140889Y-657555D01*
X15137079Y-656996D01*
X15132812Y-655523D01*
X15126462Y-654812D01*
X15113254Y-654812D01*
X15113254Y-695960D01*
X15140432Y-695960D01*
X15144343Y-696722D01*
X15147594Y-698906D01*
X15149830Y-702208D01*
X15150592Y-706120D01*
X15150592Y-736041D01*
X15151100Y-740562D01*
X15150693Y-744778D01*
X15148560Y-748436D01*
X15145156Y-750976D01*
X15140990Y-751840D01*
X15113254Y-751840D01*
X15113254Y-764032D01*
X15112441Y-767943D01*
X15110256Y-771194D01*
X15106954Y-773430D01*
X15103094Y-774192D01*
X15070378Y-774192D01*
X15066467Y-773430D01*
X15063165Y-771194D01*
X15060980Y-767943D01*
X15060218Y-764032D01*
X15060218Y-751840D01*
X15017699Y-751840D01*
X15013838Y-751078D01*
X15010536Y-748893D01*
X15008301Y-745591D01*
X15007539Y-741680D01*
X15008301Y-737819D01*
X15010536Y-732434D01*
X15012974Y-722376D01*
X15013787Y-711657D01*
X15013787Y-706120D01*
X15014600Y-702208D01*
X15016784Y-698906D01*
X15020086Y-696722D01*
X15023947Y-695960D01*
X15060218Y-695960D01*
X15060218Y-654812D01*
X15046960Y-654812D01*
X15040660Y-655523D01*
X15035174Y-657402D01*
X15029383Y-661060D01*
X15025319Y-662533D01*
X15021051Y-662178D01*
X15017292Y-660095D01*
X15014701Y-656691D01*
X15013787Y-652475D01*
X15013787Y-600151D01*
X15014397Y-596798D01*
X15015565Y-593394D01*
X15017699Y-589838D01*
X15021102Y-587451D01*
X15025166Y-586587D01*
X15049093Y-586587D01*
X15059812Y-585774D01*
X15069870Y-583336D01*
X15079421Y-579374D01*
X15088209Y-573989D01*
X15096083Y-567283D01*
X15102789Y-559409D01*
X15108174Y-550621D01*
X15112136Y-541070D01*
X15114574Y-531012D01*
X15115387Y-520700D01*
X15114574Y-510387D01*
X15112136Y-500329D01*
X15108174Y-490778D01*
X15102789Y-481990D01*
X15096083Y-474116D01*
X15088209Y-467410D01*
X15079421Y-462026D01*
X15069870Y-458063D01*
X15059812Y-455625D01*
X15049093Y-454812D01*
X15025674Y-454812D01*
X15021864Y-454050D01*
X15018664Y-451967D01*
X15016429Y-448818D01*
X15015514Y-445109D01*
X15016276Y-440639D01*
X15016988Y-434340D01*
X15016988Y-422859D01*
X15017800Y-418998D01*
X15019985Y-415696D01*
X15023896Y-411784D01*
X15027198Y-409600D01*
X15031059Y-408787D01*
X15036393Y-408787D01*
X15047112Y-407974D01*
X15057170Y-405536D01*
X15066721Y-401574D01*
X15075509Y-396189D01*
X15083383Y-389483D01*
X15090089Y-381609D01*
X15095474Y-372821D01*
X15099436Y-363270D01*
X15101874Y-353212D01*
X15102687Y-342900D01*
X15101874Y-332587D01*
X15099436Y-322529D01*
X15095474Y-312978D01*
X15090089Y-304190D01*
X15083383Y-296316D01*
X15075509Y-289610D01*
X15066721Y-284226D01*
X15057170Y-280263D01*
X15047112Y-277825D01*
X15036393Y-277012D01*
X14999969Y-277012D01*
X14989251Y-277825D01*
X14979192Y-280263D01*
X14969642Y-284226D01*
X14960854Y-289610D01*
X14952675Y-296570D01*
X14923871Y-325374D01*
X14920569Y-327558D01*
X14916708Y-328320D01*
X14905278Y-328320D01*
X14898928Y-329031D01*
X14893493Y-330962D01*
X14888565Y-334060D01*
X14884501Y-338124D01*
X14881402Y-343052D01*
X14879523Y-348488D01*
X14878812Y-354838D01*
X14878812Y-403504D01*
X14877897Y-407720D01*
X14875306Y-411175D01*
X14871547Y-413258D01*
X14867280Y-413562D01*
X14863216Y-412089D01*
X14857526Y-408533D01*
X14852040Y-406603D01*
X14845741Y-405892D01*
X14440458Y-405892D01*
X14434159Y-406603D01*
X14428673Y-408533D01*
X14423796Y-411581D01*
X14419681Y-415696D01*
X14416633Y-420573D01*
X14414703Y-426059D01*
X14413992Y-432358D01*
X14413992Y-736041D01*
X14414703Y-742340D01*
X14416633Y-747826D01*
X14419681Y-752703D01*
X14423847Y-756869D01*
X14426031Y-760120D01*
X14426793Y-764032D01*
X14426031Y-767943D01*
X14423847Y-771194D01*
X14420545Y-773430D01*
X14416633Y-774192D01*
X14374266Y-774192D01*
X14370354Y-773430D01*
X14367052Y-771194D01*
X14364868Y-767943D01*
X14364106Y-764032D01*
X14364868Y-760120D01*
X14367052Y-756869D01*
X14371218Y-752703D01*
X14374266Y-747826D01*
X14376196Y-742340D01*
X14376907Y-736041D01*
X14376907Y-432358D01*
X14376196Y-426059D01*
X14374266Y-420573D01*
X14371218Y-415696D01*
X14367103Y-411581D01*
X14362226Y-408533D01*
X14356740Y-406603D01*
X14350441Y-405892D01*
X13945158Y-405892D01*
X13938859Y-406603D01*
X13933373Y-408533D01*
X13928496Y-411581D01*
X13924381Y-415696D01*
X13921333Y-420573D01*
X13919403Y-426059D01*
X13918692Y-432358D01*
X13918692Y-736041D01*
X13919403Y-742340D01*
X13921333Y-747826D01*
X13924381Y-752703D01*
X13928547Y-756869D01*
X13930731Y-760120D01*
X13931493Y-764032D01*
X13930731Y-767943D01*
X13928547Y-771194D01*
X13925245Y-773430D01*
X13921333Y-774192D01*
X13640358Y-774192D01*
X13634059Y-774903D01*
X13628573Y-776833D01*
X13623696Y-779881D01*
X13619581Y-783996D01*
X13616533Y-788873D01*
X13614603Y-794359D01*
X13613892Y-800658D01*
X13613892Y-874115D01*
X13613028Y-878281D01*
X13610488Y-881684D01*
X13606830Y-883818D01*
X13602614Y-884224D01*
X13595197Y-883412D01*
X13496340Y-883412D01*
X13490041Y-884123D01*
X13484555Y-886002D01*
X13479678Y-889101D01*
X13475563Y-893216D01*
X13472515Y-898093D01*
X13470585Y-903528D01*
X13469874Y-909878D01*
X13469874Y-971905D01*
X13469061Y-975868D01*
X13466470Y-982014D01*
X13465708Y-984300D01*
X13463574Y-992936D01*
X13463168Y-995375D01*
X13462355Y-1004214D01*
X13462304Y-1094740D01*
X13461542Y-1098651D01*
X13459307Y-1101902D01*
X13456005Y-1104138D01*
X13452144Y-1104900D01*
X13311276Y-1104900D01*
X13307110Y-1104036D01*
X13303707Y-1101496D01*
X13301573Y-1097838D01*
X13301167Y-1093622D01*
X13301726Y-1088745D01*
X13301726Y-909878D01*
X13301014Y-903528D01*
X13299084Y-898093D01*
X13295782Y-892860D01*
X13294512Y-889711D01*
X13294309Y-886307D01*
X13295274Y-883056D01*
X13297204Y-880262D01*
X13432129Y-745388D01*
X13439089Y-737209D01*
X13444474Y-728421D01*
X13448436Y-718870D01*
X13450874Y-708812D01*
X13451687Y-698093D01*
X13451687Y-600913D01*
X13452500Y-596950D01*
X13454786Y-593598D01*
X13458190Y-591464D01*
X13462203Y-590753D01*
X13466114Y-591718D01*
X13469366Y-594106D01*
X13471448Y-597560D01*
X13472515Y-600506D01*
X13475563Y-605434D01*
X13479678Y-609498D01*
X13484555Y-612597D01*
X13490041Y-614476D01*
X13496340Y-615238D01*
X13514425Y-615238D01*
X13514425Y-550672D01*
X13461847Y-550672D01*
X13457986Y-549859D01*
X13454684Y-547674D01*
X13452500Y-544372D01*
X13451687Y-540512D01*
X13451687Y-458114D01*
X13452500Y-454202D01*
X13454684Y-450951D01*
X13457986Y-448716D01*
X13461847Y-447954D01*
X13514425Y-447954D01*
X13514425Y-383387D01*
X13505942Y-383387D01*
X13501725Y-382473D01*
X13498271Y-379933D01*
X13496239Y-376174D01*
X13495883Y-371856D01*
X13497966Y-366826D01*
X13499896Y-361340D01*
X13500607Y-355041D01*
X13500607Y-140004D01*
X13499947Y-133959D01*
X13498017Y-128473D01*
X13494918Y-123545D01*
X13492835Y-121158D01*
X13467842Y-96164D01*
X13463066Y-92354D01*
X13457834Y-89865D01*
X13452246Y-88595D01*
X13448334Y-88392D01*
X13444626Y-87477D01*
X13441527Y-85242D01*
X13439444Y-81991D01*
X13438733Y-78232D01*
X13438733Y-71577D01*
X13405662Y-71577D01*
X13405662Y-78232D01*
X13404900Y-82143D01*
X13402665Y-85394D01*
X13399363Y-87630D01*
X13395502Y-88392D01*
X13376097Y-88392D01*
X13372236Y-87630D01*
X13368934Y-85394D01*
X13366699Y-82143D01*
X13365937Y-78232D01*
X13365937Y-71577D01*
X13332917Y-71577D01*
X13332917Y-78232D01*
X13332104Y-82143D01*
X13329919Y-85394D01*
X13326618Y-87630D01*
X13322757Y-88392D01*
X13208558Y-88392D01*
X13202259Y-89103D01*
X13196773Y-91033D01*
X13191896Y-94081D01*
X13187781Y-98196D01*
X13184733Y-103073D01*
X13182803Y-108559D01*
X13182092Y-114858D01*
X13182092Y-355041D01*
X13182803Y-361340D01*
X13184733Y-366826D01*
X13186816Y-371652D01*
X13186613Y-375767D01*
X13184784Y-379425D01*
X13181685Y-382117D01*
X13177774Y-383336D01*
X13170001Y-384149D01*
X13164566Y-386029D01*
X13159689Y-389077D01*
X13155574Y-393192D01*
X13152526Y-398068D01*
X13150596Y-403555D01*
X13149884Y-409854D01*
X13149884Y-499160D01*
X13149122Y-596696D01*
X13148310Y-600557D01*
X13146074Y-603859D01*
X12944195Y-802487D01*
X12938963Y-808736D01*
X12937083Y-811326D01*
X12932867Y-818286D01*
X12931394Y-821131D01*
X12928244Y-828649D01*
X12927228Y-831697D01*
X12925247Y-839622D01*
X12924688Y-842721D01*
X12923875Y-850849D01*
X12923774Y-1088745D01*
X12924332Y-1093622D01*
X12923926Y-1097838D01*
X12921792Y-1101496D01*
X12918389Y-1104036D01*
X12914223Y-1104900D01*
X12765176Y-1104900D01*
X12761010Y-1104036D01*
X12757607Y-1101496D01*
X12755473Y-1097838D01*
X12755067Y-1093622D01*
X12755626Y-1088745D01*
X12755626Y-909878D01*
X12754914Y-903528D01*
X12752984Y-898093D01*
X12749682Y-892860D01*
X12748412Y-889711D01*
X12748209Y-886307D01*
X12749174Y-883056D01*
X12751104Y-880262D01*
X12886029Y-745388D01*
X12892989Y-737209D01*
X12898374Y-728421D01*
X12902336Y-718870D01*
X12904774Y-708812D01*
X12905587Y-698093D01*
X12905587Y-600913D01*
X12906400Y-596950D01*
X12908686Y-593598D01*
X12912090Y-591464D01*
X12916103Y-590753D01*
X12920014Y-591718D01*
X12923266Y-594106D01*
X12925348Y-597560D01*
X12926415Y-600506D01*
X12929463Y-605434D01*
X12933578Y-609498D01*
X12938455Y-612597D01*
X12943941Y-614476D01*
X12950240Y-615238D01*
X12968325Y-615238D01*
X12968325Y-550672D01*
X12915747Y-550672D01*
X12911886Y-549859D01*
X12908584Y-547674D01*
X12906400Y-544372D01*
X12905587Y-540512D01*
X12905587Y-458114D01*
X12906400Y-454202D01*
X12908584Y-450951D01*
X12911886Y-448716D01*
X12915747Y-447954D01*
X12968325Y-447954D01*
X12968325Y-391668D01*
X12969087Y-387756D01*
X12971322Y-384505D01*
X12974574Y-382270D01*
X12978485Y-381508D01*
X13016941Y-381508D01*
X13019735Y-381203D01*
X13023951Y-381609D01*
X13027660Y-383692D01*
X13030149Y-387146D01*
X13031012Y-391312D01*
X13031012Y-447954D01*
X13075564Y-447954D01*
X13075564Y-409854D01*
X13074853Y-403555D01*
X13072973Y-398068D01*
X13069874Y-393192D01*
X13065810Y-389077D01*
X13060883Y-386029D01*
X13055498Y-384149D01*
X13047726Y-383336D01*
X13043814Y-382117D01*
X13040715Y-379425D01*
X13038886Y-375767D01*
X13038683Y-371652D01*
X13040766Y-366826D01*
X13042696Y-361340D01*
X13043408Y-355041D01*
X13043408Y-114858D01*
X13042696Y-108559D01*
X13040766Y-103073D01*
X13037718Y-98196D01*
X13033603Y-94081D01*
X13028726Y-91033D01*
X13023240Y-89103D01*
X13016941Y-88392D01*
X12902793Y-88392D01*
X12898882Y-87630D01*
X12895580Y-85394D01*
X12893395Y-82143D01*
X12892633Y-78232D01*
X12892633Y-71577D01*
X12859562Y-71577D01*
X12859562Y-78232D01*
X12858800Y-82143D01*
X12856565Y-85394D01*
X12853263Y-87630D01*
X12849402Y-88392D01*
X12829997Y-88392D01*
X12826136Y-87630D01*
X12822834Y-85394D01*
X12820599Y-82143D01*
X12819837Y-78232D01*
X12819837Y-71577D01*
X12786817Y-71577D01*
X12786817Y-78232D01*
X12786004Y-82143D01*
X12783820Y-85394D01*
X12780518Y-87630D01*
X12776657Y-88392D01*
X12662458Y-88392D01*
X12656159Y-89103D01*
X12650673Y-91033D01*
X12645796Y-94081D01*
X12641681Y-98196D01*
X12638633Y-103073D01*
X12636703Y-108559D01*
X12635992Y-114858D01*
X12635992Y-355041D01*
X12636703Y-361340D01*
X12638633Y-366826D01*
X12640716Y-371652D01*
X12640513Y-375767D01*
X12638684Y-379425D01*
X12635585Y-382117D01*
X12631674Y-383336D01*
X12623901Y-384149D01*
X12618466Y-386029D01*
X12613589Y-389077D01*
X12609474Y-393192D01*
X12606426Y-398068D01*
X12604496Y-403555D01*
X12603784Y-409854D01*
X12603784Y-499160D01*
X12603022Y-596696D01*
X12602210Y-600557D01*
X12599974Y-603859D01*
X12398095Y-802487D01*
X12392863Y-808736D01*
X12390983Y-811326D01*
X12386767Y-818286D01*
X12385294Y-821131D01*
X12382144Y-828649D01*
X12381128Y-831697D01*
X12379147Y-839622D01*
X12378588Y-842721D01*
X12377775Y-850849D01*
X12377674Y-1088745D01*
X12378232Y-1093622D01*
X12377826Y-1097838D01*
X12375692Y-1101496D01*
X12372289Y-1104036D01*
X12368123Y-1104900D01*
X12219076Y-1104900D01*
X12214910Y-1104036D01*
X12211507Y-1101496D01*
X12209373Y-1097838D01*
X12208967Y-1093622D01*
X12209526Y-1088745D01*
X12209526Y-909878D01*
X12208814Y-903528D01*
X12206884Y-898093D01*
X12203582Y-892860D01*
X12202312Y-889711D01*
X12202109Y-886307D01*
X12203074Y-883056D01*
X12205004Y-880262D01*
X12339929Y-745388D01*
X12346889Y-737209D01*
X12352274Y-728421D01*
X12356236Y-718870D01*
X12358674Y-708812D01*
X12359487Y-698093D01*
X12359487Y-600913D01*
X12360300Y-596950D01*
X12362586Y-593598D01*
X12365990Y-591464D01*
X12370003Y-590753D01*
X12373914Y-591718D01*
X12377166Y-594106D01*
X12379248Y-597560D01*
X12380315Y-600506D01*
X12383363Y-605434D01*
X12387478Y-609498D01*
X12392355Y-612597D01*
X12397841Y-614476D01*
X12404140Y-615238D01*
X12422225Y-615238D01*
X12422225Y-550672D01*
X12369647Y-550672D01*
X12365786Y-549859D01*
X12362484Y-547674D01*
X12360300Y-544372D01*
X12359487Y-540512D01*
X12359487Y-458114D01*
X12360300Y-454202D01*
X12362484Y-450951D01*
X12365786Y-448716D01*
X12369647Y-447954D01*
X12422225Y-447954D01*
X12422225Y-391668D01*
X12422987Y-387756D01*
X12425222Y-384505D01*
X12428474Y-382270D01*
X12432385Y-381508D01*
X12470841Y-381508D01*
X12473635Y-381203D01*
X12477851Y-381609D01*
X12481560Y-383692D01*
X12484049Y-387146D01*
X12484912Y-391312D01*
X12484912Y-447954D01*
X12529464Y-447954D01*
X12529464Y-409854D01*
X12528753Y-403555D01*
X12526873Y-398068D01*
X12523774Y-393192D01*
X12519710Y-389077D01*
X12514783Y-386029D01*
X12509398Y-384149D01*
X12501626Y-383336D01*
X12497714Y-382117D01*
X12494615Y-379425D01*
X12492786Y-375767D01*
X12492583Y-371652D01*
X12494666Y-366826D01*
X12496596Y-361340D01*
X12497308Y-355041D01*
X12497308Y-114858D01*
X12496596Y-108559D01*
X12494666Y-103073D01*
X12491618Y-98196D01*
X12487503Y-94081D01*
X12482626Y-91033D01*
X12477140Y-89103D01*
X12470841Y-88392D01*
X12356693Y-88392D01*
X12352782Y-87630D01*
X12349480Y-85394D01*
X12347295Y-82143D01*
X12346533Y-78232D01*
X12346533Y-71577D01*
X12313462Y-71577D01*
X12313462Y-78232D01*
X12312700Y-82143D01*
X12310465Y-85394D01*
X12307163Y-87630D01*
X12303302Y-88392D01*
X12283897Y-88392D01*
X12280036Y-87630D01*
X12276734Y-85394D01*
X12274499Y-82143D01*
X12273737Y-78232D01*
X12273737Y-71577D01*
X12240717Y-71577D01*
X12240717Y-78232D01*
X12239904Y-82143D01*
X12237720Y-85394D01*
X12234418Y-87630D01*
X12230557Y-88392D01*
X12116358Y-88392D01*
X12110059Y-89103D01*
X12104573Y-91033D01*
X12099696Y-94081D01*
X12095581Y-98196D01*
X12092533Y-103073D01*
X12090603Y-108559D01*
X12089892Y-114858D01*
X12089892Y-355041D01*
X12090603Y-361340D01*
X12092533Y-366826D01*
X12094616Y-371652D01*
X12094413Y-375767D01*
X12092584Y-379425D01*
X12089485Y-382117D01*
X12085574Y-383336D01*
X12077801Y-384149D01*
X12072366Y-386029D01*
X12067489Y-389077D01*
X12063374Y-393192D01*
X12060326Y-398068D01*
X12058396Y-403555D01*
X12057684Y-409854D01*
X12057684Y-499160D01*
X12056922Y-596696D01*
X12056110Y-600557D01*
X12053874Y-603859D01*
X11851995Y-802487D01*
X11846763Y-808736D01*
X11844883Y-811326D01*
X11840667Y-818286D01*
X11839194Y-821131D01*
X11836044Y-828649D01*
X11835028Y-831697D01*
X11833047Y-839622D01*
X11832488Y-842721D01*
X11831675Y-850849D01*
X11831574Y-1088745D01*
X11832132Y-1093622D01*
X11831726Y-1097838D01*
X11829592Y-1101496D01*
X11826189Y-1104036D01*
X11822023Y-1104900D01*
X11672976Y-1104900D01*
X11668810Y-1104036D01*
X11665407Y-1101496D01*
X11663273Y-1097838D01*
X11662867Y-1093622D01*
X11663426Y-1088745D01*
X11663426Y-909878D01*
X11662714Y-903528D01*
X11660784Y-898093D01*
X11657482Y-892860D01*
X11656212Y-889711D01*
X11656009Y-886307D01*
X11656974Y-883056D01*
X11658904Y-880262D01*
X11793829Y-745388D01*
X11800789Y-737209D01*
X11806174Y-728421D01*
X11810136Y-718870D01*
X11812574Y-708812D01*
X11813387Y-698093D01*
X11813387Y-600913D01*
X11814200Y-596950D01*
X11816486Y-593598D01*
X11819890Y-591464D01*
X11823903Y-590753D01*
X11827814Y-591718D01*
X11831066Y-594106D01*
X11833148Y-597560D01*
X11834215Y-600506D01*
X11837263Y-605434D01*
X11841378Y-609498D01*
X11846255Y-612597D01*
X11851741Y-614476D01*
X11858040Y-615238D01*
X11876125Y-615238D01*
X11876125Y-550672D01*
X11823547Y-550672D01*
X11819686Y-549859D01*
X11816384Y-547674D01*
X11814200Y-544372D01*
X11813387Y-540512D01*
X11813387Y-458114D01*
X11814200Y-454202D01*
X11816384Y-450951D01*
X11819686Y-448716D01*
X11823547Y-447954D01*
X11876125Y-447954D01*
X11876125Y-391668D01*
X11876887Y-387756D01*
X11879122Y-384505D01*
X11882374Y-382270D01*
X11886285Y-381508D01*
X11924741Y-381508D01*
X11927535Y-381203D01*
X11931751Y-381609D01*
X11935460Y-383692D01*
X11937949Y-387146D01*
X11938812Y-391312D01*
X11938812Y-447954D01*
X11983364Y-447954D01*
X11983364Y-409854D01*
X11982653Y-403555D01*
X11980773Y-398068D01*
X11977674Y-393192D01*
X11973610Y-389077D01*
X11968683Y-386029D01*
X11963298Y-384149D01*
X11955526Y-383336D01*
X11951614Y-382117D01*
X11948515Y-379425D01*
X11946686Y-375767D01*
X11946483Y-371652D01*
X11948566Y-366826D01*
X11950496Y-361340D01*
X11951208Y-355041D01*
X11951208Y-114858D01*
X11950496Y-108559D01*
X11948566Y-103073D01*
X11945518Y-98196D01*
X11941403Y-94081D01*
X11936526Y-91033D01*
X11931040Y-89103D01*
X11924741Y-88392D01*
X11810593Y-88392D01*
X11806682Y-87630D01*
X11803380Y-85394D01*
X11801195Y-82143D01*
X11800433Y-78232D01*
X11800433Y-71577D01*
X11767362Y-71577D01*
X11767362Y-78232D01*
X11766600Y-82143D01*
X11764365Y-85394D01*
X11761063Y-87630D01*
X11757202Y-88392D01*
X11737797Y-88392D01*
X11733936Y-87630D01*
X11730634Y-85394D01*
X11728399Y-82143D01*
X11727637Y-78232D01*
X11727637Y-71577D01*
X11694617Y-71577D01*
X11694617Y-78232D01*
X11693804Y-82143D01*
X11691620Y-85394D01*
X11688318Y-87630D01*
X11684457Y-88392D01*
X11570258Y-88392D01*
X11563959Y-89103D01*
X11558473Y-91033D01*
X11553596Y-94081D01*
X11549481Y-98196D01*
X11546433Y-103073D01*
X11544503Y-108559D01*
X11543792Y-114858D01*
X11543792Y-355041D01*
X11544503Y-361340D01*
X11546433Y-366826D01*
X11548516Y-371652D01*
X11548313Y-375767D01*
X11546484Y-379425D01*
X11543385Y-382117D01*
X11539474Y-383336D01*
X11531701Y-384149D01*
X11526266Y-386029D01*
X11521389Y-389077D01*
X11517274Y-393192D01*
X11514226Y-398068D01*
X11512296Y-403555D01*
X11511584Y-409854D01*
X11511584Y-499160D01*
X11510822Y-596696D01*
X11510010Y-600557D01*
X11507774Y-603859D01*
X11305895Y-802487D01*
X11300663Y-808736D01*
X11298783Y-811326D01*
X11294567Y-818286D01*
X11293094Y-821131D01*
X11289944Y-828649D01*
X11288928Y-831697D01*
X11286947Y-839622D01*
X11286388Y-842721D01*
X11285575Y-850849D01*
X11285474Y-1088745D01*
X11286032Y-1093622D01*
X11285626Y-1097838D01*
X11283492Y-1101496D01*
X11280089Y-1104036D01*
X11275923Y-1104900D01*
X11126876Y-1104900D01*
X11122710Y-1104036D01*
X11119307Y-1101496D01*
X11117173Y-1097838D01*
X11116767Y-1093622D01*
X11117326Y-1088745D01*
X11117326Y-909878D01*
X11116614Y-903528D01*
X11114684Y-898093D01*
X11111382Y-892860D01*
X11110112Y-889711D01*
X11109909Y-886307D01*
X11110874Y-883056D01*
X11112804Y-880262D01*
X11247729Y-745388D01*
X11254689Y-737209D01*
X11260074Y-728421D01*
X11264036Y-718870D01*
X11266474Y-708812D01*
X11267287Y-698093D01*
X11267287Y-600913D01*
X11268100Y-596950D01*
X11270386Y-593598D01*
X11273790Y-591464D01*
X11277803Y-590753D01*
X11281714Y-591718D01*
X11284966Y-594106D01*
X11287048Y-597560D01*
X11288115Y-600506D01*
X11291163Y-605434D01*
X11295278Y-609498D01*
X11300155Y-612597D01*
X11305641Y-614476D01*
X11311940Y-615238D01*
X11330025Y-615238D01*
X11330025Y-550672D01*
X11277447Y-550672D01*
X11273586Y-549859D01*
X11270284Y-547674D01*
X11268100Y-544372D01*
X11267287Y-540512D01*
X11267287Y-458114D01*
X11268100Y-454202D01*
X11270284Y-450951D01*
X11273586Y-448716D01*
X11277447Y-447954D01*
X11330025Y-447954D01*
X11330025Y-391668D01*
X11330787Y-387756D01*
X11333022Y-384505D01*
X11336274Y-382270D01*
X11340185Y-381508D01*
X11378641Y-381508D01*
X11381435Y-381203D01*
X11385651Y-381609D01*
X11389360Y-383692D01*
X11391849Y-387146D01*
X11392712Y-391312D01*
X11392712Y-447954D01*
X11437264Y-447954D01*
X11437264Y-409854D01*
X11436553Y-403555D01*
X11434673Y-398068D01*
X11431574Y-393192D01*
X11427510Y-389077D01*
X11422583Y-386029D01*
X11417198Y-384149D01*
X11409426Y-383336D01*
X11405514Y-382117D01*
X11402415Y-379425D01*
X11400586Y-375767D01*
X11400383Y-371652D01*
X11402466Y-366826D01*
X11404396Y-361340D01*
X11405108Y-355041D01*
X11405108Y-114858D01*
X11404396Y-108559D01*
X11402466Y-103073D01*
X11399418Y-98196D01*
X11395303Y-94081D01*
X11390426Y-91033D01*
X11384940Y-89103D01*
X11378641Y-88392D01*
X11264493Y-88392D01*
X11260582Y-87630D01*
X11257280Y-85394D01*
X11255095Y-82143D01*
X11254333Y-78232D01*
X11254333Y-71577D01*
X11221262Y-71577D01*
X11221262Y-78232D01*
X11220500Y-82143D01*
X11218265Y-85394D01*
X11214963Y-87630D01*
X11211102Y-88392D01*
X11191697Y-88392D01*
X11187836Y-87630D01*
X11184534Y-85394D01*
X11182299Y-82143D01*
X11181537Y-78232D01*
X11181537Y-71577D01*
X11148517Y-71577D01*
X11148517Y-78232D01*
X11147704Y-82143D01*
X11145520Y-85394D01*
X11142218Y-87630D01*
X11138357Y-88392D01*
X11024158Y-88392D01*
X11017859Y-89103D01*
X11012373Y-91033D01*
X11007496Y-94081D01*
X11003381Y-98196D01*
X11000333Y-103073D01*
X10998403Y-108559D01*
X10997692Y-114858D01*
X10997692Y-355041D01*
X10998403Y-361340D01*
X11000333Y-366826D01*
X11002416Y-371652D01*
X11002213Y-375767D01*
X11000384Y-379425D01*
X10997285Y-382117D01*
X10993374Y-383336D01*
X10985601Y-384149D01*
X10980166Y-386029D01*
X10975289Y-389077D01*
X10971174Y-393192D01*
X10968126Y-398068D01*
X10966196Y-403555D01*
X10965484Y-409854D01*
X10965484Y-499160D01*
X10964722Y-596696D01*
X10963910Y-600557D01*
X10961674Y-603859D01*
X10759795Y-802487D01*
X10754563Y-808736D01*
X10752683Y-811326D01*
X10748467Y-818286D01*
X10746994Y-821131D01*
X10743844Y-828649D01*
X10742828Y-831697D01*
X10740847Y-839622D01*
X10740288Y-842721D01*
X10739475Y-850849D01*
X10739374Y-1088745D01*
X10739932Y-1093622D01*
X10739526Y-1097838D01*
X10737392Y-1101496D01*
X10733989Y-1104036D01*
X10729823Y-1104900D01*
X10580776Y-1104900D01*
X10576610Y-1104036D01*
X10573207Y-1101496D01*
X10571073Y-1097838D01*
X10570667Y-1093622D01*
X10571226Y-1088745D01*
X10571226Y-909878D01*
X10570514Y-903528D01*
X10568584Y-898093D01*
X10565282Y-892860D01*
X10564012Y-889711D01*
X10563809Y-886307D01*
X10564774Y-883056D01*
X10566704Y-880262D01*
X10701629Y-745388D01*
X10708589Y-737209D01*
X10713974Y-728421D01*
X10717936Y-718870D01*
X10720374Y-708812D01*
X10721187Y-698093D01*
X10721187Y-600913D01*
X10722000Y-596950D01*
X10724286Y-593598D01*
X10727690Y-591464D01*
X10731703Y-590753D01*
X10735614Y-591718D01*
X10738866Y-594106D01*
X10740948Y-597560D01*
X10742015Y-600506D01*
X10745063Y-605434D01*
X10749178Y-609498D01*
X10754055Y-612597D01*
X10759541Y-614476D01*
X10765840Y-615238D01*
X10783925Y-615238D01*
X10783925Y-550672D01*
X10731347Y-550672D01*
X10727486Y-549859D01*
X10724184Y-547674D01*
X10722000Y-544372D01*
X10721187Y-540512D01*
X10721187Y-458114D01*
X10722000Y-454202D01*
X10724184Y-450951D01*
X10727486Y-448716D01*
X10731347Y-447954D01*
X10783925Y-447954D01*
X10783925Y-391668D01*
X10784687Y-387756D01*
X10786922Y-384505D01*
X10790174Y-382270D01*
X10794085Y-381508D01*
X10832541Y-381508D01*
X10835335Y-381203D01*
X10839551Y-381609D01*
X10843260Y-383692D01*
X10845749Y-387146D01*
X10846612Y-391312D01*
X10846612Y-447954D01*
X10891164Y-447954D01*
X10891164Y-409854D01*
X10890453Y-403555D01*
X10888573Y-398068D01*
X10885474Y-393192D01*
X10881410Y-389077D01*
X10876483Y-386029D01*
X10871098Y-384149D01*
X10863326Y-383336D01*
X10859414Y-382117D01*
X10856315Y-379425D01*
X10854486Y-375767D01*
X10854283Y-371652D01*
X10856366Y-366826D01*
X10858296Y-361340D01*
X10859008Y-355041D01*
X10859008Y-114858D01*
X10858296Y-108559D01*
X10856366Y-103073D01*
X10853318Y-98196D01*
X10849203Y-94081D01*
X10844326Y-91033D01*
X10838840Y-89103D01*
X10832541Y-88392D01*
X10718393Y-88392D01*
X10714482Y-87630D01*
X10711180Y-85394D01*
X10708995Y-82143D01*
X10708233Y-78232D01*
X10708233Y-71577D01*
X10675162Y-71577D01*
X10675162Y-78232D01*
X10674400Y-82143D01*
X10672165Y-85394D01*
X10668863Y-87630D01*
X10665002Y-88392D01*
X10645597Y-88392D01*
X10641736Y-87630D01*
X10638434Y-85394D01*
X10636199Y-82143D01*
X10635437Y-78232D01*
X10635437Y-71577D01*
X10602417Y-71577D01*
X10602417Y-78232D01*
X10601604Y-82143D01*
X10599420Y-85394D01*
X10596118Y-87630D01*
X10592257Y-88392D01*
X10478058Y-88392D01*
X10471759Y-89103D01*
X10466273Y-91033D01*
X10461396Y-94081D01*
X10457281Y-98196D01*
X10454233Y-103073D01*
X10452303Y-108559D01*
X10451592Y-114858D01*
X10451592Y-355041D01*
X10452303Y-361340D01*
X10454233Y-366826D01*
X10456316Y-371652D01*
X10456113Y-375767D01*
X10454284Y-379425D01*
X10451185Y-382117D01*
X10447274Y-383336D01*
X10439501Y-384149D01*
X10434066Y-386029D01*
X10429189Y-389077D01*
X10425074Y-393192D01*
X10422026Y-398068D01*
X10420096Y-403555D01*
X10419384Y-409854D01*
X10419384Y-499160D01*
X10418622Y-596696D01*
X10417810Y-600557D01*
X10415574Y-603859D01*
X10213695Y-802487D01*
X10208463Y-808736D01*
X10206583Y-811326D01*
X10202367Y-818286D01*
X10200894Y-821131D01*
X10197744Y-828649D01*
X10196728Y-831697D01*
X10194747Y-839622D01*
X10194188Y-842721D01*
X10193375Y-850849D01*
X10193274Y-1088745D01*
X10193832Y-1093622D01*
X10193426Y-1097838D01*
X10191292Y-1101496D01*
X10187889Y-1104036D01*
X10183723Y-1104900D01*
X10034676Y-1104900D01*
X10030510Y-1104036D01*
X10027107Y-1101496D01*
X10024973Y-1097838D01*
X10024567Y-1093622D01*
X10025126Y-1088745D01*
X10025126Y-909878D01*
X10024414Y-903528D01*
X10022484Y-898093D01*
X10019182Y-892860D01*
X10017912Y-889711D01*
X10017709Y-886307D01*
X10018674Y-883056D01*
X10020604Y-880262D01*
X10155529Y-745388D01*
X10162489Y-737209D01*
X10167874Y-728421D01*
X10171836Y-718870D01*
X10174274Y-708812D01*
X10175087Y-698093D01*
X10175087Y-600913D01*
X10175900Y-596950D01*
X10178186Y-593598D01*
X10181590Y-591464D01*
X10185603Y-590753D01*
X10189514Y-591718D01*
X10192766Y-594106D01*
X10194848Y-597560D01*
X10195915Y-600506D01*
X10198963Y-605434D01*
X10203078Y-609498D01*
X10207955Y-612597D01*
X10213441Y-614476D01*
X10219740Y-615238D01*
X10237825Y-615238D01*
X10237825Y-550672D01*
X10185247Y-550672D01*
X10181386Y-549859D01*
X10178084Y-547674D01*
X10175900Y-544372D01*
X10175087Y-540512D01*
X10175087Y-458114D01*
X10175900Y-454202D01*
X10178084Y-450951D01*
X10181386Y-448716D01*
X10185247Y-447954D01*
X10237825Y-447954D01*
X10237825Y-391668D01*
X10238587Y-387756D01*
X10240822Y-384505D01*
X10244074Y-382270D01*
X10247985Y-381508D01*
X10286441Y-381508D01*
X10289235Y-381203D01*
X10293451Y-381609D01*
X10297160Y-383692D01*
X10299649Y-387146D01*
X10300512Y-391312D01*
X10300512Y-447954D01*
X10345064Y-447954D01*
X10345064Y-409854D01*
X10344353Y-403555D01*
X10342473Y-398068D01*
X10339374Y-393192D01*
X10335310Y-389077D01*
X10330383Y-386029D01*
X10324998Y-384149D01*
X10317226Y-383336D01*
X10313314Y-382117D01*
X10310215Y-379425D01*
X10308386Y-375767D01*
X10308183Y-371652D01*
X10310266Y-366826D01*
X10312196Y-361340D01*
X10312908Y-355041D01*
X10312908Y-114858D01*
X10312196Y-108559D01*
X10310266Y-103073D01*
X10307218Y-98196D01*
X10303103Y-94081D01*
X10298226Y-91033D01*
X10292740Y-89103D01*
X10286441Y-88392D01*
X10172293Y-88392D01*
X10168382Y-87630D01*
X10165080Y-85394D01*
X10162895Y-82143D01*
X10162133Y-78232D01*
X10162133Y-71577D01*
X10129062Y-71577D01*
X10129062Y-78232D01*
X10128300Y-82143D01*
X10126065Y-85394D01*
X10122763Y-87630D01*
X10118902Y-88392D01*
X10099497Y-88392D01*
X10095636Y-87630D01*
X10092334Y-85394D01*
X10090099Y-82143D01*
X10089337Y-78232D01*
X10089337Y-71577D01*
X10056317Y-71577D01*
X10056317Y-78232D01*
X10055504Y-82143D01*
X10053320Y-85394D01*
X10050018Y-87630D01*
X10046157Y-88392D01*
X9931958Y-88392D01*
X9925659Y-89103D01*
X9920173Y-91033D01*
X9915296Y-94081D01*
X9911181Y-98196D01*
X9908133Y-103073D01*
X9906203Y-108559D01*
X9905492Y-114858D01*
X9905492Y-355041D01*
X9906203Y-361340D01*
X9908133Y-366826D01*
X9910216Y-371652D01*
X9910013Y-375767D01*
X9908184Y-379425D01*
X9905085Y-382117D01*
X9901174Y-383336D01*
X9893401Y-384149D01*
X9887966Y-386029D01*
X9883089Y-389077D01*
X9878974Y-393192D01*
X9875926Y-398068D01*
X9873996Y-403555D01*
X9873284Y-409854D01*
X9873284Y-518058D01*
X9872472Y-521970D01*
X9870287Y-525272D01*
X9515144Y-880414D01*
X9512350Y-882396D01*
X9509099Y-883361D01*
X9502241Y-884123D01*
X9496755Y-886002D01*
X9491878Y-889101D01*
X9487763Y-893216D01*
X9484715Y-898093D01*
X9482785Y-903528D01*
X9482074Y-909878D01*
X9482074Y-1088745D01*
X9482632Y-1093622D01*
X9482226Y-1097838D01*
X9480092Y-1101496D01*
X9476689Y-1104036D01*
X9472523Y-1104900D01*
X9323476Y-1104900D01*
X9319310Y-1104036D01*
X9315907Y-1101496D01*
X9313773Y-1097838D01*
X9313367Y-1093622D01*
X9313926Y-1088745D01*
X9313926Y-909878D01*
X9313214Y-903528D01*
X9311284Y-898093D01*
X9307982Y-892860D01*
X9306712Y-889711D01*
X9306509Y-886307D01*
X9307474Y-883056D01*
X9309404Y-880262D01*
X9444329Y-745388D01*
X9451289Y-737209D01*
X9456674Y-728421D01*
X9460636Y-718870D01*
X9463074Y-708812D01*
X9463887Y-698093D01*
X9463887Y-600913D01*
X9464700Y-596950D01*
X9466986Y-593598D01*
X9470390Y-591464D01*
X9474403Y-590753D01*
X9478314Y-591718D01*
X9481566Y-594106D01*
X9483648Y-597560D01*
X9484715Y-600506D01*
X9487763Y-605434D01*
X9491878Y-609498D01*
X9496755Y-612597D01*
X9502241Y-614476D01*
X9508540Y-615238D01*
X9526625Y-615238D01*
X9526625Y-550672D01*
X9474047Y-550672D01*
X9470186Y-549859D01*
X9466884Y-547674D01*
X9464700Y-544372D01*
X9463887Y-540512D01*
X9463887Y-458114D01*
X9464700Y-454202D01*
X9466884Y-450951D01*
X9470186Y-448716D01*
X9474047Y-447954D01*
X9526625Y-447954D01*
X9526625Y-391668D01*
X9527387Y-387756D01*
X9529622Y-384505D01*
X9532874Y-382270D01*
X9536785Y-381508D01*
X9575241Y-381508D01*
X9578035Y-381203D01*
X9582251Y-381609D01*
X9585960Y-383692D01*
X9588449Y-387146D01*
X9589312Y-391312D01*
X9589312Y-447954D01*
X9633864Y-447954D01*
X9633864Y-409854D01*
X9633153Y-403555D01*
X9631273Y-398068D01*
X9628174Y-393192D01*
X9624110Y-389077D01*
X9619183Y-386029D01*
X9613798Y-384149D01*
X9606026Y-383336D01*
X9602114Y-382117D01*
X9599015Y-379425D01*
X9597186Y-375767D01*
X9596983Y-371652D01*
X9599066Y-366826D01*
X9600996Y-361340D01*
X9601708Y-355041D01*
X9601708Y-114858D01*
X9600996Y-108559D01*
X9599066Y-103073D01*
X9596018Y-98196D01*
X9591903Y-94081D01*
X9587026Y-91033D01*
X9581540Y-89103D01*
X9575241Y-88392D01*
X9461093Y-88392D01*
X9457182Y-87630D01*
X9453880Y-85394D01*
X9451695Y-82143D01*
X9450933Y-78232D01*
X9450933Y-71577D01*
X9417862Y-71577D01*
X9417862Y-78232D01*
X9417100Y-82143D01*
X9414865Y-85394D01*
X9411563Y-87630D01*
X9407702Y-88392D01*
X9388297Y-88392D01*
X9384436Y-87630D01*
X9381134Y-85394D01*
X9378899Y-82143D01*
X9378137Y-78232D01*
X9378137Y-71577D01*
X9345117Y-71577D01*
X9345117Y-78232D01*
X9344304Y-82143D01*
X9342120Y-85394D01*
X9338818Y-87630D01*
X9334957Y-88392D01*
X9220758Y-88392D01*
X9214459Y-89103D01*
X9208973Y-91033D01*
X9204096Y-94081D01*
X9199981Y-98196D01*
X9196933Y-103073D01*
X9195003Y-108559D01*
X9194292Y-114858D01*
X9194292Y-355041D01*
X9195003Y-361340D01*
X9196933Y-366826D01*
X9199016Y-371652D01*
X9198813Y-375767D01*
X9196984Y-379425D01*
X9193885Y-382117D01*
X9189974Y-383336D01*
X9182201Y-384149D01*
X9176766Y-386029D01*
X9171889Y-389077D01*
X9167774Y-393192D01*
X9164726Y-398068D01*
X9162796Y-403555D01*
X9162084Y-409854D01*
X9162084Y-499160D01*
X9161322Y-596696D01*
X9160510Y-600557D01*
X9158274Y-603859D01*
X8956395Y-802487D01*
X8951163Y-808736D01*
X8949283Y-811326D01*
X8945067Y-818286D01*
X8943594Y-821131D01*
X8940444Y-828649D01*
X8939428Y-831697D01*
X8937447Y-839622D01*
X8936888Y-842721D01*
X8936075Y-850849D01*
X8935974Y-1088745D01*
X8936532Y-1093622D01*
X8936126Y-1097838D01*
X8933992Y-1101496D01*
X8930589Y-1104036D01*
X8926423Y-1104900D01*
X8777376Y-1104900D01*
X8773210Y-1104036D01*
X8769807Y-1101496D01*
X8767673Y-1097838D01*
X8767267Y-1093622D01*
X8767826Y-1088745D01*
X8767826Y-909878D01*
X8767114Y-903528D01*
X8765184Y-898093D01*
X8761882Y-892860D01*
X8760612Y-889711D01*
X8760409Y-886307D01*
X8761374Y-883056D01*
X8763304Y-880262D01*
X8898229Y-745388D01*
X8905189Y-737209D01*
X8910574Y-728421D01*
X8914536Y-718870D01*
X8916974Y-708812D01*
X8917787Y-698093D01*
X8917787Y-600913D01*
X8918600Y-596950D01*
X8920886Y-593598D01*
X8924290Y-591464D01*
X8928303Y-590753D01*
X8932214Y-591718D01*
X8935466Y-594106D01*
X8937548Y-597560D01*
X8938615Y-600506D01*
X8941663Y-605434D01*
X8945778Y-609498D01*
X8950655Y-612597D01*
X8956141Y-614476D01*
X8962440Y-615238D01*
X8980525Y-615238D01*
X8980525Y-550672D01*
X8927947Y-550672D01*
X8924086Y-549859D01*
X8920784Y-547674D01*
X8918600Y-544372D01*
X8917787Y-540512D01*
X8917787Y-458114D01*
X8918600Y-454202D01*
X8920784Y-450951D01*
X8924086Y-448716D01*
X8927947Y-447954D01*
X8980525Y-447954D01*
X8980525Y-391668D01*
X8981287Y-387756D01*
X8983522Y-384505D01*
X8986774Y-382270D01*
X8990685Y-381508D01*
X9029141Y-381508D01*
X9031935Y-381203D01*
X9036151Y-381609D01*
X9039860Y-383692D01*
X9042349Y-387146D01*
X9043212Y-391312D01*
X9043212Y-447954D01*
X9087764Y-447954D01*
X9087764Y-409854D01*
X9087053Y-403555D01*
X9085173Y-398068D01*
X9082074Y-393192D01*
X9078010Y-389077D01*
X9073083Y-386029D01*
X9067698Y-384149D01*
X9059926Y-383336D01*
X9056014Y-382117D01*
X9052915Y-379425D01*
X9051086Y-375767D01*
X9050883Y-371652D01*
X9052966Y-366826D01*
X9054896Y-361340D01*
X9055608Y-355041D01*
X9055608Y-114858D01*
X9054896Y-108559D01*
X9052966Y-103073D01*
X9049918Y-98196D01*
X9045803Y-94081D01*
X9040926Y-91033D01*
X9035440Y-89103D01*
X9029141Y-88392D01*
X8914993Y-88392D01*
X8911082Y-87630D01*
X8907780Y-85394D01*
X8905595Y-82143D01*
X8904833Y-78232D01*
X8904833Y-71577D01*
X8871762Y-71577D01*
X8871762Y-78232D01*
X8871000Y-82143D01*
X8868765Y-85394D01*
X8865463Y-87630D01*
X8861602Y-88392D01*
X8842197Y-88392D01*
X8838336Y-87630D01*
X8835034Y-85394D01*
X8832799Y-82143D01*
X8832037Y-78232D01*
X8832037Y-71577D01*
X8799017Y-71577D01*
X8799017Y-78232D01*
X8798204Y-82143D01*
X8796020Y-85394D01*
X8792718Y-87630D01*
X8788857Y-88392D01*
X8674658Y-88392D01*
X8668359Y-89103D01*
X8662873Y-91033D01*
X8657996Y-94081D01*
X8653881Y-98196D01*
X8650833Y-103073D01*
X8648903Y-108559D01*
X8648192Y-114858D01*
X8648192Y-355041D01*
X8648903Y-361340D01*
X8650833Y-366826D01*
X8652916Y-371652D01*
X8652713Y-375767D01*
X8650884Y-379425D01*
X8647785Y-382117D01*
X8643874Y-383336D01*
X8636101Y-384149D01*
X8630666Y-386029D01*
X8625789Y-389077D01*
X8621674Y-393192D01*
X8618626Y-398068D01*
X8616696Y-403555D01*
X8615984Y-409854D01*
X8615984Y-594258D01*
X8615222Y-598170D01*
X8612987Y-601472D01*
X8410295Y-804214D01*
X8403234Y-813053D01*
X8398611Y-820674D01*
X8397494Y-822858D01*
X8394090Y-831087D01*
X8393328Y-833424D01*
X8391194Y-842060D01*
X8390788Y-844499D01*
X8389975Y-853338D01*
X8389874Y-1088745D01*
X8390432Y-1093622D01*
X8390026Y-1097838D01*
X8387892Y-1101496D01*
X8384489Y-1104036D01*
X8380323Y-1104900D01*
X8231276Y-1104900D01*
X8227110Y-1104036D01*
X8223707Y-1101496D01*
X8221573Y-1097838D01*
X8221167Y-1093622D01*
X8221725Y-1088745D01*
X8221725Y-909878D01*
X8221014Y-903528D01*
X8219084Y-898093D01*
X8215782Y-892860D01*
X8214512Y-889711D01*
X8214309Y-886307D01*
X8215274Y-883056D01*
X8217204Y-880262D01*
X8352129Y-745388D01*
X8359089Y-737209D01*
X8364474Y-728421D01*
X8368436Y-718870D01*
X8370874Y-708812D01*
X8371687Y-698093D01*
X8371687Y-600913D01*
X8372500Y-596950D01*
X8374786Y-593598D01*
X8378190Y-591464D01*
X8382203Y-590753D01*
X8386114Y-591718D01*
X8389366Y-594106D01*
X8391448Y-597560D01*
X8392515Y-600506D01*
X8395563Y-605434D01*
X8399678Y-609498D01*
X8404555Y-612597D01*
X8410041Y-614476D01*
X8416340Y-615238D01*
X8434425Y-615238D01*
X8434425Y-550672D01*
X8381847Y-550672D01*
X8377986Y-549859D01*
X8374684Y-547674D01*
X8372500Y-544372D01*
X8371687Y-540512D01*
X8371687Y-458114D01*
X8372500Y-454202D01*
X8374684Y-450951D01*
X8377986Y-448716D01*
X8381847Y-447954D01*
X8434425Y-447954D01*
X8434425Y-391668D01*
X8435187Y-387756D01*
X8437422Y-384505D01*
X8440674Y-382270D01*
X8444585Y-381508D01*
X8483041Y-381508D01*
X8485835Y-381203D01*
X8490051Y-381609D01*
X8493760Y-383692D01*
X8496249Y-387146D01*
X8497112Y-391312D01*
X8497112Y-447954D01*
X8541664Y-447954D01*
X8541664Y-409854D01*
X8540953Y-403555D01*
X8539073Y-398068D01*
X8535974Y-393192D01*
X8531910Y-389077D01*
X8526983Y-386029D01*
X8521598Y-384149D01*
X8513826Y-383336D01*
X8509914Y-382117D01*
X8506815Y-379425D01*
X8504986Y-375767D01*
X8504783Y-371652D01*
X8506866Y-366826D01*
X8508796Y-361340D01*
X8509508Y-355041D01*
X8509508Y-114858D01*
X8508796Y-108559D01*
X8506866Y-103073D01*
X8503818Y-98196D01*
X8499703Y-94081D01*
X8494826Y-91033D01*
X8489340Y-89103D01*
X8483041Y-88392D01*
X8368893Y-88392D01*
X8364981Y-87630D01*
X8361680Y-85394D01*
X8359495Y-82143D01*
X8358733Y-78232D01*
X8358733Y-71577D01*
X8325662Y-71577D01*
X8325662Y-78232D01*
X8324900Y-82143D01*
X8322665Y-85394D01*
X8319363Y-87630D01*
X8315502Y-88392D01*
X8296097Y-88392D01*
X8292236Y-87630D01*
X8288934Y-85394D01*
X8286699Y-82143D01*
X8285937Y-78232D01*
X8285937Y-71577D01*
X8252917Y-71577D01*
X8252917Y-78232D01*
X8252104Y-82143D01*
X8249920Y-85394D01*
X8246618Y-87630D01*
X8242757Y-88392D01*
X8128558Y-88392D01*
X8122259Y-89103D01*
X8116773Y-91033D01*
X8111896Y-94081D01*
X8107781Y-98196D01*
X8104733Y-103073D01*
X8102803Y-108559D01*
X8102092Y-114858D01*
X8102092Y-355041D01*
X8102803Y-361340D01*
X8104733Y-366826D01*
X8106816Y-371652D01*
X8106613Y-375767D01*
X8104784Y-379425D01*
X8101685Y-382117D01*
X8097774Y-383336D01*
X8090001Y-384149D01*
X8084566Y-386029D01*
X8079689Y-389077D01*
X8075574Y-393192D01*
X8072526Y-398068D01*
X8070596Y-403555D01*
X8069884Y-409854D01*
X8069884Y-594258D01*
X8069122Y-598170D01*
X8066887Y-601472D01*
X7864195Y-804214D01*
X7857134Y-813053D01*
X7852511Y-820674D01*
X7851394Y-822858D01*
X7847990Y-831087D01*
X7847228Y-833424D01*
X7845094Y-842060D01*
X7844688Y-844499D01*
X7843875Y-853338D01*
X7843774Y-1088745D01*
X7844332Y-1093622D01*
X7843926Y-1097838D01*
X7841792Y-1101496D01*
X7838389Y-1104036D01*
X7834223Y-1104900D01*
X7685176Y-1104900D01*
X7681010Y-1104036D01*
X7677607Y-1101496D01*
X7675473Y-1097838D01*
X7675067Y-1093622D01*
X7675625Y-1088745D01*
X7675625Y-909878D01*
X7674914Y-903528D01*
X7672984Y-898093D01*
X7669682Y-892860D01*
X7668412Y-889711D01*
X7668209Y-886307D01*
X7669174Y-883056D01*
X7671104Y-880262D01*
X7806029Y-745388D01*
X7812989Y-737209D01*
X7818374Y-728421D01*
X7822336Y-718870D01*
X7824774Y-708812D01*
X7825587Y-698093D01*
X7825587Y-600913D01*
X7826400Y-596950D01*
X7828686Y-593598D01*
X7832090Y-591464D01*
X7836103Y-590753D01*
X7840014Y-591718D01*
X7843266Y-594106D01*
X7845348Y-597560D01*
X7846415Y-600506D01*
X7849463Y-605434D01*
X7853578Y-609498D01*
X7858455Y-612597D01*
X7863941Y-614476D01*
X7870240Y-615238D01*
X7888325Y-615238D01*
X7888325Y-550672D01*
X7835747Y-550672D01*
X7831886Y-549859D01*
X7828584Y-547674D01*
X7826400Y-544372D01*
X7825587Y-540512D01*
X7825587Y-458114D01*
X7826400Y-454202D01*
X7828584Y-450951D01*
X7831886Y-448716D01*
X7835747Y-447954D01*
X7888325Y-447954D01*
X7888325Y-391668D01*
X7889087Y-387756D01*
X7891322Y-384505D01*
X7894574Y-382270D01*
X7898485Y-381508D01*
X7936941Y-381508D01*
X7939735Y-381203D01*
X7943951Y-381609D01*
X7947659Y-383692D01*
X7950149Y-387146D01*
X7951012Y-391312D01*
X7951012Y-447954D01*
X7995564Y-447954D01*
X7995564Y-409854D01*
X7994853Y-403555D01*
X7992973Y-398068D01*
X7989874Y-393192D01*
X7985810Y-389077D01*
X7980883Y-386029D01*
X7975498Y-384149D01*
X7967725Y-383336D01*
X7963814Y-382117D01*
X7960715Y-379425D01*
X7958886Y-375767D01*
X7958683Y-371652D01*
X7960766Y-366826D01*
X7962696Y-361340D01*
X7963408Y-355041D01*
X7963408Y-114858D01*
X7962696Y-108559D01*
X7960766Y-103073D01*
X7957718Y-98196D01*
X7953603Y-94081D01*
X7948726Y-91033D01*
X7943240Y-89103D01*
X7936941Y-88392D01*
X7822793Y-88392D01*
X7818881Y-87630D01*
X7815580Y-85394D01*
X7813395Y-82143D01*
X7812633Y-78232D01*
X7812633Y-71577D01*
X7779562Y-71577D01*
X7779562Y-78232D01*
X7778800Y-82143D01*
X7776565Y-85394D01*
X7773263Y-87630D01*
X7769402Y-88392D01*
X7749997Y-88392D01*
X7746136Y-87630D01*
X7742834Y-85394D01*
X7740599Y-82143D01*
X7739837Y-78232D01*
X7739837Y-71577D01*
X7706817Y-71577D01*
X7706817Y-78232D01*
X7706004Y-82143D01*
X7703820Y-85394D01*
X7700518Y-87630D01*
X7696657Y-88392D01*
X7582458Y-88392D01*
X7576159Y-89103D01*
X7570673Y-91033D01*
X7565796Y-94081D01*
X7561681Y-98196D01*
X7558633Y-103073D01*
X7556703Y-108559D01*
X7555992Y-114858D01*
X7555992Y-355041D01*
X7556703Y-361340D01*
X7558633Y-366826D01*
X7560716Y-371652D01*
X7560513Y-375767D01*
X7558684Y-379425D01*
X7555585Y-382117D01*
X7551674Y-383336D01*
X7543901Y-384149D01*
X7538466Y-386029D01*
X7533589Y-389077D01*
X7529474Y-393192D01*
X7526426Y-398068D01*
X7524496Y-403555D01*
X7523784Y-409854D01*
X7523784Y-499160D01*
X7523022Y-596696D01*
X7522209Y-600557D01*
X7519974Y-603859D01*
X7318095Y-802487D01*
X7312863Y-808736D01*
X7310983Y-811326D01*
X7306767Y-818286D01*
X7305294Y-821131D01*
X7302144Y-828649D01*
X7301128Y-831697D01*
X7299147Y-839622D01*
X7298588Y-842721D01*
X7297775Y-850849D01*
X7297674Y-1088745D01*
X7298232Y-1093622D01*
X7297826Y-1097838D01*
X7295692Y-1101496D01*
X7292289Y-1104036D01*
X7288123Y-1104900D01*
X7139076Y-1104900D01*
X7134910Y-1104036D01*
X7131507Y-1101496D01*
X7129373Y-1097838D01*
X7128967Y-1093622D01*
X7129525Y-1088745D01*
X7129525Y-909878D01*
X7128814Y-903528D01*
X7126884Y-898093D01*
X7123582Y-892860D01*
X7122312Y-889711D01*
X7122109Y-886307D01*
X7123074Y-883056D01*
X7125004Y-880262D01*
X7259929Y-745388D01*
X7266889Y-737209D01*
X7272274Y-728421D01*
X7276236Y-718870D01*
X7278674Y-708812D01*
X7279487Y-698093D01*
X7279487Y-600913D01*
X7280300Y-596950D01*
X7282586Y-593598D01*
X7285990Y-591464D01*
X7290003Y-590753D01*
X7293914Y-591718D01*
X7297166Y-594106D01*
X7299248Y-597560D01*
X7300315Y-600506D01*
X7303363Y-605434D01*
X7307478Y-609498D01*
X7312355Y-612597D01*
X7317841Y-614476D01*
X7324140Y-615238D01*
X7342225Y-615238D01*
X7342225Y-550672D01*
X7289647Y-550672D01*
X7285786Y-549859D01*
X7282484Y-547674D01*
X7280300Y-544372D01*
X7279487Y-540512D01*
X7279487Y-458114D01*
X7280300Y-454202D01*
X7282484Y-450951D01*
X7285786Y-448716D01*
X7289647Y-447954D01*
X7342225Y-447954D01*
X7342225Y-391668D01*
X7342987Y-387756D01*
X7345222Y-384505D01*
X7348474Y-382270D01*
X7352385Y-381508D01*
X7390841Y-381508D01*
X7393635Y-381203D01*
X7397851Y-381609D01*
X7401559Y-383692D01*
X7404049Y-387146D01*
X7404912Y-391312D01*
X7404912Y-447954D01*
X7449464Y-447954D01*
X7449464Y-409854D01*
X7448753Y-403555D01*
X7446873Y-398068D01*
X7443774Y-393192D01*
X7439710Y-389077D01*
X7434783Y-386029D01*
X7429398Y-384149D01*
X7421625Y-383336D01*
X7417714Y-382117D01*
X7414615Y-379425D01*
X7412786Y-375767D01*
X7412583Y-371652D01*
X7414666Y-366826D01*
X7416596Y-361340D01*
X7417308Y-355041D01*
X7417308Y-114858D01*
X7416596Y-108559D01*
X7414666Y-103073D01*
X7411618Y-98196D01*
X7407503Y-94081D01*
X7402626Y-91033D01*
X7397140Y-89103D01*
X7390841Y-88392D01*
X7276693Y-88392D01*
X7272781Y-87630D01*
X7269480Y-85394D01*
X7267295Y-82143D01*
X7266533Y-78232D01*
X7266533Y-71577D01*
X7233462Y-71577D01*
X7233462Y-78232D01*
X7232700Y-82143D01*
X7230465Y-85394D01*
X7227163Y-87630D01*
X7223302Y-88392D01*
X7203897Y-88392D01*
X7200036Y-87630D01*
X7196734Y-85394D01*
X7194499Y-82143D01*
X7193737Y-78232D01*
X7193737Y-71577D01*
X7160717Y-71577D01*
X7160717Y-78232D01*
X7159904Y-82143D01*
X7157720Y-85394D01*
X7154418Y-87630D01*
X7150557Y-88392D01*
X7036358Y-88392D01*
X7030059Y-89103D01*
X7024573Y-91033D01*
X7019696Y-94081D01*
X7015581Y-98196D01*
X7012533Y-103073D01*
X7010603Y-108559D01*
X7009892Y-114858D01*
X7009892Y-355041D01*
X7010603Y-361340D01*
X7012533Y-366826D01*
X7014616Y-371652D01*
X7014413Y-375767D01*
X7012584Y-379425D01*
X7009485Y-382117D01*
X7005574Y-383336D01*
X6997801Y-384149D01*
X6992366Y-386029D01*
X6987489Y-389077D01*
X6983374Y-393192D01*
X6980326Y-398068D01*
X6978396Y-403555D01*
X6977684Y-409854D01*
X6977684Y-499160D01*
X6976922Y-596696D01*
X6976109Y-600557D01*
X6973874Y-603859D01*
X6771995Y-802487D01*
X6766763Y-808736D01*
X6764883Y-811326D01*
X6760667Y-818286D01*
X6759194Y-821131D01*
X6756044Y-828649D01*
X6755028Y-831697D01*
X6753047Y-839622D01*
X6752488Y-842721D01*
X6751675Y-850849D01*
X6751574Y-1088745D01*
X6752132Y-1093622D01*
X6751726Y-1097838D01*
X6749592Y-1101496D01*
X6746189Y-1104036D01*
X6742023Y-1104900D01*
X6592976Y-1104900D01*
X6588810Y-1104036D01*
X6585407Y-1101496D01*
X6583273Y-1097838D01*
X6582867Y-1093622D01*
X6583425Y-1088745D01*
X6583425Y-909878D01*
X6582714Y-903528D01*
X6580784Y-898093D01*
X6577482Y-892860D01*
X6576212Y-889711D01*
X6576009Y-886307D01*
X6576974Y-883056D01*
X6578904Y-880262D01*
X6713829Y-745388D01*
X6720789Y-737209D01*
X6726174Y-728421D01*
X6730136Y-718870D01*
X6732574Y-708812D01*
X6733387Y-698093D01*
X6733387Y-600913D01*
X6734200Y-596950D01*
X6736486Y-593598D01*
X6739890Y-591464D01*
X6743903Y-590753D01*
X6747814Y-591718D01*
X6751066Y-594106D01*
X6753148Y-597560D01*
X6754215Y-600506D01*
X6757263Y-605434D01*
X6761378Y-609498D01*
X6766255Y-612597D01*
X6771741Y-614476D01*
X6778040Y-615238D01*
X6796125Y-615238D01*
X6796125Y-550672D01*
X6743547Y-550672D01*
X6739686Y-549859D01*
X6736384Y-547674D01*
X6734200Y-544372D01*
X6733387Y-540512D01*
X6733387Y-458114D01*
X6734200Y-454202D01*
X6736384Y-450951D01*
X6739686Y-448716D01*
X6743547Y-447954D01*
X6796125Y-447954D01*
X6796125Y-391668D01*
X6796887Y-387756D01*
X6799122Y-384505D01*
X6802374Y-382270D01*
X6806285Y-381508D01*
X6844741Y-381508D01*
X6847535Y-381203D01*
X6851751Y-381609D01*
X6855459Y-383692D01*
X6857949Y-387146D01*
X6858812Y-391312D01*
X6858812Y-447954D01*
X6903364Y-447954D01*
X6903364Y-409854D01*
X6902653Y-403555D01*
X6900773Y-398068D01*
X6897674Y-393192D01*
X6893610Y-389077D01*
X6888683Y-386029D01*
X6883298Y-384149D01*
X6875525Y-383336D01*
X6871614Y-382117D01*
X6868515Y-379425D01*
X6866686Y-375767D01*
X6866483Y-371652D01*
X6868566Y-366826D01*
X6870496Y-361340D01*
X6871208Y-355041D01*
X6871208Y-114858D01*
X6870496Y-108559D01*
X6868566Y-103073D01*
X6865518Y-98196D01*
X6861403Y-94081D01*
X6856526Y-91033D01*
X6851040Y-89103D01*
X6844741Y-88392D01*
X6730593Y-88392D01*
X6726681Y-87630D01*
X6723380Y-85394D01*
X6721195Y-82143D01*
X6720433Y-78232D01*
X6720433Y-71577D01*
X6687362Y-71577D01*
X6687362Y-78232D01*
X6686600Y-82143D01*
X6684365Y-85394D01*
X6681063Y-87630D01*
X6677202Y-88392D01*
X6657797Y-88392D01*
X6653936Y-87630D01*
X6650634Y-85394D01*
X6648399Y-82143D01*
X6647637Y-78232D01*
X6647637Y-71577D01*
X6614617Y-71577D01*
X6614617Y-78232D01*
X6613804Y-82143D01*
X6611620Y-85394D01*
X6608318Y-87630D01*
X6604457Y-88392D01*
X6490258Y-88392D01*
X6483959Y-89103D01*
X6478473Y-91033D01*
X6473596Y-94081D01*
X6469481Y-98196D01*
X6466433Y-103073D01*
X6464503Y-108559D01*
X6463792Y-114858D01*
X6463792Y-355041D01*
X6464503Y-361340D01*
X6466433Y-366826D01*
X6468516Y-371652D01*
X6468313Y-375767D01*
X6466484Y-379425D01*
X6463385Y-382117D01*
X6459474Y-383336D01*
X6451701Y-384149D01*
X6446266Y-386029D01*
X6441389Y-389077D01*
X6437274Y-393192D01*
X6434226Y-398068D01*
X6432296Y-403555D01*
X6431584Y-409854D01*
X6431584Y-499160D01*
X6430822Y-596696D01*
X6430010Y-600557D01*
X6427774Y-603859D01*
X6225895Y-802487D01*
X6220663Y-808736D01*
X6218783Y-811326D01*
X6214567Y-818286D01*
X6213094Y-821131D01*
X6209944Y-828649D01*
X6208928Y-831697D01*
X6206947Y-839622D01*
X6206388Y-842721D01*
X6205575Y-850849D01*
X6205474Y-1088745D01*
X6206032Y-1093622D01*
X6205626Y-1097838D01*
X6203492Y-1101496D01*
X6200089Y-1104036D01*
X6195923Y-1104900D01*
X6046876Y-1104900D01*
X6042710Y-1104036D01*
X6039307Y-1101496D01*
X6037173Y-1097838D01*
X6036767Y-1093622D01*
X6037326Y-1088745D01*
X6037326Y-909878D01*
X6036614Y-903528D01*
X6034684Y-898093D01*
X6031382Y-892860D01*
X6030112Y-889711D01*
X6029909Y-886307D01*
X6030874Y-883056D01*
X6032804Y-880262D01*
X6167729Y-745388D01*
X6174689Y-737209D01*
X6180074Y-728421D01*
X6184036Y-718870D01*
X6186474Y-708812D01*
X6187287Y-698093D01*
X6187287Y-600913D01*
X6188100Y-596950D01*
X6190386Y-593598D01*
X6193790Y-591464D01*
X6197803Y-590753D01*
X6201714Y-591718D01*
X6204966Y-594106D01*
X6207048Y-597560D01*
X6208115Y-600506D01*
X6211163Y-605434D01*
X6215278Y-609498D01*
X6220155Y-612597D01*
X6225641Y-614476D01*
X6231940Y-615238D01*
X6250025Y-615238D01*
X6250025Y-550672D01*
X6197447Y-550672D01*
X6193586Y-549859D01*
X6190284Y-547674D01*
X6188100Y-544372D01*
X6187287Y-540512D01*
X6187287Y-458114D01*
X6188100Y-454202D01*
X6190284Y-450951D01*
X6193586Y-448716D01*
X6197447Y-447954D01*
X6250025Y-447954D01*
X6250025Y-391668D01*
X6250787Y-387756D01*
X6253022Y-384505D01*
X6256274Y-382270D01*
X6260185Y-381508D01*
X6298641Y-381508D01*
X6301435Y-381203D01*
X6305651Y-381609D01*
X6309360Y-383692D01*
X6311849Y-387146D01*
X6312712Y-391312D01*
X6312712Y-447954D01*
X6357264Y-447954D01*
X6357264Y-409854D01*
X6356553Y-403555D01*
X6354673Y-398068D01*
X6351574Y-393192D01*
X6347510Y-389077D01*
X6342583Y-386029D01*
X6337198Y-384149D01*
X6329426Y-383336D01*
X6325514Y-382117D01*
X6322415Y-379425D01*
X6320586Y-375767D01*
X6320383Y-371652D01*
X6322466Y-366826D01*
X6324396Y-361340D01*
X6325108Y-355041D01*
X6325108Y-114858D01*
X6324396Y-108559D01*
X6322466Y-103073D01*
X6319418Y-98196D01*
X6315303Y-94081D01*
X6310426Y-91033D01*
X6304940Y-89103D01*
X6298641Y-88392D01*
X6184493Y-88392D01*
X6180582Y-87630D01*
X6177280Y-85394D01*
X6175095Y-82143D01*
X6174333Y-78232D01*
X6174333Y-71577D01*
X6141262Y-71577D01*
X6141262Y-78232D01*
X6140500Y-82143D01*
X6138265Y-85394D01*
X6134963Y-87630D01*
X6131102Y-88392D01*
X6111697Y-88392D01*
X6107836Y-87630D01*
X6104534Y-85394D01*
X6102299Y-82143D01*
X6101537Y-78232D01*
X6101537Y-71577D01*
X6068517Y-71577D01*
X6068517Y-78232D01*
X6067704Y-82143D01*
X6065520Y-85394D01*
X6062218Y-87630D01*
X6058357Y-88392D01*
X5944158Y-88392D01*
X5937859Y-89103D01*
X5932373Y-91033D01*
X5927496Y-94081D01*
X5923381Y-98196D01*
X5920333Y-103073D01*
X5918403Y-108559D01*
X5917692Y-114858D01*
X5917692Y-355041D01*
X5918403Y-361340D01*
X5920333Y-366826D01*
X5922416Y-371652D01*
X5922213Y-375767D01*
X5920384Y-379425D01*
X5917285Y-382117D01*
X5913374Y-383336D01*
X5905601Y-384149D01*
X5900166Y-386029D01*
X5895289Y-389077D01*
X5891174Y-393192D01*
X5888126Y-398068D01*
X5886196Y-403555D01*
X5885484Y-409854D01*
X5885484Y-463702D01*
X5884722Y-467563D01*
X5882538Y-470865D01*
X5761075Y-592378D01*
X5754014Y-601218D01*
X5749391Y-608838D01*
X5748274Y-611022D01*
X5744870Y-619252D01*
X5744108Y-621588D01*
X5741974Y-630224D01*
X5741568Y-632663D01*
X5740755Y-641502D01*
X5740704Y-1094740D01*
X5739942Y-1098651D01*
X5737707Y-1101902D01*
X5734405Y-1104138D01*
X5730544Y-1104900D01*
X5687568Y-1104900D01*
X5683656Y-1104138D01*
X5680405Y-1101902D01*
X5678170Y-1098651D01*
X5677408Y-1094740D01*
X5677408Y-800658D01*
X5676696Y-794359D01*
X5674766Y-788873D01*
X5671718Y-783996D01*
X5667603Y-779881D01*
X5662726Y-776833D01*
X5657240Y-774903D01*
X5650941Y-774192D01*
X5573166Y-774192D01*
X5569254Y-773430D01*
X5565952Y-771194D01*
X5563768Y-767943D01*
X5563006Y-764032D01*
X5563768Y-760120D01*
X5565952Y-756869D01*
X5570118Y-752703D01*
X5573166Y-747826D01*
X5575096Y-742340D01*
X5575808Y-736041D01*
X5575808Y-432358D01*
X5575096Y-426059D01*
X5573166Y-420573D01*
X5570118Y-415696D01*
X5566003Y-411581D01*
X5561126Y-408533D01*
X5555640Y-406603D01*
X5549341Y-405892D01*
X5144058Y-405892D01*
X5137759Y-406603D01*
X5132273Y-408533D01*
X5127396Y-411581D01*
X5123281Y-415696D01*
X5120233Y-420573D01*
X5118303Y-426059D01*
X5117592Y-432358D01*
X5117592Y-736041D01*
X5118303Y-742340D01*
X5120233Y-747826D01*
X5123281Y-752703D01*
X5127447Y-756869D01*
X5129631Y-760120D01*
X5130393Y-764032D01*
X5129631Y-767943D01*
X5127447Y-771194D01*
X5124145Y-773430D01*
X5120233Y-774192D01*
X5077866Y-774192D01*
X5073954Y-773430D01*
X5070652Y-771194D01*
X5068468Y-767943D01*
X5067706Y-764032D01*
X5068468Y-760120D01*
X5070652Y-756869D01*
X5074818Y-752703D01*
X5077866Y-747826D01*
X5079796Y-742340D01*
X5080508Y-736041D01*
X5080508Y-432358D01*
X5079796Y-426059D01*
X5077866Y-420573D01*
X5074818Y-415696D01*
X5070703Y-411581D01*
X5065826Y-408533D01*
X5060340Y-406603D01*
X5054041Y-405892D01*
X4648758Y-405892D01*
X4642459Y-406603D01*
X4636973Y-408533D01*
X4632096Y-411581D01*
X4627981Y-415696D01*
X4624933Y-420573D01*
X4623003Y-426059D01*
X4622292Y-432358D01*
X4622292Y-647395D01*
X4621580Y-651205D01*
X4619498Y-654456D01*
X4616348Y-656640D01*
X4612589Y-657555D01*
X4608779Y-656996D01*
X4604512Y-655523D01*
X4598162Y-654812D01*
X4584954Y-654812D01*
X4584954Y-695960D01*
X4612132Y-695960D01*
X4616043Y-696722D01*
X4619294Y-698906D01*
X4621530Y-702208D01*
X4622292Y-706120D01*
X4622292Y-736041D01*
X4622800Y-740562D01*
X4622393Y-744778D01*
X4620260Y-748436D01*
X4616856Y-750976D01*
X4612690Y-751840D01*
X4584954Y-751840D01*
X4584954Y-764032D01*
X4584141Y-767943D01*
X4581956Y-771194D01*
X4578654Y-773430D01*
X4574794Y-774192D01*
X4542078Y-774192D01*
X4538167Y-773430D01*
X4534865Y-771194D01*
X4532680Y-767943D01*
X4531918Y-764032D01*
X4531918Y-751840D01*
X4484166Y-751840D01*
X4480255Y-751078D01*
X4477004Y-748893D01*
X4474768Y-745591D01*
X4474006Y-741680D01*
X4474006Y-706120D01*
X4474768Y-702208D01*
X4477004Y-698906D01*
X4480255Y-696722D01*
X4484166Y-695960D01*
X4531918Y-695960D01*
X4531918Y-654812D01*
X4518660Y-654812D01*
X4512360Y-655523D01*
X4506874Y-657402D01*
X4501997Y-660501D01*
X4497882Y-664565D01*
X4494834Y-669493D01*
X4493310Y-673760D01*
X4491228Y-677214D01*
X4487976Y-679653D01*
X4484065Y-680567D01*
X4480052Y-679907D01*
X4476648Y-677722D01*
X4474362Y-674370D01*
X4473549Y-670407D01*
X4473549Y-627430D01*
X4474159Y-624078D01*
X4475784Y-621080D01*
X4478934Y-618439D01*
X4482998Y-614375D01*
X4486097Y-609447D01*
X4487976Y-604012D01*
X4488688Y-596747D01*
X4489500Y-592886D01*
X4491685Y-589584D01*
X4494987Y-587400D01*
X4498848Y-586587D01*
X4508093Y-586587D01*
X4518812Y-585774D01*
X4528870Y-583336D01*
X4538421Y-579374D01*
X4547209Y-573989D01*
X4555083Y-567283D01*
X4561789Y-559409D01*
X4567174Y-550621D01*
X4571136Y-541070D01*
X4573574Y-531012D01*
X4574387Y-520700D01*
X4573574Y-510387D01*
X4571136Y-500329D01*
X4567174Y-490778D01*
X4561789Y-481990D01*
X4555083Y-474116D01*
X4547209Y-467410D01*
X4538421Y-462026D01*
X4528870Y-458063D01*
X4518812Y-455625D01*
X4508093Y-454812D01*
X4498848Y-454812D01*
X4494987Y-453999D01*
X4491685Y-451815D01*
X4489500Y-448513D01*
X4488688Y-444652D01*
X4488688Y-435559D01*
X4489500Y-431698D01*
X4491685Y-428396D01*
X4495596Y-424484D01*
X4498898Y-422300D01*
X4502759Y-421487D01*
X4508093Y-421487D01*
X4518812Y-420674D01*
X4528870Y-418236D01*
X4538421Y-414274D01*
X4547209Y-408889D01*
X4555083Y-402183D01*
X4561789Y-394309D01*
X4567174Y-385521D01*
X4571136Y-375970D01*
X4573574Y-365912D01*
X4574387Y-355600D01*
X4573574Y-345287D01*
X4571136Y-335229D01*
X4567174Y-325678D01*
X4561789Y-316890D01*
X4555083Y-309016D01*
X4547209Y-302310D01*
X4538421Y-296926D01*
X4528870Y-292963D01*
X4518812Y-290525D01*
X4508093Y-289712D01*
X4471670Y-289712D01*
X4460951Y-290525D01*
X4450892Y-292963D01*
X4441342Y-296926D01*
X4432554Y-302310D01*
X4424375Y-309270D01*
X4395571Y-338074D01*
X4392269Y-340258D01*
X4388408Y-341020D01*
X4376978Y-341020D01*
X4370628Y-341731D01*
X4365193Y-343662D01*
X4360265Y-346760D01*
X4356201Y-350824D01*
X4353102Y-355752D01*
X4351223Y-361188D01*
X4350512Y-367538D01*
X4350512Y-423418D01*
X4349699Y-427380D01*
X4347413Y-430682D01*
X4344009Y-432866D01*
X4339996Y-433527D01*
X4336084Y-432612D01*
X4332833Y-430225D01*
X4330750Y-426770D01*
X4328566Y-420573D01*
X4325518Y-415696D01*
X4321403Y-411581D01*
X4316526Y-408533D01*
X4311040Y-406603D01*
X4304741Y-405892D01*
X3899458Y-405892D01*
X3893159Y-406603D01*
X3887673Y-408533D01*
X3882796Y-411581D01*
X3878681Y-415696D01*
X3875633Y-420573D01*
X3873703Y-426059D01*
X3872992Y-432358D01*
X3872992Y-736041D01*
X3873703Y-742340D01*
X3875633Y-747826D01*
X3878681Y-752703D01*
X3882847Y-756869D01*
X3885031Y-760120D01*
X3885793Y-764032D01*
X3885031Y-767943D01*
X3882847Y-771194D01*
X3879545Y-773430D01*
X3875633Y-774192D01*
X3579266Y-774192D01*
X3575354Y-773430D01*
X3572052Y-771194D01*
X3569868Y-767943D01*
X3569106Y-764032D01*
X3569868Y-760120D01*
X3572052Y-756869D01*
X3576218Y-752703D01*
X3579266Y-747826D01*
X3581196Y-742340D01*
X3581908Y-736041D01*
X3581908Y-432358D01*
X3581196Y-426059D01*
X3579266Y-420573D01*
X3576218Y-415696D01*
X3572103Y-411581D01*
X3567226Y-408533D01*
X3561740Y-406603D01*
X3555441Y-405892D01*
X3150158Y-405892D01*
X3143859Y-406603D01*
X3138373Y-408533D01*
X3133496Y-411581D01*
X3129381Y-415696D01*
X3126333Y-420573D01*
X3124403Y-426059D01*
X3123692Y-432358D01*
X3123692Y-736041D01*
X3124403Y-742340D01*
X3126333Y-747826D01*
X3129381Y-752703D01*
X3133547Y-756869D01*
X3135731Y-760120D01*
X3136493Y-764032D01*
X3135731Y-767943D01*
X3133547Y-771194D01*
X3130245Y-773430D01*
X3126333Y-774192D01*
X3083966Y-774192D01*
X3080054Y-773430D01*
X3076752Y-771194D01*
X3074568Y-767943D01*
X3073806Y-764032D01*
X3074568Y-760120D01*
X3076752Y-756869D01*
X3080918Y-752703D01*
X3083966Y-747826D01*
X3085896Y-742340D01*
X3086608Y-736041D01*
X3086608Y-432358D01*
X3085896Y-426059D01*
X3083966Y-420573D01*
X3080918Y-415696D01*
X3076803Y-411581D01*
X3071926Y-408533D01*
X3066440Y-406603D01*
X3060141Y-405892D01*
X2654858Y-405892D01*
X2648559Y-406603D01*
X2643073Y-408533D01*
X2638196Y-411581D01*
X2634081Y-415696D01*
X2631033Y-420573D01*
X2629103Y-426059D01*
X2628392Y-432358D01*
X2628392Y-736041D01*
X2629103Y-742340D01*
X2631033Y-747826D01*
X2634081Y-752703D01*
X2638247Y-756869D01*
X2640431Y-760120D01*
X2641193Y-764032D01*
X2640431Y-767943D01*
X2638247Y-771194D01*
X2634945Y-773430D01*
X2631033Y-774192D01*
X2350058Y-774192D01*
X2343759Y-774903D01*
X2338273Y-776833D01*
X2333396Y-779881D01*
X2329281Y-783996D01*
X2326233Y-788873D01*
X2324303Y-794359D01*
X2323592Y-800658D01*
X2323592Y-873252D01*
X2322830Y-877112D01*
X2320594Y-880414D01*
X2317343Y-882599D01*
X2313432Y-883412D01*
X2218740Y-883412D01*
X2212441Y-884123D01*
X2206955Y-886002D01*
X2202078Y-889101D01*
X2197963Y-893216D01*
X2194915Y-898093D01*
X2192985Y-903528D01*
X2192274Y-909878D01*
X2192324Y-1094638D01*
X2191562Y-1098550D01*
X2189378Y-1101902D01*
X2186076Y-1104138D01*
X2182164Y-1104900D01*
X2033676Y-1104900D01*
X2029510Y-1104036D01*
X2026107Y-1101496D01*
X2023973Y-1097838D01*
X2023567Y-1093622D01*
X2024125Y-1088745D01*
X2024125Y-909878D01*
X2023414Y-903528D01*
X2021484Y-898093D01*
X2018182Y-892860D01*
X2016912Y-889711D01*
X2016709Y-886307D01*
X2017674Y-883056D01*
X2019604Y-880262D01*
X2154529Y-745388D01*
X2161489Y-737209D01*
X2166874Y-728421D01*
X2170836Y-718870D01*
X2173274Y-708812D01*
X2174087Y-698093D01*
X2174087Y-600913D01*
X2174900Y-596950D01*
X2177186Y-593598D01*
X2180590Y-591464D01*
X2184603Y-590753D01*
X2188514Y-591718D01*
X2191766Y-594106D01*
X2193848Y-597560D01*
X2194915Y-600506D01*
X2197963Y-605434D01*
X2202078Y-609498D01*
X2206955Y-612597D01*
X2212441Y-614476D01*
X2218740Y-615238D01*
X2236825Y-615238D01*
X2236825Y-550672D01*
X2184247Y-550672D01*
X2180386Y-549859D01*
X2177084Y-547674D01*
X2174900Y-544372D01*
X2174087Y-540512D01*
X2174087Y-458114D01*
X2174900Y-454202D01*
X2177084Y-450951D01*
X2180386Y-448716D01*
X2184247Y-447954D01*
X2236825Y-447954D01*
X2236825Y-391668D01*
X2237587Y-387756D01*
X2239822Y-384505D01*
X2243074Y-382270D01*
X2246985Y-381508D01*
X2285441Y-381508D01*
X2288235Y-381203D01*
X2292451Y-381609D01*
X2296160Y-383692D01*
X2298649Y-387146D01*
X2299512Y-391312D01*
X2299512Y-447954D01*
X2344064Y-447954D01*
X2344064Y-409854D01*
X2343353Y-403555D01*
X2341473Y-398068D01*
X2338374Y-393192D01*
X2334310Y-389077D01*
X2329383Y-386029D01*
X2323998Y-384149D01*
X2316226Y-383336D01*
X2312314Y-382117D01*
X2309215Y-379425D01*
X2307386Y-375767D01*
X2307183Y-371652D01*
X2309266Y-366826D01*
X2311196Y-361340D01*
X2311908Y-355041D01*
X2311908Y-114858D01*
X2311196Y-108559D01*
X2309266Y-103073D01*
X2306218Y-98196D01*
X2302103Y-94081D01*
X2297226Y-91033D01*
X2291740Y-89103D01*
X2285441Y-88392D01*
X2171293Y-88392D01*
X2167382Y-87630D01*
X2164080Y-85394D01*
X2161895Y-82143D01*
X2161082Y-78232D01*
X2161082Y-71577D01*
X2128062Y-71577D01*
X2128062Y-78232D01*
X2127300Y-82143D01*
X2125065Y-85394D01*
X2121763Y-87630D01*
X2117902Y-88392D01*
X2098497Y-88392D01*
X2094636Y-87630D01*
X2091334Y-85394D01*
X2089099Y-82143D01*
X2088337Y-78232D01*
X2088337Y-71577D01*
X2055317Y-71577D01*
X2055317Y-78232D01*
X2054504Y-82143D01*
X2052320Y-85394D01*
X2049018Y-87630D01*
X2045157Y-88392D01*
X1930958Y-88392D01*
X1924659Y-89103D01*
X1919173Y-91033D01*
X1914296Y-94081D01*
X1910181Y-98196D01*
X1907133Y-103073D01*
X1905203Y-108559D01*
X1904492Y-114858D01*
X1904492Y-355041D01*
X1905203Y-361340D01*
X1907133Y-366826D01*
X1909216Y-371652D01*
X1909013Y-375767D01*
X1907184Y-379425D01*
X1904085Y-382117D01*
X1900174Y-383336D01*
X1892401Y-384149D01*
X1886966Y-386029D01*
X1882089Y-389077D01*
X1877974Y-393192D01*
X1874926Y-398068D01*
X1872996Y-403555D01*
X1872284Y-409854D01*
X1872284Y-606958D01*
X1871522Y-610870D01*
X1869287Y-614172D01*
X1679295Y-804214D01*
X1672234Y-813053D01*
X1667611Y-820674D01*
X1666493Y-822858D01*
X1663090Y-831087D01*
X1662328Y-833424D01*
X1660194Y-842060D01*
X1659788Y-844499D01*
X1658975Y-853338D01*
X1658874Y-1088745D01*
X1659432Y-1093622D01*
X1659026Y-1097838D01*
X1656892Y-1101496D01*
X1653489Y-1104036D01*
X1649323Y-1104900D01*
X1500276Y-1104900D01*
X1496110Y-1104036D01*
X1492707Y-1101496D01*
X1490573Y-1097838D01*
X1490167Y-1093622D01*
X1490726Y-1088745D01*
X1490726Y-909878D01*
X1490014Y-903528D01*
X1488084Y-898093D01*
X1484782Y-892860D01*
X1483512Y-889711D01*
X1483309Y-886307D01*
X1484274Y-883056D01*
X1486204Y-880262D01*
X1621129Y-745388D01*
X1628089Y-737209D01*
X1633474Y-728421D01*
X1637436Y-718870D01*
X1639874Y-708812D01*
X1640687Y-698093D01*
X1640687Y-600913D01*
X1641500Y-596950D01*
X1643786Y-593598D01*
X1647189Y-591464D01*
X1651203Y-590753D01*
X1655114Y-591718D01*
X1658366Y-594106D01*
X1660448Y-597560D01*
X1661515Y-600506D01*
X1664563Y-605434D01*
X1668678Y-609498D01*
X1673555Y-612597D01*
X1679041Y-614476D01*
X1685340Y-615238D01*
X1703425Y-615238D01*
X1703425Y-550672D01*
X1650847Y-550672D01*
X1646986Y-549859D01*
X1643684Y-547674D01*
X1641500Y-544372D01*
X1640687Y-540512D01*
X1640687Y-458114D01*
X1641500Y-454202D01*
X1643684Y-450951D01*
X1646986Y-448716D01*
X1650847Y-447954D01*
X1703425Y-447954D01*
X1703425Y-391668D01*
X1704187Y-387756D01*
X1706422Y-384505D01*
X1709674Y-382270D01*
X1713585Y-381508D01*
X1752041Y-381508D01*
X1754835Y-381203D01*
X1759051Y-381609D01*
X1762760Y-383692D01*
X1765249Y-387146D01*
X1766112Y-391312D01*
X1766112Y-447954D01*
X1810664Y-447954D01*
X1810664Y-409854D01*
X1809953Y-403555D01*
X1808073Y-398068D01*
X1804974Y-393192D01*
X1800910Y-389077D01*
X1795983Y-386029D01*
X1790598Y-384149D01*
X1782825Y-383336D01*
X1778914Y-382117D01*
X1775815Y-379425D01*
X1773986Y-375767D01*
X1773783Y-371652D01*
X1775866Y-366826D01*
X1777796Y-361340D01*
X1778507Y-355041D01*
X1778507Y-114858D01*
X1777796Y-108559D01*
X1775866Y-103073D01*
X1772818Y-98196D01*
X1768703Y-94081D01*
X1763826Y-91033D01*
X1758340Y-89103D01*
X1752041Y-88392D01*
X1637893Y-88392D01*
X1633982Y-87630D01*
X1630680Y-85394D01*
X1628495Y-82143D01*
X1627733Y-78232D01*
X1627733Y-71577D01*
X1594662Y-71577D01*
X1594662Y-78232D01*
X1593900Y-82143D01*
X1591665Y-85394D01*
X1588363Y-87630D01*
X1584502Y-88392D01*
X1565097Y-88392D01*
X1561236Y-87630D01*
X1557934Y-85394D01*
X1555699Y-82143D01*
X1554937Y-78232D01*
X1554937Y-71577D01*
X1521917Y-71577D01*
X1521917Y-78232D01*
X1521104Y-82143D01*
X1518920Y-85394D01*
X1515618Y-87630D01*
X1511757Y-88392D01*
X1397558Y-88392D01*
X1391259Y-89103D01*
X1385773Y-91033D01*
X1380896Y-94081D01*
X1376781Y-98196D01*
X1373733Y-103073D01*
X1371803Y-108559D01*
X1371092Y-114858D01*
X1371092Y-355041D01*
X1371803Y-361340D01*
X1373733Y-366826D01*
X1375816Y-371652D01*
X1375613Y-375767D01*
X1373784Y-379425D01*
X1370685Y-382117D01*
X1366774Y-383336D01*
X1359001Y-384149D01*
X1353566Y-386029D01*
X1348689Y-389077D01*
X1344574Y-393192D01*
X1341526Y-398068D01*
X1339596Y-403555D01*
X1338884Y-409854D01*
X1338884Y-606958D01*
X1338122Y-610870D01*
X1335887Y-614172D01*
X1145895Y-804214D01*
X1138834Y-813053D01*
X1134211Y-820674D01*
X1133094Y-822858D01*
X1129690Y-831087D01*
X1128928Y-833424D01*
X1126794Y-842060D01*
X1126388Y-844499D01*
X1125575Y-853338D01*
X1125474Y-1088745D01*
X1126032Y-1093622D01*
X1125626Y-1097838D01*
X1123492Y-1101496D01*
X1120089Y-1104036D01*
X1115923Y-1104900D01*
X966876Y-1104900D01*
X962710Y-1104036D01*
X959307Y-1101496D01*
X957173Y-1097838D01*
X956767Y-1093622D01*
X957326Y-1088745D01*
X957326Y-909878D01*
X956614Y-903528D01*
X954684Y-898093D01*
X951382Y-892860D01*
X950112Y-889711D01*
X949909Y-886307D01*
X950874Y-883056D01*
X952804Y-880262D01*
X1087729Y-745388D01*
X1094689Y-737209D01*
X1100074Y-728421D01*
X1104036Y-718870D01*
X1106474Y-708812D01*
X1107287Y-698093D01*
X1107287Y-600913D01*
X1108100Y-596950D01*
X1110386Y-593598D01*
X1113790Y-591464D01*
X1117803Y-590753D01*
X1121714Y-591718D01*
X1124966Y-594106D01*
X1127048Y-597560D01*
X1128115Y-600506D01*
X1131163Y-605434D01*
X1135278Y-609498D01*
X1140155Y-612597D01*
X1145641Y-614476D01*
X1151940Y-615238D01*
X1170025Y-615238D01*
X1170025Y-550672D01*
X1117447Y-550672D01*
X1113586Y-549859D01*
X1110284Y-547674D01*
X1108100Y-544372D01*
X1107287Y-540512D01*
X1107287Y-458114D01*
X1108100Y-454202D01*
X1110284Y-450951D01*
X1113586Y-448716D01*
X1117447Y-447954D01*
X1170025Y-447954D01*
X1170025Y-391668D01*
X1170787Y-387756D01*
X1173022Y-384505D01*
X1176274Y-382270D01*
X1180185Y-381508D01*
X1218641Y-381508D01*
X1221435Y-381203D01*
X1225651Y-381609D01*
X1229360Y-383692D01*
X1231849Y-387146D01*
X1232712Y-391312D01*
X1232712Y-447954D01*
X1277264Y-447954D01*
X1277264Y-409854D01*
X1276553Y-403555D01*
X1274673Y-398068D01*
X1271574Y-393192D01*
X1267510Y-389077D01*
X1262583Y-386029D01*
X1257198Y-384149D01*
X1249426Y-383336D01*
X1245514Y-382117D01*
X1242415Y-379425D01*
X1240586Y-375767D01*
X1240383Y-371652D01*
X1242466Y-366826D01*
X1244396Y-361340D01*
X1245108Y-355041D01*
X1245108Y-114858D01*
X1244396Y-108559D01*
X1242466Y-103073D01*
X1239418Y-98196D01*
X1235303Y-94081D01*
X1230426Y-91033D01*
X1224940Y-89103D01*
X1218641Y-88392D01*
X1104493Y-88392D01*
X1100582Y-87630D01*
X1097280Y-85394D01*
X1095095Y-82143D01*
X1094333Y-78232D01*
X1094333Y-71577D01*
X1061262Y-71577D01*
X1061262Y-78232D01*
X1060500Y-82143D01*
X1058265Y-85394D01*
X1054963Y-87630D01*
X1051102Y-88392D01*
X1031697Y-88392D01*
X1027836Y-87630D01*
X1024534Y-85394D01*
X1022299Y-82143D01*
X1021537Y-78232D01*
X1021537Y-71577D01*
X988517Y-71577D01*
X988517Y-78232D01*
X987704Y-82143D01*
X985519Y-85394D01*
X982218Y-87630D01*
X978357Y-88392D01*
X864158Y-88392D01*
X857859Y-89103D01*
X852373Y-91033D01*
X847496Y-94081D01*
X843381Y-98196D01*
X840333Y-103073D01*
X838403Y-108559D01*
X837692Y-114858D01*
X837692Y-355041D01*
X838403Y-361340D01*
X840333Y-366826D01*
X842416Y-371652D01*
X842213Y-375767D01*
X840384Y-379425D01*
X837285Y-382117D01*
X833374Y-383336D01*
X825601Y-384149D01*
X820166Y-386029D01*
X815289Y-389077D01*
X811174Y-393192D01*
X808126Y-398068D01*
X806196Y-403555D01*
X805484Y-409854D01*
X805484Y-606958D01*
X804722Y-610870D01*
X802487Y-614172D01*
X612495Y-804214D01*
X605434Y-813053D01*
X600811Y-820674D01*
X599694Y-822858D01*
X596290Y-831087D01*
X595528Y-833424D01*
X593394Y-842060D01*
X592988Y-844499D01*
X592175Y-853338D01*
X592074Y-1088745D01*
X592632Y-1093622D01*
X592226Y-1097838D01*
X590092Y-1101496D01*
X586689Y-1104036D01*
X582523Y-1104900D01*
G37*

%LPC*%
G36*
X699312Y-615238D02*
G01*
X717397Y-615238D01*
X723747Y-614476D01*
X729183Y-612597D01*
X734110Y-609498D01*
X738174Y-605434D01*
X741273Y-600506D01*
X743153Y-595071D01*
X743864Y-588721D01*
X743864Y-550672D01*
X699312Y-550672D01*
G37*
G36*
X1232712Y-615238D02*
G01*
X1250797Y-615238D01*
X1257147Y-614476D01*
X1262583Y-612597D01*
X1267510Y-609498D01*
X1271574Y-605434D01*
X1274673Y-600506D01*
X1276553Y-595071D01*
X1277264Y-588721D01*
X1277264Y-550672D01*
X1232712Y-550672D01*
G37*
G36*
X1766112Y-615238D02*
G01*
X1784197Y-615238D01*
X1790547Y-614476D01*
X1795983Y-612597D01*
X1800910Y-609498D01*
X1804974Y-605434D01*
X1808073Y-600506D01*
X1809953Y-595071D01*
X1810664Y-588721D01*
X1810664Y-550672D01*
X1766112Y-550672D01*
G37*
G36*
X7404912Y-615238D02*
G01*
X7422997Y-615238D01*
X7429347Y-614476D01*
X7434783Y-612597D01*
X7439710Y-609498D01*
X7443774Y-605434D01*
X7446873Y-600506D01*
X7448753Y-595071D01*
X7449464Y-588721D01*
X7449464Y-550672D01*
X7404912Y-550672D01*
G37*
G36*
X19177812Y-615238D02*
G01*
X19195897Y-615238D01*
X19202247Y-614476D01*
X19207683Y-612597D01*
X19212610Y-609498D01*
X19216674Y-605434D01*
X19219773Y-600506D01*
X19221653Y-595071D01*
X19222364Y-588721D01*
X19222364Y-550672D01*
X19177812Y-550672D01*
G37*
G36*
X8497112Y-615238D02*
G01*
X8515197Y-615238D01*
X8521547Y-614476D01*
X8526983Y-612597D01*
X8531910Y-609498D01*
X8535974Y-605434D01*
X8539073Y-600506D01*
X8540953Y-595071D01*
X8541664Y-588721D01*
X8541664Y-550672D01*
X8497112Y-550672D01*
G37*
G36*
X13577112Y-615238D02*
G01*
X13595197Y-615238D01*
X13601547Y-614476D01*
X13606983Y-612597D01*
X13611910Y-609498D01*
X13615974Y-605434D01*
X13619073Y-600506D01*
X13620953Y-595071D01*
X13621664Y-588721D01*
X13621664Y-550672D01*
X13577112Y-550672D01*
G37*
G36*
X6858812Y-615238D02*
G01*
X6876897Y-615238D01*
X6883247Y-614476D01*
X6888683Y-612597D01*
X6893610Y-609498D01*
X6897674Y-605434D01*
X6900773Y-600506D01*
X6902653Y-595071D01*
X6903364Y-588721D01*
X6903364Y-550672D01*
X6858812Y-550672D01*
G37*
G36*
X11392712Y-615238D02*
G01*
X11410797Y-615238D01*
X11417147Y-614476D01*
X11422583Y-612597D01*
X11427510Y-609498D01*
X11431574Y-605434D01*
X11434673Y-600506D01*
X11436553Y-595071D01*
X11437264Y-588721D01*
X11437264Y-550672D01*
X11392712Y-550672D01*
G37*
G36*
X10846612Y-615238D02*
G01*
X10864697Y-615238D01*
X10871047Y-614476D01*
X10876483Y-612597D01*
X10881410Y-609498D01*
X10885474Y-605434D01*
X10888573Y-600506D01*
X10890453Y-595071D01*
X10891164Y-588721D01*
X10891164Y-550672D01*
X10846612Y-550672D01*
G37*
G36*
X18111012Y-615238D02*
G01*
X18129097Y-615238D01*
X18135447Y-614476D01*
X18140883Y-612597D01*
X18145810Y-609498D01*
X18149874Y-605434D01*
X18152973Y-600506D01*
X18154853Y-595071D01*
X18155564Y-588721D01*
X18155564Y-550672D01*
X18111012Y-550672D01*
G37*
G36*
X6312712Y-615238D02*
G01*
X6330797Y-615238D01*
X6337147Y-614476D01*
X6342583Y-612597D01*
X6347510Y-609498D01*
X6351574Y-605434D01*
X6354673Y-600506D01*
X6356553Y-595071D01*
X6357264Y-588721D01*
X6357264Y-550672D01*
X6312712Y-550672D01*
G37*
G36*
X17577612Y-615238D02*
G01*
X17595697Y-615238D01*
X17602047Y-614476D01*
X17607483Y-612597D01*
X17612410Y-609498D01*
X17616474Y-605434D01*
X17619573Y-600506D01*
X17621453Y-595071D01*
X17622164Y-588721D01*
X17622164Y-550672D01*
X17577612Y-550672D01*
G37*
G36*
X9589312Y-615238D02*
G01*
X9607397Y-615238D01*
X9613747Y-614476D01*
X9619183Y-612597D01*
X9624110Y-609498D01*
X9628174Y-605434D01*
X9631273Y-600506D01*
X9633153Y-595071D01*
X9633864Y-588721D01*
X9633864Y-550672D01*
X9589312Y-550672D01*
G37*
G36*
X13031012Y-615238D02*
G01*
X13049097Y-615238D01*
X13055447Y-614476D01*
X13060883Y-612597D01*
X13065810Y-609498D01*
X13069874Y-605434D01*
X13072973Y-600506D01*
X13074853Y-595071D01*
X13075564Y-588721D01*
X13075564Y-550672D01*
X13031012Y-550672D01*
G37*
G36*
X7951012Y-615238D02*
G01*
X7969097Y-615238D01*
X7975447Y-614476D01*
X7980883Y-612597D01*
X7985810Y-609498D01*
X7989874Y-605434D01*
X7992973Y-600506D01*
X7994853Y-595071D01*
X7995564Y-588721D01*
X7995564Y-550672D01*
X7951012Y-550672D01*
G37*
G36*
X18644412Y-615238D02*
G01*
X18662497Y-615238D01*
X18668847Y-614476D01*
X18674283Y-612597D01*
X18679210Y-609498D01*
X18683274Y-605434D01*
X18686373Y-600506D01*
X18688253Y-595071D01*
X18688964Y-588721D01*
X18688964Y-550672D01*
X18644412Y-550672D01*
G37*
G36*
X9043212Y-615238D02*
G01*
X9061297Y-615238D01*
X9067647Y-614476D01*
X9073083Y-612597D01*
X9078010Y-609498D01*
X9082074Y-605434D01*
X9085173Y-600506D01*
X9087053Y-595071D01*
X9087764Y-588721D01*
X9087764Y-550672D01*
X9043212Y-550672D01*
G37*
G36*
X10300512Y-615238D02*
G01*
X10318597Y-615238D01*
X10324947Y-614476D01*
X10330383Y-612597D01*
X10335310Y-609498D01*
X10339374Y-605434D01*
X10342473Y-600506D01*
X10344353Y-595071D01*
X10345064Y-588721D01*
X10345064Y-550672D01*
X10300512Y-550672D01*
G37*
G36*
X11938812Y-615238D02*
G01*
X11956897Y-615238D01*
X11963247Y-614476D01*
X11968683Y-612597D01*
X11973610Y-609498D01*
X11977674Y-605434D01*
X11980773Y-600506D01*
X11982653Y-595071D01*
X11983364Y-588721D01*
X11983364Y-550672D01*
X11938812Y-550672D01*
G37*
G36*
X12484912Y-615238D02*
G01*
X12502997Y-615238D01*
X12509347Y-614476D01*
X12514783Y-612597D01*
X12519710Y-609498D01*
X12523774Y-605434D01*
X12526873Y-600506D01*
X12528753Y-595071D01*
X12529464Y-588721D01*
X12529464Y-550672D01*
X12484912Y-550672D01*
G37*
G36*
X2299512Y-615238D02*
G01*
X2317597Y-615238D01*
X2323947Y-614476D01*
X2329383Y-612597D01*
X2334310Y-609498D01*
X2338374Y-605434D01*
X2341473Y-600506D01*
X2343353Y-595071D01*
X2344064Y-588721D01*
X2344064Y-550672D01*
X2299512Y-550672D01*
G37*
G36*
X699312Y-447954D02*
G01*
X743864Y-447954D01*
X743864Y-409854D01*
X743153Y-403555D01*
X741273Y-398068D01*
X738174Y-393192D01*
X734110Y-389077D01*
X729183Y-386029D01*
X723747Y-384098D01*
X717397Y-383387D01*
X699312Y-383387D01*
G37*
G36*
X13577112Y-447954D02*
G01*
X13621664Y-447954D01*
X13621664Y-409854D01*
X13620953Y-403555D01*
X13619073Y-398068D01*
X13615974Y-393192D01*
X13611910Y-389077D01*
X13606983Y-386029D01*
X13601547Y-384098D01*
X13595197Y-383387D01*
X13577112Y-383387D01*
G37*
G36*
X435660Y-217627D02*
G01*
X437743Y-214477D01*
X441045Y-212242D01*
X444957Y-211480D01*
X488137Y-211480D01*
X488137Y-162001D01*
X488899Y-158140D01*
X491134Y-154838D01*
X493928Y-152958D01*
X423468Y-152958D01*
X423468Y-217525D01*
G37*
G36*
X527862Y-211480D02*
G01*
X560984Y-211480D01*
X562457Y-207467D01*
X565404Y-202793D01*
X567283Y-197358D01*
X567994Y-191008D01*
X567994Y-152958D01*
X522071Y-152958D01*
X524865Y-154838D01*
X527100Y-158140D01*
X527862Y-162001D01*
G37*
G36*
X423468Y-50241D02*
G01*
X567994Y-50241D01*
X567994Y-12192D01*
X567283Y-5842D01*
X565404Y-406D01*
X562305Y4521D01*
X558190Y8585D01*
X553313Y11684D01*
X547827Y13614D01*
X541528Y14325D01*
X423468Y14325D01*
G37*
G36*
X1521917Y-19405D02*
G01*
X1554937Y-19405D01*
X1554937Y19913D01*
X1548384Y19913D01*
X1542034Y19202D01*
X1536598Y17272D01*
X1531670Y14224D01*
X1527606Y10109D01*
X1524508Y5232D01*
X1522628Y-254D01*
X1521917Y-6553D01*
G37*
G36*
X1061262Y-19405D02*
G01*
X1094333Y-19405D01*
X1094333Y-6553D01*
X1093571Y-254D01*
X1091692Y5232D01*
X1088593Y10109D01*
X1084529Y14224D01*
X1079601Y17272D01*
X1074166Y19202D01*
X1067816Y19913D01*
X1061262Y19913D01*
G37*
G36*
X1594662Y-19405D02*
G01*
X1627733Y-19405D01*
X1627733Y-6553D01*
X1626971Y-254D01*
X1625092Y5232D01*
X1621993Y10109D01*
X1617929Y14224D01*
X1613001Y17272D01*
X1607566Y19202D01*
X1601216Y19913D01*
X1594662Y19913D01*
G37*
G36*
X988517Y-19405D02*
G01*
X1021537Y-19405D01*
X1021537Y19913D01*
X1014984Y19913D01*
X1008634Y19202D01*
X1003198Y17272D01*
X998270Y14224D01*
X994206Y10109D01*
X991108Y5232D01*
X989228Y-254D01*
X988517Y-6553D01*
G37*
G36*
X9345117Y-19405D02*
G01*
X9378137Y-19405D01*
X9378137Y19913D01*
X9371584Y19913D01*
X9365234Y19202D01*
X9359798Y17272D01*
X9354870Y14224D01*
X9350806Y10109D01*
X9347708Y5232D01*
X9345828Y-254D01*
X9345117Y-6553D01*
G37*
G36*
X10056317Y-19405D02*
G01*
X10089337Y-19405D01*
X10089337Y19913D01*
X10082784Y19913D01*
X10076434Y19202D01*
X10070998Y17272D01*
X10066070Y14224D01*
X10062006Y10109D01*
X10058908Y5232D01*
X10057028Y-254D01*
X10056317Y-6553D01*
G37*
G36*
X18933617Y-19405D02*
G01*
X18966637Y-19405D01*
X18966637Y19913D01*
X18960084Y19913D01*
X18953734Y19202D01*
X18948298Y17272D01*
X18943370Y14224D01*
X18939306Y10109D01*
X18936208Y5232D01*
X18934328Y-254D01*
X18933617Y-6553D01*
G37*
G36*
X10602417Y-19405D02*
G01*
X10635437Y-19405D01*
X10635437Y19913D01*
X10628884Y19913D01*
X10622534Y19202D01*
X10617098Y17272D01*
X10612170Y14224D01*
X10608106Y10109D01*
X10605008Y5232D01*
X10603128Y-254D01*
X10602417Y-6553D01*
G37*
G36*
X8799017Y-19405D02*
G01*
X8832037Y-19405D01*
X8832037Y19913D01*
X8825484Y19913D01*
X8819134Y19202D01*
X8813698Y17272D01*
X8808770Y14224D01*
X8804706Y10109D01*
X8801608Y5232D01*
X8799728Y-254D01*
X8799017Y-6553D01*
G37*
G36*
X2055317Y-19405D02*
G01*
X2088337Y-19405D01*
X2088337Y19913D01*
X2081784Y19913D01*
X2075434Y19202D01*
X2069998Y17272D01*
X2065070Y14224D01*
X2061006Y10109D01*
X2057907Y5232D01*
X2056028Y-254D01*
X2055317Y-6553D01*
G37*
G36*
X13332917Y-19405D02*
G01*
X13365937Y-19405D01*
X13365937Y19913D01*
X13359384Y19913D01*
X13353034Y19202D01*
X13347598Y17272D01*
X13342670Y14224D01*
X13338606Y10109D01*
X13335507Y5232D01*
X13333628Y-254D01*
X13332917Y-6553D01*
G37*
G36*
X11148517Y-19405D02*
G01*
X11181537Y-19405D01*
X11181537Y19913D01*
X11174984Y19913D01*
X11168634Y19202D01*
X11163198Y17272D01*
X11158270Y14224D01*
X11154206Y10109D01*
X11151108Y5232D01*
X11149228Y-254D01*
X11148517Y-6553D01*
G37*
G36*
X8252917Y-19405D02*
G01*
X8285937Y-19405D01*
X8285937Y19913D01*
X8279384Y19913D01*
X8273034Y19202D01*
X8267598Y17272D01*
X8262670Y14224D01*
X8258606Y10109D01*
X8255508Y5232D01*
X8253628Y-254D01*
X8252917Y-6553D01*
G37*
G36*
X17866817Y-19405D02*
G01*
X17899837Y-19405D01*
X17899837Y19913D01*
X17893284Y19913D01*
X17886934Y19202D01*
X17881498Y17272D01*
X17876570Y14224D01*
X17872506Y10109D01*
X17869408Y5232D01*
X17867528Y-254D01*
X17866817Y-6553D01*
G37*
G36*
X6614617Y-19405D02*
G01*
X6647637Y-19405D01*
X6647637Y19913D01*
X6641084Y19913D01*
X6634734Y19202D01*
X6629298Y17272D01*
X6624370Y14224D01*
X6620306Y10109D01*
X6617208Y5232D01*
X6615328Y-254D01*
X6614617Y-6553D01*
G37*
G36*
X11694617Y-19405D02*
G01*
X11727637Y-19405D01*
X11727637Y19913D01*
X11721084Y19913D01*
X11714734Y19202D01*
X11709298Y17272D01*
X11704370Y14224D01*
X11700306Y10109D01*
X11697208Y5232D01*
X11695328Y-254D01*
X11694617Y-6553D01*
G37*
G36*
X7706817Y-19405D02*
G01*
X7739837Y-19405D01*
X7739837Y19913D01*
X7733284Y19913D01*
X7726934Y19202D01*
X7721498Y17272D01*
X7716570Y14224D01*
X7712506Y10109D01*
X7709408Y5232D01*
X7707528Y-254D01*
X7706817Y-6553D01*
G37*
G36*
X18400217Y-19405D02*
G01*
X18433237Y-19405D01*
X18433237Y19913D01*
X18426684Y19913D01*
X18420334Y19202D01*
X18414898Y17272D01*
X18409970Y14224D01*
X18405906Y10109D01*
X18402808Y5232D01*
X18400928Y-254D01*
X18400217Y-6553D01*
G37*
G36*
X12786817Y-19405D02*
G01*
X12819837Y-19405D01*
X12819837Y19913D01*
X12813284Y19913D01*
X12806934Y19202D01*
X12801498Y17272D01*
X12796570Y14224D01*
X12792506Y10109D01*
X12789408Y5232D01*
X12787528Y-254D01*
X12786817Y-6553D01*
G37*
G36*
X12240717Y-19405D02*
G01*
X12273737Y-19405D01*
X12273737Y19913D01*
X12267184Y19913D01*
X12260834Y19202D01*
X12255398Y17272D01*
X12250470Y14224D01*
X12246406Y10109D01*
X12243308Y5232D01*
X12241428Y-254D01*
X12240717Y-6553D01*
G37*
G36*
X6068517Y-19405D02*
G01*
X6101537Y-19405D01*
X6101537Y19913D01*
X6094984Y19913D01*
X6088634Y19202D01*
X6083198Y17272D01*
X6078270Y14224D01*
X6074206Y10109D01*
X6071108Y5232D01*
X6069228Y-254D01*
X6068517Y-6553D01*
G37*
G36*
X7160717Y-19405D02*
G01*
X7193737Y-19405D01*
X7193737Y19913D01*
X7187184Y19913D01*
X7180834Y19202D01*
X7175398Y17272D01*
X7170470Y14224D01*
X7166406Y10109D01*
X7163308Y5232D01*
X7161428Y-254D01*
X7160717Y-6553D01*
G37*
G36*
X17333417Y-19405D02*
G01*
X17366437Y-19405D01*
X17366437Y19913D01*
X17359884Y19913D01*
X17353534Y19202D01*
X17348098Y17272D01*
X17343170Y14224D01*
X17339106Y10109D01*
X17336008Y5232D01*
X17334128Y-254D01*
X17333417Y-6553D01*
G37*
G36*
X12313462Y-19405D02*
G01*
X12346533Y-19405D01*
X12346533Y-6553D01*
X12345771Y-254D01*
X12343892Y5232D01*
X12340793Y10109D01*
X12336729Y14224D01*
X12331801Y17272D01*
X12326366Y19202D01*
X12320016Y19913D01*
X12313462Y19913D01*
G37*
G36*
X6687362Y-19405D02*
G01*
X6720433Y-19405D01*
X6720433Y-6553D01*
X6719671Y-254D01*
X6717792Y5232D01*
X6714693Y10109D01*
X6710629Y14224D01*
X6705701Y17272D01*
X6700266Y19202D01*
X6693916Y19913D01*
X6687362Y19913D01*
G37*
G36*
X7233462Y-19405D02*
G01*
X7266533Y-19405D01*
X7266533Y-6553D01*
X7265771Y-254D01*
X7263892Y5232D01*
X7260793Y10109D01*
X7256729Y14224D01*
X7251801Y17272D01*
X7246366Y19202D01*
X7240016Y19913D01*
X7233462Y19913D01*
G37*
G36*
X17939562Y-19405D02*
G01*
X17972633Y-19405D01*
X17972633Y-6553D01*
X17971871Y-254D01*
X17969992Y5232D01*
X17966893Y10109D01*
X17962829Y14224D01*
X17957901Y17272D01*
X17952466Y19202D01*
X17946116Y19913D01*
X17939562Y19913D01*
G37*
G36*
X11767362Y-19405D02*
G01*
X11800433Y-19405D01*
X11800433Y-6553D01*
X11799671Y-254D01*
X11797792Y5232D01*
X11794693Y10109D01*
X11790629Y14224D01*
X11785701Y17272D01*
X11780266Y19202D01*
X11773916Y19913D01*
X11767362Y19913D01*
G37*
G36*
X7779562Y-19405D02*
G01*
X7812633Y-19405D01*
X7812633Y-6553D01*
X7811871Y-254D01*
X7809992Y5232D01*
X7806893Y10109D01*
X7802829Y14224D01*
X7797901Y17272D01*
X7792466Y19202D01*
X7786116Y19913D01*
X7779562Y19913D01*
G37*
G36*
X12859562Y-19405D02*
G01*
X12892633Y-19405D01*
X12892633Y-6553D01*
X12891871Y-254D01*
X12889992Y5232D01*
X12886893Y10109D01*
X12882829Y14224D01*
X12877901Y17272D01*
X12872466Y19202D01*
X12866116Y19913D01*
X12859562Y19913D01*
G37*
G36*
X11221262Y-19405D02*
G01*
X11254333Y-19405D01*
X11254333Y-6553D01*
X11253571Y-254D01*
X11251692Y5232D01*
X11248593Y10109D01*
X11244529Y14224D01*
X11239601Y17272D01*
X11234166Y19202D01*
X11227816Y19913D01*
X11221262Y19913D01*
G37*
G36*
X8871762Y-19405D02*
G01*
X8904833Y-19405D01*
X8904833Y-6553D01*
X8904071Y-254D01*
X8902192Y5232D01*
X8899093Y10109D01*
X8895029Y14224D01*
X8890101Y17272D01*
X8884666Y19202D01*
X8878316Y19913D01*
X8871762Y19913D01*
G37*
G36*
X18472962Y-19405D02*
G01*
X18506033Y-19405D01*
X18506033Y-6553D01*
X18505271Y-254D01*
X18503392Y5232D01*
X18500293Y10109D01*
X18496229Y14224D01*
X18491301Y17272D01*
X18485866Y19202D01*
X18479516Y19913D01*
X18472962Y19913D01*
G37*
G36*
X10129062Y-19405D02*
G01*
X10162133Y-19405D01*
X10162133Y-6553D01*
X10161371Y-254D01*
X10159492Y5232D01*
X10156393Y10109D01*
X10152329Y14224D01*
X10147401Y17272D01*
X10141966Y19202D01*
X10135616Y19913D01*
X10129062Y19913D01*
G37*
G36*
X6141262Y-19405D02*
G01*
X6174333Y-19405D01*
X6174333Y-6553D01*
X6173571Y-254D01*
X6171692Y5232D01*
X6168593Y10109D01*
X6164529Y14224D01*
X6159601Y17272D01*
X6154166Y19202D01*
X6147816Y19913D01*
X6141262Y19913D01*
G37*
G36*
X8325662Y-19405D02*
G01*
X8358733Y-19405D01*
X8358733Y-6553D01*
X8357971Y-254D01*
X8356092Y5232D01*
X8352993Y10109D01*
X8348929Y14224D01*
X8344001Y17272D01*
X8338566Y19202D01*
X8332216Y19913D01*
X8325662Y19913D01*
G37*
G36*
X17406162Y-19405D02*
G01*
X17439233Y-19405D01*
X17439233Y-6553D01*
X17438471Y-254D01*
X17436592Y5232D01*
X17433493Y10109D01*
X17429429Y14224D01*
X17424501Y17272D01*
X17419066Y19202D01*
X17412716Y19913D01*
X17406162Y19913D01*
G37*
G36*
X2128062Y-19405D02*
G01*
X2161082Y-19405D01*
X2161082Y-6553D01*
X2160371Y-254D01*
X2158492Y5232D01*
X2155393Y10109D01*
X2151329Y14224D01*
X2146401Y17272D01*
X2140966Y19202D01*
X2134616Y19913D01*
X2128062Y19913D01*
G37*
G36*
X10675162Y-19405D02*
G01*
X10708233Y-19405D01*
X10708233Y-6553D01*
X10707471Y-254D01*
X10705592Y5232D01*
X10702493Y10109D01*
X10698429Y14224D01*
X10693501Y17272D01*
X10688066Y19202D01*
X10681716Y19913D01*
X10675162Y19913D01*
G37*
G36*
X19006362Y-19405D02*
G01*
X19039433Y-19405D01*
X19039433Y-6553D01*
X19038671Y-254D01*
X19036792Y5232D01*
X19033693Y10109D01*
X19029629Y14224D01*
X19024701Y17272D01*
X19019266Y19202D01*
X19012916Y19913D01*
X19006362Y19913D01*
G37*
G36*
X9417862Y-19405D02*
G01*
X9450933Y-19405D01*
X9450933Y-6553D01*
X9450171Y-254D01*
X9448292Y5232D01*
X9445193Y10109D01*
X9441129Y14224D01*
X9436201Y17272D01*
X9430766Y19202D01*
X9424416Y19913D01*
X9417862Y19913D01*
G37*
G36*
X13405662Y-19405D02*
G01*
X13438733Y-19405D01*
X13438733Y-6553D01*
X13437971Y-254D01*
X13436092Y5232D01*
X13432993Y10109D01*
X13428929Y14224D01*
X13424001Y17272D01*
X13418566Y19202D01*
X13412216Y19913D01*
X13405662Y19913D01*
G37*

%LPD*%
G36*
X38100Y-647700D02*
G01*
X38100Y-1003300D01*
X344017Y-1003300D01*
X348030Y-999286D01*
X347980Y-754888D01*
X350012Y-754888D01*
X457200Y-647700D01*
G37*
G36*
X63500Y-330200D02*
G01*
X63500Y-520700D01*
X266700Y-520700D01*
X266700Y-330200D01*
G37*
G36*
X863600Y-114300D02*
G01*
X863600Y-355600D01*
X1219200Y-355600D01*
X1219200Y-114300D01*
G37*
G36*
X1397000Y-114300D02*
G01*
X1397000Y-355600D01*
X1752600Y-355600D01*
X1752600Y-114300D01*
G37*
G36*
X1930400Y-114300D02*
G01*
X1930400Y-355600D01*
X2286000Y-355600D01*
X2286000Y-114300D01*
G37*
G36*
X5943600Y-114300D02*
G01*
X5943600Y-355600D01*
X6299200Y-355600D01*
X6299200Y-114300D01*
G37*
G36*
X6489700Y-114300D02*
G01*
X6489700Y-355600D01*
X6845300Y-355600D01*
X6845300Y-114300D01*
G37*
G36*
X7035800Y-114300D02*
G01*
X7035800Y-355600D01*
X7391400Y-355600D01*
X7391400Y-114300D01*
G37*
G36*
X7581900Y-114300D02*
G01*
X7581900Y-355600D01*
X7937500Y-355600D01*
X7937500Y-114300D01*
G37*
G36*
X8128000Y-114300D02*
G01*
X8128000Y-355600D01*
X8483600Y-355600D01*
X8483600Y-114300D01*
G37*
G36*
X8674100Y-114300D02*
G01*
X8674100Y-355600D01*
X9029700Y-355600D01*
X9029700Y-114300D01*
G37*
G36*
X9220200Y-114300D02*
G01*
X9220200Y-355600D01*
X9575800Y-355600D01*
X9575800Y-114300D01*
G37*
G36*
X9931400Y-114300D02*
G01*
X9931400Y-355600D01*
X10287000Y-355600D01*
X10287000Y-114300D01*
G37*
G36*
X10477500Y-114300D02*
G01*
X10477500Y-355600D01*
X10833100Y-355600D01*
X10833100Y-114300D01*
G37*
G36*
X11023600Y-114300D02*
G01*
X11023600Y-355600D01*
X11379200Y-355600D01*
X11379200Y-114300D01*
G37*
G36*
X11569700Y-114300D02*
G01*
X11569700Y-355600D01*
X11925300Y-355600D01*
X11925300Y-114300D01*
G37*
G36*
X12115800Y-114300D02*
G01*
X12115800Y-355600D01*
X12471400Y-355600D01*
X12471400Y-114300D01*
G37*
G36*
X12661900Y-114300D02*
G01*
X12661900Y-355600D01*
X13017500Y-355600D01*
X13017500Y-114300D01*
G37*
G36*
X13208000Y-114300D02*
G01*
X13208000Y-355600D01*
X13474700Y-355600D01*
X13474700Y-139700D01*
X13449300Y-114300D01*
G37*
G36*
X17310100Y-114300D02*
G01*
X17297400Y-127000D01*
X17297400Y-355600D01*
X17564100Y-355600D01*
X17564100Y-114300D01*
G37*
G36*
X17741900Y-114300D02*
G01*
X17741900Y-355600D01*
X18097500Y-355600D01*
X18097500Y-114300D01*
G37*
G36*
X18275300Y-114300D02*
G01*
X18275300Y-355600D01*
X18630900Y-355600D01*
X18630900Y-114300D01*
G37*
G36*
X18808700Y-114300D02*
G01*
X18808700Y-355600D01*
X19164300Y-355600D01*
X19164300Y-114300D01*
G37*
G36*
X16433800Y-431800D02*
G01*
X16433800Y-736600D01*
X16840200Y-736600D01*
X16840200Y-431800D01*
G37*
G36*
X15938500Y-431800D02*
G01*
X15938500Y-736600D01*
X16344900Y-736600D01*
X16344900Y-431800D01*
G37*
G36*
X15176500Y-431800D02*
G01*
X15176500Y-736600D01*
X15582900Y-736600D01*
X15582900Y-431800D01*
G37*
G36*
X14439900Y-431800D02*
G01*
X14439900Y-736600D01*
X14846300Y-736600D01*
X14846300Y-431800D01*
G37*
G36*
X13944600Y-431800D02*
G01*
X13944600Y-736600D01*
X14351000Y-736600D01*
X14351000Y-431800D01*
G37*
G36*
X5143500Y-431800D02*
G01*
X5143500Y-736600D01*
X5549900Y-736600D01*
X5549900Y-431800D01*
G37*
G36*
X4648200Y-431800D02*
G01*
X4648200Y-736600D01*
X5054600Y-736600D01*
X5054600Y-431800D01*
G37*
G36*
X3898900Y-431800D02*
G01*
X3898900Y-736600D01*
X4305300Y-736600D01*
X4305300Y-431800D01*
G37*
G36*
X3149600Y-431800D02*
G01*
X3149600Y-736600D01*
X3556000Y-736600D01*
X3556000Y-431800D01*
G37*
G36*
X2654300Y-431800D02*
G01*
X2654300Y-736600D01*
X3060700Y-736600D01*
X3060700Y-431800D01*
G37*
G36*
X13639800Y-800100D02*
G01*
X13639800Y-1130300D01*
X16929100Y-1130300D01*
X16941800Y-1117600D01*
X16941800Y-800100D01*
G37*
G36*
X2349500Y-800100D02*
G01*
X2349500Y-1130300D01*
X5638800Y-1130300D01*
X5651500Y-1117600D01*
X5651500Y-800100D01*
G37*
D10*
X881379Y-999236D02*
G01*
X881379Y-858520D01*
X1041400Y-698500D01*
X1041400Y-295910D01*
X1414779Y-999236D02*
G01*
X1414779Y-858520D01*
X1574800Y-698500D01*
X1574800Y-295910D01*
X4407661Y-723900D02*
G01*
X4407661Y-558037D01*
X4419600Y-558037D01*
D11*
X668020Y-999236D02*
G01*
X668020Y-855979D01*
X881379Y-642620D01*
X881379Y-499363D01*
D10*
X508000Y-342900D02*
G01*
X508000Y-584200D01*
X508000Y-584200D02*
G01*
X342137Y-750062D01*
X14936068Y-723900D02*
G01*
X14947900Y-712068D01*
X14947900Y-545236D01*
X14947900Y-545236D02*
G01*
X14972436Y-520700D01*
X15049500Y-520700D01*
X14947900Y-394563D02*
G01*
X14999563Y-342900D01*
X15036800Y-342900D01*
X4419600Y-407261D02*
G01*
X4471261Y-355600D01*
X4508500Y-355600D01*
D11*
X1201420Y-999236D02*
G01*
X1201420Y-855979D01*
X1414779Y-642620D01*
X1414779Y-499363D01*
X1734820Y-999236D02*
G01*
X1734820Y-855979D01*
X1948179Y-642620D01*
X1948179Y-499363D01*
X6281420Y-999236D02*
G01*
X6281420Y-854202D01*
X6506463Y-632968D01*
X6507479Y-499363D01*
X6827520Y-999236D02*
G01*
X6827520Y-854202D01*
X7052563Y-632968D01*
X7053579Y-499363D01*
X7373620Y-999236D02*
G01*
X7373620Y-854202D01*
X7598663Y-632968D01*
X7599679Y-499363D01*
X7919720Y-999236D02*
G01*
X7919720Y-855979D01*
X8145779Y-629920D01*
X8145779Y-499363D01*
X8465820Y-999236D02*
G01*
X8465820Y-855979D01*
X8691879Y-629920D01*
X8691879Y-499363D01*
X9011920Y-999236D02*
G01*
X9011920Y-854202D01*
X9236963Y-632968D01*
X9237979Y-499363D01*
X9558020Y-999236D02*
G01*
X9558020Y-944879D01*
X9949179Y-553720D01*
X9949179Y-499363D01*
X10269220Y-999236D02*
G01*
X10269220Y-854202D01*
X10494263Y-632968D01*
X10495279Y-499363D01*
X10815320Y-999236D02*
G01*
X10815320Y-854202D01*
X11040363Y-632968D01*
X11041379Y-499363D01*
X11361420Y-999236D02*
G01*
X11361420Y-854202D01*
X11586463Y-632968D01*
X11587479Y-499363D01*
X11907520Y-999236D02*
G01*
X11907520Y-854202D01*
X12132563Y-632968D01*
X12133579Y-499363D01*
X12453620Y-999236D02*
G01*
X12453620Y-854202D01*
X12678663Y-632968D01*
X12679679Y-499363D01*
X12999720Y-999236D02*
G01*
X12999720Y-854202D01*
X13224763Y-632968D01*
X13225779Y-499363D01*
X17546320Y-999236D02*
G01*
X17546320Y-855979D01*
X17759679Y-642620D01*
X17759679Y-499363D01*
X18079720Y-999236D02*
G01*
X18079720Y-855979D01*
X18293079Y-642620D01*
X18293079Y-499363D01*
X18613120Y-999236D02*
G01*
X18613120Y-855979D01*
X18826479Y-642620D01*
X18826479Y-499363D01*
X667981Y-499300D02*
G01*
X660400Y-491718D01*
X5961379Y-499363D02*
G01*
X5816600Y-644144D01*
X5816600Y-1231900D01*
X2268220Y-1231900D01*
X2268220Y-999236D01*
X13545820Y-999236D02*
G01*
X13538200Y-1006855D01*
X13538200Y-1231900D01*
X17056100Y-1231900D01*
X17056100Y-669544D01*
X17226279Y-499363D01*
D10*
X1948179Y-999236D02*
G01*
X1948179Y-858520D01*
X2108200Y-698500D01*
X2108200Y-295910D01*
X6507479Y-999236D02*
G01*
X6507479Y-858520D01*
X6667500Y-698500D01*
X6667500Y-295910D01*
X5961379Y-999236D02*
G01*
X5961379Y-858520D01*
X6121400Y-698500D01*
X6121400Y-295910D01*
X7053579Y-999236D02*
G01*
X7053579Y-858520D01*
X7213600Y-698500D01*
X7213600Y-295910D01*
X7599679Y-999236D02*
G01*
X7599679Y-858520D01*
X7759700Y-698500D01*
X7759700Y-295910D01*
X8145779Y-999236D02*
G01*
X8145779Y-858520D01*
X8305800Y-698500D01*
X8305800Y-295910D01*
X8691879Y-999236D02*
G01*
X8691879Y-858520D01*
X8851900Y-698500D01*
X8851900Y-295910D01*
X9237979Y-999236D02*
G01*
X9237979Y-858520D01*
X9398000Y-698500D01*
X9398000Y-295910D01*
X9949179Y-999236D02*
G01*
X9949179Y-858520D01*
X10109200Y-698500D01*
X10109200Y-295910D01*
X10495279Y-999236D02*
G01*
X10495279Y-858520D01*
X10655300Y-698500D01*
X10655300Y-295910D01*
X11041379Y-999236D02*
G01*
X11041379Y-858520D01*
X11201400Y-698500D01*
X11201400Y-295910D01*
X11587479Y-999236D02*
G01*
X11587479Y-858520D01*
X11747500Y-698500D01*
X11747500Y-295910D01*
X12133579Y-999236D02*
G01*
X12133579Y-858520D01*
X12293600Y-698500D01*
X12293600Y-295910D01*
X12679679Y-999236D02*
G01*
X12679679Y-858520D01*
X12839700Y-698500D01*
X12839700Y-295910D01*
X13225779Y-999236D02*
G01*
X13225779Y-858520D01*
X13385800Y-698500D01*
X13385800Y-295910D01*
X17226279Y-999236D02*
G01*
X17226279Y-858520D01*
X17386300Y-698500D01*
X17386300Y-295910D01*
X17759679Y-999236D02*
G01*
X17759679Y-858520D01*
X17919700Y-698500D01*
X17919700Y-295910D01*
X18293079Y-999236D02*
G01*
X18293079Y-858520D01*
X18453100Y-698500D01*
X18453100Y-295910D01*
X18826479Y-999236D02*
G01*
X18826479Y-858520D01*
X18986500Y-698500D01*
X18986500Y-295910D01*
D11*
X347979Y-499361D02*
G01*
X270761Y-499361D01*
X203200Y-431800D01*
X165100Y-431800D01*
D10*
X347979Y-999236D02*
G01*
X347979Y-754887D01*
X4419600Y-557938D02*
G01*
X4456838Y-520700D01*
X4508500Y-520700D01*
D12*
G01*
X14936075Y-723900D03*
G01*
X15086724Y-723900D03*
D13*
G01*
X14947900Y-394575D03*
D14*
G01*
X14947900Y-545236D03*
D13*
G01*
X4419600Y-407275D03*
D14*
G01*
X4419600Y-557936D03*
D12*
G01*
X4407775Y-723900D03*
G01*
X4558424Y-723900D03*
D15*
G01*
X508000Y-346605D03*
D16*
G01*
X508000Y-237591D03*
D15*
G01*
X1041400Y-154505D03*
D16*
G01*
X1041400Y-45491D03*
D15*
G01*
X1574800Y-154505D03*
D16*
G01*
X1574800Y-45491D03*
D15*
G01*
X2108200Y-154505D03*
D16*
G01*
X2108200Y-45491D03*
D15*
G01*
X6121400Y-154505D03*
D16*
G01*
X6121400Y-45491D03*
D15*
G01*
X6667500Y-154505D03*
D16*
G01*
X6667500Y-45491D03*
D15*
G01*
X7213600Y-154505D03*
D16*
G01*
X7213600Y-45491D03*
D15*
G01*
X7759700Y-154505D03*
D16*
G01*
X7759700Y-45491D03*
D15*
G01*
X8305800Y-154505D03*
D16*
G01*
X8305800Y-45491D03*
D15*
G01*
X8851900Y-154505D03*
D16*
G01*
X8851900Y-45491D03*
D15*
G01*
X9398000Y-154505D03*
D16*
G01*
X9398000Y-45491D03*
D15*
G01*
X10109200Y-154505D03*
D16*
G01*
X10109200Y-45491D03*
D15*
G01*
X10655300Y-154505D03*
D16*
G01*
X10655300Y-45491D03*
D15*
G01*
X11201400Y-154505D03*
D16*
G01*
X11201400Y-45491D03*
D15*
G01*
X11747500Y-154505D03*
D16*
G01*
X11747500Y-45491D03*
D15*
G01*
X12293600Y-154505D03*
D16*
G01*
X12293600Y-45491D03*
D15*
G01*
X12839700Y-154505D03*
D16*
G01*
X12839700Y-45491D03*
D15*
G01*
X13385800Y-154505D03*
D16*
G01*
X13385800Y-45491D03*
D15*
G01*
X17386300Y-154505D03*
D16*
G01*
X17386300Y-45491D03*
D15*
G01*
X17919700Y-154505D03*
D16*
G01*
X17919700Y-45491D03*
D15*
G01*
X18453100Y-154505D03*
D16*
G01*
X18453100Y-45491D03*
D15*
G01*
X18986500Y-154505D03*
D16*
G01*
X18986500Y-45491D03*
D17*
G01*
X667994Y-999286D03*
G01*
X348005Y-999286D03*
G01*
X348005Y-499313D03*
G01*
X667994Y-499313D03*
G01*
X1201394Y-999286D03*
G01*
X881405Y-999286D03*
G01*
X881405Y-499313D03*
G01*
X1201394Y-499313D03*
G01*
X1734794Y-999286D03*
G01*
X1414805Y-999286D03*
G01*
X1414805Y-499313D03*
G01*
X1734794Y-499313D03*
G01*
X2268194Y-999286D03*
G01*
X1948205Y-999286D03*
G01*
X1948205Y-499313D03*
G01*
X2268194Y-499313D03*
G01*
X6281394Y-999286D03*
G01*
X5961405Y-999286D03*
G01*
X5961405Y-499313D03*
G01*
X6281394Y-499313D03*
G01*
X6827494Y-999286D03*
G01*
X6507505Y-999286D03*
G01*
X6507505Y-499313D03*
G01*
X6827494Y-499313D03*
G01*
X7373594Y-999286D03*
G01*
X7053605Y-999286D03*
G01*
X7053605Y-499313D03*
G01*
X7373594Y-499313D03*
G01*
X7919694Y-999286D03*
G01*
X7599705Y-999286D03*
G01*
X7599705Y-499313D03*
G01*
X7919694Y-499313D03*
G01*
X8465794Y-999286D03*
G01*
X8145805Y-999286D03*
G01*
X8145805Y-499313D03*
G01*
X8465794Y-499313D03*
G01*
X9011894Y-999286D03*
G01*
X8691905Y-999286D03*
G01*
X8691905Y-499313D03*
G01*
X9011894Y-499313D03*
G01*
X9557994Y-999286D03*
G01*
X9238005Y-999286D03*
G01*
X9238005Y-499313D03*
G01*
X9557994Y-499313D03*
G01*
X10269194Y-999286D03*
G01*
X9949205Y-999286D03*
G01*
X9949205Y-499313D03*
G01*
X10269194Y-499313D03*
G01*
X10815294Y-999286D03*
G01*
X10495305Y-999286D03*
G01*
X10495305Y-499313D03*
G01*
X10815294Y-499313D03*
G01*
X11361394Y-999286D03*
G01*
X11041405Y-999286D03*
G01*
X11041405Y-499313D03*
G01*
X11361394Y-499313D03*
G01*
X11907494Y-999286D03*
G01*
X11587505Y-999286D03*
G01*
X11587505Y-499313D03*
G01*
X11907494Y-499313D03*
G01*
X12453594Y-999286D03*
G01*
X12133605Y-999286D03*
G01*
X12133605Y-499313D03*
G01*
X12453594Y-499313D03*
G01*
X12999694Y-999286D03*
G01*
X12679705Y-999286D03*
G01*
X12679705Y-499313D03*
G01*
X12999694Y-499313D03*
G01*
X13545794Y-999286D03*
G01*
X13225805Y-999286D03*
G01*
X13225805Y-499313D03*
G01*
X13545794Y-499313D03*
G01*
X17546294Y-999286D03*
G01*
X17226305Y-999286D03*
G01*
X17226305Y-499313D03*
G01*
X17546294Y-499313D03*
G01*
X18079694Y-999286D03*
G01*
X17759705Y-999286D03*
G01*
X17759705Y-499313D03*
G01*
X18079694Y-499313D03*
G01*
X18613094Y-999286D03*
G01*
X18293105Y-999286D03*
G01*
X18293105Y-499313D03*
G01*
X18613094Y-499313D03*
G01*
X19146494Y-999286D03*
G01*
X18826505Y-999286D03*
G01*
X18826505Y-499313D03*
G01*
X19146494Y-499313D03*
D18*
G01*
X2857500Y-497126D03*
D19*
G01*
X2857500Y116128D03*
D18*
G01*
X3352800Y-497126D03*
D19*
G01*
X3352800Y116128D03*
D18*
G01*
X4102100Y-497126D03*
D19*
G01*
X4102100Y116128D03*
D18*
G01*
X4851400Y-497126D03*
D19*
G01*
X4851400Y116128D03*
D18*
G01*
X5346700Y-497126D03*
D19*
G01*
X5346700Y116128D03*
D18*
G01*
X14147800Y-497126D03*
D19*
G01*
X14147800Y116128D03*
D18*
G01*
X14643100Y-497126D03*
D19*
G01*
X14643100Y116128D03*
D18*
G01*
X15379700Y-497126D03*
D19*
G01*
X15379700Y116128D03*
D18*
G01*
X16141700Y-497126D03*
D19*
G01*
X16141700Y116128D03*
D18*
G01*
X16637000Y-497126D03*
D19*
G01*
X16637000Y116128D03*
D20*
G01*
X292100Y-101600D03*
D21*
G01*
X2857500Y-676147D03*
D22*
G01*
X2857500Y-898652D03*
D21*
G01*
X3352800Y-676147D03*
D22*
G01*
X3352800Y-898652D03*
D21*
G01*
X4102100Y-704011D03*
D22*
G01*
X4102100Y-926515D03*
D21*
G01*
X4851400Y-676147D03*
D22*
G01*
X4851400Y-898652D03*
D21*
G01*
X5346700Y-676147D03*
D22*
G01*
X5346700Y-898652D03*
D21*
G01*
X14147800Y-676147D03*
D22*
G01*
X14147800Y-898652D03*
D21*
G01*
X14643100Y-676147D03*
D22*
G01*
X14643100Y-898652D03*
D21*
G01*
X15379700Y-676147D03*
D22*
G01*
X15379700Y-898652D03*
D21*
G01*
X16141700Y-676147D03*
D22*
G01*
X16141700Y-898652D03*
D21*
G01*
X16637000Y-676147D03*
D22*
G01*
X16637000Y-898652D03*
D23*
G01*
X76200Y-38100D03*
G01*
X76200Y-101600D03*
G01*
X76200Y-165100D03*
G01*
X131622Y-132892D03*
G01*
X131622Y-69392D03*
G01*
X190500Y-163296D03*
G01*
X190500Y-99796D03*
G01*
X190500Y-36296D03*
G01*
X247650Y-133350D03*
G01*
X247650Y-69850D03*
G01*
X304800Y-163296D03*
G01*
X304800Y-99796D03*
G01*
X304800Y-36296D03*
G01*
X361950Y-69850D03*
G01*
X361950Y-133350D03*
G01*
X419100Y-163296D03*
G01*
X419100Y-99796D03*
G01*
X419100Y-36296D03*
G01*
X476250Y-69850D03*
G01*
X476250Y-133350D03*
D24*
G01*
X14999970Y149987D03*
G01*
X15049500Y88900D03*
G01*
X14998700Y25400D03*
G01*
X14947900Y88900D03*
G01*
X14947900Y-25400D03*
G01*
X15100300Y25400D03*
G01*
X15049500Y-25400D03*
G01*
X14897100Y25400D03*
G01*
X14897100Y-76200D03*
G01*
X14998700Y-76200D03*
G01*
X15100300Y-76200D03*
G01*
X15659100Y-76200D03*
G01*
X15760700Y-76200D03*
G01*
X15862300Y-76200D03*
G01*
X15811500Y-25400D03*
G01*
X15709900Y-25400D03*
G01*
X15659100Y25400D03*
G01*
X15760700Y25400D03*
G01*
X15862300Y25400D03*
G01*
X15811500Y88900D03*
G01*
X15709900Y88900D03*
G01*
X15661970Y149987D03*
G01*
X15761970Y149987D03*
G01*
X15861969Y149987D03*
G01*
X13843330Y65887D03*
G01*
X13843330Y-48412D03*
G01*
X13894130Y2387D03*
G01*
X13893800Y127000D03*
G01*
X16878300Y127000D03*
G01*
X16929100Y76200D03*
G01*
X16979900Y25400D03*
G01*
X16878300Y25400D03*
G01*
X16929100Y-25400D03*
G01*
X16878300Y-76200D03*
G01*
X5613400Y127000D03*
G01*
X5664200Y76200D03*
G01*
X5613400Y25400D03*
G01*
X5664200Y-25400D03*
G01*
X5613400Y-76200D03*
G01*
X4572000Y114300D03*
G01*
X4521200Y63500D03*
G01*
X4572000Y12700D03*
G01*
X4470400Y12700D03*
G01*
X4521200Y-38100D03*
G01*
X4419600Y-38100D03*
G01*
X4368800Y12700D03*
G01*
X4419600Y63500D03*
G01*
X4470400Y114300D03*
G01*
X4368800Y114300D03*
G01*
X3822700Y114300D03*
G01*
X3771900Y63500D03*
G01*
X3822700Y12700D03*
G01*
X3771900Y-38100D03*
G01*
X3670300Y-38100D03*
G01*
X3619500Y12700D03*
G01*
X3670300Y63500D03*
G01*
X3721100Y12700D03*
G01*
X3721100Y114300D03*
G01*
X3619500Y114300D03*
G01*
X2628900Y127000D03*
G01*
X2578430Y65887D03*
G01*
X2629230Y2387D03*
G01*
X2578430Y-48412D03*
G01*
X2527630Y2387D03*
D23*
G01*
X18846800Y-190500D03*
G01*
X18846800Y-254000D03*
G01*
X18910300Y-254000D03*
G01*
X18910300Y-317500D03*
G01*
X19062700Y-317500D03*
G01*
X19062700Y-254000D03*
G01*
X19126200Y-254000D03*
G01*
X19126200Y-190500D03*
G01*
X19126200Y-317500D03*
G01*
X18846800Y-317500D03*
G01*
X18884900Y-12700D03*
G01*
X18884900Y50800D03*
G01*
X19088100Y50800D03*
G01*
X19088100Y-12700D03*
G01*
X18821400Y-12700D03*
G01*
X18821400Y50800D03*
G01*
X19151600Y-12700D03*
G01*
X19151600Y50800D03*
G01*
X18757900Y-12700D03*
G01*
X18757900Y50800D03*
G01*
X19215100Y-12700D03*
G01*
X19215100Y50800D03*
G01*
X18592800Y-317500D03*
G01*
X18529300Y-317500D03*
G01*
X18529300Y-254000D03*
G01*
X18592800Y-254000D03*
G01*
X18592800Y-190500D03*
G01*
X18376900Y-317500D03*
G01*
X18313400Y-317500D03*
G01*
X18313400Y-254000D03*
G01*
X18376900Y-254000D03*
G01*
X18313400Y-190500D03*
G01*
X18351500Y-12700D03*
G01*
X18288000Y-12700D03*
G01*
X18224500Y-12700D03*
G01*
X18224500Y50800D03*
G01*
X18288000Y50800D03*
G01*
X18351500Y50800D03*
G01*
X18554700Y-12700D03*
G01*
X18554700Y50800D03*
G01*
X18618200Y50800D03*
G01*
X18618200Y-12700D03*
G01*
X18681700Y-12700D03*
G01*
X18681700Y50800D03*
G01*
X18059400Y-317500D03*
G01*
X17995900Y-317500D03*
G01*
X17995900Y-254000D03*
G01*
X18059400Y-254000D03*
G01*
X18059400Y-190500D03*
G01*
X17843500Y-317500D03*
G01*
X17780000Y-317500D03*
G01*
X17780000Y-254000D03*
G01*
X17843500Y-254000D03*
G01*
X17780000Y-190500D03*
G01*
X17818100Y-12700D03*
G01*
X17754600Y-12700D03*
G01*
X17691100Y-12700D03*
G01*
X17691100Y50800D03*
G01*
X17754600Y50800D03*
G01*
X17818100Y50800D03*
G01*
X18021300Y-12700D03*
G01*
X18021300Y50800D03*
G01*
X18084800Y50800D03*
G01*
X18084800Y-12700D03*
G01*
X18148300Y-12700D03*
G01*
X18148300Y50800D03*
G01*
X17526000Y-317500D03*
G01*
X17462500Y-317500D03*
G01*
X17462500Y-254000D03*
G01*
X17526000Y-254000D03*
G01*
X17526000Y-190500D03*
G01*
X17284700Y-12700D03*
G01*
X17221200Y-12700D03*
G01*
X17157700Y-12700D03*
G01*
X17157700Y50800D03*
G01*
X17221200Y50800D03*
G01*
X17284700Y50800D03*
G01*
X17487900Y-12700D03*
G01*
X17487900Y50800D03*
G01*
X17551400Y50800D03*
G01*
X17551400Y-12700D03*
G01*
X17614900Y-12700D03*
G01*
X17614900Y50800D03*
G01*
X13309600Y-328091D03*
G01*
X13246100Y-328091D03*
G01*
X13246100Y-264591D03*
G01*
X13309600Y-264591D03*
G01*
X13246100Y-201091D03*
G01*
X13284200Y-23291D03*
G01*
X13220700Y-23291D03*
G01*
X13157200Y-23291D03*
G01*
X13157200Y40208D03*
G01*
X13220700Y40208D03*
G01*
X13284200Y40208D03*
G01*
X13487400Y-23291D03*
G01*
X13487400Y40208D03*
G01*
X13550900Y40208D03*
G01*
X13550900Y-23291D03*
G01*
X13614400Y-23291D03*
G01*
X13614400Y40208D03*
G01*
X12979400Y-317500D03*
G01*
X12915900Y-317500D03*
G01*
X12915900Y-254000D03*
G01*
X12979400Y-254000D03*
G01*
X12979400Y-190500D03*
G01*
X12763500Y-317500D03*
G01*
X12700000Y-317500D03*
G01*
X12700000Y-254000D03*
G01*
X12763500Y-254000D03*
G01*
X12700000Y-190500D03*
G01*
X12738100Y-12700D03*
G01*
X12674600Y-12700D03*
G01*
X12611100Y-12700D03*
G01*
X12611100Y50800D03*
G01*
X12674600Y50800D03*
G01*
X12738100Y50800D03*
G01*
X12941300Y-12700D03*
G01*
X12941300Y50800D03*
G01*
X13004800Y50800D03*
G01*
X13004800Y-12700D03*
G01*
X13068300Y-12700D03*
G01*
X13068300Y50800D03*
G01*
X12433300Y-317500D03*
G01*
X12369800Y-317500D03*
G01*
X12369800Y-254000D03*
G01*
X12433300Y-254000D03*
G01*
X12433300Y-190500D03*
G01*
X12217400Y-317500D03*
G01*
X12153900Y-317500D03*
G01*
X12153900Y-254000D03*
G01*
X12217400Y-254000D03*
G01*
X12153900Y-190500D03*
G01*
X12192000Y-12700D03*
G01*
X12128500Y-12700D03*
G01*
X12065000Y-12700D03*
G01*
X12065000Y50800D03*
G01*
X12128500Y50800D03*
G01*
X12192000Y50800D03*
G01*
X12395200Y-12700D03*
G01*
X12395200Y50800D03*
G01*
X12458700Y50800D03*
G01*
X12458700Y-12700D03*
G01*
X12522200Y-12700D03*
G01*
X12522200Y50800D03*
G01*
X11887200Y-317500D03*
G01*
X11823700Y-317500D03*
G01*
X11823700Y-254000D03*
G01*
X11887200Y-254000D03*
G01*
X11887200Y-190500D03*
G01*
X11671300Y-317500D03*
G01*
X11607800Y-317500D03*
G01*
X11607800Y-254000D03*
G01*
X11671300Y-254000D03*
G01*
X11607800Y-190500D03*
G01*
X11645900Y-12700D03*
G01*
X11582400Y-12700D03*
G01*
X11518900Y-12700D03*
G01*
X11518900Y50800D03*
G01*
X11582400Y50800D03*
G01*
X11645900Y50800D03*
G01*
X11849100Y-12700D03*
G01*
X11849100Y50800D03*
G01*
X11912600Y50800D03*
G01*
X11912600Y-12700D03*
G01*
X11976100Y-12700D03*
G01*
X11976100Y50800D03*
G01*
X11341100Y-317500D03*
G01*
X11277600Y-317500D03*
G01*
X11277600Y-254000D03*
G01*
X11341100Y-254000D03*
G01*
X11341100Y-190500D03*
G01*
X11125200Y-317500D03*
G01*
X11061700Y-317500D03*
G01*
X11061700Y-254000D03*
G01*
X11125200Y-254000D03*
G01*
X11061700Y-190500D03*
G01*
X11099800Y-12700D03*
G01*
X11036300Y-12700D03*
G01*
X10972800Y-12700D03*
G01*
X10972800Y50800D03*
G01*
X11036300Y50800D03*
G01*
X11099800Y50800D03*
G01*
X11303000Y-12700D03*
G01*
X11303000Y50800D03*
G01*
X11366500Y50800D03*
G01*
X11366500Y-12700D03*
G01*
X11430000Y-12700D03*
G01*
X11430000Y50800D03*
G01*
X10795000Y-317500D03*
G01*
X10731500Y-317500D03*
G01*
X10731500Y-254000D03*
G01*
X10795000Y-254000D03*
G01*
X10795000Y-190500D03*
G01*
X10579100Y-317500D03*
G01*
X10515600Y-317500D03*
G01*
X10515600Y-254000D03*
G01*
X10579100Y-254000D03*
G01*
X10515600Y-190500D03*
G01*
X10553700Y-12700D03*
G01*
X10490200Y-12700D03*
G01*
X10426700Y-12700D03*
G01*
X10426700Y50800D03*
G01*
X10490200Y50800D03*
G01*
X10553700Y50800D03*
G01*
X10756900Y-12700D03*
G01*
X10756900Y50800D03*
G01*
X10820400Y50800D03*
G01*
X10820400Y-12700D03*
G01*
X10883900Y-12700D03*
G01*
X10883900Y50800D03*
G01*
X10248900Y-317500D03*
G01*
X10185400Y-317500D03*
G01*
X10185400Y-254000D03*
G01*
X10248900Y-254000D03*
G01*
X10248900Y-190500D03*
G01*
X10033000Y-317500D03*
G01*
X9969500Y-317500D03*
G01*
X9969500Y-254000D03*
G01*
X10033000Y-254000D03*
G01*
X9969500Y-190500D03*
G01*
X10007600Y-12700D03*
G01*
X9944100Y-12700D03*
G01*
X9880600Y-12700D03*
G01*
X9880600Y50800D03*
G01*
X9944100Y50800D03*
G01*
X10007600Y50800D03*
G01*
X10210800Y-12700D03*
G01*
X10210800Y50800D03*
G01*
X10274300Y50800D03*
G01*
X10274300Y-12700D03*
G01*
X10337800Y-12700D03*
G01*
X10337800Y50800D03*
G01*
X9537700Y-317500D03*
G01*
X9474200Y-317500D03*
G01*
X9474200Y-254000D03*
G01*
X9537700Y-254000D03*
G01*
X9537700Y-190500D03*
G01*
X9321800Y-317500D03*
G01*
X9258300Y-317500D03*
G01*
X9258300Y-254000D03*
G01*
X9321800Y-254000D03*
G01*
X9258300Y-190500D03*
G01*
X9296400Y-12700D03*
G01*
X9232900Y-12700D03*
G01*
X9169400Y-12700D03*
G01*
X9169400Y50800D03*
G01*
X9232900Y50800D03*
G01*
X9296400Y50800D03*
G01*
X9499600Y-12700D03*
G01*
X9499600Y50800D03*
G01*
X9563100Y50800D03*
G01*
X9563100Y-12700D03*
G01*
X9626600Y-12700D03*
G01*
X9626600Y50800D03*
G01*
X8991600Y-317500D03*
G01*
X8928100Y-317500D03*
G01*
X8928100Y-254000D03*
G01*
X8991600Y-254000D03*
G01*
X8991600Y-190500D03*
G01*
X8775700Y-317500D03*
G01*
X8712200Y-317500D03*
G01*
X8712200Y-254000D03*
G01*
X8775700Y-254000D03*
G01*
X8712200Y-190500D03*
G01*
X8750300Y-12700D03*
G01*
X8686800Y-12700D03*
G01*
X8623300Y-12700D03*
G01*
X8623300Y50800D03*
G01*
X8686800Y50800D03*
G01*
X8750300Y50800D03*
G01*
X8953500Y-12700D03*
G01*
X8953500Y50800D03*
G01*
X9017000Y50800D03*
G01*
X9017000Y-12700D03*
G01*
X9080500Y-12700D03*
G01*
X9080500Y50800D03*
G01*
X8445500Y-317500D03*
G01*
X8382000Y-317500D03*
G01*
X8382000Y-254000D03*
G01*
X8445500Y-254000D03*
G01*
X8445500Y-190500D03*
G01*
X8229600Y-317500D03*
G01*
X8166100Y-317500D03*
G01*
X8166100Y-254000D03*
G01*
X8229600Y-254000D03*
G01*
X8166100Y-190500D03*
G01*
X8204200Y-12700D03*
G01*
X8140700Y-12700D03*
G01*
X8077200Y-12700D03*
G01*
X8077200Y50800D03*
G01*
X8140700Y50800D03*
G01*
X8204200Y50800D03*
G01*
X8407400Y-12700D03*
G01*
X8407400Y50800D03*
G01*
X8470900Y50800D03*
G01*
X8470900Y-12700D03*
G01*
X8534400Y-12700D03*
G01*
X8534400Y50800D03*
G01*
X7899400Y-317500D03*
G01*
X7835900Y-317500D03*
G01*
X7835900Y-254000D03*
G01*
X7899400Y-254000D03*
G01*
X7899400Y-190500D03*
G01*
X7683500Y-317500D03*
G01*
X7620000Y-317500D03*
G01*
X7620000Y-254000D03*
G01*
X7683500Y-254000D03*
G01*
X7620000Y-190500D03*
G01*
X7658100Y-12700D03*
G01*
X7594600Y-12700D03*
G01*
X7531100Y-12700D03*
G01*
X7531100Y50800D03*
G01*
X7594600Y50800D03*
G01*
X7658100Y50800D03*
G01*
X7861300Y-12700D03*
G01*
X7861300Y50800D03*
G01*
X7924800Y50800D03*
G01*
X7924800Y-12700D03*
G01*
X7988300Y-12700D03*
G01*
X7988300Y50800D03*
G01*
X7353300Y-317500D03*
G01*
X7289800Y-317500D03*
G01*
X7289800Y-254000D03*
G01*
X7353300Y-254000D03*
G01*
X7353300Y-190500D03*
G01*
X7137400Y-317500D03*
G01*
X7073900Y-317500D03*
G01*
X7073900Y-254000D03*
G01*
X7137400Y-254000D03*
G01*
X7073900Y-190500D03*
G01*
X7112000Y-12700D03*
G01*
X7048500Y-12700D03*
G01*
X6985000Y-12700D03*
G01*
X6985000Y50800D03*
G01*
X7048500Y50800D03*
G01*
X7112000Y50800D03*
G01*
X7315200Y-12700D03*
G01*
X7315200Y50800D03*
G01*
X7378700Y50800D03*
G01*
X7378700Y-12700D03*
G01*
X7442200Y-12700D03*
G01*
X7442200Y50800D03*
G01*
X6807200Y-317500D03*
G01*
X6743700Y-317500D03*
G01*
X6743700Y-254000D03*
G01*
X6807200Y-254000D03*
G01*
X6807200Y-190500D03*
G01*
X6591300Y-317500D03*
G01*
X6527800Y-317500D03*
G01*
X6527800Y-254000D03*
G01*
X6591300Y-254000D03*
G01*
X6527800Y-190500D03*
G01*
X6565900Y-12700D03*
G01*
X6502400Y-12700D03*
G01*
X6438900Y-12700D03*
G01*
X6438900Y50800D03*
G01*
X6502400Y50800D03*
G01*
X6565900Y50800D03*
G01*
X6769100Y-12700D03*
G01*
X6769100Y50800D03*
G01*
X6832600Y50800D03*
G01*
X6832600Y-12700D03*
G01*
X6896100Y-12700D03*
G01*
X6896100Y50800D03*
G01*
X6261100Y-317500D03*
G01*
X6197600Y-317500D03*
G01*
X6197600Y-254000D03*
G01*
X6261100Y-254000D03*
G01*
X6261100Y-190500D03*
G01*
X6045200Y-317500D03*
G01*
X5981700Y-317500D03*
G01*
X5981700Y-254000D03*
G01*
X6045200Y-254000D03*
G01*
X5981700Y-190500D03*
G01*
X6019800Y-12700D03*
G01*
X5956300Y-12700D03*
G01*
X5892800Y-12700D03*
G01*
X5892800Y50800D03*
G01*
X5956300Y50800D03*
G01*
X6019800Y50800D03*
G01*
X6223000Y-12700D03*
G01*
X6223000Y50800D03*
G01*
X6286500Y50800D03*
G01*
X6286500Y-12700D03*
G01*
X6350000Y-12700D03*
G01*
X6350000Y50800D03*
G01*
X2247900Y-317500D03*
G01*
X2184400Y-317500D03*
G01*
X2184400Y-254000D03*
G01*
X2247900Y-254000D03*
G01*
X2247900Y-190500D03*
G01*
X2032000Y-317500D03*
G01*
X1968500Y-317500D03*
G01*
X1968500Y-254000D03*
G01*
X2032000Y-254000D03*
G01*
X1968500Y-190500D03*
G01*
X2006600Y-12700D03*
G01*
X1943100Y-12700D03*
G01*
X1879600Y-12700D03*
G01*
X1879600Y50800D03*
G01*
X1943100Y50800D03*
G01*
X2006600Y50800D03*
G01*
X2209800Y-12700D03*
G01*
X2209800Y50800D03*
G01*
X2273300Y50800D03*
G01*
X2273300Y-12700D03*
G01*
X2336800Y-12700D03*
G01*
X2336800Y50800D03*
G01*
X1714500Y-317500D03*
G01*
X1651000Y-317500D03*
G01*
X1651000Y-254000D03*
G01*
X1714500Y-254000D03*
G01*
X1714500Y-190500D03*
G01*
X1498600Y-317500D03*
G01*
X1435100Y-317500D03*
G01*
X1435100Y-254000D03*
G01*
X1498600Y-254000D03*
G01*
X1435100Y-190500D03*
G01*
X1473200Y-12700D03*
G01*
X1409700Y-12700D03*
G01*
X1346200Y-12700D03*
G01*
X1346200Y50800D03*
G01*
X1409700Y50800D03*
G01*
X1473200Y50800D03*
G01*
X1676400Y-12700D03*
G01*
X1676400Y50800D03*
G01*
X1739900Y50800D03*
G01*
X1739900Y-12700D03*
G01*
X1803400Y-12700D03*
G01*
X1803400Y50800D03*
G01*
X1181100Y-317500D03*
G01*
X1117600Y-317500D03*
G01*
X1117600Y-254000D03*
G01*
X1181100Y-254000D03*
G01*
X1181100Y-190500D03*
G01*
X965200Y-317500D03*
G01*
X901700Y-317500D03*
G01*
X901700Y-254000D03*
G01*
X965200Y-254000D03*
G01*
X901700Y-190500D03*
G01*
X939800Y-12700D03*
G01*
X876300Y-12700D03*
G01*
X812800Y-12700D03*
G01*
X812800Y50800D03*
G01*
X876300Y50800D03*
G01*
X939800Y50800D03*
G01*
X1143000Y-12700D03*
G01*
X1143000Y50800D03*
G01*
X1206500Y50800D03*
G01*
X1206500Y-12700D03*
G01*
X1270000Y-12700D03*
G01*
X1270000Y50800D03*
G01*
X609600Y-12700D03*
G01*
X609600Y50800D03*
G01*
X673100Y50800D03*
G01*
X673100Y-12700D03*
G01*
X736600Y-12700D03*
G01*
X736600Y50800D03*
G01*
X1041400Y-295910D03*
G01*
X101600Y-495300D03*
G01*
X228600Y-495300D03*
G01*
X228600Y-431800D03*
G01*
X165100Y-431800D03*
G01*
X101600Y-431800D03*
G01*
X101600Y-368300D03*
G01*
X165100Y-368300D03*
G01*
X228600Y-368300D03*
D24*
G01*
X4635500Y-1014399D03*
G01*
X4635500Y-1114399D03*
G01*
X4574413Y-1063929D03*
G01*
X4510913Y-1114729D03*
G01*
X4460113Y-1063929D03*
G01*
X4409313Y-1114729D03*
G01*
X4358513Y-1063929D03*
G01*
X4307713Y-1114729D03*
G01*
X4307713Y-1013129D03*
G01*
X4409313Y-1013129D03*
G01*
X4510913Y-1013129D03*
G01*
X3670300Y-1117600D03*
G01*
X3568700Y-1117600D03*
G01*
X3619500Y-1066800D03*
G01*
X3568700Y-1016000D03*
G01*
X3670300Y-1016000D03*
G01*
X3721100Y-1066800D03*
G01*
X3771900Y-1016000D03*
G01*
X3771900Y-1117600D03*
G01*
X3835400Y-1066800D03*
G01*
X3896512Y-1117269D03*
G01*
X3896512Y-1017270D03*
G01*
X3162300Y-1016000D03*
G01*
X3060700Y-1016000D03*
G01*
X2705100Y-1066800D03*
G01*
X2806700Y-1066800D03*
G01*
X2908300Y-1066800D03*
G01*
X3416300Y-1066800D03*
G01*
X3517900Y-1066800D03*
G01*
X3213100Y-1066800D03*
G01*
X3314700Y-1066800D03*
G01*
X3009900Y-1066800D03*
G01*
X3111500Y-1066800D03*
G01*
X3111500Y-965200D03*
G01*
X4699000Y-1066800D03*
G01*
X4800600Y-1066800D03*
G01*
X4902200Y-1066800D03*
G01*
X5003800Y-1066800D03*
G01*
X5054600Y-1016000D03*
G01*
X5105400Y-965200D03*
G01*
X5105400Y-1066800D03*
G01*
X5156200Y-1016000D03*
G01*
X5207000Y-1066800D03*
G01*
X5308600Y-1066800D03*
G01*
X5410200Y-1066800D03*
G01*
X5511800Y-1066800D03*
G01*
X13982700Y-1066800D03*
G01*
X14084300Y-1066800D03*
G01*
X14185900Y-1066800D03*
G01*
X14287500Y-1066800D03*
G01*
X14338300Y-1016000D03*
G01*
X14389100Y-1066800D03*
G01*
X14439900Y-1016000D03*
G01*
X14389100Y-965200D03*
G01*
X14490700Y-1066800D03*
G01*
X14592300Y-1066800D03*
G01*
X14693900Y-1066800D03*
G01*
X14795500Y-1066800D03*
G01*
X14846300Y-1016000D03*
G01*
X14897100Y-1066800D03*
G01*
X14846300Y-1117600D03*
G01*
X14947900Y-1117600D03*
G01*
X14998700Y-1066800D03*
G01*
X14947900Y-1016000D03*
G01*
X15049500Y-1016000D03*
G01*
X15049500Y-1117600D03*
G01*
X15174112Y-1117269D03*
G01*
X15113000Y-1066800D03*
G01*
X15174112Y-1017270D03*
G01*
X15585313Y-1013129D03*
G01*
X15636113Y-1063929D03*
G01*
X15585313Y-1114729D03*
G01*
X15686913Y-1114729D03*
G01*
X15737713Y-1063929D03*
G01*
X15788513Y-1013129D03*
G01*
X15852013Y-1063929D03*
G01*
X15788513Y-1114729D03*
G01*
X15913100Y-1114399D03*
G01*
X15913100Y-1014399D03*
G01*
X15976600Y-1066800D03*
G01*
X16078200Y-1066800D03*
G01*
X16179800Y-1066800D03*
G01*
X16281400Y-1066800D03*
G01*
X16332200Y-1016000D03*
G01*
X16383000Y-965200D03*
G01*
X16433800Y-1016000D03*
G01*
X16383000Y-1066800D03*
G01*
X16484600Y-1066800D03*
G01*
X16586200Y-1066800D03*
G01*
X16687800Y-1066800D03*
G01*
X16789400Y-1066800D03*
D23*
G01*
X76200Y-698500D03*
G01*
X76200Y-762000D03*
G01*
X76200Y-635000D03*
G01*
X132892Y-667207D03*
G01*
X132892Y-730707D03*
G01*
X247192Y-730707D03*
G01*
X247192Y-667207D03*
G01*
X190500Y-698500D03*
G01*
X190500Y-635000D03*
G01*
X190500Y-762000D03*
G01*
X361492Y-730707D03*
G01*
X361492Y-667207D03*
G01*
X304800Y-698500D03*
G01*
X304800Y-762000D03*
G01*
X15049500Y-520700D03*
G01*
X4508500Y-520700D03*
D24*
G01*
X15099969Y149987D03*
G01*
X14899970Y149987D03*
D23*
G01*
X4508500Y-355600D03*
G01*
X15036800Y-342900D03*
M02*
