G04 Layer: TopSolderMaskLayer*
G04 EasyEDA v6.5.44, 2024-08-25 02:09:30*
G04 b6d350bfa83344e8a21db83960d40df2,c23a61fc8c4145e6967fd80801f93d45,10*
G04 Gerber Generator version 0.2*
G04 Scale: 100 percent, Rotated: No, Reflected: No *
G04 Dimensions in millimeters *
G04 leading zeros omitted , absolute positions ,4 integer and 5 decimal *
%FSLAX45Y45*%
%MOMM*%

%AMMACRO1*4,1,8,-0.4243,-0.4828,-0.454,-0.453,-0.454,0.4531,-0.4243,0.4828,0.4243,0.4828,0.454,0.4531,0.454,-0.453,0.4243,-0.4828,-0.4243,-0.4828,0*%
%AMMACRO2*4,1,8,-0.4531,-0.454,-0.4828,-0.4243,-0.4828,0.4243,-0.4531,0.454,0.453,0.454,0.4828,0.4243,0.4828,-0.4243,0.453,-0.454,-0.4531,-0.454,0*%
%AMMACRO3*4,1,8,-0.2911,-0.4458,-0.3208,-0.4161,-0.3208,0.4161,-0.2911,0.4458,0.291,0.4458,0.3208,0.4161,0.3208,-0.4161,0.291,-0.4458,-0.2911,-0.4458,0*%
%AMMACRO4*4,1,8,-0.5211,-0.9508,-0.5508,-0.921,-0.5508,0.9211,-0.5211,0.9508,0.521,0.9508,0.5508,0.9211,0.5508,-0.921,0.521,-0.9508,-0.5211,-0.9508,0*%
%AMMACRO5*4,1,8,-1.749,-0.6921,-1.7788,-0.6623,-1.7788,0.6623,-1.749,0.6921,1.749,0.6921,1.7788,0.6623,1.7788,-0.6623,1.749,-0.6921,-1.749,-0.6921,0*%
%AMMACRO6*4,1,8,-2.5421,-1.0016,-2.6016,-0.9421,-2.6016,0.9421,-2.5421,1.0016,2.5421,1.0016,2.6016,0.9421,2.6016,-0.9421,2.5421,-1.0016,-2.5421,-1.0016,0*%
%AMMACRO7*4,1,8,-1.1211,-0.6758,-1.1508,-0.646,-1.1508,0.646,-1.1211,0.6758,1.121,0.6758,1.1508,0.646,1.1508,-0.646,1.121,-0.6758,-1.1211,-0.6758,0*%
%AMMACRO8*4,1,8,-1.1211,-1.1508,-1.1508,-1.121,-1.1508,1.1211,-1.1211,1.1508,1.121,1.1508,1.1508,1.1211,1.1508,-1.121,1.121,-1.1508,-1.1211,-1.1508,0*%
%ADD10MACRO1*%
%ADD11MACRO2*%
%ADD12MACRO3*%
%ADD13MACRO4*%
%ADD14MACRO5*%
%ADD15MACRO6*%
%ADD16MACRO7*%
%ADD17MACRO8*%

%LPD*%
D10*
G01*
X14936075Y-723900D03*
G01*
X15086724Y-723900D03*
D11*
G01*
X14947900Y-394575D03*
G01*
X14947900Y-545224D03*
G01*
X4419600Y-407275D03*
G01*
X4419600Y-557924D03*
D10*
G01*
X4407775Y-723900D03*
G01*
X4558424Y-723900D03*
D12*
G01*
X508000Y-346605D03*
G01*
X508000Y-237594D03*
G01*
X1041400Y-154505D03*
G01*
X1041400Y-45493D03*
G01*
X1574800Y-154505D03*
G01*
X1574800Y-45493D03*
G01*
X2108200Y-154505D03*
G01*
X2108200Y-45493D03*
G01*
X6121400Y-154505D03*
G01*
X6121400Y-45493D03*
G01*
X6667500Y-154505D03*
G01*
X6667500Y-45493D03*
G01*
X7213600Y-154505D03*
G01*
X7213600Y-45493D03*
G01*
X7759700Y-154505D03*
G01*
X7759700Y-45493D03*
G01*
X8305800Y-154505D03*
G01*
X8305800Y-45493D03*
G01*
X8851900Y-154505D03*
G01*
X8851900Y-45493D03*
G01*
X9398000Y-154505D03*
G01*
X9398000Y-45493D03*
G01*
X10109200Y-154505D03*
G01*
X10109200Y-45493D03*
G01*
X10655300Y-154505D03*
G01*
X10655300Y-45493D03*
G01*
X11201400Y-154505D03*
G01*
X11201400Y-45493D03*
G01*
X11747500Y-154505D03*
G01*
X11747500Y-45493D03*
G01*
X12293600Y-154505D03*
G01*
X12293600Y-45493D03*
G01*
X12839700Y-154505D03*
G01*
X12839700Y-45493D03*
G01*
X13385800Y-154505D03*
G01*
X13385800Y-45493D03*
G01*
X17386300Y-154505D03*
G01*
X17386300Y-45493D03*
G01*
X17919700Y-154505D03*
G01*
X17919700Y-45493D03*
G01*
X18453100Y-154505D03*
G01*
X18453100Y-45493D03*
G01*
X18986500Y-154505D03*
G01*
X18986500Y-45493D03*
D13*
G01*
X667981Y-999299D03*
G01*
X348007Y-999299D03*
G01*
X348007Y-499300D03*
G01*
X667981Y-499300D03*
G01*
X1201381Y-999299D03*
G01*
X881407Y-999299D03*
G01*
X881407Y-499300D03*
G01*
X1201381Y-499300D03*
G01*
X1734781Y-999299D03*
G01*
X1414807Y-999299D03*
G01*
X1414807Y-499300D03*
G01*
X1734781Y-499300D03*
G01*
X2268181Y-999299D03*
G01*
X1948207Y-999299D03*
G01*
X1948207Y-499300D03*
G01*
X2268181Y-499300D03*
G01*
X6281381Y-999299D03*
G01*
X5961407Y-999299D03*
G01*
X5961407Y-499300D03*
G01*
X6281381Y-499300D03*
G01*
X6827481Y-999299D03*
G01*
X6507507Y-999299D03*
G01*
X6507507Y-499300D03*
G01*
X6827481Y-499300D03*
G01*
X7373581Y-999299D03*
G01*
X7053607Y-999299D03*
G01*
X7053607Y-499300D03*
G01*
X7373581Y-499300D03*
G01*
X7919681Y-999299D03*
G01*
X7599707Y-999299D03*
G01*
X7599707Y-499300D03*
G01*
X7919681Y-499300D03*
G01*
X8465781Y-999299D03*
G01*
X8145807Y-999299D03*
G01*
X8145807Y-499300D03*
G01*
X8465781Y-499300D03*
G01*
X9011881Y-999299D03*
G01*
X8691907Y-999299D03*
G01*
X8691907Y-499300D03*
G01*
X9011881Y-499300D03*
G01*
X9557981Y-999299D03*
G01*
X9238007Y-999299D03*
G01*
X9238007Y-499300D03*
G01*
X9557981Y-499300D03*
G01*
X10269181Y-999299D03*
G01*
X9949207Y-999299D03*
G01*
X9949207Y-499300D03*
G01*
X10269181Y-499300D03*
G01*
X10815281Y-999299D03*
G01*
X10495307Y-999299D03*
G01*
X10495307Y-499300D03*
G01*
X10815281Y-499300D03*
G01*
X11361381Y-999299D03*
G01*
X11041407Y-999299D03*
G01*
X11041407Y-499300D03*
G01*
X11361381Y-499300D03*
G01*
X11907481Y-999299D03*
G01*
X11587507Y-999299D03*
G01*
X11587507Y-499300D03*
G01*
X11907481Y-499300D03*
G01*
X12453581Y-999299D03*
G01*
X12133607Y-999299D03*
G01*
X12133607Y-499300D03*
G01*
X12453581Y-499300D03*
G01*
X12999681Y-999299D03*
G01*
X12679707Y-999299D03*
G01*
X12679707Y-499300D03*
G01*
X12999681Y-499300D03*
G01*
X13545781Y-999299D03*
G01*
X13225807Y-999299D03*
G01*
X13225807Y-499300D03*
G01*
X13545781Y-499300D03*
G01*
X17546281Y-999299D03*
G01*
X17226307Y-999299D03*
G01*
X17226307Y-499300D03*
G01*
X17546281Y-499300D03*
G01*
X18079681Y-999299D03*
G01*
X17759707Y-999299D03*
G01*
X17759707Y-499300D03*
G01*
X18079681Y-499300D03*
G01*
X18613081Y-999299D03*
G01*
X18293107Y-999299D03*
G01*
X18293107Y-499300D03*
G01*
X18613081Y-499300D03*
G01*
X19146481Y-999299D03*
G01*
X18826507Y-999299D03*
G01*
X18826507Y-499300D03*
G01*
X19146481Y-499300D03*
D14*
G01*
X2857500Y-497126D03*
G01*
X2857500Y116126D03*
G01*
X3352800Y-497126D03*
G01*
X3352800Y116126D03*
G01*
X4102100Y-497126D03*
G01*
X4102100Y116126D03*
G01*
X4851400Y-497126D03*
G01*
X4851400Y116126D03*
G01*
X5346700Y-497126D03*
G01*
X5346700Y116126D03*
G01*
X14147800Y-497126D03*
G01*
X14147800Y116126D03*
G01*
X14643100Y-497126D03*
G01*
X14643100Y116126D03*
G01*
X15379700Y-497126D03*
G01*
X15379700Y116126D03*
G01*
X16141700Y-497126D03*
G01*
X16141700Y116126D03*
G01*
X16637000Y-497126D03*
G01*
X16637000Y116126D03*
D15*
G01*
X292100Y-101600D03*
D16*
G01*
X2857510Y-676158D03*
D17*
G01*
X2857510Y-898654D03*
D16*
G01*
X3352810Y-676158D03*
D17*
G01*
X3352810Y-898654D03*
D16*
G01*
X4102110Y-704011D03*
D17*
G01*
X4102110Y-926508D03*
D16*
G01*
X4851410Y-676158D03*
D17*
G01*
X4851410Y-898654D03*
D16*
G01*
X5346710Y-676158D03*
D17*
G01*
X5346710Y-898654D03*
D16*
G01*
X14147810Y-676158D03*
D17*
G01*
X14147810Y-898654D03*
D16*
G01*
X14643110Y-676158D03*
D17*
G01*
X14643110Y-898654D03*
D16*
G01*
X15379710Y-676158D03*
D17*
G01*
X15379710Y-898654D03*
D16*
G01*
X16141710Y-676158D03*
D17*
G01*
X16141710Y-898654D03*
D16*
G01*
X16637010Y-676158D03*
D17*
G01*
X16637010Y-898654D03*
M02*
