M48
METRIC,LZ,000.000
;FILE_FORMAT=3:3
;TYPE=PLATED
;Layer: PTH_Through
;EasyEDA v6.5.44, 2024-08-24 22:55:38
;c584bd3c03fa4b5bb03f9f2b3921847a,c23a61fc8c4145e6967fd80801f93d45,10
;Gerber Generator version 0.2
;Holesize 1 = 0.301 mm
T01C0.301
;Holesize 2 = 0.306 mm
T02C0.306
;Holesize 3 = 0.310 mm
T03C0.310
;Holesize 4 = 0.501 mm
T04C0.501
;Holesize 5 = 1.021 mm
T05C1.021
;Holesize 6 = 1.101 mm
T06C1.101
;Holesize 7 = 1.800 mm
T07C1.800
;Holesize 8 = 3.200 mm
T08C3.200
;Holesize 9 = 3.301 mm
T09C3.301
%
G05
G90
T01
X059107Y-037808
X060507Y-037808
X060507Y-036408
X059107Y-036408
X058407Y-035708
X059807Y-035708
X057707Y-036408
X057707Y-037808
X059807Y-038508
X059807Y-037108
X058407Y-037108
X058407Y-038508
T02
X053848Y-052578
X052959Y-052578
X055499Y-052832
X056515Y-052451
X053975Y-044704
X054991Y-044704
X064135Y-041656
X064135Y-042715
X064135Y-043786
X068707Y-021971
X071120Y-023622
X070358Y-023622
X068707Y-021209
X065151Y-015367
X065913Y-015367
X062611Y-031750
X049530Y-002667
X049530Y-003302
X049530Y-003937
X049530Y-004572
X050165Y-004572
X050165Y-003937
X050165Y-003302
X050165Y-002667
X037465Y-004318
X036830Y-004318
X037465Y-003683
X037465Y-003048
X037465Y-002413
X036830Y-002413
X036830Y-003048
X036830Y-003683
X035687Y-015494
X035687Y-014859
X035687Y-014224
X035052Y-014224
X035052Y-014859
X035052Y-015494
X035687Y-013589
X035052Y-013589
X035052Y-012954
X036957Y-015494
X036957Y-014859
X036322Y-014224
X036322Y-014859
X036322Y-015494
X073152Y-011176
X073152Y-010541
X073152Y-009906
X073152Y-009271
X074422Y-011176
X073787Y-011176
X074422Y-010541
X074422Y-009906
X074422Y-009271
X073787Y-009271
X073787Y-009906
X073787Y-010541
X075692Y-011176
X075057Y-011176
X075692Y-010541
X075692Y-009906
X075692Y-009271
X075057Y-009271
X075057Y-009906
X075057Y-010541
X073787Y-008636
X073152Y-008636
X073787Y-008001
X073152Y-008001
X075057Y-008636
X074422Y-008636
X074422Y-008001
X076327Y-009906
X076327Y-010541
X076327Y-011176
X054102Y-014732
X053467Y-014732
X052832Y-014097
X053467Y-014097
X054102Y-014097
X053467Y-013462
X052832Y-013462
X052832Y-014732
X054102Y-013462
X054610Y-034036
X054610Y-033420
X051816Y-043053
X051119Y-043053
X058420Y-045720
X057785Y-045720
X057277Y-042672
X057277Y-043307
X063500Y-032893
X062865Y-032893
X072771Y-027051
X072771Y-026416
X069850Y-024638
X070485Y-024638
X069850Y-025273
X070485Y-025273
X061595Y-021082
X061595Y-021717
X058674Y-022606
X058039Y-022606
X066294Y-053975
X066294Y-054603
X066294Y-055271
X066294Y-055948
X054737Y-052324
X071755Y-024638
X071120Y-024638
X071120Y-025273
T03
X044450Y-016891
X044450Y-017653
X044958Y-018034
X044958Y-017272
X045466Y-017653
X045974Y-018034
X045974Y-017272
X045466Y-016891
X046482Y-017653
X046990Y-018034
X046990Y-017272
X046482Y-016891
X058928Y-016891
X059436Y-017272
X058928Y-017653
X059436Y-018034
X058420Y-018034
X058420Y-017272
X057912Y-017653
X057404Y-018034
X056896Y-017653
X057404Y-017272
X056896Y-016891
X057912Y-016891
X044450Y-009525
X044450Y-010287
X044958Y-009906
X044450Y-011049
X044958Y-011430
X044450Y-011811
X044958Y-010668
X044958Y-013716
X044450Y-014097
X044450Y-013335
X044958Y-012954
X044450Y-012573
X044958Y-012192
X045974Y-012192
X045466Y-014097
X045974Y-013716
X045466Y-013335
X045974Y-012954
X045466Y-012573
X045466Y-011811
X045974Y-011430
X045466Y-011049
X045974Y-010668
X045466Y-010287
X045974Y-009906
X045466Y-009525
X046990Y-012192
X046482Y-014097
X046990Y-013716
X046482Y-013335
X046990Y-012954
X046482Y-012573
X046482Y-011811
X046990Y-011430
X046482Y-011049
X046990Y-010668
X046482Y-010287
X046990Y-009906
X046482Y-009525
X058928Y-009525
X059436Y-009906
X058928Y-010287
X059436Y-010668
X058928Y-011049
X059436Y-011430
X058928Y-011811
X058928Y-012573
X059436Y-012954
X058928Y-013335
X059436Y-013716
X058928Y-014097
X059436Y-012192
X058420Y-013716
X057912Y-014097
X057404Y-013716
X056896Y-014097
X056896Y-013335
X057404Y-012954
X057912Y-013335
X058420Y-012954
X057912Y-012573
X057404Y-012192
X056896Y-012573
X056896Y-011811
X057404Y-011430
X056896Y-011049
X057404Y-010668
X056896Y-010287
X057404Y-009906
X056896Y-009525
X057912Y-009525
X058420Y-009906
X057912Y-010287
X058420Y-010668
X057912Y-011049
X058420Y-011430
X057912Y-011811
X058420Y-012192
X047117Y-007112
X047117Y-007874
X046609Y-007493
X045593Y-007493
X046101Y-007112
X046101Y-007874
X044577Y-007493
X045085Y-007112
X045085Y-007874
X057023Y-007493
X057531Y-007112
X057531Y-007874
X058039Y-007493
X058547Y-007112
X058547Y-007874
X059055Y-007493
X059563Y-007874
X059563Y-007112
X044577Y-004992
X045085Y-004611
X045085Y-005373
X045593Y-004992
X046101Y-004611
X046101Y-005373
X046609Y-004992
X047117Y-005373
X047117Y-004611
X057023Y-004992
X057531Y-004611
X057531Y-005373
X058039Y-004992
X058547Y-004611
X058547Y-005373
X059055Y-004992
X059563Y-005373
X059563Y-004611
X069596Y-014224
X069596Y-012954
X069596Y-013589
X069596Y-012319
X070231Y-012319
X070866Y-012319
X070231Y-011684
X070866Y-011684
X073914Y-016764
X074549Y-016764
X075184Y-016764
X074930Y-017399
X074295Y-017399
X073660Y-017399
X075565Y-017399
X074676Y-018034
X074041Y-018034
X075311Y-018034
X071247Y-017399
X070358Y-017399
X069723Y-017399
X042418Y-023495
X042545Y-026289
X041783Y-023495
X041910Y-026924
X051562Y-045466
X050927Y-045466
X046990Y-044323
X046228Y-044323
X065786Y-033528
X065786Y-034290
X066929Y-038227
X066167Y-038989
X063119Y-034163
X061214Y-034290
X063119Y-034798
X061849Y-034925
X065913Y-020955
X065405Y-019050
X065405Y-019685
X065151Y-020955
X047117Y-020574
X047244Y-019304
X046555Y-019304
X046556Y-020575
X059182Y-027940
X059182Y-027305
X060452Y-027940
X060452Y-027300
X037592Y-025654
X038227Y-025654
X038735Y-021844
X038100Y-021844
X040259Y-015621
X039243Y-015621
X054102Y-015621
X053398Y-015621
X053340Y-019304
X052578Y-019304
X059563Y-019304
X058888Y-019304
X051562Y-027305
X051562Y-028067
X052832Y-026670
X054102Y-026543
X055372Y-026416
X052832Y-027305
X054102Y-027178
X055369Y-027065
X050546Y-025146
X049657Y-025146
X048387Y-026289
X049149Y-026289
X049149Y-019050
X049149Y-019685
X051435Y-019685
X051435Y-019050
X040005Y-018161
X040640Y-018161
X040005Y-019431
X040640Y-019431
X035179Y-016891
X035179Y-017780
X032004Y-017780
X032004Y-016891
X055245Y-038354
X055245Y-037719
X055245Y-037084
X055245Y-036449
X055245Y-035814
X054610Y-038354
X054610Y-037719
X054610Y-037084
X054610Y-036449
X054610Y-035814
X053975Y-038354
X053975Y-037719
X053975Y-037084
X053975Y-036449
X053975Y-035814
X063881Y-019177
X064516Y-019812
X063881Y-019812
X065299Y-023876
X064643Y-023876
X054610Y-022479
X055372Y-022479
X050927Y-038354
X050927Y-037719
X050927Y-037084
X050927Y-036449
X050927Y-035814
X051562Y-036449
X051562Y-037084
X051562Y-037719
X051562Y-038354
X051562Y-035814
X054864Y-058293
X055499Y-058293
X056134Y-058293
X060579Y-057150
X061214Y-057531
X060579Y-057785
X066802Y-045593
X066802Y-044831
X056388Y-051562
X058674Y-043561
X058674Y-042926
X058674Y-042291
X058674Y-041656
X059309Y-041656
X059309Y-042291
X059309Y-042926
X059309Y-043561
X059944Y-043561
X059944Y-042926
X059944Y-042291
X059944Y-041656
X060579Y-041656
X060579Y-042291
X060579Y-042926
X060579Y-043561
X064516Y-019177
T04
X062738Y-053467
X063373Y-057658
X039370Y-030861
X039370Y-029718
T05
X052578Y-050800
X055118Y-050800
X057658Y-050800
X060198Y-050800
X062738Y-050800
X065278Y-050800
T06
X045886Y-049831
X034886Y-049831
X030480Y-003048
X020320Y-003048
X010160Y-003048
X012700Y-048768
X022860Y-048768
X027940Y-048768
T07
X037886Y-039831
X042886Y-039831
T08
X003800Y-007000
X003800Y-045000
X077500Y-004000
X070500Y-056000
X077597Y-025908
X025000Y-055500
T09
X044196Y-030734
M30
