G04 Layer: TopLayer*
G04 EasyEDA v6.5.44, 2024-08-24 22:55:38*
G04 c584bd3c03fa4b5bb03f9f2b3921847a,c23a61fc8c4145e6967fd80801f93d45,10*
G04 Gerber Generator version 0.2*
G04 Scale: 100 percent, Rotated: No, Reflected: No *
G04 Dimensions in millimeters *
G04 leading zeros omitted , absolute positions ,4 integer and 5 decimal *
%FSLAX45Y45*%
%MOMM*%

%AMMACRO1*21,1,$1,$2,0,0,$3*%
%ADD10C,0.8000*%
%ADD11C,0.6000*%
%ADD12C,0.5000*%
%ADD13C,0.2540*%
%ADD14C,1.0000*%
%ADD15C,3.0000*%
%ADD16C,0.4000*%
%ADD17MACRO1,0.864X0.8065X-90.0000*%
%ADD18MACRO1,1.35X1.41X0.0000*%
%ADD19R,1.3500X1.4100*%
%ADD20R,0.7000X1.2500*%
%ADD21MACRO1,0.864X0.8065X0.0000*%
%ADD22R,0.8640X0.8065*%
%ADD23MACRO1,0.54X0.7901X-90.0000*%
%ADD24MACRO1,0.54X0.7901X0.0000*%
%ADD25R,0.5400X0.7901*%
%ADD26R,1.0450X0.5320*%
%ADD27R,0.9000X0.8000*%
%ADD28O,0.7999984X0.2800096*%
%ADD29O,0.2800096X0.7999984*%
%ADD30R,2.7000X2.7000*%
%ADD31R,1.2500X0.7000*%
%ADD32R,0.8000X0.9000*%
%ADD33MACRO1,0.602X1.7018X90.0000*%
%ADD34R,2.8000X1.0000*%
%ADD35R,1.7000X0.6000*%
%ADD36MACRO1,1.0008X2.7X90.0000*%
%ADD37MACRO1,0.5994X1.7018X90.0000*%
%ADD38MACRO1,0.864X0.8065X90.0000*%
%ADD39R,0.8000X1.5000*%
%ADD40R,0.9500X2.1000*%
%ADD41R,2.1000X0.9500*%
%ADD42R,0.9000X0.9000*%
%ADD43MACRO1,0.9982X2.7991X90.0000*%
%ADD44O,2.0379944X0.5739892*%
%ADD45MACRO1,2.9106X2.91X-90.0000*%
%ADD46C,2.5000*%
%ADD47C,1.8000*%
%ADD48C,1.6000*%
%ADD49R,1.8000X1.6000*%
%ADD50C,4.0000*%
%ADD51C,3.5000*%
%ADD52R,3.0000X3.0000*%
%ADD53C,7.0000*%
%ADD54C,0.5000*%
%ADD55C,0.6200*%
%ADD56C,0.6100*%
%ADD57C,0.0122*%

%LPD*%
G36*
X5560009Y-2416048D02*
G01*
X5556148Y-2415286D01*
X5552846Y-2413101D01*
X5405577Y-2265832D01*
X5403392Y-2262530D01*
X5402630Y-2258618D01*
X5402630Y-2199081D01*
X5403392Y-2195169D01*
X5405577Y-2191867D01*
X5480405Y-2117039D01*
X5483707Y-2114854D01*
X5487619Y-2114092D01*
X5639257Y-2114092D01*
X5649417Y-2112822D01*
X5653125Y-2113686D01*
X5656275Y-2115921D01*
X5658358Y-2119172D01*
X5659069Y-2122932D01*
X5659069Y-2195118D01*
X5658307Y-2199030D01*
X5656122Y-2202332D01*
X5586730Y-2271725D01*
X5583275Y-2275484D01*
X5580329Y-2279345D01*
X5577687Y-2283460D01*
X5575452Y-2287778D01*
X5573572Y-2292299D01*
X5572099Y-2296922D01*
X5571032Y-2301697D01*
X5570423Y-2306523D01*
X5570169Y-2311603D01*
X5570169Y-2405888D01*
X5569407Y-2409799D01*
X5567222Y-2413101D01*
X5563920Y-2415286D01*
G37*

%LPD*%
G36*
X6234226Y-2833674D02*
G01*
X6230772Y-2833065D01*
X6223965Y-2830576D01*
X6217666Y-2829864D01*
X6123838Y-2829864D01*
X6117488Y-2830576D01*
X6114034Y-2831795D01*
X6110173Y-2832354D01*
X6106414Y-2831439D01*
X6103264Y-2829204D01*
X6101232Y-2825953D01*
X6100521Y-2822143D01*
X6100622Y-2807360D01*
X6101232Y-2803601D01*
X6102096Y-2794000D01*
X6100775Y-2781147D01*
X6101029Y-2741726D01*
X6102045Y-2729992D01*
X6101232Y-2720390D01*
X6098844Y-2711094D01*
X6094831Y-2702306D01*
X6089446Y-2694279D01*
X6082792Y-2687320D01*
X6075019Y-2681579D01*
X6066383Y-2677261D01*
X6057188Y-2674416D01*
X6047638Y-2673197D01*
X6037986Y-2673604D01*
X6028537Y-2675636D01*
X6019596Y-2679242D01*
X6011367Y-2684272D01*
X6004153Y-2690672D01*
X5998057Y-2698191D01*
X5993384Y-2706573D01*
X5991301Y-2712516D01*
X5989015Y-2716174D01*
X5985510Y-2718562D01*
X5981242Y-2719324D01*
X5977128Y-2718206D01*
X5973775Y-2715514D01*
X5967831Y-2702763D01*
X5962446Y-2694787D01*
X5955792Y-2687828D01*
X5948019Y-2682087D01*
X5939383Y-2677718D01*
X5930188Y-2674924D01*
X5920638Y-2673654D01*
X5910986Y-2674112D01*
X5901537Y-2676144D01*
X5892596Y-2679700D01*
X5884367Y-2684780D01*
X5877153Y-2691130D01*
X5871057Y-2698648D01*
X5866384Y-2707081D01*
X5865317Y-2710078D01*
X5863234Y-2713532D01*
X5859983Y-2715920D01*
X5856071Y-2716834D01*
X5852058Y-2716123D01*
X5848654Y-2713939D01*
X5846368Y-2710637D01*
X5845606Y-2706674D01*
X5845606Y-2589479D01*
X5845352Y-2584399D01*
X5844743Y-2579573D01*
X5843676Y-2574798D01*
X5842203Y-2570175D01*
X5840323Y-2565654D01*
X5838088Y-2561336D01*
X5835446Y-2557221D01*
X5832500Y-2553360D01*
X5829046Y-2549601D01*
X5740755Y-2461310D01*
X5738571Y-2458008D01*
X5737809Y-2454097D01*
X5738571Y-2450236D01*
X5740755Y-2446934D01*
X5744057Y-2444699D01*
X5747969Y-2443937D01*
X5984189Y-2443937D01*
X5990488Y-2443226D01*
X5995974Y-2441346D01*
X6000851Y-2438247D01*
X6004966Y-2434132D01*
X6008014Y-2429256D01*
X6009944Y-2423769D01*
X6010656Y-2417470D01*
X6010656Y-2318613D01*
X6009944Y-2312314D01*
X6008014Y-2306828D01*
X6004966Y-2301951D01*
X6000851Y-2297836D01*
X5995974Y-2294737D01*
X5990488Y-2292858D01*
X5984189Y-2292146D01*
X5748985Y-2292146D01*
X5745073Y-2291384D01*
X5741771Y-2289149D01*
X5739587Y-2285847D01*
X5738825Y-2281986D01*
X5739587Y-2278075D01*
X5741771Y-2274773D01*
X5754370Y-2262174D01*
X5757824Y-2258415D01*
X5760770Y-2254554D01*
X5763412Y-2250440D01*
X5765647Y-2246122D01*
X5767527Y-2241600D01*
X5769000Y-2236978D01*
X5770067Y-2232202D01*
X5770676Y-2227376D01*
X5770930Y-2222296D01*
X5770930Y-1994103D01*
X5770676Y-1989023D01*
X5770067Y-1984197D01*
X5769000Y-1979422D01*
X5767527Y-1974799D01*
X5765647Y-1970278D01*
X5763412Y-1965960D01*
X5760770Y-1961845D01*
X5757824Y-1957984D01*
X5754370Y-1954225D01*
X5693968Y-1893824D01*
X5690209Y-1890369D01*
X5684367Y-1886153D01*
X5681319Y-1883105D01*
X5679795Y-1879041D01*
X5680049Y-1874723D01*
X5682132Y-1870913D01*
X5685586Y-1868322D01*
X5689803Y-1867407D01*
X5847638Y-1867407D01*
X5851652Y-1868220D01*
X5854954Y-1870557D01*
X5857138Y-1873961D01*
X5857798Y-1877974D01*
X5856782Y-1881936D01*
X5854344Y-1885188D01*
X5847689Y-1891030D01*
X5841644Y-1898548D01*
X5836920Y-1906981D01*
X5833719Y-1916074D01*
X5832094Y-1925574D01*
X5832094Y-1935225D01*
X5833719Y-1944725D01*
X5836920Y-1953818D01*
X5841644Y-1962251D01*
X5847689Y-1969770D01*
X5854954Y-1976120D01*
X5863132Y-1981200D01*
X5872124Y-1984756D01*
X5881522Y-1986788D01*
X5891174Y-1987245D01*
X5898946Y-1986330D01*
X5945682Y-1986330D01*
X5949086Y-1986788D01*
X5958738Y-1987245D01*
X5966510Y-1986330D01*
X5994196Y-1986330D01*
X5999276Y-1986076D01*
X6004102Y-1985467D01*
X6008878Y-1984400D01*
X6013500Y-1982927D01*
X6018022Y-1981047D01*
X6022340Y-1978812D01*
X6026454Y-1976170D01*
X6030315Y-1973224D01*
X6034074Y-1969770D01*
X6109970Y-1893874D01*
X6113424Y-1890115D01*
X6116370Y-1886254D01*
X6119012Y-1882139D01*
X6121247Y-1877822D01*
X6123127Y-1873300D01*
X6124600Y-1868678D01*
X6125667Y-1863902D01*
X6126276Y-1859076D01*
X6126530Y-1853996D01*
X6126530Y-1790141D01*
X6127242Y-1786331D01*
X6129324Y-1783080D01*
X6132474Y-1780895D01*
X6136233Y-1779981D01*
X6140043Y-1780539D01*
X6142532Y-1781403D01*
X6148882Y-1782114D01*
X6317742Y-1782114D01*
X6324041Y-1781403D01*
X6329527Y-1779524D01*
X6333490Y-1777492D01*
X6336284Y-1777085D01*
X6374485Y-1777085D01*
X6378397Y-1777847D01*
X6381648Y-1780082D01*
X6482740Y-1881124D01*
X6484620Y-1883765D01*
X6485585Y-1886813D01*
X6485585Y-1890014D01*
X6483858Y-1900174D01*
X6483858Y-1909825D01*
X6485483Y-1919325D01*
X6488988Y-1929231D01*
X6489547Y-1932584D01*
X6489598Y-1940712D01*
X6488988Y-1944166D01*
X6485483Y-1954174D01*
X6483858Y-1963674D01*
X6483858Y-1973325D01*
X6485483Y-1982825D01*
X6488684Y-1991918D01*
X6493357Y-2000351D01*
X6499453Y-2007870D01*
X6506667Y-2014220D01*
X6518351Y-2021484D01*
X6520586Y-2024684D01*
X6521450Y-2028545D01*
X6520789Y-2032406D01*
X6518706Y-2035708D01*
X6515506Y-2037994D01*
X6511696Y-2038908D01*
X6507886Y-2039112D01*
X6498437Y-2041143D01*
X6489496Y-2044700D01*
X6481267Y-2049780D01*
X6474053Y-2056130D01*
X6467957Y-2063648D01*
X6463284Y-2072081D01*
X6460083Y-2081174D01*
X6458458Y-2090674D01*
X6458458Y-2100326D01*
X6460083Y-2109825D01*
X6463284Y-2118918D01*
X6465366Y-2122678D01*
X6466636Y-2126691D01*
X6466128Y-2130856D01*
X6463995Y-2134463D01*
X6460591Y-2136902D01*
X6456476Y-2137816D01*
X6428892Y-2137816D01*
X6422542Y-2138527D01*
X6417106Y-2140407D01*
X6412179Y-2143506D01*
X6408115Y-2147570D01*
X6405016Y-2152497D01*
X6403086Y-2157933D01*
X6402374Y-2164283D01*
X6402374Y-2255316D01*
X6401612Y-2259228D01*
X6399428Y-2262530D01*
X6396126Y-2264714D01*
X6392214Y-2265476D01*
X6309715Y-2265476D01*
X6305854Y-2264714D01*
X6302552Y-2262530D01*
X6297269Y-2257247D01*
X6295085Y-2253945D01*
X6294323Y-2250084D01*
X6294323Y-2042261D01*
X6295085Y-2038400D01*
X6297269Y-2035098D01*
X6300571Y-2032914D01*
X6304483Y-2032101D01*
X6317742Y-2032101D01*
X6324041Y-2031390D01*
X6329527Y-2029510D01*
X6334404Y-2026412D01*
X6338519Y-2022297D01*
X6341567Y-2017420D01*
X6343497Y-2011984D01*
X6344208Y-2005634D01*
X6344208Y-1946757D01*
X6343497Y-1940458D01*
X6341567Y-1934972D01*
X6338519Y-1930095D01*
X6334404Y-1925980D01*
X6329527Y-1922932D01*
X6324041Y-1921002D01*
X6317742Y-1920290D01*
X6148882Y-1920290D01*
X6142532Y-1921002D01*
X6137097Y-1922932D01*
X6132169Y-1925980D01*
X6128105Y-1930095D01*
X6125006Y-1934972D01*
X6123127Y-1940458D01*
X6122416Y-1946757D01*
X6122416Y-2005634D01*
X6123127Y-2011984D01*
X6125006Y-2017420D01*
X6128105Y-2022297D01*
X6132169Y-2026412D01*
X6137097Y-2029510D01*
X6142532Y-2031390D01*
X6148882Y-2032101D01*
X6192316Y-2032101D01*
X6196228Y-2032914D01*
X6199530Y-2035098D01*
X6201714Y-2038400D01*
X6202476Y-2042261D01*
X6202527Y-2275078D01*
X6203746Y-2283815D01*
X6206439Y-2291842D01*
X6210554Y-2299208D01*
X6216294Y-2306116D01*
X6255308Y-2345080D01*
X6262370Y-2350414D01*
X6269939Y-2354173D01*
X6278067Y-2356459D01*
X6286957Y-2357323D01*
X6708495Y-2357323D01*
X6712407Y-2358085D01*
X6715658Y-2360269D01*
X6717893Y-2363571D01*
X6718655Y-2367483D01*
X6717893Y-2371344D01*
X6715658Y-2374646D01*
X6697725Y-2392629D01*
X6694271Y-2396388D01*
X6691325Y-2400249D01*
X6688683Y-2404364D01*
X6686448Y-2408682D01*
X6684568Y-2413203D01*
X6683095Y-2417826D01*
X6682028Y-2422601D01*
X6681419Y-2427427D01*
X6681165Y-2432507D01*
X6681165Y-2451252D01*
X6680403Y-2455113D01*
X6678218Y-2458415D01*
X6674916Y-2460599D01*
X6671005Y-2461412D01*
X6607251Y-2461412D01*
X6603898Y-2460802D01*
X6598412Y-2458923D01*
X6592062Y-2458212D01*
X6512559Y-2458212D01*
X6506260Y-2458923D01*
X6500774Y-2460802D01*
X6495897Y-2463901D01*
X6491782Y-2467965D01*
X6488734Y-2472893D01*
X6486601Y-2478938D01*
X6484467Y-2482494D01*
X6481064Y-2484932D01*
X6477000Y-2485745D01*
X6472936Y-2484932D01*
X6469532Y-2482494D01*
X6467398Y-2478938D01*
X6465265Y-2472893D01*
X6462217Y-2467965D01*
X6458102Y-2463901D01*
X6453225Y-2460802D01*
X6447739Y-2458923D01*
X6441440Y-2458212D01*
X6361938Y-2458212D01*
X6355588Y-2458923D01*
X6350152Y-2460802D01*
X6345224Y-2463901D01*
X6340703Y-2468422D01*
X6337401Y-2470607D01*
X6333540Y-2471369D01*
X6317234Y-2471369D01*
X6313170Y-2470556D01*
X6309766Y-2468118D01*
X6307632Y-2464612D01*
X6305499Y-2458364D01*
X6302400Y-2453487D01*
X6298285Y-2449372D01*
X6293408Y-2446324D01*
X6287922Y-2444394D01*
X6281623Y-2443683D01*
X6202781Y-2443683D01*
X6196431Y-2444394D01*
X6190996Y-2446324D01*
X6186068Y-2449372D01*
X6182004Y-2453487D01*
X6178905Y-2458364D01*
X6176975Y-2463850D01*
X6176264Y-2470150D01*
X6176264Y-2559050D01*
X6176975Y-2565349D01*
X6178905Y-2570835D01*
X6182004Y-2575712D01*
X6186068Y-2579827D01*
X6190996Y-2582875D01*
X6196431Y-2584805D01*
X6202781Y-2585516D01*
X6281623Y-2585516D01*
X6287922Y-2584805D01*
X6290868Y-2583789D01*
X6294221Y-2583230D01*
X6333540Y-2583230D01*
X6337401Y-2583992D01*
X6340703Y-2586177D01*
X6342684Y-2588158D01*
X6344869Y-2591460D01*
X6345631Y-2595321D01*
X6345631Y-2692958D01*
X6345885Y-2698038D01*
X6346494Y-2702864D01*
X6347561Y-2707640D01*
X6349034Y-2712262D01*
X6350914Y-2716784D01*
X6353149Y-2721102D01*
X6355791Y-2725216D01*
X6358737Y-2729077D01*
X6365798Y-2736443D01*
X6367983Y-2739745D01*
X6368745Y-2743657D01*
X6368745Y-2822498D01*
X6368034Y-2826258D01*
X6365951Y-2829509D01*
X6362801Y-2831744D01*
X6359042Y-2832658D01*
X6355232Y-2832100D01*
X6351016Y-2830576D01*
X6344666Y-2829864D01*
X6250838Y-2829864D01*
X6244539Y-2830576D01*
X6237681Y-2833065D01*
G37*

%LPD*%
G36*
X6733540Y-3208578D02*
G01*
X6729628Y-3207816D01*
X6726377Y-3205581D01*
X6618224Y-3097479D01*
X6616039Y-3094177D01*
X6615277Y-3090316D01*
X6616039Y-3086404D01*
X6618224Y-3083102D01*
X6619443Y-3081883D01*
X6622542Y-3077006D01*
X6624421Y-3071520D01*
X6625132Y-3065221D01*
X6625132Y-2856382D01*
X6624421Y-2850032D01*
X6622542Y-2844596D01*
X6619798Y-2840228D01*
X6618630Y-2837637D01*
X6618224Y-2834843D01*
X6618224Y-2771343D01*
X6618630Y-2768498D01*
X6619798Y-2765907D01*
X6622694Y-2761335D01*
X6624624Y-2755849D01*
X6625336Y-2749550D01*
X6625336Y-2660650D01*
X6624624Y-2654350D01*
X6622694Y-2648864D01*
X6619798Y-2644292D01*
X6618630Y-2641701D01*
X6618224Y-2638856D01*
X6618224Y-2603347D01*
X6619036Y-2599486D01*
X6621221Y-2596184D01*
X6624523Y-2594000D01*
X6628384Y-2593187D01*
X6679285Y-2593187D01*
X6682079Y-2593594D01*
X6685991Y-2595575D01*
X6691477Y-2597505D01*
X6697776Y-2598216D01*
X6776618Y-2598216D01*
X6782968Y-2597505D01*
X6788403Y-2595575D01*
X6793331Y-2592527D01*
X6797395Y-2588412D01*
X6800494Y-2583535D01*
X6802424Y-2578049D01*
X6803136Y-2571750D01*
X6803136Y-2482850D01*
X6802424Y-2476550D01*
X6800494Y-2471064D01*
X6794804Y-2462530D01*
X6794042Y-2458618D01*
X6794804Y-2454706D01*
X6797040Y-2451455D01*
X6801967Y-2446477D01*
X6805269Y-2444292D01*
X6809181Y-2443530D01*
X6845096Y-2443530D01*
X6850176Y-2443276D01*
X6855002Y-2442667D01*
X6859778Y-2441600D01*
X6864400Y-2440127D01*
X6868922Y-2438247D01*
X6873240Y-2436012D01*
X6877354Y-2433370D01*
X6881215Y-2430424D01*
X6884974Y-2426970D01*
X6962546Y-2349449D01*
X6965950Y-2347163D01*
X6970014Y-2346452D01*
X6974027Y-2347417D01*
X6977329Y-2349855D01*
X6979361Y-2353411D01*
X6979818Y-2357475D01*
X6979412Y-2362200D01*
X6980275Y-2372004D01*
X6982815Y-2381504D01*
X6986981Y-2390394D01*
X6992620Y-2398420D01*
X6999579Y-2405380D01*
X7007606Y-2411018D01*
X7016750Y-2415286D01*
X7022236Y-2417064D01*
X7026960Y-2418130D01*
X7031786Y-2418740D01*
X7036866Y-2418994D01*
X7208926Y-2418994D01*
X7212838Y-2419756D01*
X7216140Y-2421940D01*
X7217765Y-2423617D01*
X7222693Y-2426665D01*
X7228738Y-2428798D01*
X7232294Y-2430932D01*
X7234732Y-2434336D01*
X7235545Y-2438400D01*
X7234732Y-2442464D01*
X7232294Y-2445867D01*
X7228738Y-2448001D01*
X7222693Y-2450134D01*
X7217765Y-2453182D01*
X7213701Y-2457297D01*
X7210602Y-2462174D01*
X7208723Y-2467660D01*
X7208012Y-2473960D01*
X7208012Y-2553462D01*
X7208723Y-2559812D01*
X7210602Y-2565247D01*
X7213701Y-2570175D01*
X7217765Y-2574239D01*
X7221423Y-2576525D01*
X7223963Y-2578811D01*
X7225639Y-2581808D01*
X7226198Y-2585161D01*
X7226198Y-2615641D01*
X7225233Y-2619959D01*
X7224115Y-2622296D01*
X7221575Y-2631795D01*
X7220712Y-2641600D01*
X7221575Y-2651404D01*
X7224115Y-2660904D01*
X7225233Y-2663240D01*
X7226198Y-2667558D01*
X7226198Y-2679141D01*
X7225233Y-2683459D01*
X7224115Y-2685796D01*
X7221575Y-2695295D01*
X7220712Y-2705100D01*
X7221575Y-2714904D01*
X7224115Y-2724404D01*
X7228281Y-2733294D01*
X7233920Y-2741320D01*
X7240879Y-2748280D01*
X7242759Y-2749600D01*
X7245654Y-2752699D01*
X7247026Y-2756763D01*
X7246620Y-2760980D01*
X7244537Y-2764688D01*
X7241082Y-2767177D01*
X7236917Y-2768092D01*
X6972757Y-2768092D01*
X6966661Y-2768600D01*
X6935216Y-2768600D01*
X6933488Y-2769311D01*
X6823405Y-2879394D01*
X6820103Y-2881630D01*
X6816191Y-2882392D01*
X6795109Y-2882392D01*
X6788607Y-2883204D01*
X6783070Y-2885287D01*
X6777939Y-2888843D01*
X6774891Y-2891840D01*
X6772300Y-2895447D01*
X6769252Y-2902254D01*
X6767017Y-2905455D01*
X6763766Y-2907538D01*
X6759956Y-2908300D01*
X6744716Y-2908300D01*
X6743700Y-2909316D01*
X6743700Y-3198418D01*
X6742938Y-3202279D01*
X6740702Y-3205581D01*
X6737451Y-3207816D01*
G37*

%LPD*%
G36*
X4633010Y-4376369D02*
G01*
X4625340Y-4375505D01*
X4621834Y-4374388D01*
X4618990Y-4372152D01*
X4617110Y-4369003D01*
X4616450Y-4365396D01*
X4616450Y-3399180D01*
X4616958Y-3395929D01*
X4618532Y-3393033D01*
X4620920Y-3390747D01*
X4641646Y-3376726D01*
X4662932Y-3359912D01*
X4682998Y-3341573D01*
X4701641Y-3321862D01*
X4718862Y-3300882D01*
X4734458Y-3278682D01*
X4748479Y-3255467D01*
X4760772Y-3231235D01*
X4771237Y-3206191D01*
X4779924Y-3180486D01*
X4786680Y-3154222D01*
X4791557Y-3127502D01*
X4794504Y-3100527D01*
X4795469Y-3073400D01*
X4794504Y-3046272D01*
X4791557Y-3019298D01*
X4786680Y-2992577D01*
X4779924Y-2966313D01*
X4771237Y-2940608D01*
X4760772Y-2915564D01*
X4748479Y-2891332D01*
X4734458Y-2868117D01*
X4718862Y-2845917D01*
X4701641Y-2824937D01*
X4682998Y-2805226D01*
X4662932Y-2786888D01*
X4641646Y-2770073D01*
X4619193Y-2754833D01*
X4595672Y-2741269D01*
X4571238Y-2729433D01*
X4546041Y-2719425D01*
X4520133Y-2711196D01*
X4493768Y-2704896D01*
X4466996Y-2700477D01*
X4439920Y-2698038D01*
X4412792Y-2697581D01*
X4385716Y-2699054D01*
X4358792Y-2702458D01*
X4332173Y-2707792D01*
X4306011Y-2715056D01*
X4280458Y-2724200D01*
X4255211Y-2735376D01*
X4251248Y-2736494D01*
X4247184Y-2736037D01*
X4243679Y-2733954D01*
X4241241Y-2730652D01*
X4240276Y-2726690D01*
X4240987Y-2722626D01*
X4243273Y-2719222D01*
X4286910Y-2675534D01*
X4292092Y-2671572D01*
X4298746Y-2664612D01*
X4304131Y-2656636D01*
X4308144Y-2647848D01*
X4310532Y-2638501D01*
X4311396Y-2628900D01*
X4310532Y-2619298D01*
X4308144Y-2609951D01*
X4304131Y-2601163D01*
X4298746Y-2593187D01*
X4292092Y-2586228D01*
X4284319Y-2580487D01*
X4275683Y-2576118D01*
X4266488Y-2573324D01*
X4256938Y-2572054D01*
X4247286Y-2572512D01*
X4237837Y-2574544D01*
X4228896Y-2578100D01*
X4220667Y-2583180D01*
X4213453Y-2589530D01*
X4207408Y-2596896D01*
X4170832Y-2633522D01*
X4167530Y-2635707D01*
X4163618Y-2636469D01*
X4131208Y-2636469D01*
X4127347Y-2635758D01*
X4124096Y-2633573D01*
X4121861Y-2630373D01*
X4121048Y-2626563D01*
X4121708Y-2622702D01*
X4123791Y-2619400D01*
X4126941Y-2617114D01*
X4136593Y-2612644D01*
X4144365Y-2607208D01*
X4151122Y-2600452D01*
X4156557Y-2592679D01*
X4160570Y-2584043D01*
X4163060Y-2574899D01*
X4163872Y-2565400D01*
X4163060Y-2555900D01*
X4160570Y-2546756D01*
X4156557Y-2538120D01*
X4151122Y-2530348D01*
X4144365Y-2523591D01*
X4136593Y-2518156D01*
X4127957Y-2514142D01*
X4118762Y-2511653D01*
X4108856Y-2510790D01*
X4048709Y-2510790D01*
X4035653Y-2509469D01*
X3832910Y-2509469D01*
X3825138Y-2508554D01*
X3815486Y-2509012D01*
X3812082Y-2509469D01*
X3769410Y-2509469D01*
X3761638Y-2508554D01*
X3751986Y-2509012D01*
X3742537Y-2511044D01*
X3733596Y-2514600D01*
X3725367Y-2519680D01*
X3718153Y-2526030D01*
X3712057Y-2533548D01*
X3707384Y-2541981D01*
X3704183Y-2551074D01*
X3702558Y-2560574D01*
X3702558Y-2570226D01*
X3704183Y-2579725D01*
X3707384Y-2588818D01*
X3712057Y-2597251D01*
X3718153Y-2604770D01*
X3725367Y-2611120D01*
X3733596Y-2616200D01*
X3742537Y-2619756D01*
X3751986Y-2621788D01*
X3761638Y-2622245D01*
X3769410Y-2621330D01*
X3812082Y-2621330D01*
X3815486Y-2621788D01*
X3825138Y-2622245D01*
X3832910Y-2621330D01*
X3941013Y-2621330D01*
X3944874Y-2622042D01*
X3948125Y-2624226D01*
X3950309Y-2627426D01*
X3951173Y-2631236D01*
X3950512Y-2635097D01*
X3948429Y-2638399D01*
X3945280Y-2640685D01*
X3935577Y-2645156D01*
X3927805Y-2650591D01*
X3921099Y-2657348D01*
X3915664Y-2665120D01*
X3911600Y-2673756D01*
X3909161Y-2682900D01*
X3908348Y-2692400D01*
X3909161Y-2701899D01*
X3911600Y-2711043D01*
X3915664Y-2719679D01*
X3921099Y-2727452D01*
X3927805Y-2734208D01*
X3935628Y-2739644D01*
X3944264Y-2743657D01*
X3953408Y-2746146D01*
X3963365Y-2747010D01*
X4023512Y-2747010D01*
X4036568Y-2748330D01*
X4180382Y-2748330D01*
X4183786Y-2748788D01*
X4198772Y-2749499D01*
X4202582Y-2751734D01*
X4205122Y-2755392D01*
X4205833Y-2759760D01*
X4204563Y-2764028D01*
X4201668Y-2767380D01*
X4186732Y-2778302D01*
X4166057Y-2795879D01*
X4146702Y-2814878D01*
X4128770Y-2835249D01*
X4112310Y-2856890D01*
X4097477Y-2879598D01*
X4084370Y-2903372D01*
X4072940Y-2927959D01*
X4063390Y-2953359D01*
X4055618Y-2979369D01*
X4049776Y-3005886D01*
X4045915Y-3032760D01*
X4043934Y-3059836D01*
X4043934Y-3086963D01*
X4045915Y-3114040D01*
X4049776Y-3140913D01*
X4053179Y-3156305D01*
X4053179Y-3160826D01*
X4051198Y-3164840D01*
X4047642Y-3167634D01*
X4043273Y-3168650D01*
X3685844Y-3168650D01*
X3682034Y-3167938D01*
X3678834Y-3165856D01*
X3676599Y-3162706D01*
X3675684Y-3158947D01*
X3676243Y-3155137D01*
X3678224Y-3149549D01*
X3678936Y-3143250D01*
X3678936Y-3054350D01*
X3678224Y-3048050D01*
X3676294Y-3042564D01*
X3673195Y-3037687D01*
X3671874Y-3036366D01*
X3669690Y-3033064D01*
X3668928Y-3029153D01*
X3668928Y-2825800D01*
X3668674Y-2820720D01*
X3668064Y-2815894D01*
X3666998Y-2811119D01*
X3665524Y-2806496D01*
X3663645Y-2801975D01*
X3661410Y-2797657D01*
X3658768Y-2793542D01*
X3655822Y-2789682D01*
X3652367Y-2785922D01*
X3646474Y-2780030D01*
X3642715Y-2776575D01*
X3638854Y-2773629D01*
X3634740Y-2770987D01*
X3630422Y-2768752D01*
X3625900Y-2766872D01*
X3621278Y-2765399D01*
X3616502Y-2764332D01*
X3611676Y-2763723D01*
X3606596Y-2763469D01*
X3114090Y-2763469D01*
X3110179Y-2762707D01*
X3106877Y-2760522D01*
X3104692Y-2757220D01*
X3103930Y-2753309D01*
X3103930Y-531368D01*
X3104794Y-527253D01*
X3107232Y-523849D01*
X3110839Y-521716D01*
X3129584Y-515467D01*
X3148685Y-507034D01*
X3166922Y-496874D01*
X3184144Y-485089D01*
X3200196Y-471728D01*
X3214928Y-456996D01*
X3228289Y-440943D01*
X3240074Y-423722D01*
X3250234Y-405485D01*
X3258616Y-386384D01*
X3265271Y-366623D01*
X3270046Y-346303D01*
X3272942Y-325628D01*
X3273907Y-304800D01*
X3272942Y-283972D01*
X3270046Y-263296D01*
X3265271Y-242976D01*
X3258616Y-223215D01*
X3250234Y-204114D01*
X3246120Y-196799D01*
X3245154Y-194411D01*
X3244850Y-191871D01*
X3244850Y-36068D01*
X3245612Y-32156D01*
X3247847Y-28905D01*
X3251098Y-26670D01*
X3255010Y-25908D01*
X6901637Y-25908D01*
X6905599Y-26720D01*
X6908952Y-29006D01*
X6911136Y-32410D01*
X6911797Y-36372D01*
X6910882Y-40335D01*
X6908495Y-43586D01*
X6904990Y-45669D01*
X6899706Y-47498D01*
X6894779Y-50596D01*
X6890715Y-54660D01*
X6887616Y-59588D01*
X6885736Y-65024D01*
X6885025Y-71374D01*
X6885025Y-170230D01*
X6885736Y-176530D01*
X6887616Y-182016D01*
X6890715Y-186893D01*
X6894779Y-191008D01*
X6899706Y-194106D01*
X6905142Y-195986D01*
X6911492Y-196697D01*
X7190333Y-196697D01*
X7196683Y-195986D01*
X7202119Y-194106D01*
X7207046Y-191008D01*
X7211110Y-186893D01*
X7214209Y-182016D01*
X7216089Y-176530D01*
X7216800Y-170230D01*
X7216800Y-71374D01*
X7216089Y-65024D01*
X7214209Y-59588D01*
X7211110Y-54660D01*
X7207046Y-50596D01*
X7202119Y-47498D01*
X7196836Y-45669D01*
X7193330Y-43586D01*
X7190943Y-40335D01*
X7190028Y-36372D01*
X7190689Y-32410D01*
X7192873Y-29006D01*
X7196226Y-26720D01*
X7200188Y-25908D01*
X7621879Y-25908D01*
X7625842Y-26720D01*
X7629144Y-29006D01*
X7631328Y-32359D01*
X7632039Y-36372D01*
X7631125Y-40284D01*
X7628737Y-43535D01*
X7625283Y-45618D01*
X7610856Y-50800D01*
X7586014Y-61722D01*
X7562037Y-74472D01*
X7539024Y-88849D01*
X7517130Y-104902D01*
X7496454Y-122478D01*
X7477099Y-141478D01*
X7459116Y-161848D01*
X7442708Y-183489D01*
X7427874Y-206197D01*
X7414768Y-229971D01*
X7403338Y-254558D01*
X7393736Y-279958D01*
X7386015Y-305968D01*
X7380173Y-332486D01*
X7376312Y-359359D01*
X7374331Y-386435D01*
X7374331Y-413562D01*
X7376312Y-440639D01*
X7380173Y-467512D01*
X7386015Y-494030D01*
X7393736Y-520039D01*
X7403338Y-545439D01*
X7414768Y-570026D01*
X7427874Y-593801D01*
X7442708Y-616508D01*
X7459116Y-638149D01*
X7477099Y-658520D01*
X7496454Y-677519D01*
X7517130Y-695096D01*
X7539024Y-711149D01*
X7562037Y-725525D01*
X7586014Y-738276D01*
X7610856Y-749198D01*
X7636408Y-758342D01*
X7662570Y-765606D01*
X7689189Y-770940D01*
X7716113Y-774344D01*
X7743190Y-775817D01*
X7770317Y-775360D01*
X7797342Y-772922D01*
X7824165Y-768502D01*
X7850530Y-762203D01*
X7876438Y-753973D01*
X7901635Y-743966D01*
X7926070Y-732129D01*
X7949590Y-718566D01*
X7972044Y-703326D01*
X7993329Y-686511D01*
X8013395Y-668172D01*
X8032038Y-648462D01*
X8049259Y-627481D01*
X8064855Y-605282D01*
X8078876Y-582066D01*
X8091119Y-557834D01*
X8095284Y-548030D01*
X8097469Y-544728D01*
X8100771Y-542544D01*
X8104682Y-541782D01*
X8108543Y-542544D01*
X8111845Y-544779D01*
X8114030Y-548081D01*
X8114792Y-551942D01*
X8114792Y-2237740D01*
X8114030Y-2241651D01*
X8111794Y-2244902D01*
X8108543Y-2247138D01*
X8104631Y-2247900D01*
X7915859Y-2247900D01*
X7912100Y-2247188D01*
X7886141Y-2236774D01*
X7860284Y-2228596D01*
X7833868Y-2222296D01*
X7807096Y-2217877D01*
X7780070Y-2215438D01*
X7752892Y-2214981D01*
X7725816Y-2216454D01*
X7698892Y-2219858D01*
X7672273Y-2225192D01*
X7646111Y-2232456D01*
X7620558Y-2241600D01*
X7595717Y-2252522D01*
X7571740Y-2265273D01*
X7548727Y-2279650D01*
X7526832Y-2295702D01*
X7506157Y-2313279D01*
X7486802Y-2332278D01*
X7468870Y-2352649D01*
X7452410Y-2374290D01*
X7437628Y-2396998D01*
X7424470Y-2420772D01*
X7413040Y-2445359D01*
X7403490Y-2470759D01*
X7395768Y-2496769D01*
X7389926Y-2523286D01*
X7386015Y-2550160D01*
X7384034Y-2577236D01*
X7384034Y-2604363D01*
X7386015Y-2631440D01*
X7389926Y-2658313D01*
X7395768Y-2684830D01*
X7403490Y-2710840D01*
X7413040Y-2736240D01*
X7421372Y-2754172D01*
X7422286Y-2758135D01*
X7421625Y-2762097D01*
X7419441Y-2765501D01*
X7416139Y-2767787D01*
X7412177Y-2768600D01*
X7371638Y-2768600D01*
X7365542Y-2768092D01*
X7317282Y-2768092D01*
X7313117Y-2767177D01*
X7309662Y-2764688D01*
X7307580Y-2760980D01*
X7307173Y-2756763D01*
X7308545Y-2752699D01*
X7311440Y-2749600D01*
X7313320Y-2748280D01*
X7320280Y-2741320D01*
X7325918Y-2733294D01*
X7330084Y-2724404D01*
X7332624Y-2714904D01*
X7333488Y-2705100D01*
X7332624Y-2695295D01*
X7330084Y-2685796D01*
X7328966Y-2683459D01*
X7328001Y-2679141D01*
X7328001Y-2667558D01*
X7328966Y-2663240D01*
X7330084Y-2660904D01*
X7332624Y-2651404D01*
X7333488Y-2641600D01*
X7332624Y-2631795D01*
X7330084Y-2622296D01*
X7328966Y-2619959D01*
X7328001Y-2615641D01*
X7328001Y-2585161D01*
X7328560Y-2581808D01*
X7330236Y-2578811D01*
X7332776Y-2576525D01*
X7336434Y-2574239D01*
X7340498Y-2570175D01*
X7343597Y-2565247D01*
X7345476Y-2559812D01*
X7346188Y-2553462D01*
X7346188Y-2473960D01*
X7345476Y-2467660D01*
X7343597Y-2462174D01*
X7340498Y-2457297D01*
X7336434Y-2453182D01*
X7331506Y-2450134D01*
X7325461Y-2448001D01*
X7321905Y-2445867D01*
X7319467Y-2442464D01*
X7318654Y-2438400D01*
X7319467Y-2434336D01*
X7321905Y-2430932D01*
X7325461Y-2428798D01*
X7331506Y-2426665D01*
X7336434Y-2423617D01*
X7340498Y-2419502D01*
X7343597Y-2414625D01*
X7345476Y-2409139D01*
X7346188Y-2402840D01*
X7346188Y-2323338D01*
X7345476Y-2316988D01*
X7343597Y-2311552D01*
X7340498Y-2306624D01*
X7337704Y-2303830D01*
X7335520Y-2300579D01*
X7334758Y-2296668D01*
X7335520Y-2292756D01*
X7337704Y-2289505D01*
X7341006Y-2287270D01*
X7344918Y-2286508D01*
X7391247Y-2286508D01*
X7398512Y-2285441D01*
X7403846Y-2283256D01*
X7409027Y-2279599D01*
X7636865Y-2077059D01*
X7640116Y-2073605D01*
X7643266Y-2068626D01*
X7645196Y-2063140D01*
X7645908Y-2056841D01*
X7645908Y-1283258D01*
X7645196Y-1276959D01*
X7643266Y-1271473D01*
X7640218Y-1266596D01*
X7636103Y-1262481D01*
X7631226Y-1259433D01*
X7625740Y-1257503D01*
X7619441Y-1256792D01*
X7290358Y-1256792D01*
X7284059Y-1257503D01*
X7278573Y-1259433D01*
X7273696Y-1262481D01*
X7269581Y-1266596D01*
X7266533Y-1271473D01*
X7264603Y-1276959D01*
X7263892Y-1283309D01*
X7263739Y-1293926D01*
X7262875Y-1301394D01*
X7262875Y-1353413D01*
X7263892Y-1362303D01*
X7263892Y-1383995D01*
X7264552Y-1390040D01*
X7266482Y-1395526D01*
X7269581Y-1400454D01*
X7271664Y-1402842D01*
X7309358Y-1440535D01*
X7314133Y-1444345D01*
X7316876Y-1445818D01*
X7320178Y-1448765D01*
X7321956Y-1452829D01*
X7321803Y-1457248D01*
X7319772Y-1461211D01*
X7316266Y-1463903D01*
X7311948Y-1464868D01*
X7289393Y-1464868D01*
X7283043Y-1465580D01*
X7277608Y-1467510D01*
X7272680Y-1470609D01*
X7268616Y-1474673D01*
X7265517Y-1479600D01*
X7263587Y-1485036D01*
X7262875Y-1491386D01*
X7262875Y-1543405D01*
X7263587Y-1549755D01*
X7265517Y-1555191D01*
X7268616Y-1560118D01*
X7272680Y-1564182D01*
X7281011Y-1569364D01*
X7283348Y-1572666D01*
X7284262Y-1576578D01*
X7283551Y-1580540D01*
X7281367Y-1583944D01*
X7278065Y-1586179D01*
X7274102Y-1586992D01*
X7213904Y-1586992D01*
X7207859Y-1587652D01*
X7202373Y-1589582D01*
X7197445Y-1592681D01*
X7195058Y-1594764D01*
X7144664Y-1645157D01*
X7140854Y-1649933D01*
X7138365Y-1655165D01*
X7137095Y-1660804D01*
X7136892Y-1664004D01*
X7136892Y-1672945D01*
X7136180Y-1676704D01*
X7134047Y-1679956D01*
X7130897Y-1682191D01*
X7127138Y-1683054D01*
X7117486Y-1683512D01*
X7114082Y-1683969D01*
X7046010Y-1683969D01*
X7038238Y-1683054D01*
X7028586Y-1683512D01*
X7025182Y-1683969D01*
X6982510Y-1683969D01*
X6973824Y-1683105D01*
X6969709Y-1682445D01*
X6966203Y-1680159D01*
X6813296Y-1527251D01*
X6810908Y-1523492D01*
X6810349Y-1519123D01*
X6811721Y-1514906D01*
X6814769Y-1511655D01*
X6818884Y-1510030D01*
X6823303Y-1510284D01*
X6827164Y-1512417D01*
X6891629Y-1568805D01*
X6897573Y-1572666D01*
X6903059Y-1574596D01*
X6909358Y-1575308D01*
X7162241Y-1575308D01*
X7168540Y-1574596D01*
X7174026Y-1572666D01*
X7178903Y-1569618D01*
X7183018Y-1565503D01*
X7186066Y-1560626D01*
X7187996Y-1555140D01*
X7189012Y-1549755D01*
X7189724Y-1543405D01*
X7189724Y-1491386D01*
X7187996Y-1480159D01*
X7186066Y-1474673D01*
X7183018Y-1469796D01*
X7178903Y-1465681D01*
X7174026Y-1462633D01*
X7168540Y-1460703D01*
X7162241Y-1459992D01*
X7063435Y-1459992D01*
X7059574Y-1459230D01*
X7056272Y-1456994D01*
X7052005Y-1452727D01*
X7049770Y-1449425D01*
X7049008Y-1445564D01*
X7049008Y-1399235D01*
X7049770Y-1395374D01*
X7052005Y-1392072D01*
X7056272Y-1387805D01*
X7059574Y-1385570D01*
X7063435Y-1384808D01*
X7162241Y-1384808D01*
X7168540Y-1384096D01*
X7174026Y-1382166D01*
X7178903Y-1379118D01*
X7183018Y-1375003D01*
X7186066Y-1370126D01*
X7187996Y-1364640D01*
X7189012Y-1359763D01*
X7189724Y-1353413D01*
X7189724Y-1301394D01*
X7188708Y-1292504D01*
X7188708Y-1130858D01*
X7187996Y-1124559D01*
X7186066Y-1119073D01*
X7183018Y-1114196D01*
X7178903Y-1110081D01*
X7174026Y-1107033D01*
X7168540Y-1105103D01*
X7162241Y-1104392D01*
X7010958Y-1104392D01*
X7004659Y-1105103D01*
X6999224Y-1106982D01*
X6993331Y-1110792D01*
X6927646Y-1165555D01*
X6924598Y-1167282D01*
X6921144Y-1167892D01*
X6807758Y-1167892D01*
X6801459Y-1168603D01*
X6795973Y-1170533D01*
X6791096Y-1173581D01*
X6786981Y-1177696D01*
X6783933Y-1182573D01*
X6782003Y-1188059D01*
X6781292Y-1194358D01*
X6781292Y-1460042D01*
X6781749Y-1464970D01*
X6783324Y-1470202D01*
X6783628Y-1474673D01*
X6782003Y-1478788D01*
X6778802Y-1481836D01*
X6774535Y-1483258D01*
X6770166Y-1482699D01*
X6766407Y-1480312D01*
X6597954Y-1311910D01*
X6594195Y-1308455D01*
X6590334Y-1305509D01*
X6586220Y-1302867D01*
X6581902Y-1300632D01*
X6577380Y-1298752D01*
X6572758Y-1297279D01*
X6567982Y-1296212D01*
X6563156Y-1295603D01*
X6558076Y-1295349D01*
X6148882Y-1295298D01*
X6142532Y-1296009D01*
X6140043Y-1296873D01*
X6136233Y-1297432D01*
X6132474Y-1296517D01*
X6129324Y-1294333D01*
X6127242Y-1291082D01*
X6126530Y-1287272D01*
X6126530Y-1094181D01*
X6127292Y-1090269D01*
X6129477Y-1086967D01*
X6254597Y-961898D01*
X6257899Y-959662D01*
X6261760Y-958900D01*
X6287820Y-958900D01*
X6294120Y-958189D01*
X6299606Y-956259D01*
X6304483Y-953211D01*
X6308598Y-949096D01*
X6311696Y-944219D01*
X6313576Y-938733D01*
X6314287Y-932434D01*
X6314287Y-783590D01*
X6313576Y-777240D01*
X6311696Y-771804D01*
X6308598Y-766876D01*
X6304483Y-762812D01*
X6299606Y-759714D01*
X6294120Y-757783D01*
X6287820Y-757072D01*
X6208979Y-757072D01*
X6202629Y-757783D01*
X6197193Y-759714D01*
X6192266Y-762812D01*
X6188202Y-766876D01*
X6185103Y-771804D01*
X6183172Y-777240D01*
X6182461Y-783590D01*
X6182461Y-871626D01*
X6181699Y-875537D01*
X6179515Y-878840D01*
X6037630Y-1020673D01*
X6034379Y-1022908D01*
X6030468Y-1023670D01*
X6026556Y-1022908D01*
X6023305Y-1020673D01*
X6021070Y-1017371D01*
X6020308Y-1013510D01*
X6020308Y-914958D01*
X6019596Y-908659D01*
X6017666Y-903173D01*
X6014618Y-898296D01*
X6010503Y-894181D01*
X6005626Y-891133D01*
X6000140Y-889203D01*
X5993841Y-888492D01*
X5665673Y-888492D01*
X5661761Y-887730D01*
X5658459Y-885494D01*
X5652668Y-879856D01*
X5651144Y-875792D01*
X5651398Y-871474D01*
X5653481Y-867664D01*
X5656935Y-865022D01*
X5661152Y-864108D01*
X5993841Y-864108D01*
X6000140Y-863396D01*
X6005626Y-861466D01*
X6010503Y-858418D01*
X6014618Y-854303D01*
X6017666Y-849426D01*
X6019596Y-843940D01*
X6020308Y-837641D01*
X6020308Y-660958D01*
X6019596Y-654659D01*
X6017666Y-649173D01*
X6014618Y-644296D01*
X6010503Y-640181D01*
X6005626Y-637133D01*
X6000140Y-635203D01*
X5993841Y-634492D01*
X5661355Y-634492D01*
X5658510Y-634085D01*
X5655868Y-632866D01*
X5649976Y-629056D01*
X5647080Y-626211D01*
X5645505Y-622503D01*
X5645556Y-618439D01*
X5647131Y-614730D01*
X5650534Y-611682D01*
X5653125Y-610514D01*
X5655919Y-610108D01*
X5993841Y-610108D01*
X6000140Y-609396D01*
X6005626Y-607466D01*
X6010503Y-604418D01*
X6014618Y-600303D01*
X6017666Y-595426D01*
X6019596Y-589940D01*
X6020308Y-583641D01*
X6020308Y-343458D01*
X6019596Y-337159D01*
X6017666Y-331673D01*
X6014618Y-326796D01*
X6009589Y-321818D01*
X6007201Y-318058D01*
X6006642Y-313639D01*
X6009944Y-303885D01*
X6010656Y-297586D01*
X6010656Y-198729D01*
X6009944Y-192430D01*
X6008014Y-186944D01*
X6004966Y-182067D01*
X6000851Y-177952D01*
X5995974Y-174853D01*
X5990488Y-172974D01*
X5984189Y-172262D01*
X5715304Y-172262D01*
X5709005Y-172974D01*
X5703519Y-174853D01*
X5698642Y-177952D01*
X5694527Y-182067D01*
X5691479Y-186944D01*
X5689549Y-192430D01*
X5688838Y-198729D01*
X5688838Y-297484D01*
X5689904Y-305511D01*
X5689549Y-309778D01*
X5687466Y-313537D01*
X5684012Y-316077D01*
X5679795Y-316992D01*
X5309158Y-316992D01*
X5302859Y-317703D01*
X5297373Y-319633D01*
X5292496Y-322681D01*
X5288381Y-326796D01*
X5285333Y-331673D01*
X5283403Y-337159D01*
X5282692Y-343458D01*
X5282692Y-366014D01*
X5282082Y-371957D01*
X5282082Y-440842D01*
X5282692Y-446785D01*
X5282692Y-533095D01*
X5283352Y-539140D01*
X5285282Y-544626D01*
X5288381Y-549554D01*
X5290464Y-551942D01*
X5340858Y-602335D01*
X5345633Y-606145D01*
X5350865Y-608634D01*
X5356504Y-609904D01*
X5359704Y-610108D01*
X5453786Y-610108D01*
X5457342Y-610768D01*
X5460847Y-612952D01*
X5463184Y-615950D01*
X5464302Y-619556D01*
X5463997Y-623265D01*
X5462371Y-626668D01*
X5459577Y-629259D01*
X5453735Y-632917D01*
X5451144Y-634085D01*
X5448300Y-634492D01*
X5309158Y-634492D01*
X5302859Y-635203D01*
X5297373Y-637133D01*
X5292496Y-640181D01*
X5288381Y-644296D01*
X5285333Y-649173D01*
X5283403Y-654659D01*
X5282692Y-660958D01*
X5282692Y-759714D01*
X5282082Y-765657D01*
X5282082Y-834542D01*
X5283250Y-843584D01*
X5285333Y-849426D01*
X5288381Y-854303D01*
X5292496Y-858418D01*
X5297373Y-861466D01*
X5302859Y-863396D01*
X5309158Y-864108D01*
X5448503Y-864108D01*
X5452770Y-865022D01*
X5456224Y-867664D01*
X5458256Y-871474D01*
X5458561Y-875792D01*
X5457037Y-879856D01*
X5449620Y-887069D01*
X5446572Y-891997D01*
X5444642Y-897432D01*
X5443931Y-903782D01*
X5443931Y-962609D01*
X5444642Y-968857D01*
X5447182Y-975817D01*
X5447792Y-979322D01*
X5447792Y-1012037D01*
X5447182Y-1015542D01*
X5444642Y-1022502D01*
X5443931Y-1028750D01*
X5443931Y-1087577D01*
X5444642Y-1093825D01*
X5447182Y-1100785D01*
X5447792Y-1104290D01*
X5447792Y-1137005D01*
X5447182Y-1140510D01*
X5444642Y-1147470D01*
X5443931Y-1153718D01*
X5443931Y-1212545D01*
X5444642Y-1218793D01*
X5447182Y-1225753D01*
X5447792Y-1229258D01*
X5447792Y-1261973D01*
X5447182Y-1265478D01*
X5444642Y-1272438D01*
X5443931Y-1278686D01*
X5443931Y-1337513D01*
X5444642Y-1343761D01*
X5447182Y-1350721D01*
X5447792Y-1354226D01*
X5447792Y-1386941D01*
X5447182Y-1390446D01*
X5444642Y-1397406D01*
X5443931Y-1403654D01*
X5443931Y-1462481D01*
X5444642Y-1468831D01*
X5446572Y-1474266D01*
X5449620Y-1479194D01*
X5456986Y-1486408D01*
X5458510Y-1490472D01*
X5458256Y-1494790D01*
X5456174Y-1498600D01*
X5452719Y-1501190D01*
X5448452Y-1502105D01*
X5414467Y-1502105D01*
X5409387Y-1502359D01*
X5404561Y-1502968D01*
X5399836Y-1504035D01*
X5394604Y-1505712D01*
X5391505Y-1506169D01*
X5350002Y-1506169D01*
X5342229Y-1505254D01*
X5332577Y-1505712D01*
X5323179Y-1507744D01*
X5314188Y-1511300D01*
X5306009Y-1516380D01*
X5298744Y-1522730D01*
X5292699Y-1530248D01*
X5287975Y-1538681D01*
X5284774Y-1547774D01*
X5283149Y-1557274D01*
X5283149Y-1566926D01*
X5284774Y-1576425D01*
X5287975Y-1585518D01*
X5292699Y-1593951D01*
X5298744Y-1601470D01*
X5306009Y-1607820D01*
X5314188Y-1612900D01*
X5323179Y-1616456D01*
X5332577Y-1618488D01*
X5342229Y-1618945D01*
X5350002Y-1618030D01*
X5399582Y-1618030D01*
X5402986Y-1618488D01*
X5412638Y-1618945D01*
X5422138Y-1617675D01*
X5432602Y-1614424D01*
X5437225Y-1613966D01*
X5441086Y-1614728D01*
X5444388Y-1616913D01*
X5446572Y-1620215D01*
X5447385Y-1624126D01*
X5446572Y-1627987D01*
X5444388Y-1631289D01*
X5440781Y-1634896D01*
X5437733Y-1639773D01*
X5435803Y-1645259D01*
X5435092Y-1651558D01*
X5435092Y-1663852D01*
X5434330Y-1667713D01*
X5432094Y-1671015D01*
X5428843Y-1673199D01*
X5424932Y-1674012D01*
X5333492Y-1674012D01*
X5329631Y-1673199D01*
X5326329Y-1671015D01*
X5230063Y-1574800D01*
X5227878Y-1571498D01*
X5227116Y-1567586D01*
X5227116Y-1554581D01*
X5226405Y-1548231D01*
X5224475Y-1542796D01*
X5221427Y-1537868D01*
X5217312Y-1533804D01*
X5212435Y-1530705D01*
X5206949Y-1528775D01*
X5200650Y-1528064D01*
X5111750Y-1528064D01*
X5105450Y-1528775D01*
X5099964Y-1530705D01*
X5095087Y-1533804D01*
X5090972Y-1537868D01*
X5087924Y-1542796D01*
X5085994Y-1548231D01*
X5085283Y-1554581D01*
X5085283Y-1633423D01*
X5085994Y-1639722D01*
X5087924Y-1645208D01*
X5090972Y-1650085D01*
X5095087Y-1654200D01*
X5099964Y-1657299D01*
X5105450Y-1659178D01*
X5111750Y-1659889D01*
X5124602Y-1659889D01*
X5128463Y-1660652D01*
X5131765Y-1662887D01*
X5255107Y-1786229D01*
X5263286Y-1793189D01*
X5272074Y-1798574D01*
X5281625Y-1802536D01*
X5291683Y-1804974D01*
X5302402Y-1805787D01*
X5424932Y-1805787D01*
X5428843Y-1806600D01*
X5432094Y-1808784D01*
X5434330Y-1812086D01*
X5435092Y-1815947D01*
X5435092Y-1840941D01*
X5435803Y-1847240D01*
X5437733Y-1852726D01*
X5440781Y-1857603D01*
X5444896Y-1861718D01*
X5451906Y-1865884D01*
X5454904Y-1868220D01*
X5456885Y-1871522D01*
X5457494Y-1875282D01*
X5456682Y-1878990D01*
X5454548Y-1882190D01*
X5449620Y-1887067D01*
X5446572Y-1891995D01*
X5444642Y-1897430D01*
X5443931Y-1903780D01*
X5443931Y-1962607D01*
X5444642Y-1968957D01*
X5446572Y-1974392D01*
X5449620Y-1979320D01*
X5453735Y-1983384D01*
X5455259Y-1984349D01*
X5458155Y-1987092D01*
X5459780Y-1990750D01*
X5459831Y-1994763D01*
X5458358Y-1998472D01*
X5455564Y-2001316D01*
X5451906Y-2002891D01*
X5445709Y-2004212D01*
X5441137Y-2005634D01*
X5436616Y-2007514D01*
X5432298Y-2009749D01*
X5428183Y-2012391D01*
X5424322Y-2015337D01*
X5420563Y-2018792D01*
X5331053Y-2108301D01*
X5327751Y-2110486D01*
X5323890Y-2111248D01*
X5319979Y-2110486D01*
X5316677Y-2108301D01*
X5314492Y-2104999D01*
X5313730Y-2101088D01*
X5313730Y-1996592D01*
X5314696Y-1992172D01*
X5317490Y-1988667D01*
X5321503Y-1986686D01*
X5336438Y-1987245D01*
X5345988Y-1985975D01*
X5355183Y-1983181D01*
X5363819Y-1978812D01*
X5371592Y-1973072D01*
X5378246Y-1966112D01*
X5383631Y-1958136D01*
X5387644Y-1949348D01*
X5390032Y-1940001D01*
X5390896Y-1930400D01*
X5390032Y-1920798D01*
X5387644Y-1911451D01*
X5383631Y-1902663D01*
X5378246Y-1894687D01*
X5371592Y-1887728D01*
X5363819Y-1881987D01*
X5355183Y-1877618D01*
X5345988Y-1874824D01*
X5336438Y-1873554D01*
X5326786Y-1874012D01*
X5323382Y-1874469D01*
X5268010Y-1874469D01*
X5260238Y-1873554D01*
X5250586Y-1874012D01*
X5241137Y-1876043D01*
X5232196Y-1879600D01*
X5223967Y-1884680D01*
X5216753Y-1891030D01*
X5215534Y-1892503D01*
X5212080Y-1895297D01*
X5207711Y-1896313D01*
X5203393Y-1895348D01*
X5199837Y-1892655D01*
X5197805Y-1888693D01*
X5197144Y-1886051D01*
X5195316Y-1882038D01*
X5194401Y-1877872D01*
X5194401Y-1803603D01*
X5194198Y-1798980D01*
X5193639Y-1794560D01*
X5192674Y-1790242D01*
X5191353Y-1785975D01*
X5189626Y-1781911D01*
X5187594Y-1777949D01*
X5185206Y-1774189D01*
X5182514Y-1770684D01*
X5179364Y-1767230D01*
X5058562Y-1646428D01*
X5056327Y-1643176D01*
X5055565Y-1639265D01*
X5055565Y-1355191D01*
X5056124Y-1351838D01*
X5057800Y-1348892D01*
X5061102Y-1346098D01*
X5065217Y-1342034D01*
X5068265Y-1337106D01*
X5070195Y-1331671D01*
X5070906Y-1325321D01*
X5070906Y-1240078D01*
X5070195Y-1233728D01*
X5068265Y-1228293D01*
X5065217Y-1223365D01*
X5062677Y-1220876D01*
X5060492Y-1217574D01*
X5059730Y-1213662D01*
X5059730Y-1159459D01*
X5060492Y-1155598D01*
X5062677Y-1152296D01*
X5067198Y-1147775D01*
X5070297Y-1142847D01*
X5072176Y-1137412D01*
X5072888Y-1131062D01*
X5072888Y-1051560D01*
X5072176Y-1045260D01*
X5070297Y-1039774D01*
X5067198Y-1034897D01*
X5063134Y-1030782D01*
X5058206Y-1027734D01*
X5052161Y-1025601D01*
X5048605Y-1023467D01*
X5046167Y-1020064D01*
X5045354Y-1016000D01*
X5046167Y-1011936D01*
X5048605Y-1008532D01*
X5052161Y-1006398D01*
X5058206Y-1004265D01*
X5063134Y-1001217D01*
X5067198Y-997102D01*
X5070297Y-992225D01*
X5072176Y-986739D01*
X5072888Y-980440D01*
X5072888Y-900937D01*
X5072176Y-894587D01*
X5070297Y-889152D01*
X5067198Y-884224D01*
X5062677Y-879703D01*
X5060492Y-876401D01*
X5059730Y-872540D01*
X5059730Y-789381D01*
X5060492Y-785469D01*
X5062677Y-782167D01*
X5080863Y-763981D01*
X5084165Y-761796D01*
X5088077Y-761034D01*
X5092903Y-761390D01*
X5096814Y-763371D01*
X5102250Y-765302D01*
X5108600Y-766013D01*
X5232450Y-766013D01*
X5238750Y-765302D01*
X5244236Y-763371D01*
X5249113Y-760323D01*
X5253228Y-756208D01*
X5256276Y-751332D01*
X5258206Y-745845D01*
X5258917Y-739546D01*
X5258917Y-670661D01*
X5258206Y-664362D01*
X5256276Y-658876D01*
X5253228Y-653999D01*
X5249113Y-649884D01*
X5244236Y-646836D01*
X5238750Y-644906D01*
X5232450Y-644194D01*
X5108600Y-644194D01*
X5102250Y-644906D01*
X5096814Y-646836D01*
X5092903Y-648817D01*
X5090058Y-649173D01*
X5060899Y-649173D01*
X5055819Y-649427D01*
X5050993Y-650036D01*
X5046218Y-651103D01*
X5041595Y-652576D01*
X5037074Y-654456D01*
X5032756Y-656691D01*
X5028641Y-659333D01*
X5024780Y-662279D01*
X5021021Y-665734D01*
X4964430Y-722325D01*
X4960975Y-726084D01*
X4958029Y-729945D01*
X4955387Y-734060D01*
X4953152Y-738378D01*
X4951272Y-742899D01*
X4949799Y-747522D01*
X4948732Y-752297D01*
X4948123Y-757123D01*
X4947869Y-762203D01*
X4947869Y-872540D01*
X4947107Y-876401D01*
X4944922Y-879703D01*
X4940401Y-884224D01*
X4937302Y-889152D01*
X4935423Y-894587D01*
X4934712Y-900937D01*
X4934712Y-980440D01*
X4935423Y-986739D01*
X4937302Y-992225D01*
X4940401Y-997102D01*
X4944465Y-1001217D01*
X4949393Y-1004265D01*
X4955438Y-1006398D01*
X4958994Y-1008532D01*
X4961432Y-1011936D01*
X4962245Y-1016000D01*
X4961432Y-1020064D01*
X4958994Y-1023467D01*
X4955438Y-1025601D01*
X4949393Y-1027734D01*
X4944465Y-1030782D01*
X4940401Y-1034897D01*
X4937302Y-1039774D01*
X4935423Y-1045260D01*
X4934712Y-1051560D01*
X4934712Y-1131062D01*
X4935423Y-1137412D01*
X4937302Y-1142847D01*
X4940401Y-1147775D01*
X4944922Y-1152296D01*
X4947107Y-1155598D01*
X4947869Y-1159459D01*
X4947869Y-1215440D01*
X4947107Y-1219301D01*
X4944160Y-1223365D01*
X4941062Y-1228293D01*
X4939131Y-1233728D01*
X4938420Y-1240078D01*
X4938420Y-1325321D01*
X4939131Y-1331671D01*
X4941062Y-1337106D01*
X4944160Y-1342034D01*
X4951526Y-1348841D01*
X4953203Y-1351838D01*
X4953762Y-1355191D01*
X4953762Y-1664360D01*
X4953965Y-1668983D01*
X4954524Y-1673402D01*
X4955489Y-1677720D01*
X4956810Y-1681988D01*
X4958537Y-1686052D01*
X4960569Y-1690014D01*
X4962956Y-1693773D01*
X4965649Y-1697278D01*
X4968798Y-1700733D01*
X5009184Y-1741068D01*
X5011470Y-1744624D01*
X5012131Y-1748789D01*
X5011064Y-1752854D01*
X5008422Y-1756105D01*
X5004714Y-1758086D01*
X5000498Y-1758289D01*
X4996535Y-1756816D01*
X4993640Y-1754987D01*
X4989322Y-1752752D01*
X4984800Y-1750872D01*
X4980178Y-1749399D01*
X4975402Y-1748332D01*
X4970576Y-1747723D01*
X4965496Y-1747469D01*
X4917490Y-1747469D01*
X4913579Y-1746707D01*
X4910277Y-1744522D01*
X4908092Y-1741220D01*
X4907330Y-1737309D01*
X4907330Y-650748D01*
X4907991Y-647141D01*
X4909921Y-643991D01*
X4912868Y-641705D01*
X4916424Y-640689D01*
X4923790Y-639876D01*
X4929225Y-637997D01*
X4934102Y-634898D01*
X4938217Y-630834D01*
X4941265Y-625906D01*
X4943195Y-620471D01*
X4943906Y-614121D01*
X4943906Y-528878D01*
X4943195Y-522528D01*
X4941265Y-517093D01*
X4938217Y-512165D01*
X4934102Y-508101D01*
X4929225Y-505002D01*
X4923790Y-503123D01*
X4916424Y-502310D01*
X4912868Y-501294D01*
X4909921Y-499008D01*
X4907991Y-495858D01*
X4907330Y-492251D01*
X4907330Y-231648D01*
X4908092Y-227787D01*
X4910277Y-224485D01*
X4913579Y-222300D01*
X4917490Y-221488D01*
X4968240Y-221488D01*
X4974539Y-220776D01*
X4980025Y-218897D01*
X4984902Y-215798D01*
X4989017Y-211734D01*
X4992065Y-206806D01*
X4994198Y-200761D01*
X4996332Y-197205D01*
X4999736Y-194767D01*
X5003800Y-193954D01*
X5007864Y-194767D01*
X5011267Y-197205D01*
X5013401Y-200761D01*
X5015534Y-206806D01*
X5018582Y-211734D01*
X5022697Y-215798D01*
X5027574Y-218897D01*
X5033060Y-220776D01*
X5039360Y-221488D01*
X5104384Y-221488D01*
X5108244Y-222300D01*
X5111546Y-224485D01*
X5113731Y-227787D01*
X5114544Y-231648D01*
X5114544Y-240741D01*
X5113832Y-244348D01*
X5111953Y-247497D01*
X5109006Y-249783D01*
X5105501Y-250850D01*
X5102250Y-251206D01*
X5096814Y-253136D01*
X5091887Y-256184D01*
X5087823Y-260299D01*
X5084724Y-265176D01*
X5082794Y-270662D01*
X5082082Y-276961D01*
X5082082Y-345846D01*
X5082794Y-352145D01*
X5084724Y-357632D01*
X5087823Y-362508D01*
X5091887Y-366623D01*
X5096814Y-369671D01*
X5102250Y-371602D01*
X5108600Y-372313D01*
X5232450Y-372313D01*
X5238750Y-371602D01*
X5244236Y-369671D01*
X5249113Y-366623D01*
X5253228Y-362508D01*
X5256276Y-357632D01*
X5258206Y-352145D01*
X5258917Y-345846D01*
X5258917Y-276961D01*
X5258206Y-270662D01*
X5256276Y-265176D01*
X5253228Y-260299D01*
X5249113Y-256184D01*
X5244236Y-253136D01*
X5238750Y-251206D01*
X5235346Y-250799D01*
X5231841Y-249732D01*
X5228894Y-247497D01*
X5227015Y-244348D01*
X5226354Y-240741D01*
X5226354Y-152857D01*
X5225440Y-142697D01*
X5222951Y-133299D01*
X5218785Y-124460D01*
X5213248Y-116484D01*
X5206339Y-109626D01*
X5198364Y-104038D01*
X5189524Y-99923D01*
X5180126Y-97383D01*
X5169966Y-96469D01*
X5147259Y-96469D01*
X5143398Y-95707D01*
X5140096Y-93522D01*
X5135575Y-89001D01*
X5130647Y-85902D01*
X5125212Y-84023D01*
X5118862Y-83312D01*
X5039360Y-83312D01*
X5033060Y-84023D01*
X5027574Y-85902D01*
X5022697Y-89001D01*
X5018582Y-93065D01*
X5015534Y-97993D01*
X5013401Y-104038D01*
X5011267Y-107594D01*
X5007864Y-110032D01*
X5003800Y-110845D01*
X4999736Y-110032D01*
X4996332Y-107594D01*
X4994198Y-104038D01*
X4992065Y-97993D01*
X4989017Y-93065D01*
X4984902Y-89001D01*
X4980025Y-85902D01*
X4974539Y-84023D01*
X4968240Y-83312D01*
X4888738Y-83312D01*
X4882388Y-84023D01*
X4876952Y-85902D01*
X4872024Y-89001D01*
X4867503Y-93522D01*
X4864201Y-95707D01*
X4860340Y-96469D01*
X4851857Y-96469D01*
X4841697Y-97383D01*
X4832299Y-99923D01*
X4823460Y-104038D01*
X4815484Y-109626D01*
X4808626Y-116484D01*
X4803038Y-124460D01*
X4798923Y-133299D01*
X4796383Y-142697D01*
X4795469Y-152857D01*
X4795469Y-325424D01*
X4794554Y-329692D01*
X4791913Y-333197D01*
X4788052Y-335229D01*
X4783734Y-335483D01*
X4779670Y-333857D01*
X4776622Y-330708D01*
X4775250Y-326593D01*
X4774996Y-324459D01*
X4773066Y-318973D01*
X4770018Y-314096D01*
X4766462Y-309880D01*
X4765446Y-307035D01*
X4765344Y-303987D01*
X4766056Y-297586D01*
X4766056Y-198729D01*
X4765344Y-192430D01*
X4763414Y-186944D01*
X4760366Y-182067D01*
X4756251Y-177952D01*
X4751374Y-174853D01*
X4745888Y-172974D01*
X4739589Y-172262D01*
X4470704Y-172262D01*
X4464405Y-172974D01*
X4458919Y-174853D01*
X4454042Y-177952D01*
X4449927Y-182067D01*
X4446879Y-186944D01*
X4444949Y-192430D01*
X4444238Y-198729D01*
X4444238Y-294132D01*
X4443476Y-298043D01*
X4441291Y-301294D01*
X4437989Y-303530D01*
X4434078Y-304292D01*
X4064304Y-304292D01*
X4058259Y-304952D01*
X4052773Y-306882D01*
X4047845Y-309981D01*
X4045458Y-312064D01*
X4007764Y-349758D01*
X4003954Y-354533D01*
X4001515Y-359562D01*
X4000144Y-365150D01*
X3999382Y-371957D01*
X3999382Y-440842D01*
X3999992Y-446785D01*
X3999992Y-533095D01*
X4000652Y-539140D01*
X4002582Y-544626D01*
X4005681Y-549554D01*
X4007764Y-551942D01*
X4058158Y-602335D01*
X4062933Y-606145D01*
X4068165Y-608634D01*
X4073804Y-609904D01*
X4077004Y-610108D01*
X4209186Y-610108D01*
X4212742Y-610768D01*
X4216247Y-612952D01*
X4218584Y-615950D01*
X4219702Y-619556D01*
X4219397Y-623265D01*
X4217771Y-626668D01*
X4214977Y-629259D01*
X4209135Y-632917D01*
X4206544Y-634085D01*
X4203700Y-634492D01*
X4077004Y-634492D01*
X4070959Y-635152D01*
X4065473Y-637082D01*
X4060545Y-640181D01*
X4058158Y-642264D01*
X4007764Y-692658D01*
X4003954Y-697433D01*
X4001465Y-702665D01*
X4000195Y-708304D01*
X3999992Y-711504D01*
X3999992Y-772414D01*
X3999382Y-778357D01*
X3999382Y-847242D01*
X4000093Y-853541D01*
X4002024Y-859028D01*
X4005072Y-863904D01*
X4009186Y-868019D01*
X4014063Y-871067D01*
X4019550Y-872998D01*
X4025849Y-873709D01*
X4149699Y-873709D01*
X4156049Y-872998D01*
X4161485Y-871067D01*
X4166412Y-868019D01*
X4170629Y-864869D01*
X4174490Y-864108D01*
X4203903Y-864108D01*
X4208170Y-865022D01*
X4211624Y-867664D01*
X4213656Y-871474D01*
X4213961Y-875792D01*
X4212437Y-879856D01*
X4205020Y-887069D01*
X4201972Y-891997D01*
X4200042Y-897432D01*
X4199331Y-903782D01*
X4199331Y-962609D01*
X4200042Y-968857D01*
X4202582Y-975817D01*
X4203192Y-979322D01*
X4203192Y-1012037D01*
X4202582Y-1015542D01*
X4200042Y-1022502D01*
X4199331Y-1028750D01*
X4199331Y-1087577D01*
X4200042Y-1093825D01*
X4202582Y-1100785D01*
X4203192Y-1104290D01*
X4203192Y-1137005D01*
X4202582Y-1140510D01*
X4200042Y-1147470D01*
X4199331Y-1153718D01*
X4199331Y-1212545D01*
X4200042Y-1218793D01*
X4202582Y-1225753D01*
X4203192Y-1229258D01*
X4203192Y-1261973D01*
X4202582Y-1265478D01*
X4200042Y-1272438D01*
X4199331Y-1278686D01*
X4199331Y-1337513D01*
X4200042Y-1343761D01*
X4202582Y-1350721D01*
X4203192Y-1354226D01*
X4203192Y-1386941D01*
X4202582Y-1390446D01*
X4200042Y-1397406D01*
X4199331Y-1403654D01*
X4199331Y-1462481D01*
X4200042Y-1468831D01*
X4201972Y-1474266D01*
X4205020Y-1479194D01*
X4212386Y-1486408D01*
X4213910Y-1490472D01*
X4213656Y-1494790D01*
X4211574Y-1498600D01*
X4208119Y-1501190D01*
X4203852Y-1502105D01*
X4030167Y-1502105D01*
X4025087Y-1502359D01*
X4020261Y-1502968D01*
X4015536Y-1504035D01*
X4010304Y-1505712D01*
X4007205Y-1506169D01*
X3934510Y-1506169D01*
X3926738Y-1505254D01*
X3917086Y-1505712D01*
X3907637Y-1507744D01*
X3898696Y-1511300D01*
X3890467Y-1516380D01*
X3883253Y-1522730D01*
X3877157Y-1530248D01*
X3872484Y-1538681D01*
X3869283Y-1547774D01*
X3867658Y-1557274D01*
X3867658Y-1566926D01*
X3869283Y-1576425D01*
X3872484Y-1585518D01*
X3877157Y-1593951D01*
X3883253Y-1601470D01*
X3890467Y-1607820D01*
X3898696Y-1612900D01*
X3907637Y-1616456D01*
X3917086Y-1618488D01*
X3926738Y-1618945D01*
X3934510Y-1618030D01*
X4015282Y-1618030D01*
X4018686Y-1618488D01*
X4023664Y-1618742D01*
X4027322Y-1619554D01*
X4030472Y-1621688D01*
X4032554Y-1624838D01*
X4033418Y-1628495D01*
X4032859Y-1632254D01*
X4030675Y-1638350D01*
X4029964Y-1644650D01*
X4029964Y-1733550D01*
X4030675Y-1739798D01*
X4033113Y-1746605D01*
X4033723Y-1750415D01*
X4032859Y-1754174D01*
X4030624Y-1757375D01*
X4027373Y-1759457D01*
X4023563Y-1760169D01*
X4009390Y-1760118D01*
X4002938Y-1759254D01*
X3993286Y-1759712D01*
X3989882Y-1760169D01*
X3583990Y-1760169D01*
X3580079Y-1759407D01*
X3576777Y-1757222D01*
X3574592Y-1753920D01*
X3573830Y-1750009D01*
X3573830Y-1700580D01*
X3574796Y-1689100D01*
X3573932Y-1679498D01*
X3571544Y-1670151D01*
X3567531Y-1661363D01*
X3562146Y-1653387D01*
X3555492Y-1646428D01*
X3547719Y-1640687D01*
X3539083Y-1636318D01*
X3529888Y-1633524D01*
X3520338Y-1632254D01*
X3510686Y-1632712D01*
X3501237Y-1634744D01*
X3492296Y-1638300D01*
X3484067Y-1643380D01*
X3476853Y-1649730D01*
X3470757Y-1657248D01*
X3466084Y-1665681D01*
X3462883Y-1674774D01*
X3461258Y-1684274D01*
X3461258Y-1693925D01*
X3461969Y-1699209D01*
X3461969Y-1767890D01*
X3461258Y-1773174D01*
X3461258Y-1782825D01*
X3462883Y-1792325D01*
X3466084Y-1801418D01*
X3470757Y-1809851D01*
X3476853Y-1817370D01*
X3486150Y-1825345D01*
X3516325Y-1855470D01*
X3520084Y-1858924D01*
X3523945Y-1861870D01*
X3528060Y-1864512D01*
X3534511Y-1867662D01*
X3537813Y-1869846D01*
X3539998Y-1873148D01*
X3540760Y-1877009D01*
X3539998Y-1880920D01*
X3537813Y-1884222D01*
X3534511Y-1886407D01*
X3530600Y-1887169D01*
X3519881Y-1887169D01*
X3515969Y-1886407D01*
X3512667Y-1884222D01*
X3424377Y-1795932D01*
X3422192Y-1792630D01*
X3421430Y-1788718D01*
X3421430Y-1209090D01*
X3422192Y-1205179D01*
X3424377Y-1201877D01*
X3427679Y-1199692D01*
X3431590Y-1198930D01*
X3628440Y-1198930D01*
X3632301Y-1199692D01*
X3635603Y-1201877D01*
X3640124Y-1206398D01*
X3645052Y-1209497D01*
X3650487Y-1211376D01*
X3656837Y-1212088D01*
X3736340Y-1212088D01*
X3742639Y-1211376D01*
X3748125Y-1209497D01*
X3753002Y-1206398D01*
X3757117Y-1202334D01*
X3760165Y-1197406D01*
X3762095Y-1191971D01*
X3762806Y-1185621D01*
X3762806Y-1100378D01*
X3762095Y-1094028D01*
X3760165Y-1088593D01*
X3757117Y-1083665D01*
X3753002Y-1079601D01*
X3748125Y-1076502D01*
X3742639Y-1074623D01*
X3736340Y-1073912D01*
X3656837Y-1073912D01*
X3646728Y-1075029D01*
X3643071Y-1074064D01*
X3640023Y-1071829D01*
X3637991Y-1068628D01*
X3637330Y-1064920D01*
X3637330Y-994359D01*
X3638092Y-990498D01*
X3640277Y-987196D01*
X3644798Y-982675D01*
X3647897Y-977747D01*
X3649776Y-972312D01*
X3650487Y-965962D01*
X3650487Y-886460D01*
X3649776Y-880160D01*
X3647897Y-874674D01*
X3644798Y-869797D01*
X3640734Y-865682D01*
X3635806Y-862634D01*
X3629761Y-860501D01*
X3626205Y-858367D01*
X3623767Y-854964D01*
X3622954Y-850900D01*
X3623767Y-846836D01*
X3626205Y-843432D01*
X3629761Y-841298D01*
X3635806Y-839165D01*
X3640734Y-836117D01*
X3642461Y-834339D01*
X3645763Y-832154D01*
X3649675Y-831392D01*
X3720134Y-831392D01*
X3725214Y-831138D01*
X3730040Y-830529D01*
X3734815Y-829462D01*
X3739438Y-827989D01*
X3743960Y-826109D01*
X3748278Y-823874D01*
X3752392Y-821232D01*
X3756253Y-818286D01*
X3760012Y-814832D01*
X3798163Y-776681D01*
X3801465Y-774496D01*
X3805377Y-773734D01*
X3810203Y-774090D01*
X3814114Y-776071D01*
X3819550Y-778002D01*
X3825900Y-778713D01*
X3949750Y-778713D01*
X3956050Y-778002D01*
X3961536Y-776071D01*
X3966413Y-773023D01*
X3970528Y-768908D01*
X3973576Y-764032D01*
X3975506Y-758545D01*
X3976217Y-752246D01*
X3976217Y-683361D01*
X3975506Y-677062D01*
X3973576Y-671576D01*
X3970528Y-666699D01*
X3966413Y-662584D01*
X3961536Y-659536D01*
X3956050Y-657606D01*
X3949750Y-656894D01*
X3825900Y-656894D01*
X3819550Y-657606D01*
X3814114Y-659536D01*
X3810203Y-661517D01*
X3807358Y-661873D01*
X3778199Y-661873D01*
X3773119Y-662127D01*
X3768293Y-662736D01*
X3763518Y-663803D01*
X3758895Y-665276D01*
X3754374Y-667156D01*
X3750056Y-669391D01*
X3745941Y-672033D01*
X3742080Y-674979D01*
X3738321Y-678434D01*
X3700170Y-716584D01*
X3696868Y-718769D01*
X3692956Y-719531D01*
X3649421Y-719531D01*
X3645560Y-718769D01*
X3642258Y-716584D01*
X3640734Y-715060D01*
X3635806Y-711962D01*
X3630371Y-710031D01*
X3624021Y-709320D01*
X3538778Y-709320D01*
X3532428Y-710031D01*
X3526993Y-711962D01*
X3522065Y-715060D01*
X3518001Y-719124D01*
X3514902Y-724052D01*
X3513023Y-729488D01*
X3512312Y-735838D01*
X3512312Y-815340D01*
X3513023Y-821639D01*
X3514902Y-827125D01*
X3518001Y-832002D01*
X3522065Y-836117D01*
X3526993Y-839165D01*
X3533038Y-841298D01*
X3536594Y-843432D01*
X3539032Y-846836D01*
X3539845Y-850900D01*
X3539032Y-854964D01*
X3536594Y-858367D01*
X3533038Y-860501D01*
X3526993Y-862634D01*
X3522065Y-865682D01*
X3518001Y-869797D01*
X3514902Y-874674D01*
X3513023Y-880160D01*
X3512312Y-886460D01*
X3512312Y-965962D01*
X3513023Y-972312D01*
X3514902Y-977747D01*
X3518001Y-982675D01*
X3522522Y-987196D01*
X3524707Y-990498D01*
X3525469Y-994359D01*
X3525469Y-1076909D01*
X3524707Y-1080820D01*
X3522522Y-1084122D01*
X3519220Y-1086307D01*
X3515309Y-1087069D01*
X3403803Y-1087069D01*
X3398723Y-1087323D01*
X3393897Y-1087932D01*
X3389122Y-1088999D01*
X3384499Y-1090472D01*
X3379978Y-1092352D01*
X3375660Y-1094587D01*
X3371545Y-1097229D01*
X3367684Y-1100175D01*
X3363925Y-1103630D01*
X3326129Y-1141425D01*
X3322675Y-1145184D01*
X3319729Y-1149045D01*
X3317087Y-1153160D01*
X3314852Y-1157478D01*
X3312972Y-1161999D01*
X3311499Y-1166622D01*
X3310432Y-1171397D01*
X3309823Y-1176223D01*
X3309569Y-1181303D01*
X3309569Y-1815896D01*
X3309823Y-1820976D01*
X3310432Y-1825802D01*
X3311499Y-1830578D01*
X3312972Y-1835200D01*
X3314852Y-1839722D01*
X3317087Y-1844039D01*
X3319729Y-1848154D01*
X3322675Y-1852015D01*
X3326129Y-1855774D01*
X3452825Y-1982470D01*
X3455720Y-1985162D01*
X3458108Y-1988413D01*
X3459022Y-1992325D01*
X3458311Y-1996338D01*
X3456127Y-1999691D01*
X3452825Y-2001977D01*
X3448862Y-2002789D01*
X3409543Y-2002789D01*
X3399637Y-2003653D01*
X3390442Y-2006142D01*
X3381806Y-2010156D01*
X3374034Y-2015591D01*
X3367278Y-2022348D01*
X3361842Y-2030120D01*
X3357829Y-2038756D01*
X3355340Y-2047900D01*
X3354527Y-2057400D01*
X3355340Y-2066899D01*
X3357829Y-2076043D01*
X3361842Y-2084679D01*
X3367278Y-2092452D01*
X3374034Y-2099208D01*
X3381806Y-2104644D01*
X3390442Y-2108657D01*
X3399637Y-2111146D01*
X3409543Y-2112010D01*
X3555034Y-2112010D01*
X3564991Y-2111146D01*
X3574186Y-2108657D01*
X3582771Y-2104644D01*
X3590594Y-2099208D01*
X3597300Y-2092452D01*
X3602736Y-2084679D01*
X3606800Y-2076043D01*
X3609238Y-2066899D01*
X3610051Y-2057400D01*
X3609238Y-2047900D01*
X3606800Y-2038756D01*
X3602736Y-2030120D01*
X3597300Y-2022348D01*
X3591356Y-2016353D01*
X3589121Y-2013051D01*
X3588359Y-2009190D01*
X3589121Y-2005279D01*
X3591356Y-2001977D01*
X3594608Y-1999792D01*
X3598519Y-1999030D01*
X3989882Y-1999030D01*
X3993286Y-1999488D01*
X4002938Y-1999945D01*
X4010710Y-1999030D01*
X4053382Y-1999030D01*
X4056786Y-1999488D01*
X4066438Y-1999945D01*
X4075988Y-1998675D01*
X4085183Y-1995881D01*
X4093819Y-1991512D01*
X4101592Y-1985772D01*
X4108246Y-1978812D01*
X4113631Y-1970836D01*
X4117644Y-1962048D01*
X4120032Y-1952701D01*
X4120896Y-1943100D01*
X4120032Y-1933498D01*
X4117644Y-1924151D01*
X4113631Y-1915363D01*
X4108246Y-1907387D01*
X4101592Y-1900428D01*
X4093819Y-1894687D01*
X4085183Y-1890318D01*
X4081881Y-1889302D01*
X4078173Y-1887220D01*
X4075633Y-1883765D01*
X4074718Y-1879600D01*
X4075633Y-1875434D01*
X4078173Y-1871980D01*
X4081881Y-1869897D01*
X4085183Y-1868881D01*
X4093819Y-1864512D01*
X4101592Y-1858772D01*
X4108246Y-1851812D01*
X4113631Y-1843836D01*
X4117644Y-1835048D01*
X4120032Y-1825701D01*
X4120896Y-1816100D01*
X4120032Y-1806498D01*
X4117644Y-1797151D01*
X4113631Y-1788363D01*
X4108246Y-1780387D01*
X4105198Y-1777187D01*
X4103065Y-1773885D01*
X4102404Y-1770024D01*
X4103217Y-1766163D01*
X4105401Y-1762912D01*
X4108704Y-1760778D01*
X4112564Y-1760016D01*
X4135323Y-1760016D01*
X4141622Y-1759305D01*
X4147108Y-1757375D01*
X4151020Y-1755393D01*
X4153814Y-1754987D01*
X4180332Y-1754987D01*
X4184243Y-1755800D01*
X4187494Y-1757984D01*
X4189729Y-1761286D01*
X4190492Y-1765147D01*
X4190492Y-1840941D01*
X4191203Y-1847240D01*
X4193133Y-1852726D01*
X4196181Y-1857603D01*
X4200296Y-1861718D01*
X4207306Y-1865884D01*
X4210304Y-1868220D01*
X4212285Y-1871522D01*
X4212894Y-1875282D01*
X4212082Y-1878990D01*
X4209948Y-1882190D01*
X4205020Y-1887067D01*
X4201972Y-1891995D01*
X4200042Y-1897430D01*
X4199331Y-1903780D01*
X4199331Y-1962607D01*
X4200042Y-1968957D01*
X4201972Y-1974392D01*
X4205020Y-1979320D01*
X4209135Y-1983384D01*
X4214977Y-1987092D01*
X4217924Y-1989886D01*
X4219549Y-1993646D01*
X4219549Y-1997710D01*
X4217924Y-2001469D01*
X4214977Y-2004263D01*
X4209135Y-2007971D01*
X4205020Y-2012035D01*
X4201972Y-2016963D01*
X4200042Y-2022398D01*
X4199331Y-2028748D01*
X4199331Y-2087575D01*
X4200042Y-2093925D01*
X4201972Y-2099360D01*
X4205020Y-2104288D01*
X4209135Y-2108352D01*
X4214012Y-2111451D01*
X4219498Y-2113381D01*
X4225798Y-2114092D01*
X4394657Y-2114092D01*
X4402023Y-2113330D01*
X4644339Y-2113330D01*
X4648352Y-2113940D01*
X4658004Y-2114346D01*
X4666742Y-2113330D01*
X4701082Y-2113330D01*
X4704486Y-2113788D01*
X4714138Y-2114245D01*
X4723688Y-2112975D01*
X4732883Y-2110181D01*
X4741519Y-2105812D01*
X4749292Y-2100072D01*
X4755946Y-2093112D01*
X4761331Y-2085136D01*
X4765344Y-2076348D01*
X4767732Y-2067001D01*
X4768596Y-2057400D01*
X4767732Y-2047798D01*
X4765344Y-2038451D01*
X4761331Y-2029663D01*
X4755946Y-2021687D01*
X4749292Y-2014728D01*
X4741468Y-2008936D01*
X4733848Y-2004974D01*
X4730750Y-2002485D01*
X4728819Y-1998980D01*
X4728413Y-1995017D01*
X4729530Y-1991207D01*
X4732070Y-1988159D01*
X4735576Y-1986229D01*
X4745583Y-1983181D01*
X4754219Y-1978812D01*
X4761992Y-1973072D01*
X4768646Y-1966112D01*
X4774031Y-1958136D01*
X4778044Y-1949348D01*
X4780432Y-1940001D01*
X4781296Y-1930400D01*
X4780432Y-1920798D01*
X4778044Y-1911451D01*
X4774031Y-1902663D01*
X4768646Y-1894687D01*
X4761992Y-1887728D01*
X4758944Y-1885442D01*
X4756251Y-1882495D01*
X4754930Y-1878685D01*
X4755184Y-1874672D01*
X4756962Y-1871065D01*
X4760010Y-1868424D01*
X4763820Y-1867204D01*
X4768240Y-1866696D01*
X4773726Y-1864766D01*
X4778603Y-1861718D01*
X4782718Y-1857603D01*
X4785766Y-1852726D01*
X4787696Y-1847240D01*
X4788357Y-1841398D01*
X4789627Y-1837537D01*
X4792268Y-1834438D01*
X4795926Y-1832660D01*
X4799990Y-1832508D01*
X4803800Y-1833880D01*
X4806797Y-1836724D01*
X4808626Y-1839315D01*
X4815484Y-1846173D01*
X4823460Y-1851761D01*
X4832299Y-1855876D01*
X4841697Y-1858416D01*
X4851857Y-1859330D01*
X4858207Y-1859330D01*
X4862322Y-1860194D01*
X4865725Y-1862632D01*
X4867859Y-1866239D01*
X4868316Y-1870405D01*
X4867097Y-1874418D01*
X4863084Y-1881581D01*
X4859883Y-1890674D01*
X4858258Y-1900174D01*
X4858258Y-1909825D01*
X4858969Y-1915109D01*
X4858969Y-1958390D01*
X4858258Y-1963674D01*
X4858258Y-1973325D01*
X4858969Y-1978609D01*
X4858969Y-2055418D01*
X4858207Y-2059330D01*
X4856022Y-2062632D01*
X4767732Y-2150922D01*
X4764430Y-2153107D01*
X4760518Y-2153869D01*
X4496003Y-2153869D01*
X4490923Y-2154123D01*
X4486097Y-2154732D01*
X4481322Y-2155799D01*
X4476699Y-2157272D01*
X4472178Y-2159152D01*
X4467860Y-2161387D01*
X4463745Y-2164029D01*
X4459884Y-2166975D01*
X4456125Y-2170430D01*
X4354830Y-2271725D01*
X4351375Y-2275484D01*
X4348429Y-2279345D01*
X4345787Y-2283460D01*
X4343552Y-2287778D01*
X4341672Y-2292299D01*
X4340199Y-2296922D01*
X4339132Y-2301697D01*
X4338523Y-2306523D01*
X4338269Y-2311603D01*
X4338269Y-2450896D01*
X4338523Y-2455976D01*
X4339132Y-2460802D01*
X4340199Y-2465578D01*
X4341672Y-2470200D01*
X4343552Y-2474722D01*
X4345787Y-2479040D01*
X4348429Y-2483154D01*
X4351375Y-2487015D01*
X4354830Y-2490774D01*
X4532325Y-2668270D01*
X4536084Y-2671724D01*
X4539945Y-2674670D01*
X4544060Y-2677312D01*
X4548378Y-2679547D01*
X4552899Y-2681427D01*
X4557522Y-2682900D01*
X4562297Y-2683967D01*
X4567123Y-2684576D01*
X4572203Y-2684830D01*
X4801362Y-2684830D01*
X4804156Y-2685186D01*
X4808778Y-2687574D01*
X4818329Y-2691536D01*
X4828387Y-2693974D01*
X4839106Y-2694787D01*
X4914493Y-2694787D01*
X4923129Y-2694127D01*
X4927193Y-2694635D01*
X4930698Y-2696718D01*
X4933137Y-2700020D01*
X4934051Y-2703982D01*
X4933340Y-2708046D01*
X4931105Y-2711450D01*
X4837430Y-2805125D01*
X4833975Y-2808884D01*
X4831029Y-2812745D01*
X4828387Y-2816860D01*
X4826152Y-2821178D01*
X4824272Y-2825699D01*
X4822799Y-2830322D01*
X4821732Y-2835097D01*
X4821123Y-2839923D01*
X4820869Y-2845003D01*
X4820869Y-3073196D01*
X4821123Y-3078276D01*
X4821732Y-3083102D01*
X4822799Y-3087878D01*
X4824272Y-3092500D01*
X4826152Y-3097022D01*
X4828387Y-3101340D01*
X4831029Y-3105454D01*
X4833975Y-3109315D01*
X4837430Y-3113074D01*
X4926025Y-3201670D01*
X4929784Y-3205124D01*
X4933645Y-3208070D01*
X4937760Y-3210712D01*
X4942078Y-3212947D01*
X4946599Y-3214827D01*
X4951222Y-3216300D01*
X4955997Y-3217367D01*
X4960823Y-3217976D01*
X4965903Y-3218230D01*
X5179618Y-3218230D01*
X5183530Y-3218992D01*
X5186832Y-3221177D01*
X5224322Y-3258667D01*
X5226507Y-3261969D01*
X5227269Y-3265881D01*
X5227269Y-4249216D01*
X5226354Y-4253534D01*
X5223662Y-4256989D01*
X5219750Y-4259021D01*
X5215382Y-4259224D01*
X5211318Y-4257548D01*
X5209794Y-4256481D01*
X5200904Y-4252315D01*
X5191404Y-4249775D01*
X5181600Y-4248912D01*
X5171795Y-4249775D01*
X5162296Y-4252315D01*
X5159959Y-4253433D01*
X5155641Y-4254398D01*
X5137810Y-4254398D01*
X5133543Y-4253433D01*
X5131155Y-4252315D01*
X5121656Y-4249775D01*
X5111851Y-4248912D01*
X5102098Y-4249775D01*
X5092598Y-4252315D01*
X5090210Y-4253433D01*
X5085892Y-4254398D01*
X5016500Y-4254398D01*
X5012182Y-4253433D01*
X5008676Y-4250740D01*
X5006644Y-4246778D01*
X5005578Y-4241038D01*
X5006187Y-4238091D01*
X5008473Y-4231589D01*
X5009184Y-4225239D01*
X5009184Y-4131411D01*
X5008473Y-4125112D01*
X5005984Y-4118254D01*
X5005374Y-4114800D01*
X5005984Y-4111345D01*
X5008473Y-4104538D01*
X5009184Y-4098239D01*
X5009184Y-4004411D01*
X5008473Y-3998112D01*
X5005984Y-3991254D01*
X5005374Y-3987800D01*
X5005984Y-3984345D01*
X5008473Y-3977538D01*
X5009184Y-3971239D01*
X5009184Y-3877411D01*
X5008473Y-3871112D01*
X5005984Y-3864254D01*
X5005374Y-3860800D01*
X5005984Y-3857345D01*
X5008473Y-3850538D01*
X5009184Y-3844239D01*
X5009184Y-3750411D01*
X5008473Y-3744112D01*
X5005984Y-3737254D01*
X5005374Y-3733800D01*
X5005984Y-3730345D01*
X5008473Y-3723538D01*
X5009184Y-3717239D01*
X5009184Y-3623411D01*
X5008473Y-3617112D01*
X5005984Y-3610254D01*
X5005374Y-3606800D01*
X5005984Y-3603345D01*
X5008473Y-3596538D01*
X5009184Y-3590239D01*
X5009184Y-3496411D01*
X5008473Y-3490112D01*
X5005984Y-3483254D01*
X5005374Y-3479800D01*
X5005984Y-3476345D01*
X5008473Y-3469538D01*
X5009184Y-3463239D01*
X5009184Y-3369411D01*
X5008473Y-3363061D01*
X5006543Y-3357626D01*
X5003444Y-3352698D01*
X4999380Y-3348634D01*
X4994452Y-3345535D01*
X4989017Y-3343605D01*
X4982667Y-3342894D01*
X4773828Y-3342894D01*
X4767529Y-3343605D01*
X4762042Y-3345535D01*
X4757166Y-3348634D01*
X4753051Y-3352698D01*
X4749952Y-3357626D01*
X4748072Y-3363061D01*
X4747361Y-3369411D01*
X4747361Y-3463239D01*
X4748072Y-3469538D01*
X4750511Y-3476345D01*
X4751120Y-3479800D01*
X4750511Y-3483254D01*
X4748072Y-3490112D01*
X4747361Y-3496411D01*
X4747361Y-3590239D01*
X4748072Y-3596538D01*
X4750511Y-3603345D01*
X4751120Y-3606800D01*
X4750511Y-3610254D01*
X4748072Y-3617112D01*
X4747361Y-3623411D01*
X4747361Y-3717239D01*
X4748072Y-3723538D01*
X4750511Y-3730345D01*
X4751120Y-3733800D01*
X4750511Y-3737254D01*
X4748072Y-3744112D01*
X4747361Y-3750411D01*
X4747361Y-3844239D01*
X4748072Y-3850538D01*
X4750511Y-3857345D01*
X4751120Y-3860800D01*
X4750511Y-3864254D01*
X4748072Y-3871112D01*
X4747361Y-3877411D01*
X4747361Y-3971239D01*
X4748072Y-3977538D01*
X4750511Y-3984345D01*
X4751120Y-3987800D01*
X4750511Y-3991254D01*
X4748072Y-3998112D01*
X4747361Y-4004411D01*
X4747361Y-4098239D01*
X4748072Y-4104538D01*
X4750511Y-4111345D01*
X4751120Y-4114800D01*
X4750511Y-4118254D01*
X4748072Y-4125112D01*
X4747361Y-4131411D01*
X4747361Y-4225239D01*
X4748072Y-4231538D01*
X4750511Y-4238345D01*
X4751120Y-4241800D01*
X4750511Y-4245254D01*
X4748072Y-4252112D01*
X4747361Y-4258411D01*
X4747361Y-4352239D01*
X4748072Y-4358589D01*
X4749546Y-4362856D01*
X4750104Y-4366666D01*
X4749241Y-4370425D01*
X4747006Y-4373575D01*
X4743754Y-4375658D01*
X4739995Y-4376369D01*
X4709210Y-4376369D01*
X4701438Y-4375454D01*
X4691786Y-4375912D01*
X4688382Y-4376369D01*
G37*

%LPC*%
G36*
X3409543Y-2493010D02*
G01*
X3555034Y-2493010D01*
X3564991Y-2492146D01*
X3574186Y-2489657D01*
X3582771Y-2485644D01*
X3590594Y-2480208D01*
X3597300Y-2473452D01*
X3602736Y-2465679D01*
X3606800Y-2457043D01*
X3609238Y-2447899D01*
X3610051Y-2438400D01*
X3609238Y-2428900D01*
X3606800Y-2419756D01*
X3602736Y-2411120D01*
X3597300Y-2403348D01*
X3590594Y-2396591D01*
X3582771Y-2391156D01*
X3574186Y-2387142D01*
X3564991Y-2384653D01*
X3555034Y-2383790D01*
X3409543Y-2383790D01*
X3399637Y-2384653D01*
X3390442Y-2387142D01*
X3381806Y-2391156D01*
X3374034Y-2396591D01*
X3367278Y-2403348D01*
X3361842Y-2411120D01*
X3357829Y-2419756D01*
X3355340Y-2428900D01*
X3354527Y-2438400D01*
X3355340Y-2447899D01*
X3357829Y-2457043D01*
X3361842Y-2465679D01*
X3367278Y-2473452D01*
X3374034Y-2480208D01*
X3381806Y-2485644D01*
X3390442Y-2489657D01*
X3399637Y-2492146D01*
G37*
G36*
X4180738Y-2406345D02*
G01*
X4188510Y-2405430D01*
X4231182Y-2405430D01*
X4234586Y-2405888D01*
X4244238Y-2406345D01*
X4253788Y-2405075D01*
X4262983Y-2402281D01*
X4271619Y-2397912D01*
X4279392Y-2392172D01*
X4286046Y-2385212D01*
X4291431Y-2377236D01*
X4295444Y-2368448D01*
X4297832Y-2359101D01*
X4298696Y-2349500D01*
X4297832Y-2339898D01*
X4295444Y-2330551D01*
X4291431Y-2321763D01*
X4286046Y-2313787D01*
X4279392Y-2306828D01*
X4271619Y-2301087D01*
X4262983Y-2296718D01*
X4253788Y-2293924D01*
X4244238Y-2292654D01*
X4234586Y-2293112D01*
X4231182Y-2293569D01*
X4205681Y-2293569D01*
X4201769Y-2292807D01*
X4198467Y-2290622D01*
X4179874Y-2272030D01*
X4176115Y-2268575D01*
X4172254Y-2265629D01*
X4168140Y-2262987D01*
X4163822Y-2260752D01*
X4159300Y-2258872D01*
X4154678Y-2257399D01*
X4149902Y-2256332D01*
X4145076Y-2255723D01*
X4139946Y-2255469D01*
X4131360Y-2255418D01*
X4127550Y-2254656D01*
X4124299Y-2252472D01*
X4122115Y-2249271D01*
X4121302Y-2245461D01*
X4121962Y-2241651D01*
X4123994Y-2238349D01*
X4127144Y-2236063D01*
X4136593Y-2231644D01*
X4144365Y-2226208D01*
X4151122Y-2219452D01*
X4156557Y-2211679D01*
X4160570Y-2203043D01*
X4163060Y-2193899D01*
X4163872Y-2184400D01*
X4163060Y-2174900D01*
X4160570Y-2165756D01*
X4156557Y-2157120D01*
X4151122Y-2149348D01*
X4144365Y-2142591D01*
X4136593Y-2137156D01*
X4127957Y-2133142D01*
X4118762Y-2130653D01*
X4108856Y-2129790D01*
X4048709Y-2129790D01*
X4035653Y-2128469D01*
X3883710Y-2128469D01*
X3875938Y-2127554D01*
X3866286Y-2128012D01*
X3862882Y-2128469D01*
X3820210Y-2128469D01*
X3812438Y-2127554D01*
X3802786Y-2128012D01*
X3793337Y-2130044D01*
X3784396Y-2133600D01*
X3776167Y-2138680D01*
X3768953Y-2145030D01*
X3762857Y-2152548D01*
X3758184Y-2160981D01*
X3754983Y-2170074D01*
X3753358Y-2179574D01*
X3753358Y-2189226D01*
X3754983Y-2198725D01*
X3758184Y-2207818D01*
X3762857Y-2216251D01*
X3768953Y-2223770D01*
X3776167Y-2230120D01*
X3784396Y-2235200D01*
X3793337Y-2238756D01*
X3802786Y-2240788D01*
X3812438Y-2241245D01*
X3820210Y-2240330D01*
X3862882Y-2240330D01*
X3866286Y-2240788D01*
X3875938Y-2241245D01*
X3883710Y-2240330D01*
X3941013Y-2240330D01*
X3944874Y-2241042D01*
X3948125Y-2243226D01*
X3950309Y-2246426D01*
X3951173Y-2250236D01*
X3950512Y-2254097D01*
X3948429Y-2257399D01*
X3945280Y-2259685D01*
X3935577Y-2264156D01*
X3927805Y-2269591D01*
X3921099Y-2276348D01*
X3915664Y-2284120D01*
X3911600Y-2292756D01*
X3909161Y-2301900D01*
X3908348Y-2311400D01*
X3909161Y-2320899D01*
X3911600Y-2330043D01*
X3915664Y-2338679D01*
X3921099Y-2346452D01*
X3927805Y-2353208D01*
X3935628Y-2358644D01*
X3944264Y-2362657D01*
X3953408Y-2365146D01*
X3963365Y-2366010D01*
X4023512Y-2366010D01*
X4036568Y-2367330D01*
X4112818Y-2367330D01*
X4116730Y-2368092D01*
X4120032Y-2370277D01*
X4131919Y-2382266D01*
X4137253Y-2388870D01*
X4144467Y-2395220D01*
X4152696Y-2400300D01*
X4161637Y-2403856D01*
X4171086Y-2405888D01*
G37*
G36*
X3202838Y-1834845D02*
G01*
X3212388Y-1833575D01*
X3221583Y-1830781D01*
X3230219Y-1826412D01*
X3237992Y-1820672D01*
X3244646Y-1813712D01*
X3250031Y-1805736D01*
X3254044Y-1796948D01*
X3256432Y-1787601D01*
X3257296Y-1778000D01*
X3256330Y-1766519D01*
X3256330Y-1700580D01*
X3257245Y-1689100D01*
X3256330Y-1677619D01*
X3256330Y-878281D01*
X3257092Y-874369D01*
X3259277Y-871067D01*
X3474059Y-656285D01*
X3477361Y-654100D01*
X3481273Y-653288D01*
X3520440Y-653288D01*
X3526739Y-652576D01*
X3532225Y-650697D01*
X3537102Y-647598D01*
X3541217Y-643534D01*
X3544265Y-638606D01*
X3546195Y-633171D01*
X3546906Y-626821D01*
X3546906Y-541578D01*
X3546195Y-535228D01*
X3544265Y-529793D01*
X3541217Y-524865D01*
X3539540Y-523240D01*
X3537356Y-519938D01*
X3536594Y-516026D01*
X3536594Y-294081D01*
X3537356Y-290169D01*
X3539540Y-286867D01*
X3627374Y-199085D01*
X3630625Y-196900D01*
X3634536Y-196088D01*
X3660140Y-196088D01*
X3666439Y-195376D01*
X3671925Y-193497D01*
X3676802Y-190398D01*
X3680917Y-186334D01*
X3683965Y-181406D01*
X3686098Y-175361D01*
X3688232Y-171805D01*
X3691636Y-169367D01*
X3695700Y-168554D01*
X3699764Y-169367D01*
X3703167Y-171805D01*
X3705301Y-175361D01*
X3707434Y-181406D01*
X3710482Y-186334D01*
X3714597Y-190398D01*
X3719474Y-193497D01*
X3724960Y-195376D01*
X3731260Y-196088D01*
X3810762Y-196088D01*
X3820769Y-194970D01*
X3824274Y-195884D01*
X3827272Y-197916D01*
X3828846Y-199491D01*
X3831031Y-202793D01*
X3831793Y-206705D01*
X3831793Y-240741D01*
X3831132Y-244348D01*
X3829253Y-247497D01*
X3826306Y-249783D01*
X3822801Y-250850D01*
X3819550Y-251206D01*
X3814114Y-253136D01*
X3809187Y-256184D01*
X3805123Y-260299D01*
X3802024Y-265176D01*
X3800094Y-270662D01*
X3799382Y-276961D01*
X3799382Y-345846D01*
X3800094Y-352145D01*
X3802024Y-357632D01*
X3805123Y-362508D01*
X3809187Y-366623D01*
X3814114Y-369671D01*
X3819550Y-371602D01*
X3825900Y-372313D01*
X3949750Y-372313D01*
X3956050Y-371602D01*
X3961536Y-369671D01*
X3966413Y-366623D01*
X3970528Y-362508D01*
X3973576Y-357632D01*
X3975506Y-352145D01*
X3976217Y-345846D01*
X3976217Y-276961D01*
X3975506Y-270662D01*
X3973576Y-265176D01*
X3970528Y-260299D01*
X3966413Y-256184D01*
X3961536Y-253136D01*
X3956050Y-251206D01*
X3952646Y-250799D01*
X3949141Y-249732D01*
X3946194Y-247497D01*
X3944315Y-244348D01*
X3943654Y-240741D01*
X3943654Y-179527D01*
X3943400Y-174447D01*
X3942791Y-169621D01*
X3941724Y-164846D01*
X3940251Y-160223D01*
X3938371Y-155702D01*
X3936136Y-151384D01*
X3933494Y-147269D01*
X3930548Y-143408D01*
X3927094Y-139649D01*
X3875074Y-87630D01*
X3871315Y-84175D01*
X3867454Y-81229D01*
X3863340Y-78587D01*
X3859022Y-76352D01*
X3854500Y-74472D01*
X3849878Y-72999D01*
X3845255Y-71983D01*
X3838397Y-71272D01*
X3835044Y-70358D01*
X3832250Y-68376D01*
X3827475Y-63601D01*
X3822547Y-60502D01*
X3817112Y-58623D01*
X3810762Y-57912D01*
X3731260Y-57912D01*
X3724960Y-58623D01*
X3719474Y-60502D01*
X3714597Y-63601D01*
X3710482Y-67665D01*
X3707434Y-72593D01*
X3705301Y-78638D01*
X3703167Y-82194D01*
X3699764Y-84632D01*
X3695700Y-85445D01*
X3691636Y-84632D01*
X3688232Y-82194D01*
X3686098Y-78638D01*
X3683965Y-72593D01*
X3680917Y-67665D01*
X3676802Y-63601D01*
X3671925Y-60502D01*
X3666439Y-58623D01*
X3660140Y-57912D01*
X3580637Y-57912D01*
X3574287Y-58623D01*
X3568852Y-60502D01*
X3563924Y-63601D01*
X3559860Y-67665D01*
X3556762Y-72593D01*
X3554831Y-78028D01*
X3554120Y-84378D01*
X3554120Y-109931D01*
X3553358Y-113842D01*
X3551174Y-117144D01*
X3441293Y-227025D01*
X3437839Y-230784D01*
X3434892Y-234645D01*
X3432251Y-238760D01*
X3430015Y-243078D01*
X3428136Y-247599D01*
X3426663Y-252221D01*
X3425596Y-256997D01*
X3424986Y-261823D01*
X3424732Y-266903D01*
X3424732Y-516077D01*
X3423970Y-519938D01*
X3421786Y-523240D01*
X3420160Y-524865D01*
X3417062Y-529793D01*
X3415131Y-535228D01*
X3414420Y-541578D01*
X3414420Y-553567D01*
X3413658Y-557479D01*
X3411474Y-560781D01*
X3161030Y-811225D01*
X3157575Y-814984D01*
X3154629Y-818845D01*
X3151987Y-822960D01*
X3149752Y-827278D01*
X3147872Y-831799D01*
X3146399Y-836421D01*
X3145332Y-841197D01*
X3144723Y-846023D01*
X3144469Y-851103D01*
X3144469Y-1678990D01*
X3143758Y-1684274D01*
X3143758Y-1693925D01*
X3144469Y-1699209D01*
X3144469Y-1767890D01*
X3143758Y-1773174D01*
X3143758Y-1782825D01*
X3145383Y-1792325D01*
X3148584Y-1801418D01*
X3153257Y-1809851D01*
X3159353Y-1817370D01*
X3166567Y-1823720D01*
X3174796Y-1828800D01*
X3183737Y-1832356D01*
X3193186Y-1834388D01*
G37*
G36*
X6428892Y-1189634D02*
G01*
X6707733Y-1189634D01*
X6714032Y-1188872D01*
X6719519Y-1186992D01*
X6724396Y-1183894D01*
X6728510Y-1179830D01*
X6731609Y-1174902D01*
X6733489Y-1169466D01*
X6734200Y-1163116D01*
X6734200Y-1064260D01*
X6733489Y-1057960D01*
X6731609Y-1052474D01*
X6728510Y-1047597D01*
X6724396Y-1043482D01*
X6719519Y-1040434D01*
X6714032Y-1038504D01*
X6707733Y-1037793D01*
X6428892Y-1037793D01*
X6422542Y-1038504D01*
X6417106Y-1040434D01*
X6412179Y-1043482D01*
X6408115Y-1047597D01*
X6405016Y-1052474D01*
X6403086Y-1057960D01*
X6402374Y-1064260D01*
X6402374Y-1163116D01*
X6403086Y-1169466D01*
X6405016Y-1174902D01*
X6408115Y-1179830D01*
X6412179Y-1183894D01*
X6417106Y-1186992D01*
X6422542Y-1188872D01*
G37*
G36*
X6911441Y-691692D02*
G01*
X7190333Y-691692D01*
X7196632Y-690981D01*
X7202119Y-689102D01*
X7206996Y-686003D01*
X7211110Y-681888D01*
X7214158Y-677011D01*
X7216089Y-671525D01*
X7216800Y-665226D01*
X7216800Y-566369D01*
X7216089Y-560019D01*
X7214158Y-554583D01*
X7211110Y-549656D01*
X7206996Y-545592D01*
X7202119Y-542493D01*
X7196632Y-540613D01*
X7190333Y-539902D01*
X6911441Y-539902D01*
X6905142Y-540613D01*
X6899656Y-542493D01*
X6894779Y-545592D01*
X6890664Y-549656D01*
X6887616Y-554583D01*
X6885686Y-560019D01*
X6884974Y-566369D01*
X6884974Y-665226D01*
X6885686Y-671525D01*
X6887616Y-677011D01*
X6890664Y-681888D01*
X6894779Y-686003D01*
X6899656Y-689102D01*
X6905142Y-690981D01*
G37*
G36*
X6349187Y-486664D02*
G01*
X6800291Y-486664D01*
X6806641Y-485952D01*
X6812076Y-484022D01*
X6817004Y-480974D01*
X6821068Y-476859D01*
X6824167Y-471982D01*
X6826097Y-466496D01*
X6826808Y-460197D01*
X6826808Y-401320D01*
X6826097Y-395020D01*
X6824167Y-389534D01*
X6821068Y-384657D01*
X6817004Y-380542D01*
X6811162Y-376885D01*
X6808216Y-374040D01*
X6806590Y-370332D01*
X6806590Y-366217D01*
X6808216Y-362508D01*
X6811162Y-359664D01*
X6817004Y-356006D01*
X6821068Y-351891D01*
X6824167Y-347014D01*
X6826097Y-341528D01*
X6826808Y-335229D01*
X6826808Y-276352D01*
X6826097Y-270052D01*
X6824167Y-264566D01*
X6821068Y-259689D01*
X6817004Y-255574D01*
X6812076Y-252475D01*
X6806641Y-250596D01*
X6800291Y-249885D01*
X6577685Y-249885D01*
X6573570Y-249021D01*
X6570116Y-246481D01*
X6568033Y-242824D01*
X6567627Y-238607D01*
X6568287Y-232410D01*
X6568287Y-83566D01*
X6567576Y-77266D01*
X6565696Y-71780D01*
X6562598Y-66903D01*
X6558483Y-62788D01*
X6553606Y-59690D01*
X6548120Y-57810D01*
X6541820Y-57099D01*
X6462979Y-57099D01*
X6456629Y-57810D01*
X6451193Y-59690D01*
X6446266Y-62788D01*
X6442202Y-66903D01*
X6439103Y-71780D01*
X6437172Y-77266D01*
X6436461Y-83566D01*
X6436461Y-232410D01*
X6437172Y-238760D01*
X6439103Y-244195D01*
X6442202Y-249123D01*
X6443522Y-250444D01*
X6445707Y-253746D01*
X6446469Y-257606D01*
X6446469Y-294436D01*
X6445707Y-300939D01*
X6445504Y-305816D01*
X6445707Y-310642D01*
X6446367Y-315518D01*
X6447434Y-320243D01*
X6448856Y-324916D01*
X6450736Y-329438D01*
X6453022Y-333756D01*
X6455613Y-337870D01*
X6458610Y-341731D01*
X6461861Y-345338D01*
X6465468Y-348589D01*
X6469329Y-351586D01*
X6473444Y-354177D01*
X6476288Y-355701D01*
X6479692Y-358546D01*
X6481572Y-362661D01*
X6481470Y-367080D01*
X6479489Y-371094D01*
X6475984Y-373888D01*
X6471615Y-374853D01*
X6376314Y-374853D01*
X6372453Y-374091D01*
X6369151Y-371856D01*
X6307277Y-310032D01*
X6305092Y-306730D01*
X6304330Y-302818D01*
X6304330Y-257606D01*
X6305092Y-253746D01*
X6307277Y-250444D01*
X6308598Y-249123D01*
X6311696Y-244195D01*
X6313576Y-238760D01*
X6314287Y-232410D01*
X6314287Y-83566D01*
X6313576Y-77266D01*
X6311696Y-71780D01*
X6308598Y-66903D01*
X6304483Y-62788D01*
X6299606Y-59690D01*
X6294120Y-57810D01*
X6287820Y-57099D01*
X6208979Y-57099D01*
X6202629Y-57810D01*
X6197193Y-59690D01*
X6192266Y-62788D01*
X6188202Y-66903D01*
X6185103Y-71780D01*
X6183172Y-77266D01*
X6182461Y-83566D01*
X6182461Y-232410D01*
X6183172Y-238760D01*
X6185103Y-244195D01*
X6188202Y-249123D01*
X6189522Y-250444D01*
X6191707Y-253746D01*
X6192469Y-257606D01*
X6192469Y-329996D01*
X6192723Y-335076D01*
X6193332Y-339902D01*
X6194399Y-344678D01*
X6195872Y-349300D01*
X6197752Y-353822D01*
X6199987Y-358140D01*
X6202629Y-362254D01*
X6205575Y-366115D01*
X6209030Y-369874D01*
X6309258Y-470154D01*
X6313017Y-473557D01*
X6316878Y-476554D01*
X6320993Y-479145D01*
X6325311Y-481431D01*
X6329832Y-483311D01*
X6334506Y-484733D01*
X6339230Y-485800D01*
X6344107Y-486460D01*
G37*

%LPD*%
G36*
X6360160Y-4633061D02*
G01*
X6355384Y-4632147D01*
X6351828Y-4630013D01*
X6349441Y-4626610D01*
X6348577Y-4622546D01*
X6348577Y-3582466D01*
X6349136Y-3579215D01*
X6350711Y-3576269D01*
X6353606Y-3572510D01*
X6355994Y-3568750D01*
X6358026Y-3564788D01*
X6359753Y-3560724D01*
X6361074Y-3556457D01*
X6362039Y-3552139D01*
X6362598Y-3547719D01*
X6362801Y-3543096D01*
X6362801Y-3506927D01*
X6363716Y-3502761D01*
X6365544Y-3498748D01*
X6367932Y-3489401D01*
X6368796Y-3479800D01*
X6367932Y-3470198D01*
X6365544Y-3460851D01*
X6363716Y-3456838D01*
X6362801Y-3452672D01*
X6362801Y-3443427D01*
X6363716Y-3439261D01*
X6365544Y-3435248D01*
X6367932Y-3425901D01*
X6368796Y-3416300D01*
X6367932Y-3406698D01*
X6365544Y-3397351D01*
X6361531Y-3388563D01*
X6356146Y-3380587D01*
X6349492Y-3373628D01*
X6341719Y-3367887D01*
X6333896Y-3363925D01*
X6330746Y-3361486D01*
X6328816Y-3357981D01*
X6328359Y-3354070D01*
X6329426Y-3350209D01*
X6331915Y-3347110D01*
X6335420Y-3345179D01*
X6339382Y-3344722D01*
X6350000Y-3345687D01*
X6359804Y-3344824D01*
X6369304Y-3342284D01*
X6378194Y-3338118D01*
X6386220Y-3332479D01*
X6393180Y-3325520D01*
X6398818Y-3317494D01*
X6402984Y-3308604D01*
X6405524Y-3299104D01*
X6406388Y-3289300D01*
X6405981Y-3284575D01*
X6406438Y-3280511D01*
X6408470Y-3276955D01*
X6411772Y-3274517D01*
X6415786Y-3273552D01*
X6419850Y-3274263D01*
X6423253Y-3276549D01*
X6519722Y-3372967D01*
X6521907Y-3376269D01*
X6522669Y-3380181D01*
X6522669Y-3418890D01*
X6521957Y-3424174D01*
X6521957Y-3433826D01*
X6523583Y-3443325D01*
X6526784Y-3452418D01*
X6531457Y-3460851D01*
X6537553Y-3468370D01*
X6544767Y-3474720D01*
X6552996Y-3479800D01*
X6561937Y-3483356D01*
X6571386Y-3485387D01*
X6581038Y-3485845D01*
X6590588Y-3484575D01*
X6599783Y-3481781D01*
X6608419Y-3477412D01*
X6616192Y-3471672D01*
X6619494Y-3468217D01*
X6622796Y-3465931D01*
X6626707Y-3465118D01*
X6630619Y-3465829D01*
X6633972Y-3468014D01*
X6636207Y-3471316D01*
X6636969Y-3475278D01*
X6636969Y-3795318D01*
X6636207Y-3799230D01*
X6634022Y-3802532D01*
X6584950Y-3851554D01*
X6575653Y-3859529D01*
X6569557Y-3867048D01*
X6564884Y-3875481D01*
X6561683Y-3884574D01*
X6560058Y-3894074D01*
X6560058Y-3903726D01*
X6561683Y-3913225D01*
X6564884Y-3922318D01*
X6569557Y-3930751D01*
X6575653Y-3938270D01*
X6582867Y-3944620D01*
X6591096Y-3949700D01*
X6600037Y-3953256D01*
X6609486Y-3955287D01*
X6619138Y-3955745D01*
X6628688Y-3954475D01*
X6637883Y-3951681D01*
X6646519Y-3947312D01*
X6654292Y-3941572D01*
X6660946Y-3934612D01*
X6663537Y-3931107D01*
X6725310Y-3869334D01*
X6727494Y-3867607D01*
X6731558Y-3865778D01*
X6736029Y-3865930D01*
X6739991Y-3867912D01*
X6742734Y-3871417D01*
X6743700Y-3875786D01*
X6743700Y-4406442D01*
X6742785Y-4410608D01*
X6740296Y-4414012D01*
X6736588Y-4416094D01*
X6732371Y-4416501D01*
X6728307Y-4415129D01*
X6725208Y-4412234D01*
X6722973Y-4409084D01*
X6716115Y-4402226D01*
X6708140Y-4396638D01*
X6699300Y-4392523D01*
X6689902Y-4389983D01*
X6679742Y-4389069D01*
X6553403Y-4389069D01*
X6548323Y-4389323D01*
X6543497Y-4389932D01*
X6538722Y-4390999D01*
X6534099Y-4392472D01*
X6529578Y-4394352D01*
X6525259Y-4396587D01*
X6521145Y-4399229D01*
X6517284Y-4402175D01*
X6513525Y-4405630D01*
X6386830Y-4532325D01*
X6383680Y-4535678D01*
X6380378Y-4539996D01*
X6378041Y-4543602D01*
X6375501Y-4548428D01*
X6373825Y-4552442D01*
X6372199Y-4557572D01*
X6371234Y-4561789D01*
X6370523Y-4567174D01*
X6370269Y-4571746D01*
X6369862Y-4623003D01*
X6369100Y-4626762D01*
X6367018Y-4629962D01*
X6363868Y-4632147D01*
G37*

%LPD*%
G36*
X6106922Y-4633468D02*
G01*
X6103569Y-4632909D01*
X6097016Y-4630623D01*
X6091326Y-4629962D01*
X6087770Y-4628896D01*
X6084874Y-4626660D01*
X6082944Y-4623511D01*
X6082284Y-4619853D01*
X6082284Y-4583684D01*
X6081471Y-4575657D01*
X6079286Y-4568444D01*
X6075730Y-4561738D01*
X6070600Y-4555540D01*
X5958535Y-4443476D01*
X5952337Y-4438345D01*
X5945632Y-4434789D01*
X5938418Y-4432604D01*
X5930392Y-4431792D01*
X5544108Y-4431792D01*
X5540248Y-4431030D01*
X5536946Y-4428794D01*
X5535320Y-4427220D01*
X5527294Y-4421581D01*
X5518404Y-4417415D01*
X5508904Y-4414875D01*
X5499100Y-4414012D01*
X5489295Y-4414875D01*
X5479796Y-4417415D01*
X5470906Y-4421581D01*
X5462879Y-4427220D01*
X5461254Y-4428794D01*
X5457952Y-4431030D01*
X5454091Y-4431792D01*
X5442508Y-4431792D01*
X5438648Y-4431030D01*
X5435346Y-4428794D01*
X5433720Y-4427220D01*
X5425694Y-4421581D01*
X5416804Y-4417415D01*
X5407304Y-4414875D01*
X5397500Y-4414012D01*
X5387695Y-4414875D01*
X5378196Y-4417415D01*
X5369306Y-4421581D01*
X5361279Y-4427220D01*
X5356453Y-4432046D01*
X5353151Y-4434230D01*
X5349290Y-4434992D01*
X5345379Y-4434230D01*
X5342077Y-4432046D01*
X5339892Y-4428744D01*
X5339130Y-4424832D01*
X5339130Y-3238703D01*
X5338876Y-3233623D01*
X5338267Y-3228797D01*
X5337200Y-3224022D01*
X5335727Y-3219399D01*
X5333847Y-3214878D01*
X5331612Y-3210560D01*
X5328970Y-3206445D01*
X5326024Y-3202584D01*
X5322570Y-3198825D01*
X5246674Y-3122930D01*
X5242915Y-3119475D01*
X5239054Y-3116529D01*
X5235041Y-3113938D01*
X5228793Y-3110839D01*
X5225592Y-3108401D01*
X5223662Y-3104896D01*
X5223205Y-3100882D01*
X5224322Y-3097022D01*
X5226862Y-3093872D01*
X5230418Y-3091992D01*
X5234838Y-3091688D01*
X5328666Y-3091688D01*
X5334965Y-3090976D01*
X5341772Y-3088538D01*
X5345226Y-3087928D01*
X5348681Y-3088538D01*
X5355539Y-3090976D01*
X5361838Y-3091688D01*
X5455666Y-3091688D01*
X5461965Y-3090976D01*
X5468772Y-3088538D01*
X5472226Y-3087928D01*
X5475681Y-3088538D01*
X5482539Y-3090976D01*
X5488838Y-3091688D01*
X5582666Y-3091688D01*
X5588965Y-3090976D01*
X5595772Y-3088538D01*
X5599226Y-3087928D01*
X5602681Y-3088538D01*
X5609539Y-3090976D01*
X5615838Y-3091688D01*
X5709666Y-3091688D01*
X5715965Y-3090976D01*
X5722772Y-3088538D01*
X5726226Y-3087928D01*
X5729681Y-3088538D01*
X5736539Y-3090976D01*
X5742838Y-3091688D01*
X5836666Y-3091688D01*
X5842965Y-3090976D01*
X5849772Y-3088538D01*
X5853226Y-3087928D01*
X5856681Y-3088538D01*
X5863539Y-3090976D01*
X5869838Y-3091688D01*
X5963666Y-3091688D01*
X5969965Y-3090976D01*
X5976772Y-3088538D01*
X5980226Y-3087928D01*
X5983681Y-3088538D01*
X5990539Y-3090976D01*
X5996838Y-3091688D01*
X6090666Y-3091688D01*
X6096965Y-3090976D01*
X6103772Y-3088538D01*
X6107226Y-3087928D01*
X6110681Y-3088538D01*
X6117539Y-3090976D01*
X6123838Y-3091688D01*
X6217666Y-3091688D01*
X6223965Y-3090976D01*
X6230772Y-3088538D01*
X6234226Y-3087928D01*
X6237681Y-3088538D01*
X6244539Y-3090976D01*
X6250838Y-3091688D01*
X6344666Y-3091688D01*
X6351016Y-3090976D01*
X6355232Y-3089503D01*
X6359042Y-3088944D01*
X6362801Y-3089859D01*
X6365951Y-3092043D01*
X6368034Y-3095294D01*
X6368745Y-3099104D01*
X6368745Y-3198672D01*
X6368999Y-3203752D01*
X6369608Y-3208578D01*
X6370675Y-3213354D01*
X6373164Y-3220466D01*
X6373926Y-3224885D01*
X6372707Y-3229203D01*
X6369761Y-3232556D01*
X6365646Y-3234334D01*
X6361125Y-3234131D01*
X6359804Y-3233775D01*
X6350000Y-3232912D01*
X6340195Y-3233775D01*
X6330696Y-3236315D01*
X6328359Y-3237433D01*
X6324041Y-3238398D01*
X6312458Y-3238398D01*
X6308140Y-3237433D01*
X6305804Y-3236315D01*
X6301790Y-3235248D01*
X6298031Y-3233369D01*
X6295390Y-3230067D01*
X6294272Y-3226003D01*
X6294932Y-3221786D01*
X6297269Y-3218281D01*
X6304280Y-3211220D01*
X6309918Y-3203194D01*
X6314084Y-3194304D01*
X6316624Y-3184804D01*
X6317488Y-3175000D01*
X6316624Y-3165195D01*
X6314084Y-3155696D01*
X6309918Y-3146806D01*
X6304280Y-3138779D01*
X6297320Y-3131820D01*
X6289294Y-3126181D01*
X6280404Y-3122015D01*
X6270904Y-3119475D01*
X6261100Y-3118612D01*
X6251295Y-3119475D01*
X6241796Y-3122015D01*
X6239459Y-3123133D01*
X6235141Y-3124098D01*
X5537403Y-3124098D01*
X5532780Y-3124301D01*
X5528360Y-3124860D01*
X5524042Y-3125825D01*
X5519775Y-3127146D01*
X5515711Y-3128873D01*
X5511749Y-3130905D01*
X5507990Y-3133293D01*
X5504484Y-3135985D01*
X5501030Y-3139135D01*
X5425135Y-3215030D01*
X5421985Y-3218484D01*
X5419293Y-3221990D01*
X5416905Y-3225749D01*
X5414873Y-3229711D01*
X5413146Y-3233775D01*
X5411825Y-3238042D01*
X5410860Y-3242360D01*
X5410301Y-3246780D01*
X5410098Y-3251403D01*
X5410098Y-3316020D01*
X5409133Y-3320338D01*
X5408015Y-3322726D01*
X5405475Y-3332226D01*
X5404612Y-3341979D01*
X5405475Y-3351784D01*
X5408015Y-3361283D01*
X5409133Y-3363671D01*
X5410098Y-3367938D01*
X5410098Y-3377641D01*
X5409133Y-3381959D01*
X5408015Y-3384296D01*
X5405475Y-3393795D01*
X5404612Y-3403600D01*
X5405475Y-3413404D01*
X5408015Y-3422904D01*
X5412181Y-3431794D01*
X5417820Y-3439820D01*
X5424779Y-3446779D01*
X5432806Y-3452418D01*
X5441696Y-3456584D01*
X5451195Y-3459124D01*
X5461000Y-3459987D01*
X5470804Y-3459124D01*
X5480304Y-3456584D01*
X5489194Y-3452418D01*
X5497220Y-3446779D01*
X5504180Y-3439820D01*
X5509818Y-3431794D01*
X5513984Y-3422904D01*
X5516524Y-3413404D01*
X5517388Y-3403600D01*
X5516524Y-3393795D01*
X5513984Y-3384296D01*
X5512866Y-3381959D01*
X5511901Y-3377641D01*
X5511901Y-3367938D01*
X5512866Y-3363671D01*
X5513984Y-3361283D01*
X5516524Y-3351784D01*
X5517388Y-3341979D01*
X5516524Y-3332226D01*
X5513984Y-3322726D01*
X5512866Y-3320338D01*
X5511901Y-3316020D01*
X5511901Y-3276498D01*
X5512663Y-3272586D01*
X5514898Y-3269335D01*
X5555335Y-3228898D01*
X5558586Y-3226663D01*
X5562498Y-3225901D01*
X5609031Y-3225901D01*
X5612841Y-3226663D01*
X5616092Y-3228797D01*
X5618327Y-3231997D01*
X5619140Y-3235756D01*
X5618530Y-3239617D01*
X5616498Y-3242919D01*
X5606084Y-3250336D01*
X5599836Y-3256584D01*
X5594756Y-3263849D01*
X5590997Y-3271926D01*
X5588711Y-3280460D01*
X5587898Y-3289757D01*
X5587898Y-4083761D01*
X5587085Y-4087774D01*
X5584748Y-4091127D01*
X5581294Y-4093311D01*
X5575249Y-4096105D01*
X5571490Y-4098493D01*
X5567984Y-4101185D01*
X5564733Y-4104233D01*
X5561685Y-4107484D01*
X5558993Y-4110990D01*
X5556605Y-4114749D01*
X5554573Y-4118711D01*
X5552846Y-4122775D01*
X5551525Y-4127042D01*
X5550560Y-4131360D01*
X5550001Y-4135780D01*
X5549798Y-4140200D01*
X5550001Y-4144619D01*
X5550560Y-4149039D01*
X5551525Y-4153357D01*
X5552846Y-4157624D01*
X5554573Y-4161688D01*
X5556605Y-4165650D01*
X5558993Y-4169410D01*
X5561685Y-4172915D01*
X5564835Y-4176369D01*
X5673242Y-4284726D01*
X5675833Y-4288840D01*
X5676798Y-4293158D01*
X5676798Y-4304741D01*
X5675833Y-4309059D01*
X5674715Y-4311396D01*
X5672175Y-4320895D01*
X5671312Y-4330700D01*
X5672175Y-4340504D01*
X5674715Y-4350004D01*
X5678881Y-4358894D01*
X5684520Y-4366920D01*
X5691479Y-4373880D01*
X5699506Y-4379518D01*
X5708396Y-4383684D01*
X5717895Y-4386224D01*
X5727700Y-4387088D01*
X5737504Y-4386224D01*
X5747004Y-4383684D01*
X5755894Y-4379518D01*
X5763920Y-4373880D01*
X5770880Y-4366920D01*
X5776518Y-4358894D01*
X5780684Y-4350004D01*
X5783224Y-4340504D01*
X5784088Y-4330700D01*
X5783224Y-4320895D01*
X5780684Y-4311396D01*
X5779566Y-4309059D01*
X5778601Y-4304741D01*
X5778601Y-4293158D01*
X5779566Y-4288840D01*
X5780684Y-4286504D01*
X5783224Y-4277004D01*
X5784088Y-4267200D01*
X5783224Y-4257395D01*
X5780684Y-4247896D01*
X5776518Y-4239006D01*
X5770880Y-4230979D01*
X5763920Y-4224020D01*
X5755894Y-4218381D01*
X5748121Y-4214774D01*
X5745226Y-4212742D01*
X5691479Y-4158996D01*
X5689447Y-4156100D01*
X5688533Y-4152696D01*
X5689701Y-4139742D01*
X5689701Y-3350361D01*
X5690463Y-3346500D01*
X5692698Y-3343198D01*
X5696000Y-3340963D01*
X5699861Y-3340201D01*
X6260541Y-3340201D01*
X6264859Y-3341166D01*
X6267196Y-3342284D01*
X6276695Y-3344824D01*
X6284569Y-3345484D01*
X6288836Y-3346856D01*
X6292088Y-3349955D01*
X6293713Y-3354120D01*
X6293408Y-3358591D01*
X6291173Y-3362502D01*
X6278067Y-3370579D01*
X6270853Y-3376929D01*
X6264757Y-3384448D01*
X6260084Y-3392881D01*
X6256883Y-3401974D01*
X6255258Y-3411474D01*
X6255258Y-3421126D01*
X6256883Y-3430625D01*
X6260388Y-3440531D01*
X6260947Y-3443884D01*
X6260998Y-3452012D01*
X6260388Y-3455466D01*
X6256883Y-3465474D01*
X6256426Y-3468065D01*
X6254800Y-3472027D01*
X6251752Y-3474974D01*
X6247688Y-3476396D01*
X6243421Y-3476040D01*
X6239713Y-3473958D01*
X6237173Y-3470503D01*
X6234531Y-3464763D01*
X6229146Y-3456787D01*
X6222492Y-3449828D01*
X6214719Y-3444087D01*
X6203391Y-3438601D01*
X6201460Y-3437077D01*
X6176822Y-3412388D01*
X6174740Y-3409391D01*
X6171031Y-3401263D01*
X6165646Y-3393287D01*
X6158992Y-3386328D01*
X6151219Y-3380587D01*
X6142583Y-3376218D01*
X6133388Y-3373424D01*
X6123838Y-3372154D01*
X6114186Y-3372612D01*
X6104737Y-3374644D01*
X6095796Y-3378200D01*
X6087567Y-3383279D01*
X6080353Y-3389629D01*
X6074257Y-3397148D01*
X6069584Y-3405581D01*
X6066383Y-3414674D01*
X6064758Y-3424174D01*
X6064758Y-3433826D01*
X6066383Y-3443325D01*
X6069584Y-3452418D01*
X6074257Y-3460851D01*
X6080353Y-3468370D01*
X6087567Y-3474720D01*
X6095796Y-3479800D01*
X6101232Y-3481933D01*
X6104585Y-3484219D01*
X6129680Y-3509264D01*
X6132068Y-3513023D01*
X6133388Y-3516782D01*
X6133998Y-3520186D01*
X6133998Y-4619752D01*
X6133338Y-4623358D01*
X6131407Y-4626559D01*
X6128461Y-4628794D01*
X6124905Y-4629861D01*
X6117488Y-4630623D01*
X6110986Y-4632909D01*
G37*

%LPD*%
G36*
X1971243Y-5207000D02*
G01*
X1967382Y-5206238D01*
X1964080Y-5204002D01*
X1936292Y-5176266D01*
X1933397Y-5173776D01*
X1926945Y-5170220D01*
X1921560Y-5168696D01*
X1917293Y-5168392D01*
X1851609Y-5168392D01*
X1847697Y-5167630D01*
X1844446Y-5165445D01*
X1842211Y-5162143D01*
X1841449Y-5158232D01*
X1835251Y-36068D01*
X1836013Y-32207D01*
X1838198Y-28905D01*
X1841500Y-26670D01*
X1845411Y-25908D01*
X2674264Y-25908D01*
X2678176Y-26720D01*
X2681478Y-28956D01*
X2683713Y-32308D01*
X2684424Y-36271D01*
X2679700Y-303733D01*
X2680716Y-304800D01*
X2812237Y-303326D01*
X2816047Y-303987D01*
X2819298Y-306070D01*
X2821584Y-309219D01*
X2822498Y-312978D01*
X2823057Y-325628D01*
X2825953Y-346303D01*
X2830728Y-366623D01*
X2837332Y-386384D01*
X2845765Y-405485D01*
X2855925Y-423722D01*
X2867710Y-440943D01*
X2881071Y-456996D01*
X2895803Y-471728D01*
X2911856Y-485089D01*
X2929077Y-496874D01*
X2947314Y-507034D01*
X2966415Y-515467D01*
X2985160Y-521716D01*
X2988767Y-523849D01*
X2991205Y-527253D01*
X2992069Y-531368D01*
X2992069Y-2818942D01*
X2992983Y-2829102D01*
X2995523Y-2838500D01*
X2999638Y-2847340D01*
X3005226Y-2855315D01*
X3012084Y-2862173D01*
X3020060Y-2867761D01*
X3028899Y-2871876D01*
X3038297Y-2874416D01*
X3048457Y-2875330D01*
X3546906Y-2875330D01*
X3550818Y-2876092D01*
X3554120Y-2878277D01*
X3556304Y-2881579D01*
X3557066Y-2885490D01*
X3557066Y-3029204D01*
X3556304Y-3033064D01*
X3554120Y-3036366D01*
X3552799Y-3037687D01*
X3549700Y-3042564D01*
X3547821Y-3048050D01*
X3547110Y-3054350D01*
X3547110Y-3143250D01*
X3547821Y-3149549D01*
X3549751Y-3155137D01*
X3550310Y-3158947D01*
X3549446Y-3162706D01*
X3547211Y-3165856D01*
X3543960Y-3167938D01*
X3540201Y-3168650D01*
X3055366Y-3168650D01*
X3053689Y-3169259D01*
X2863697Y-3346653D01*
X2432710Y-3840987D01*
X2432050Y-3842562D01*
X2425700Y-5062880D01*
X2424836Y-5066944D01*
X2422448Y-5070297D01*
X2276195Y-5204307D01*
X2273046Y-5206288D01*
X2269337Y-5207000D01*
G37*

%LPD*%
G36*
X5577535Y-6031992D02*
G01*
X5573674Y-6031230D01*
X5570372Y-6028994D01*
X5473852Y-5932525D01*
X5471464Y-5928766D01*
X5470956Y-5924346D01*
X5472328Y-5920130D01*
X5475427Y-5916879D01*
X5479542Y-5915304D01*
X5484012Y-5915609D01*
X5491581Y-5917895D01*
X5499608Y-5918708D01*
X5612892Y-5918708D01*
X5620918Y-5917895D01*
X5628132Y-5915710D01*
X5634837Y-5912154D01*
X5641035Y-5907024D01*
X5768543Y-5779414D01*
X5773623Y-5773216D01*
X5777179Y-5766562D01*
X5779414Y-5759348D01*
X5780227Y-5751322D01*
X5780227Y-5735980D01*
X5780735Y-5732881D01*
X5781497Y-5724804D01*
X5782818Y-5720740D01*
X5785612Y-5717590D01*
X5789472Y-5715863D01*
X5793740Y-5715863D01*
X5797600Y-5717590D01*
X5800445Y-5720740D01*
X5801715Y-5724804D01*
X5802985Y-5735878D01*
X5802985Y-5777585D01*
X5803798Y-5785612D01*
X5805982Y-5792825D01*
X5809538Y-5799531D01*
X5814618Y-5805728D01*
X6017564Y-6008624D01*
X6024067Y-6013958D01*
X6026658Y-6017209D01*
X6027724Y-6021171D01*
X6027166Y-6025235D01*
X6025032Y-6028791D01*
X6021628Y-6031179D01*
X6017615Y-6031992D01*
G37*

%LPD*%
G36*
X6574586Y-6031992D02*
G01*
X6570573Y-6031179D01*
X6567170Y-6028791D01*
X6565036Y-6025235D01*
X6564477Y-6021171D01*
X6565544Y-6017209D01*
X6568135Y-6013958D01*
X6574637Y-6008624D01*
X6602425Y-5980887D01*
X6605727Y-5978652D01*
X6609588Y-5977890D01*
X6661150Y-5977890D01*
X6667449Y-5977178D01*
X6672935Y-5975299D01*
X6677812Y-5972200D01*
X6681927Y-5968085D01*
X6684975Y-5963208D01*
X6686905Y-5957722D01*
X6687616Y-5951423D01*
X6687616Y-5872581D01*
X6686905Y-5866231D01*
X6684975Y-5860796D01*
X6681927Y-5855868D01*
X6677812Y-5851804D01*
X6672935Y-5848705D01*
X6667449Y-5846775D01*
X6661150Y-5846064D01*
X6572250Y-5846064D01*
X6565950Y-5846775D01*
X6560464Y-5848705D01*
X6555587Y-5851804D01*
X6551472Y-5855868D01*
X6548424Y-5860796D01*
X6546494Y-5866231D01*
X6545783Y-5872581D01*
X6545783Y-5924092D01*
X6545021Y-5928004D01*
X6542836Y-5931306D01*
X6533997Y-5940094D01*
X6530695Y-5942330D01*
X6526784Y-5943092D01*
X6336893Y-5943092D01*
X6333134Y-5942380D01*
X6329883Y-5940298D01*
X6327648Y-5937148D01*
X6326733Y-5933389D01*
X6327495Y-5929071D01*
X6328206Y-5922721D01*
X6328206Y-5837478D01*
X6327495Y-5831128D01*
X6325565Y-5825693D01*
X6322517Y-5820765D01*
X6318402Y-5816701D01*
X6313525Y-5813602D01*
X6308039Y-5811723D01*
X6301740Y-5811012D01*
X6271768Y-5811012D01*
X6267856Y-5810199D01*
X6264605Y-5808014D01*
X6262370Y-5804712D01*
X6261608Y-5800852D01*
X6261608Y-5746343D01*
X6262268Y-5742686D01*
X6264198Y-5739587D01*
X6267094Y-5737301D01*
X6270650Y-5736234D01*
X6273749Y-5735878D01*
X6279235Y-5733999D01*
X6284112Y-5730900D01*
X6288227Y-5726785D01*
X6291275Y-5721908D01*
X6293205Y-5716422D01*
X6293916Y-5710123D01*
X6293916Y-5631281D01*
X6293205Y-5624931D01*
X6291275Y-5619496D01*
X6288227Y-5614568D01*
X6284112Y-5610504D01*
X6279235Y-5607405D01*
X6273749Y-5605475D01*
X6267450Y-5604764D01*
X6178550Y-5604764D01*
X6172250Y-5605475D01*
X6166764Y-5607405D01*
X6161278Y-5610860D01*
X6158128Y-5612180D01*
X6154724Y-5612384D01*
X6151473Y-5611418D01*
X6148679Y-5609437D01*
X6136335Y-5597144D01*
X6130137Y-5592013D01*
X6123482Y-5588457D01*
X6116218Y-5586272D01*
X6108192Y-5585510D01*
X6092545Y-5585510D01*
X6088430Y-5584596D01*
X6085027Y-5582158D01*
X6082893Y-5578500D01*
X6081674Y-5566359D01*
X6079439Y-5558891D01*
X6076746Y-5553913D01*
X6075680Y-5550763D01*
X6075680Y-5547461D01*
X6076746Y-5544312D01*
X6079439Y-5539384D01*
X6081674Y-5531866D01*
X6082436Y-5524093D01*
X6081674Y-5516321D01*
X6079439Y-5508853D01*
X6076797Y-5503926D01*
X6075730Y-5500776D01*
X6075730Y-5497474D01*
X6076797Y-5494324D01*
X6079439Y-5489397D01*
X6081674Y-5481929D01*
X6082436Y-5474157D01*
X6081674Y-5466384D01*
X6079439Y-5458866D01*
X6076746Y-5453938D01*
X6075680Y-5450789D01*
X6075680Y-5447487D01*
X6076746Y-5444337D01*
X6079439Y-5439359D01*
X6081674Y-5431891D01*
X6082436Y-5424119D01*
X6081674Y-5416346D01*
X6079439Y-5408879D01*
X6075730Y-5401970D01*
X6070803Y-5395925D01*
X6064758Y-5390997D01*
X6057849Y-5387289D01*
X6050381Y-5385003D01*
X6042101Y-5384190D01*
X5991098Y-5384190D01*
X5982817Y-5385003D01*
X5975350Y-5387289D01*
X5968441Y-5390997D01*
X5962396Y-5395925D01*
X5957468Y-5401970D01*
X5953760Y-5408879D01*
X5951524Y-5416346D01*
X5950762Y-5424119D01*
X5951524Y-5431891D01*
X5953760Y-5439359D01*
X5956452Y-5444337D01*
X5957519Y-5447487D01*
X5957519Y-5450789D01*
X5956452Y-5453938D01*
X5953760Y-5458866D01*
X5951524Y-5466384D01*
X5950762Y-5474157D01*
X5951524Y-5481929D01*
X5953760Y-5489397D01*
X5956401Y-5494324D01*
X5957468Y-5497474D01*
X5957468Y-5500776D01*
X5956401Y-5503926D01*
X5953760Y-5508853D01*
X5951524Y-5516321D01*
X5950762Y-5524093D01*
X5951524Y-5531866D01*
X5953760Y-5539384D01*
X5956452Y-5544312D01*
X5957519Y-5547461D01*
X5957519Y-5550763D01*
X5956452Y-5553913D01*
X5953760Y-5558891D01*
X5951524Y-5566359D01*
X5950762Y-5574131D01*
X5951524Y-5581904D01*
X5953760Y-5589371D01*
X5956401Y-5594350D01*
X5957468Y-5597448D01*
X5957468Y-5600801D01*
X5956401Y-5603900D01*
X5953760Y-5608878D01*
X5951524Y-5616346D01*
X5950762Y-5624118D01*
X5949797Y-5627471D01*
X5947816Y-5630316D01*
X5944971Y-5632297D01*
X5941618Y-5633262D01*
X5933846Y-5634024D01*
X5926378Y-5636260D01*
X5921451Y-5638901D01*
X5918301Y-5639968D01*
X5914999Y-5639968D01*
X5911850Y-5638901D01*
X5906871Y-5636260D01*
X5899404Y-5634024D01*
X5891631Y-5633212D01*
X5883859Y-5634024D01*
X5876391Y-5636260D01*
X5871413Y-5638952D01*
X5868263Y-5639968D01*
X5864961Y-5639968D01*
X5861812Y-5638952D01*
X5856884Y-5636260D01*
X5849416Y-5634024D01*
X5841644Y-5633262D01*
X5833821Y-5634024D01*
X5826353Y-5636260D01*
X5819495Y-5639968D01*
X5813450Y-5644946D01*
X5808472Y-5650941D01*
X5804814Y-5657850D01*
X5802528Y-5665317D01*
X5801715Y-5673394D01*
X5800445Y-5677458D01*
X5797600Y-5680608D01*
X5793740Y-5682335D01*
X5789472Y-5682335D01*
X5785612Y-5680608D01*
X5782818Y-5677458D01*
X5781497Y-5673394D01*
X5780735Y-5665317D01*
X5778449Y-5657850D01*
X5774740Y-5650941D01*
X5769813Y-5644896D01*
X5763768Y-5639968D01*
X5756859Y-5636260D01*
X5749391Y-5634024D01*
X5741619Y-5633262D01*
X5733846Y-5634024D01*
X5726379Y-5636260D01*
X5721451Y-5638901D01*
X5718302Y-5639968D01*
X5715000Y-5639968D01*
X5711850Y-5638901D01*
X5706872Y-5636260D01*
X5699404Y-5633974D01*
X5691581Y-5633212D01*
X5688228Y-5632297D01*
X5685383Y-5630316D01*
X5683402Y-5627471D01*
X5682437Y-5624118D01*
X5681675Y-5616346D01*
X5679440Y-5608878D01*
X5676798Y-5603900D01*
X5675731Y-5600801D01*
X5675731Y-5597448D01*
X5676798Y-5594350D01*
X5679440Y-5589371D01*
X5681675Y-5581904D01*
X5682437Y-5574131D01*
X5681675Y-5566359D01*
X5679440Y-5558891D01*
X5676747Y-5553913D01*
X5675680Y-5550763D01*
X5675680Y-5547461D01*
X5676747Y-5544312D01*
X5679440Y-5539384D01*
X5681675Y-5531866D01*
X5682437Y-5524093D01*
X5681675Y-5516321D01*
X5679440Y-5508853D01*
X5676798Y-5503926D01*
X5675731Y-5500776D01*
X5675731Y-5497474D01*
X5676798Y-5494324D01*
X5679440Y-5489397D01*
X5681675Y-5481929D01*
X5682437Y-5474157D01*
X5681675Y-5466384D01*
X5679440Y-5458866D01*
X5676747Y-5453938D01*
X5675680Y-5450789D01*
X5675680Y-5447487D01*
X5676747Y-5444337D01*
X5679440Y-5439359D01*
X5681675Y-5431891D01*
X5682437Y-5424119D01*
X5681675Y-5416346D01*
X5679440Y-5408879D01*
X5675731Y-5401970D01*
X5670804Y-5395925D01*
X5664758Y-5390997D01*
X5657850Y-5387289D01*
X5650382Y-5385003D01*
X5642102Y-5384190D01*
X5591098Y-5384190D01*
X5582818Y-5385003D01*
X5575350Y-5387289D01*
X5568442Y-5390997D01*
X5562396Y-5395925D01*
X5557469Y-5401970D01*
X5553760Y-5408879D01*
X5551525Y-5416346D01*
X5550763Y-5424119D01*
X5551525Y-5431891D01*
X5553760Y-5439359D01*
X5556453Y-5444337D01*
X5557520Y-5447487D01*
X5557520Y-5450789D01*
X5556453Y-5453938D01*
X5553760Y-5458866D01*
X5551525Y-5466384D01*
X5550763Y-5474157D01*
X5551525Y-5481929D01*
X5553760Y-5489397D01*
X5556402Y-5494324D01*
X5557469Y-5497474D01*
X5557469Y-5500776D01*
X5556402Y-5503926D01*
X5553760Y-5508853D01*
X5551525Y-5516321D01*
X5550763Y-5524093D01*
X5551525Y-5531866D01*
X5553760Y-5539384D01*
X5556453Y-5544312D01*
X5557520Y-5547461D01*
X5557520Y-5550763D01*
X5556453Y-5553913D01*
X5553760Y-5558891D01*
X5551525Y-5566359D01*
X5550763Y-5574131D01*
X5551525Y-5581904D01*
X5553760Y-5589371D01*
X5556402Y-5594350D01*
X5557469Y-5597448D01*
X5557469Y-5600801D01*
X5556402Y-5603900D01*
X5553760Y-5608878D01*
X5551525Y-5616346D01*
X5550763Y-5624118D01*
X5551525Y-5631891D01*
X5553760Y-5639358D01*
X5557469Y-5646267D01*
X5562396Y-5652312D01*
X5568442Y-5657240D01*
X5575350Y-5660948D01*
X5582818Y-5663184D01*
X5591098Y-5663996D01*
X5641543Y-5663996D01*
X5645454Y-5664809D01*
X5648756Y-5666994D01*
X5650941Y-5670296D01*
X5651703Y-5674156D01*
X5651703Y-5724601D01*
X5652109Y-5728716D01*
X5651652Y-5732932D01*
X5649569Y-5736539D01*
X5646115Y-5739028D01*
X5642000Y-5739892D01*
X5417718Y-5739892D01*
X5413806Y-5739130D01*
X5410504Y-5736894D01*
X5322519Y-5648909D01*
X5320233Y-5645454D01*
X5319572Y-5641340D01*
X5320538Y-5637326D01*
X5323078Y-5634024D01*
X5326684Y-5632043D01*
X5331460Y-5631688D01*
X5410962Y-5631688D01*
X5417312Y-5630976D01*
X5422747Y-5629097D01*
X5427675Y-5625998D01*
X5431739Y-5621934D01*
X5434838Y-5617006D01*
X5436768Y-5611571D01*
X5437073Y-5608675D01*
X5438241Y-5604916D01*
X5440730Y-5601919D01*
X5444236Y-5600090D01*
X5450332Y-5598210D01*
X5457037Y-5594654D01*
X5463235Y-5589524D01*
X5500624Y-5552135D01*
X5505754Y-5545937D01*
X5509310Y-5539232D01*
X5511495Y-5532018D01*
X5512308Y-5523992D01*
X5512308Y-5343601D01*
X5513120Y-5339588D01*
X5515406Y-5336286D01*
X5518810Y-5334101D01*
X5522823Y-5333441D01*
X5526786Y-5334355D01*
X5530596Y-5336184D01*
X5540095Y-5338724D01*
X5549900Y-5339588D01*
X5559704Y-5338724D01*
X5569204Y-5336184D01*
X5578094Y-5332018D01*
X5586120Y-5326380D01*
X5587746Y-5324805D01*
X5591048Y-5322570D01*
X5594908Y-5321808D01*
X5612892Y-5321808D01*
X5620918Y-5320995D01*
X5628132Y-5318810D01*
X5638444Y-5313222D01*
X5642203Y-5312714D01*
X5645912Y-5313680D01*
X5648960Y-5315915D01*
X5650992Y-5319115D01*
X5652516Y-5332882D01*
X5654802Y-5340350D01*
X5658510Y-5347258D01*
X5663438Y-5353253D01*
X5669483Y-5358231D01*
X5676392Y-5361940D01*
X5683859Y-5364175D01*
X5691632Y-5364937D01*
X5699404Y-5364175D01*
X5706872Y-5361940D01*
X5711799Y-5359298D01*
X5714949Y-5358231D01*
X5718251Y-5358231D01*
X5721400Y-5359298D01*
X5726379Y-5361940D01*
X5733846Y-5364175D01*
X5741619Y-5364988D01*
X5749391Y-5364175D01*
X5756859Y-5361940D01*
X5761837Y-5359247D01*
X5764987Y-5358231D01*
X5768289Y-5358231D01*
X5771438Y-5359247D01*
X5776366Y-5361940D01*
X5783834Y-5364175D01*
X5791657Y-5364937D01*
X5799429Y-5364175D01*
X5806897Y-5361940D01*
X5811824Y-5359298D01*
X5814974Y-5358231D01*
X5818276Y-5358231D01*
X5821426Y-5359298D01*
X5826353Y-5361940D01*
X5833821Y-5364226D01*
X5841644Y-5364988D01*
X5849416Y-5364226D01*
X5856884Y-5361940D01*
X5861862Y-5359298D01*
X5864961Y-5358231D01*
X5868314Y-5358231D01*
X5871413Y-5359298D01*
X5876391Y-5361940D01*
X5883859Y-5364175D01*
X5891631Y-5364937D01*
X5899404Y-5364175D01*
X5906871Y-5361940D01*
X5911799Y-5359298D01*
X5914948Y-5358231D01*
X5918250Y-5358231D01*
X5921400Y-5359298D01*
X5926378Y-5361940D01*
X5933846Y-5364226D01*
X5941618Y-5364988D01*
X5949391Y-5364226D01*
X5956858Y-5361940D01*
X5963767Y-5358231D01*
X5969812Y-5353304D01*
X5974740Y-5347258D01*
X5978448Y-5340350D01*
X5980734Y-5332882D01*
X5981547Y-5324602D01*
X5981547Y-5273243D01*
X5982309Y-5269382D01*
X5984494Y-5266080D01*
X5987796Y-5263845D01*
X5991707Y-5263083D01*
X5995568Y-5263845D01*
X5998870Y-5266080D01*
X6208064Y-5475224D01*
X6214262Y-5480354D01*
X6220968Y-5483910D01*
X6228181Y-5486095D01*
X6236208Y-5486908D01*
X6338620Y-5486908D01*
X6342583Y-5487720D01*
X6345936Y-5490057D01*
X6351219Y-5498388D01*
X6355283Y-5502503D01*
X6360210Y-5505602D01*
X6365646Y-5507482D01*
X6371945Y-5508193D01*
X6505854Y-5508193D01*
X6512153Y-5507482D01*
X6517589Y-5505602D01*
X6522516Y-5502503D01*
X6526580Y-5498388D01*
X6529679Y-5493512D01*
X6531609Y-5488025D01*
X6532321Y-5481726D01*
X6532321Y-5341874D01*
X6531609Y-5335524D01*
X6529679Y-5330088D01*
X6526580Y-5325160D01*
X6522516Y-5321096D01*
X6517589Y-5317998D01*
X6512153Y-5316118D01*
X6505854Y-5315407D01*
X6371945Y-5315407D01*
X6365646Y-5316118D01*
X6360210Y-5317998D01*
X6355283Y-5321096D01*
X6351219Y-5325160D01*
X6348120Y-5330088D01*
X6346190Y-5335524D01*
X6345478Y-5341874D01*
X6345478Y-5399532D01*
X6344716Y-5403443D01*
X6342532Y-5406694D01*
X6339230Y-5408930D01*
X6335318Y-5409692D01*
X6255918Y-5409692D01*
X6252006Y-5408930D01*
X6248704Y-5406694D01*
X6041542Y-5199532D01*
X6039154Y-5195874D01*
X6038596Y-5191556D01*
X6039866Y-5187391D01*
X6042710Y-5184140D01*
X6047181Y-5182260D01*
X6060338Y-5177840D01*
X6072733Y-5171694D01*
X6084265Y-5164023D01*
X6094679Y-5154879D01*
X6103823Y-5144465D01*
X6111494Y-5132933D01*
X6114338Y-5128310D01*
X6116980Y-5126380D01*
X6121450Y-5124043D01*
X6125210Y-5121706D01*
X6128715Y-5119014D01*
X6132169Y-5115864D01*
X6333490Y-4914493D01*
X6336639Y-4911039D01*
X6339382Y-4907534D01*
X6341770Y-4903774D01*
X6343751Y-4899914D01*
X6344970Y-4896866D01*
X6347358Y-4893310D01*
X6350965Y-4891024D01*
X6357772Y-4888534D01*
X6361226Y-4887925D01*
X6364732Y-4888534D01*
X6371539Y-4891024D01*
X6377838Y-4891735D01*
X6471666Y-4891735D01*
X6477965Y-4891024D01*
X6484823Y-4888534D01*
X6488277Y-4887925D01*
X6491732Y-4888534D01*
X6498539Y-4891024D01*
X6504838Y-4891735D01*
X6598666Y-4891735D01*
X6605016Y-4891024D01*
X6610451Y-4889093D01*
X6615379Y-4885994D01*
X6619443Y-4881930D01*
X6622542Y-4877003D01*
X6624472Y-4871567D01*
X6625183Y-4865217D01*
X6625183Y-4656378D01*
X6624472Y-4650079D01*
X6622542Y-4644593D01*
X6619443Y-4639716D01*
X6615379Y-4635601D01*
X6610451Y-4632502D01*
X6605016Y-4630623D01*
X6598666Y-4629912D01*
X6504838Y-4629912D01*
X6498488Y-4630623D01*
X6495237Y-4631740D01*
X6491376Y-4632299D01*
X6487617Y-4631436D01*
X6484467Y-4629150D01*
X6482435Y-4625898D01*
X6481724Y-4622088D01*
X6481876Y-4599482D01*
X6482689Y-4595672D01*
X6484874Y-4592421D01*
X6573367Y-4503877D01*
X6576669Y-4501692D01*
X6580581Y-4500930D01*
X6614109Y-4500930D01*
X6618020Y-4501692D01*
X6621322Y-4503877D01*
X6623507Y-4507179D01*
X6624269Y-4511090D01*
X6624269Y-4549190D01*
X6623558Y-4554474D01*
X6623558Y-4564126D01*
X6625183Y-4573625D01*
X6628384Y-4582718D01*
X6633057Y-4591151D01*
X6639153Y-4598670D01*
X6646367Y-4605020D01*
X6654596Y-4610100D01*
X6663537Y-4613656D01*
X6672986Y-4615688D01*
X6682638Y-4616145D01*
X6692188Y-4614875D01*
X6701383Y-4612081D01*
X6710019Y-4607712D01*
X6717792Y-4601972D01*
X6728206Y-4591050D01*
X6732270Y-4589627D01*
X6736537Y-4589983D01*
X6740245Y-4592116D01*
X6742785Y-4595520D01*
X6743700Y-4599736D01*
X6743700Y-4926584D01*
X6744716Y-4927600D01*
X6760159Y-4927600D01*
X6764121Y-4928412D01*
X6767474Y-4930698D01*
X6769658Y-4934153D01*
X6771589Y-4939334D01*
X6773875Y-4943195D01*
X6776466Y-4946192D01*
X6991807Y-5161534D01*
X6994702Y-5164023D01*
X7001154Y-5167579D01*
X7006539Y-5169103D01*
X7010806Y-5169408D01*
X7236764Y-5169408D01*
X7240625Y-5170170D01*
X7243927Y-5172405D01*
X7375194Y-5303672D01*
X7377430Y-5306974D01*
X7378192Y-5310835D01*
X7378192Y-5381548D01*
X7377328Y-5385714D01*
X7374788Y-5389118D01*
X7371080Y-5391251D01*
X7366863Y-5391658D01*
X7362850Y-5390286D01*
X7359751Y-5387390D01*
X7349236Y-5372506D01*
X7332014Y-5351526D01*
X7313371Y-5331815D01*
X7293305Y-5313476D01*
X7272020Y-5296662D01*
X7249566Y-5281422D01*
X7226046Y-5267858D01*
X7201611Y-5256022D01*
X7176414Y-5246014D01*
X7150557Y-5237784D01*
X7124141Y-5231485D01*
X7097369Y-5227066D01*
X7070344Y-5224627D01*
X7043166Y-5224170D01*
X7016089Y-5225643D01*
X6989165Y-5229047D01*
X6962546Y-5234381D01*
X6936384Y-5241645D01*
X6910831Y-5250789D01*
X6885990Y-5261711D01*
X6862013Y-5274462D01*
X6839000Y-5288838D01*
X6817106Y-5304891D01*
X6796430Y-5322468D01*
X6777075Y-5341467D01*
X6759143Y-5361838D01*
X6742684Y-5383479D01*
X6727901Y-5406186D01*
X6724345Y-5412536D01*
X6721398Y-5415889D01*
X6717334Y-5417616D01*
X6712915Y-5417464D01*
X6709003Y-5415483D01*
X6706260Y-5411978D01*
X6705295Y-5407660D01*
X6705244Y-5178958D01*
X6704431Y-5170119D01*
X6704025Y-5167680D01*
X6701891Y-5159044D01*
X6701129Y-5156708D01*
X6697725Y-5148478D01*
X6696608Y-5146294D01*
X6691985Y-5138674D01*
X6684924Y-5129834D01*
X6646672Y-5091531D01*
X6644487Y-5088229D01*
X6643725Y-5084368D01*
X6643725Y-5000548D01*
X6643014Y-4994249D01*
X6641084Y-4988763D01*
X6637985Y-4983886D01*
X6633921Y-4979771D01*
X6628993Y-4976723D01*
X6623558Y-4974793D01*
X6617208Y-4974082D01*
X6438392Y-4974082D01*
X6432042Y-4974793D01*
X6426606Y-4976723D01*
X6421678Y-4979771D01*
X6417614Y-4983886D01*
X6414516Y-4988763D01*
X6412585Y-4994249D01*
X6411874Y-5000548D01*
X6411874Y-5159451D01*
X6412585Y-5165750D01*
X6414516Y-5171236D01*
X6417614Y-5176113D01*
X6421678Y-5180228D01*
X6426606Y-5183276D01*
X6432042Y-5185206D01*
X6438392Y-5185918D01*
X6522161Y-5185918D01*
X6526022Y-5186680D01*
X6529324Y-5188864D01*
X6550507Y-5210048D01*
X6552742Y-5213350D01*
X6553504Y-5217261D01*
X6553504Y-5594502D01*
X6554368Y-5606186D01*
X6556908Y-5617210D01*
X6561023Y-5627776D01*
X6566712Y-5637580D01*
X6573774Y-5646470D01*
X6582105Y-5654192D01*
X6591452Y-5660593D01*
X6601663Y-5665470D01*
X6612534Y-5668822D01*
X6623710Y-5670550D01*
X6635089Y-5670550D01*
X6646265Y-5668822D01*
X6657136Y-5665470D01*
X6666026Y-5661202D01*
X6669531Y-5660237D01*
X6673138Y-5660593D01*
X6676440Y-5662168D01*
X6678930Y-5664809D01*
X6680352Y-5668162D01*
X6686042Y-5694019D01*
X6693763Y-5720029D01*
X6703364Y-5745429D01*
X6714744Y-5770016D01*
X6727901Y-5793790D01*
X6742684Y-5816498D01*
X6759143Y-5838139D01*
X6777075Y-5858510D01*
X6796430Y-5877509D01*
X6817106Y-5895086D01*
X6839000Y-5911138D01*
X6862013Y-5925515D01*
X6885990Y-5938266D01*
X6910831Y-5949188D01*
X6936384Y-5958332D01*
X6962546Y-5965596D01*
X6989165Y-5970930D01*
X7016089Y-5974334D01*
X7043166Y-5975807D01*
X7070344Y-5975350D01*
X7097369Y-5972911D01*
X7124141Y-5968492D01*
X7150557Y-5962192D01*
X7176414Y-5953963D01*
X7201611Y-5943955D01*
X7226046Y-5932119D01*
X7249566Y-5918555D01*
X7272020Y-5903315D01*
X7293305Y-5886500D01*
X7313371Y-5868162D01*
X7332014Y-5848451D01*
X7349236Y-5827471D01*
X7359751Y-5812586D01*
X7362850Y-5809691D01*
X7366863Y-5808319D01*
X7371080Y-5808726D01*
X7374788Y-5810859D01*
X7377328Y-5814263D01*
X7378192Y-5818428D01*
X7378192Y-5839764D01*
X7377430Y-5843625D01*
X7375194Y-5846927D01*
X7193127Y-6028994D01*
X7189825Y-6031230D01*
X7185964Y-6031992D01*
G37*

%LPD*%
G36*
X6007100Y-5638800D02*
G01*
X6007100Y-5778500D01*
X6045200Y-5816600D01*
X6235700Y-5816600D01*
X6235700Y-5638800D01*
G37*
G36*
X5372100Y-5765800D02*
G01*
X5473700Y-5867400D01*
X5626100Y-5867400D01*
X5727700Y-5765800D01*
G37*
G36*
X7289800Y-1282700D02*
G01*
X7289800Y-1384300D01*
X7327900Y-1422400D01*
X7404100Y-1422400D01*
X7429500Y-1447800D01*
X7429500Y-1612900D01*
X7213600Y-1612900D01*
X7162800Y-1663700D01*
X7162800Y-1778000D01*
X7200900Y-1816100D01*
X7200900Y-1943100D01*
X7162800Y-1981200D01*
X7162800Y-2260600D01*
X7391400Y-2260600D01*
X7620000Y-2057400D01*
X7620000Y-1282700D01*
G37*
G36*
X7010400Y-1130300D02*
G01*
X6934200Y-1193800D01*
X6807200Y-1193800D01*
X6807200Y-1460500D01*
X6908800Y-1549400D01*
X7162800Y-1549400D01*
X7162800Y-1485900D01*
X7048500Y-1485900D01*
X7023100Y-1460500D01*
X7023100Y-1384300D01*
X7048500Y-1358900D01*
X7162800Y-1358900D01*
X7162800Y-1130300D01*
G37*
G36*
X5473700Y-914400D02*
G01*
X5473700Y-1460500D01*
X5994400Y-1460500D01*
X5994400Y-914400D01*
G37*
G36*
X5461000Y-1651000D02*
G01*
X5461000Y-1841500D01*
X5994400Y-1841500D01*
X5994400Y-1651000D01*
G37*
G36*
X4216400Y-1651000D02*
G01*
X4216400Y-1841500D01*
X4762500Y-1841500D01*
X4762500Y-1651000D01*
G37*
G36*
X4229100Y-914400D02*
G01*
X4229100Y-1460500D01*
X4749800Y-1460500D01*
X4749800Y-914400D01*
G37*
G36*
X4076700Y-660400D02*
G01*
X4025900Y-711200D01*
X4025900Y-838200D01*
X4749800Y-838200D01*
X4749800Y-660400D01*
G37*
G36*
X5308600Y-342900D02*
G01*
X5308600Y-533400D01*
X5359400Y-584200D01*
X5994400Y-584200D01*
X5994400Y-342900D01*
G37*
G36*
X5308600Y-660400D02*
G01*
X5308600Y-838200D01*
X5994400Y-838200D01*
X5994400Y-660400D01*
G37*
G36*
X5473700Y-2159000D02*
G01*
X5422900Y-2209800D01*
X5422900Y-2286000D01*
X5549900Y-2286000D01*
X5600700Y-2209800D01*
X5638800Y-2209800D01*
X5638800Y-2159000D01*
G37*
G36*
X4064000Y-330200D02*
G01*
X4025900Y-368300D01*
X4025900Y-533400D01*
X4076700Y-584200D01*
X4749800Y-584200D01*
X4749800Y-330200D01*
G37*
D10*
X4914900Y-2628900D02*
G01*
X4838700Y-2628900D01*
X5281673Y-2960880D02*
G01*
X5283200Y-2959354D01*
X5283200Y-2730500D01*
X5283200Y-2730500D02*
G01*
X5283200Y-2667000D01*
X5154673Y-2960880D02*
G01*
X5156200Y-2959354D01*
X5156200Y-2806700D01*
X5156200Y-2806700D02*
G01*
X5156200Y-2730500D01*
X5408673Y-2960880D02*
G01*
X5410200Y-2959354D01*
X5410200Y-2717800D01*
X5410200Y-2717800D02*
G01*
X5410200Y-2654300D01*
X5535675Y-2960878D02*
G01*
X5536890Y-2706504D01*
X5536890Y-2706504D02*
G01*
X5537200Y-2641600D01*
X4095902Y-1689100D02*
G01*
X4229100Y-1689100D01*
X4279900Y-1739900D01*
D11*
X5956300Y-1930400D02*
G01*
X5994400Y-1930400D01*
X6070600Y-1854200D01*
X6070600Y-1066800D01*
X6248400Y-889000D01*
X6248400Y-857986D01*
X5888753Y-1930400D02*
G01*
X5956300Y-1930400D01*
X5257800Y-1930400D02*
G01*
X5334000Y-1930400D01*
X4025900Y-1562100D02*
G01*
X4029963Y-1558036D01*
X4310252Y-1558036D01*
X3924300Y-1562100D02*
G01*
X4025900Y-1562100D01*
X5410200Y-1562100D02*
G01*
X5414263Y-1558036D01*
X5554852Y-1558036D01*
X5339826Y-1562100D02*
G01*
X5410200Y-1562100D01*
X4036108Y-2565400D02*
G01*
X3822700Y-2565400D01*
X3822700Y-2565400D02*
G01*
X3759200Y-2565400D01*
X4036108Y-2184400D02*
G01*
X3873500Y-2184400D01*
X3810000Y-2184400D01*
X3810000Y-2184400D02*
G01*
X3873500Y-2184400D01*
X5918200Y-2730500D02*
G01*
X5916675Y-2960878D01*
X6045200Y-2729992D02*
G01*
X6043675Y-2960878D01*
X4310247Y-2058162D02*
G01*
X4311012Y-2057400D01*
X4711700Y-2057400D01*
X4310252Y-1933194D02*
G01*
X4313047Y-1930400D01*
X4655550Y-1930400D01*
X4655550Y-1930400D02*
G01*
X4724400Y-1930400D01*
X5554852Y-2058162D02*
G01*
X5460238Y-2058162D01*
X5346700Y-2171700D01*
X5346700Y-2286000D01*
X5662752Y-2602052D01*
X5662752Y-2960801D01*
D12*
X6515100Y-2095500D02*
G01*
X6591300Y-2095500D01*
X6540500Y-1968500D02*
G01*
X6540500Y-1905000D01*
X6184900Y-3492500D02*
G01*
X6121400Y-3429000D01*
X6311900Y-3479800D02*
G01*
X6311900Y-3416300D01*
X6170673Y-4760719D02*
G01*
X6170673Y-4878326D01*
X6108700Y-4940300D01*
X5829300Y-4940300D01*
X5765800Y-5003800D01*
X5765800Y-5080000D01*
X6297673Y-4760719D02*
G01*
X6297673Y-4878326D01*
X6096000Y-5080000D01*
X6019800Y-5080000D01*
D11*
X4699000Y-4432300D02*
G01*
X4878326Y-4432300D01*
X4622800Y-4432300D02*
G01*
X4699000Y-4432300D01*
X5156200Y-4546600D02*
G01*
X5154749Y-4548050D01*
X5154749Y-4760800D01*
X5092700Y-4546600D02*
G01*
X5156200Y-4546600D01*
X4036108Y-2692400D02*
G01*
X4191000Y-2692400D01*
X4036110Y-2311400D02*
G01*
X4140200Y-2311400D01*
X4178300Y-2349500D01*
X4178300Y-2349500D02*
G01*
X4241800Y-2349500D01*
X4191000Y-2692400D02*
G01*
X4254500Y-2628900D01*
D10*
X6551752Y-2960801D02*
G01*
X6551675Y-2960878D01*
X6552336Y-2527300D02*
G01*
X6737200Y-2527300D01*
D11*
X6972300Y-1739900D02*
G01*
X7035800Y-1739900D01*
X7035800Y-1739900D02*
G01*
X7124700Y-1739900D01*
X6715881Y-430758D02*
G01*
X6348958Y-430758D01*
X6248400Y-330200D01*
X6248400Y-157987D01*
X6502400Y-157987D02*
G01*
X6502400Y-304800D01*
X6501406Y-305793D01*
X6715881Y-305793D01*
X5003800Y-1091338D02*
G01*
X5003800Y-1281836D01*
X5004663Y-1282700D01*
D10*
X5220568Y-5397500D02*
G01*
X5220568Y-5562594D01*
X5220563Y-5562600D01*
D13*
X6016599Y-5624093D02*
G01*
X6108702Y-5624093D01*
X6121400Y-5636790D01*
X6121400Y-5636765D02*
G01*
X6155336Y-5670702D01*
X6223000Y-5670702D01*
D14*
X6273800Y-5080000D02*
G01*
X6273800Y-5346700D01*
D11*
X5511800Y-5080000D02*
G01*
X5511800Y-4991100D01*
X5459475Y-4938776D01*
X5027675Y-4938776D01*
X5027675Y-4760721D01*
X3482289Y-2819400D02*
G01*
X3048000Y-2819400D01*
X3048000Y-304800D01*
D15*
X2794000Y-4876800D02*
G01*
X2794000Y-3873500D01*
X3187700Y-3479800D01*
X3526205Y-3479800D01*
D12*
X6170673Y-4760719D02*
G01*
X6184900Y-4746495D01*
X6184900Y-3492500D01*
D15*
X4288536Y-3982973D02*
G01*
X4288536Y-3776218D01*
X3992118Y-3479800D01*
D11*
X5283200Y-4760721D02*
G01*
X5283200Y-3238500D01*
X5207000Y-3162300D01*
X4965700Y-3162300D01*
X4876800Y-3073400D01*
X4876800Y-2844800D01*
X5257800Y-2463800D01*
X5257800Y-1930400D01*
D10*
X4965700Y-2514600D02*
G01*
X5054600Y-2514600D01*
D11*
X6972300Y-1739900D02*
G01*
X7213600Y-1739900D01*
D16*
X6233413Y-1976120D02*
G01*
X6248400Y-1991360D01*
X6248400Y-2273300D01*
X6286500Y-2311400D01*
X6769100Y-2311400D01*
X6769100Y-2044700D01*
X6932675Y-1881123D01*
X7099300Y-1881123D01*
D10*
X6552336Y-2527300D02*
G01*
X6552336Y-2891436D01*
X6553200Y-2892300D01*
D12*
X5461000Y-3341989D02*
G01*
X5461000Y-3403600D01*
D11*
X5079136Y-152400D02*
G01*
X5170426Y-152400D01*
X5170426Y-311404D01*
X3620368Y-127000D02*
G01*
X3480663Y-266705D01*
X3480663Y-584200D01*
X5170500Y-705104D02*
G01*
X5060695Y-705104D01*
X5003800Y-762000D01*
X5003800Y-940661D01*
X3200400Y-1689100D02*
G01*
X3200400Y-1778000D01*
X4000500Y-1816100D02*
G01*
X3556000Y-1816100D01*
X3517900Y-1778000D01*
D10*
X5156200Y-1594104D02*
G01*
X5301995Y-1739900D01*
X5626100Y-1739900D01*
D11*
X6578600Y-3429000D02*
G01*
X6578600Y-3352800D01*
X6424673Y-3198873D01*
X6424673Y-2960880D01*
D12*
X4878324Y-4305300D02*
G01*
X5111861Y-4305300D01*
X6261100Y-3175000D02*
G01*
X5537200Y-3175000D01*
X5461000Y-3251200D01*
X5461000Y-3341992D01*
X5111861Y-4305300D02*
G01*
X5181600Y-4305300D01*
X5778500Y-4572000D02*
G01*
X5842000Y-4572000D01*
X5662749Y-4760800D02*
G01*
X5662749Y-4624245D01*
X5714994Y-4572000D01*
X5778500Y-4572000D01*
X5727700Y-4330700D02*
G01*
X5727700Y-4267200D01*
X5727700Y-4267200D02*
G01*
X5600700Y-4140200D01*
X6286500Y-3289300D02*
G01*
X6350000Y-3289300D01*
X7277100Y-2641600D02*
G01*
X7277100Y-2705100D01*
X7277100Y-2513738D02*
G01*
X7277100Y-2641600D01*
D11*
X5554725Y-1933194D02*
G01*
X5654293Y-1933194D01*
X5715000Y-1993900D01*
X5715000Y-2222500D01*
X5626100Y-2311400D01*
X5626100Y-2425700D01*
X5789675Y-2589276D01*
X5789675Y-2960878D01*
D10*
X6223000Y-5530697D02*
G01*
X6318097Y-5530697D01*
X6373799Y-5586399D01*
X6464300Y-5586399D01*
D14*
X6337300Y-5765800D02*
G01*
X6337300Y-5713399D01*
X6438900Y-5611799D01*
D13*
X5891606Y-5299100D02*
G01*
X5891606Y-5246293D01*
X5918200Y-5219700D01*
X6007100Y-5219700D01*
X6235700Y-5448300D01*
X6402400Y-5448300D01*
X6464300Y-5386400D01*
D14*
X6629400Y-5397500D02*
G01*
X6629400Y-5181600D01*
X6527800Y-5080000D01*
X6629400Y-5594857D02*
G01*
X6629400Y-5584189D01*
X6629400Y-5397500D01*
D13*
X5891608Y-5699099D02*
G01*
X5891608Y-5739203D01*
X6032505Y-5880100D01*
X6261963Y-5880100D01*
X5741593Y-5751763D02*
G01*
X5741670Y-5698997D01*
X5691609Y-5299100D02*
G01*
X5691609Y-5285209D01*
X5651500Y-5245100D01*
D11*
X6424673Y-4760719D02*
G01*
X6426200Y-4572000D01*
X6553200Y-4445000D01*
X6680200Y-4445000D01*
X6680200Y-4483100D01*
X6680200Y-4483100D02*
G01*
X6680200Y-4559300D01*
D13*
X5841591Y-5699099D02*
G01*
X5841591Y-5778091D01*
X6045200Y-5981700D01*
X6547002Y-5981700D01*
X6616700Y-5912002D01*
X5371236Y-5397500D02*
G01*
X5384800Y-5397500D01*
X5384800Y-5257800D01*
X5295900Y-5257800D01*
D11*
X3482291Y-2819400D02*
G01*
X3606800Y-2819400D01*
X3612997Y-2825597D01*
X3612997Y-3098800D01*
X3753002Y-3098800D02*
G01*
X3753002Y-2977997D01*
X3911600Y-2819400D01*
X4036108Y-2819400D01*
X3581400Y-926337D02*
G01*
X3581400Y-1143000D01*
X3696461Y-1143000D01*
X3480668Y-584200D02*
G01*
X3467100Y-584200D01*
X3200400Y-850900D01*
X3200400Y-1689100D01*
X3887724Y-311404D02*
G01*
X3887724Y-179323D01*
X3835400Y-127000D01*
X3771138Y-127000D01*
X3887724Y-717804D02*
G01*
X3777995Y-717804D01*
X3720338Y-775462D01*
X3581400Y-775462D01*
X5054600Y-2514600D02*
G01*
X5156200Y-2413000D01*
X5156200Y-2235200D01*
X5029200Y-2108200D01*
X5029200Y-1866900D01*
X4965700Y-1803400D01*
X4851400Y-1803400D01*
X4851400Y-152400D01*
X4928361Y-152400D01*
X4064000Y-1943100D02*
G01*
X4000500Y-1943100D01*
X4000500Y-1943100D02*
G01*
X3492500Y-1943100D01*
X3365500Y-1816100D01*
X3365500Y-1181100D01*
X3403600Y-1143000D01*
X3696563Y-1143000D01*
X3517900Y-1778000D02*
G01*
X3517900Y-1689100D01*
X4064000Y-1816100D02*
G01*
X4000500Y-1816100D01*
D12*
X6591300Y-2095500D02*
G01*
X6616700Y-2095500D01*
X6654800Y-2057400D01*
X6654800Y-1828800D01*
X6427215Y-1601215D01*
X6233413Y-1601215D01*
X6540500Y-1905000D02*
G01*
X6540500Y-1866900D01*
X6399784Y-1726184D01*
X6233413Y-1726184D01*
D11*
X6233413Y-1351279D02*
G01*
X6558279Y-1351279D01*
X6946900Y-1739900D01*
X7035800Y-1739900D01*
X6500368Y-2387600D02*
G01*
X6529831Y-2387600D01*
X6242199Y-2514600D02*
G01*
X6254899Y-2527300D01*
X6401663Y-2527300D01*
D12*
X5600700Y-4140200D02*
G01*
X5638800Y-4140200D01*
X5638800Y-3289300D01*
X6286500Y-3289300D01*
D13*
X5499100Y-4470400D02*
G01*
X5397500Y-4470400D01*
X6043675Y-4760721D02*
G01*
X6043675Y-4583176D01*
X5930900Y-4470400D01*
X5499100Y-4470400D01*
D11*
X6102095Y-2514600D02*
G01*
X6102095Y-2445004D01*
X6159500Y-2387600D01*
X6529831Y-2387600D01*
D12*
X6233307Y-1476194D02*
G01*
X6454594Y-1476194D01*
X6515100Y-1536700D01*
X6515100Y-1536700D02*
G01*
X6591300Y-1536700D01*
D11*
X7004298Y-2081199D02*
G01*
X6910400Y-2081199D01*
X6870700Y-2120900D01*
X6870700Y-2120900D02*
G01*
X6870700Y-2197100D01*
X7112000Y-2362200D02*
G01*
X7035800Y-2362200D01*
X7035800Y-2362200D02*
G01*
X7036663Y-2363063D01*
X7277100Y-2363063D01*
X6401561Y-2527300D02*
G01*
X6401561Y-2693162D01*
X6424675Y-2716276D01*
X6424675Y-2961639D01*
X6737095Y-2527300D02*
G01*
X6737095Y-2432304D01*
X6781800Y-2387600D01*
X6845300Y-2387600D01*
X7010400Y-2222500D01*
X7251700Y-2222500D01*
X4838700Y-2628900D02*
G01*
X4572000Y-2628900D01*
X4394200Y-2451100D01*
X4394200Y-2311400D01*
X4495800Y-2209800D01*
X4787900Y-2209800D01*
X4914900Y-2082800D01*
X4914900Y-1968500D01*
X4914900Y-1968500D02*
G01*
X4914900Y-1905000D01*
D12*
X5143500Y-1968500D02*
G01*
X5143500Y-1905000D01*
X5143500Y-1905000D02*
G01*
X5143500Y-1803400D01*
X5004663Y-1664563D01*
X5004663Y-1282700D01*
D11*
X6616700Y-3898900D02*
G01*
X6692900Y-3822700D01*
X6692900Y-3251200D01*
X6551673Y-3109973D01*
X6551673Y-2960880D01*
D13*
X5220563Y-5562600D02*
G01*
X5220563Y-5601563D01*
X5499100Y-5880100D01*
X5613400Y-5880100D01*
X5741591Y-5751766D01*
X5371231Y-5562600D02*
G01*
X5435600Y-5562600D01*
X5473700Y-5524500D01*
X5473700Y-5232400D01*
D12*
X6297675Y-4759960D02*
G01*
X6297675Y-3557523D01*
X6311900Y-3543300D01*
X6311900Y-3479800D01*
D13*
X5651500Y-5245100D02*
G01*
X5613400Y-5283200D01*
X5549900Y-5283200D01*
X5473700Y-5232400D02*
G01*
X5511545Y-5232654D01*
X5524754Y-5219700D01*
X5562600Y-5219700D01*
X5626100Y-5156200D01*
X5664200Y-5156200D01*
X5741670Y-5233670D01*
X5741670Y-5299202D01*
D17*
G01*
X6261975Y-5880100D03*
G01*
X6412624Y-5880100D03*
D18*
G01*
X6438900Y-5611802D03*
D19*
G01*
X6438900Y-5411800D03*
D17*
G01*
X5220575Y-5397500D03*
G01*
X5371224Y-5397500D03*
G01*
X5220575Y-5562600D03*
G01*
X5371224Y-5562600D03*
D20*
G01*
X7004304Y-2081199D03*
G01*
X7194295Y-2081199D03*
G01*
X7099300Y-1881200D03*
D21*
G01*
X7277100Y-2363075D03*
D22*
G01*
X7277100Y-2513736D03*
D23*
G01*
X7578194Y-1320800D03*
G01*
X7687205Y-1320800D03*
D24*
G01*
X6858000Y-1235605D03*
D25*
G01*
X6858000Y-1126591D03*
D26*
G01*
X7111542Y-1327404D03*
G01*
X7111542Y-1422400D03*
G01*
X7111542Y-1517395D03*
G01*
X7341057Y-1517395D03*
G01*
X7341057Y-1327404D03*
D27*
G01*
X6616700Y-5771997D03*
G01*
X6616700Y-5912002D03*
G01*
X6223000Y-5530697D03*
G01*
X6223000Y-5670702D03*
D28*
G01*
X5616600Y-5374106D03*
G01*
X5616600Y-5424093D03*
G01*
X5616600Y-5474106D03*
G01*
X5616600Y-5524093D03*
G01*
X5616600Y-5574106D03*
G01*
X5616600Y-5624093D03*
D29*
G01*
X5691606Y-5699099D03*
G01*
X5741593Y-5699099D03*
G01*
X5791606Y-5699099D03*
G01*
X5841593Y-5699099D03*
G01*
X5891606Y-5699099D03*
G01*
X5941593Y-5699099D03*
D28*
G01*
X6016599Y-5624093D03*
G01*
X6016599Y-5574106D03*
G01*
X6016599Y-5524093D03*
G01*
X6016599Y-5474106D03*
G01*
X6016599Y-5424093D03*
G01*
X6016599Y-5374894D03*
D29*
G01*
X5941593Y-5299100D03*
G01*
X5891606Y-5299100D03*
G01*
X5841593Y-5299100D03*
G01*
X5791606Y-5299100D03*
G01*
X5741593Y-5299100D03*
G01*
X5691606Y-5299100D03*
D30*
G01*
X5816600Y-5500344D03*
D31*
G01*
X3887800Y-311404D03*
G01*
X3887800Y-501395D03*
G01*
X4087799Y-406400D03*
G01*
X5170500Y-311404D03*
G01*
X5170500Y-501395D03*
G01*
X5370499Y-406400D03*
G01*
X3887800Y-717804D03*
G01*
X3887800Y-907795D03*
G01*
X4087799Y-812800D03*
G01*
X5170500Y-705104D03*
G01*
X5170500Y-895095D03*
G01*
X5370499Y-800100D03*
D32*
G01*
X6102197Y-2514600D03*
G01*
X6242202Y-2514600D03*
G01*
X6699402Y-2705100D03*
G01*
X6559397Y-2705100D03*
G01*
X6877202Y-2527300D03*
G01*
X6737197Y-2527300D03*
G01*
X4095902Y-1689100D03*
G01*
X3955897Y-1689100D03*
D27*
G01*
X5156200Y-1594002D03*
G01*
X5156200Y-1453997D03*
D33*
G01*
X6233299Y-1351203D03*
D34*
G01*
X6568313Y-2213711D03*
G01*
X6568313Y-1113713D03*
D35*
G01*
X6233312Y-1476197D03*
G01*
X6233312Y-1601215D03*
G01*
X6233312Y-1726209D03*
G01*
X6233312Y-1851202D03*
G01*
X6233312Y-1976221D03*
D36*
G01*
X4605154Y-248157D03*
G01*
X4605154Y-2368042D03*
D37*
G01*
X4310242Y-433069D03*
G01*
X4310242Y-558038D03*
D33*
G01*
X4310242Y-683132D03*
D37*
G01*
X4310242Y-808227D03*
G01*
X4310242Y-933196D03*
G01*
X4310242Y-1058164D03*
G01*
X4310242Y-1183132D03*
G01*
X4310242Y-1308100D03*
G01*
X4310242Y-1433067D03*
G01*
X4310242Y-1558035D03*
D33*
G01*
X4310242Y-1683130D03*
D37*
G01*
X4310242Y-1808226D03*
G01*
X4310242Y-1933193D03*
G01*
X4310242Y-2058161D03*
G01*
X4310242Y-2183130D03*
D36*
G01*
X5849754Y-248157D03*
G01*
X5849754Y-2368042D03*
D37*
G01*
X5554842Y-433069D03*
G01*
X5554842Y-558038D03*
D33*
G01*
X5554842Y-683132D03*
D37*
G01*
X5554842Y-808227D03*
G01*
X5554842Y-933196D03*
G01*
X5554842Y-1058164D03*
G01*
X5554842Y-1183132D03*
G01*
X5554842Y-1308100D03*
G01*
X5554842Y-1433067D03*
G01*
X5554842Y-1558035D03*
D33*
G01*
X5554842Y-1683130D03*
D37*
G01*
X5554842Y-1808226D03*
G01*
X5554842Y-1933193D03*
G01*
X5554842Y-2058161D03*
G01*
X5554842Y-2183130D03*
D38*
G01*
X6552324Y-2527300D03*
G01*
X6401675Y-2527300D03*
D21*
G01*
X5003800Y-940675D03*
D22*
G01*
X5003800Y-1091336D03*
D17*
G01*
X5004675Y-1282700D03*
G01*
X5155324Y-1282700D03*
G01*
X4877675Y-571500D03*
G01*
X5028324Y-571500D03*
D38*
G01*
X5079124Y-152400D03*
G01*
X4928475Y-152400D03*
D17*
G01*
X3480675Y-584200D03*
G01*
X3631324Y-584200D03*
D38*
G01*
X3771024Y-127000D03*
G01*
X3620375Y-127000D03*
D17*
G01*
X3696575Y-1143000D03*
G01*
X3847224Y-1143000D03*
D21*
G01*
X3581400Y-775575D03*
D22*
G01*
X3581400Y-926236D03*
D39*
G01*
X6248400Y-857986D03*
G01*
X6502400Y-857986D03*
G01*
X6502400Y-157987D03*
G01*
X6248400Y-157987D03*
D40*
G01*
X6678752Y-2960801D03*
G01*
X6551752Y-2960801D03*
G01*
X6424752Y-2960801D03*
G01*
X6297752Y-2960801D03*
G01*
X6170752Y-2960801D03*
G01*
X6043752Y-2960801D03*
G01*
X5916752Y-2960801D03*
G01*
X5789752Y-2960801D03*
G01*
X5662752Y-2960801D03*
G01*
X5535752Y-2960801D03*
G01*
X5408752Y-2960801D03*
G01*
X5281752Y-2960801D03*
G01*
X5154752Y-2960801D03*
G01*
X5027752Y-2960801D03*
D41*
G01*
X4878247Y-3289325D03*
G01*
X4878247Y-3416325D03*
G01*
X4878247Y-3543325D03*
G01*
X4878247Y-3670325D03*
G01*
X4878247Y-3797325D03*
G01*
X4878247Y-3924325D03*
G01*
X4878247Y-4051325D03*
G01*
X4878247Y-4178325D03*
G01*
X4878247Y-4305325D03*
G01*
X4878247Y-4432325D03*
D40*
G01*
X5027752Y-4760798D03*
G01*
X5154752Y-4760798D03*
G01*
X5281752Y-4760798D03*
G01*
X5408752Y-4760798D03*
G01*
X5535752Y-4760798D03*
G01*
X5662752Y-4760798D03*
G01*
X5789752Y-4760798D03*
G01*
X5916752Y-4760798D03*
G01*
X6043752Y-4760798D03*
G01*
X6170752Y-4760798D03*
G01*
X6297752Y-4760798D03*
G01*
X6424752Y-4760798D03*
G01*
X6551752Y-4760798D03*
G01*
X6678752Y-4760798D03*
D42*
G01*
X5910656Y-3710787D03*
G01*
X5910656Y-3570808D03*
G01*
X5910656Y-3850792D03*
G01*
X6050661Y-3850792D03*
G01*
X6050661Y-3710812D03*
G01*
X6050661Y-3570808D03*
G01*
X5770651Y-3570808D03*
G01*
X5770651Y-3710812D03*
G01*
X5770651Y-3850792D03*
D43*
G01*
X7050912Y-120799D03*
D34*
G01*
X7050887Y-615797D03*
D37*
G01*
X6715887Y-430753D03*
G01*
X6715887Y-305785D03*
D32*
G01*
X3753002Y-3098800D03*
G01*
X3612997Y-3098800D03*
D44*
G01*
X4036110Y-2819400D03*
G01*
X4036110Y-2692400D03*
G01*
X4036110Y-2565400D03*
G01*
X4036110Y-2438400D03*
G01*
X4036110Y-2311400D03*
G01*
X4036110Y-2184400D03*
G01*
X4036110Y-2057400D03*
G01*
X3482289Y-2819400D03*
G01*
X3482289Y-2692400D03*
G01*
X3482289Y-2565400D03*
G01*
X3482289Y-2438400D03*
G01*
X3482289Y-2311400D03*
G01*
X3482289Y-2184400D03*
G01*
X3482289Y-2057400D03*
D45*
G01*
X3526199Y-3479800D03*
G01*
X3992200Y-3479800D03*
D46*
G01*
X3788613Y-3983101D03*
G01*
X4288586Y-3983101D03*
D47*
G01*
X4588611Y-4983098D03*
G01*
X3488588Y-4983098D03*
D48*
G01*
X5257800Y-5080000D03*
G01*
X5511800Y-5080000D03*
G01*
X5765800Y-5080000D03*
G01*
X6019800Y-5080000D03*
G01*
X6273800Y-5080000D03*
D49*
G01*
X6527800Y-5080000D03*
D50*
G01*
X3048000Y-304800D03*
G01*
X2032000Y-304800D03*
D51*
G01*
X1016000Y-304800D03*
D15*
G01*
X1270000Y-4876800D03*
D52*
G01*
X2286000Y-4876800D03*
D15*
G01*
X2794000Y-4876800D03*
D53*
G01*
X380009Y-699998D03*
G01*
X380009Y-4499990D03*
G01*
X7749997Y-399999D03*
G01*
X7049998Y-5599988D03*
G01*
X7759700Y-2590800D03*
G01*
X2499995Y-5550001D03*
G01*
X4419600Y-3073400D03*
D54*
G01*
X5910656Y-3780789D03*
G01*
X6050661Y-3780789D03*
G01*
X6050661Y-3640785D03*
G01*
X5910656Y-3640785D03*
G01*
X5840653Y-3570782D03*
G01*
X5980658Y-3570782D03*
G01*
X5770651Y-3640785D03*
G01*
X5770651Y-3780789D03*
G01*
X5980658Y-3850792D03*
G01*
X5980658Y-3710787D03*
G01*
X5840653Y-3710787D03*
G01*
X5840653Y-3850792D03*
D55*
G01*
X4445000Y-1689100D03*
G01*
X4445000Y-1765300D03*
G01*
X4495800Y-1803400D03*
G01*
X4495800Y-1727200D03*
G01*
X4546600Y-1765300D03*
G01*
X4597400Y-1803400D03*
G01*
X4597400Y-1727200D03*
G01*
X4546600Y-1689100D03*
G01*
X4648200Y-1765300D03*
G01*
X4699000Y-1803400D03*
G01*
X4699000Y-1727200D03*
G01*
X4648200Y-1689100D03*
G01*
X5892800Y-1689100D03*
G01*
X5943600Y-1727200D03*
G01*
X5892800Y-1765300D03*
G01*
X5943600Y-1803400D03*
G01*
X5842000Y-1803400D03*
G01*
X5842000Y-1727200D03*
G01*
X5791200Y-1765300D03*
G01*
X5740400Y-1803400D03*
G01*
X5689600Y-1765300D03*
G01*
X5740400Y-1727200D03*
G01*
X5689600Y-1689100D03*
G01*
X5791200Y-1689100D03*
G01*
X4445000Y-952500D03*
G01*
X4445000Y-1028700D03*
G01*
X4495800Y-990600D03*
G01*
X4445000Y-1104900D03*
G01*
X4495800Y-1143000D03*
G01*
X4445000Y-1181100D03*
G01*
X4495800Y-1066800D03*
G01*
X4495800Y-1371600D03*
G01*
X4445000Y-1409700D03*
G01*
X4445000Y-1333500D03*
G01*
X4495800Y-1295400D03*
G01*
X4445000Y-1257300D03*
G01*
X4495800Y-1219200D03*
G01*
X4597400Y-1219200D03*
G01*
X4546600Y-1409700D03*
G01*
X4597400Y-1371600D03*
G01*
X4546600Y-1333500D03*
G01*
X4597400Y-1295400D03*
G01*
X4546600Y-1257300D03*
G01*
X4546600Y-1181100D03*
G01*
X4597400Y-1143000D03*
G01*
X4546600Y-1104900D03*
G01*
X4597400Y-1066800D03*
G01*
X4546600Y-1028700D03*
G01*
X4597400Y-990600D03*
G01*
X4546600Y-952500D03*
G01*
X4699000Y-1219200D03*
G01*
X4648200Y-1409700D03*
G01*
X4699000Y-1371600D03*
G01*
X4648200Y-1333500D03*
G01*
X4699000Y-1295400D03*
G01*
X4648200Y-1257300D03*
G01*
X4648200Y-1181100D03*
G01*
X4699000Y-1143000D03*
G01*
X4648200Y-1104900D03*
G01*
X4699000Y-1066800D03*
G01*
X4648200Y-1028700D03*
G01*
X4699000Y-990600D03*
G01*
X4648200Y-952500D03*
G01*
X5892800Y-952500D03*
G01*
X5943600Y-990600D03*
G01*
X5892800Y-1028700D03*
G01*
X5943600Y-1066800D03*
G01*
X5892800Y-1104900D03*
G01*
X5943600Y-1143000D03*
G01*
X5892800Y-1181100D03*
G01*
X5892800Y-1257300D03*
G01*
X5943600Y-1295400D03*
G01*
X5892800Y-1333500D03*
G01*
X5943600Y-1371600D03*
G01*
X5892800Y-1409700D03*
G01*
X5943600Y-1219200D03*
G01*
X5842000Y-1371600D03*
G01*
X5791200Y-1409700D03*
G01*
X5740400Y-1371600D03*
G01*
X5689600Y-1409700D03*
G01*
X5689600Y-1333500D03*
G01*
X5740400Y-1295400D03*
G01*
X5791200Y-1333500D03*
G01*
X5842000Y-1295400D03*
G01*
X5791200Y-1257300D03*
G01*
X5740400Y-1219200D03*
G01*
X5689600Y-1257300D03*
G01*
X5689600Y-1181100D03*
G01*
X5740400Y-1143000D03*
G01*
X5689600Y-1104900D03*
G01*
X5740400Y-1066800D03*
G01*
X5689600Y-1028700D03*
G01*
X5740400Y-990600D03*
G01*
X5689600Y-952500D03*
G01*
X5791200Y-952500D03*
G01*
X5842000Y-990600D03*
G01*
X5791200Y-1028700D03*
G01*
X5842000Y-1066800D03*
G01*
X5791200Y-1104900D03*
G01*
X5842000Y-1143000D03*
G01*
X5791200Y-1181100D03*
G01*
X5842000Y-1219200D03*
G01*
X4711700Y-711200D03*
G01*
X4711700Y-787400D03*
G01*
X4660900Y-749300D03*
G01*
X4559300Y-749300D03*
G01*
X4610100Y-711200D03*
G01*
X4610100Y-787400D03*
G01*
X4457700Y-749300D03*
G01*
X4508500Y-711200D03*
G01*
X4508500Y-787400D03*
G01*
X5702300Y-749300D03*
G01*
X5753100Y-711200D03*
G01*
X5753100Y-787400D03*
G01*
X5803900Y-749300D03*
G01*
X5854700Y-711200D03*
G01*
X5854700Y-787400D03*
G01*
X5905500Y-749300D03*
G01*
X5956300Y-787400D03*
G01*
X5956300Y-711200D03*
G01*
X4457700Y-499237D03*
G01*
X4508500Y-461137D03*
G01*
X4508500Y-537337D03*
G01*
X4559300Y-499237D03*
G01*
X4610100Y-461137D03*
G01*
X4610100Y-537337D03*
G01*
X4660900Y-499237D03*
G01*
X4711700Y-537337D03*
G01*
X4711700Y-461137D03*
G01*
X5702300Y-499237D03*
G01*
X5753100Y-461137D03*
G01*
X5753100Y-537337D03*
G01*
X5803900Y-499237D03*
G01*
X5854700Y-461137D03*
G01*
X5854700Y-537337D03*
G01*
X5905500Y-499237D03*
G01*
X5956300Y-537337D03*
G01*
X5956300Y-461137D03*
G01*
X6959600Y-1422400D03*
G01*
X6959600Y-1295400D03*
G01*
X6959600Y-1358900D03*
G01*
X6959600Y-1231900D03*
G01*
X7023100Y-1231900D03*
G01*
X7086600Y-1231900D03*
G01*
X7023100Y-1168400D03*
G01*
X7086600Y-1168400D03*
G01*
X7391400Y-1676400D03*
G01*
X7454900Y-1676400D03*
G01*
X7518400Y-1676400D03*
G01*
X7493000Y-1739900D03*
G01*
X7429500Y-1739900D03*
G01*
X7366000Y-1739900D03*
G01*
X7556500Y-1739900D03*
G01*
X7467600Y-1803400D03*
G01*
X7404100Y-1803400D03*
G01*
X7531100Y-1803400D03*
G01*
X7124700Y-1739900D03*
G01*
X7035800Y-1739900D03*
G01*
X6972300Y-1739900D03*
G01*
X4241800Y-2349500D03*
G01*
X4254500Y-2628900D03*
G01*
X4178300Y-2349500D03*
G01*
X4191000Y-2692400D03*
G01*
X5156200Y-4546600D03*
G01*
X5092700Y-4546600D03*
G01*
X4699000Y-4432300D03*
G01*
X4622800Y-4432300D03*
G01*
X6578600Y-3352800D03*
G01*
X6578600Y-3429000D03*
G01*
X6692900Y-3822700D03*
G01*
X6616700Y-3898900D03*
G01*
X6311900Y-3416300D03*
G01*
X6121400Y-3429000D03*
G01*
X6311900Y-3479800D03*
G01*
X6184900Y-3492500D03*
G01*
X6591300Y-2095500D03*
G01*
X6540500Y-1905000D03*
G01*
X6540500Y-1968500D03*
G01*
X6515100Y-2095500D03*
G01*
X4711700Y-2057400D03*
G01*
X4724400Y-1930400D03*
G01*
X4655540Y-1930400D03*
G01*
X4655565Y-2057527D03*
G01*
X5918200Y-2794000D03*
G01*
X5918200Y-2730500D03*
G01*
X6045200Y-2794000D03*
G01*
X6045200Y-2730017D03*
G01*
X3759200Y-2565400D03*
G01*
X3822700Y-2565400D03*
G01*
X3873500Y-2184400D03*
G01*
X3810000Y-2184400D03*
G01*
X4025900Y-1562100D03*
G01*
X3924300Y-1562100D03*
G01*
X5410200Y-1562100D03*
G01*
X5339816Y-1562100D03*
G01*
X5334000Y-1930400D03*
G01*
X5257800Y-1930400D03*
G01*
X5956300Y-1930400D03*
G01*
X5888761Y-1930400D03*
G01*
X5156200Y-2730500D03*
G01*
X5156200Y-2806700D03*
G01*
X5283200Y-2667000D03*
G01*
X5410200Y-2654300D03*
G01*
X5537200Y-2641600D03*
G01*
X5283200Y-2730500D03*
G01*
X5410200Y-2717800D03*
G01*
X5536895Y-2706496D03*
G01*
X5054600Y-2514600D03*
G01*
X4965700Y-2514600D03*
G01*
X4838700Y-2628900D03*
G01*
X4914900Y-2628900D03*
G01*
X4914900Y-1905000D03*
G01*
X4914900Y-1968500D03*
G01*
X5143500Y-1968500D03*
G01*
X5143500Y-1905000D03*
G01*
X4000500Y-1816100D03*
G01*
X4064000Y-1816100D03*
G01*
X4000500Y-1943100D03*
G01*
X4064000Y-1943100D03*
G01*
X3517900Y-1689100D03*
G01*
X3517900Y-1778000D03*
G01*
X3200400Y-1778000D03*
G01*
X3200400Y-1689100D03*
G01*
X5524500Y-3835400D03*
G01*
X5524500Y-3771900D03*
G01*
X5524500Y-3708400D03*
G01*
X5524500Y-3644900D03*
G01*
X5524500Y-3581400D03*
G01*
X5461000Y-3835400D03*
G01*
X5461000Y-3771900D03*
G01*
X5461000Y-3708400D03*
G01*
X5461000Y-3644900D03*
G01*
X5461000Y-3581400D03*
G01*
X5397500Y-3835400D03*
G01*
X5397500Y-3771900D03*
G01*
X5397500Y-3708400D03*
G01*
X5397500Y-3644900D03*
G01*
X5397500Y-3581400D03*
G01*
X6388100Y-1917700D03*
G01*
X6451600Y-1981200D03*
G01*
X6388100Y-1981200D03*
G01*
X6529857Y-2387600D03*
G01*
X6464300Y-2387600D03*
G01*
X5461000Y-2247900D03*
G01*
X5537200Y-2247900D03*
D56*
G01*
X5384800Y-5257800D03*
G01*
X5295900Y-5257800D03*
G01*
X5549900Y-5283200D03*
G01*
X5651500Y-5245100D03*
D55*
G01*
X5092700Y-3835400D03*
G01*
X5092700Y-3771900D03*
G01*
X5092700Y-3708400D03*
G01*
X5092700Y-3644900D03*
G01*
X5092700Y-3581400D03*
G01*
X5156200Y-3644900D03*
G01*
X5156200Y-3708400D03*
G01*
X5156200Y-3771900D03*
G01*
X5156200Y-3835400D03*
G01*
X5156200Y-3581400D03*
G01*
X5486400Y-5829300D03*
G01*
X5549900Y-5829300D03*
G01*
X5613400Y-5829300D03*
G01*
X6057900Y-5715000D03*
G01*
X6121400Y-5753100D03*
G01*
X6057900Y-5778500D03*
G01*
X6680200Y-4559300D03*
G01*
X6680200Y-4483100D03*
G01*
X5638800Y-5156200D03*
D14*
G01*
X6273800Y-5346700D03*
G01*
X6337300Y-5765800D03*
D56*
G01*
X5397500Y-4470400D03*
G01*
X5499100Y-4470400D03*
G01*
X6413500Y-4165600D03*
G01*
X6413500Y-4271518D03*
G01*
X6413500Y-4378553D03*
D55*
G01*
X5867400Y-4356100D03*
G01*
X5867400Y-4292600D03*
G01*
X5867400Y-4229100D03*
G01*
X5867400Y-4165600D03*
G01*
X5930900Y-4165600D03*
G01*
X5930900Y-4229100D03*
G01*
X5930900Y-4292600D03*
G01*
X5930900Y-4356100D03*
G01*
X5994400Y-4356100D03*
G01*
X5994400Y-4292600D03*
G01*
X5994400Y-4229100D03*
G01*
X5994400Y-4165600D03*
G01*
X6057900Y-4165600D03*
G01*
X6057900Y-4229100D03*
G01*
X6057900Y-4292600D03*
G01*
X6057900Y-4356100D03*
D14*
G01*
X3937000Y-3086100D03*
G01*
X3937000Y-2971800D03*
D56*
G01*
X6870700Y-2197100D03*
G01*
X7112000Y-2362200D03*
G01*
X7035800Y-2362200D03*
G01*
X6870700Y-2120900D03*
G01*
X6515100Y-1536700D03*
G01*
X6591300Y-1536700D03*
G01*
X6261100Y-3175000D03*
G01*
X4953000Y-266700D03*
G01*
X4953000Y-330200D03*
G01*
X4953000Y-393700D03*
G01*
X4953000Y-457200D03*
G01*
X5016500Y-457200D03*
G01*
X5016500Y-393700D03*
G01*
X5016500Y-330200D03*
G01*
X5016500Y-266700D03*
G01*
X3746500Y-431800D03*
G01*
X3683000Y-431800D03*
G01*
X3746500Y-368300D03*
G01*
X3746500Y-304800D03*
G01*
X3746500Y-241300D03*
G01*
X3683000Y-241300D03*
G01*
X3683000Y-304800D03*
G01*
X3683000Y-368300D03*
G01*
X3568700Y-1549400D03*
G01*
X3568700Y-1485900D03*
G01*
X3568700Y-1422400D03*
G01*
X3505200Y-1422400D03*
G01*
X3505200Y-1485900D03*
G01*
X3505200Y-1549400D03*
G01*
X3568700Y-1358900D03*
G01*
X3505200Y-1358900D03*
G01*
X3505200Y-1295400D03*
G01*
X3695700Y-1549400D03*
G01*
X3695700Y-1485900D03*
G01*
X3632200Y-1422400D03*
G01*
X3632200Y-1485900D03*
G01*
X3632200Y-1549400D03*
G01*
X7315200Y-1117600D03*
G01*
X7315200Y-1054100D03*
G01*
X7315200Y-990600D03*
G01*
X7315200Y-927100D03*
G01*
X7442200Y-1117600D03*
G01*
X7378700Y-1117600D03*
G01*
X7442200Y-1054100D03*
G01*
X7442200Y-990600D03*
G01*
X7442200Y-927100D03*
G01*
X7378700Y-927100D03*
G01*
X7378700Y-990600D03*
G01*
X7378700Y-1054100D03*
G01*
X7569200Y-1117600D03*
G01*
X7505700Y-1117600D03*
G01*
X7569200Y-1054100D03*
G01*
X7569200Y-990600D03*
G01*
X7569200Y-927100D03*
G01*
X7505700Y-927100D03*
G01*
X7505700Y-990600D03*
G01*
X7505700Y-1054100D03*
G01*
X7378700Y-863600D03*
G01*
X7315200Y-863600D03*
G01*
X7378700Y-800100D03*
G01*
X7315200Y-800100D03*
G01*
X7505700Y-863600D03*
G01*
X7442200Y-863600D03*
G01*
X7442200Y-800100D03*
G01*
X7632700Y-990600D03*
G01*
X7632700Y-1054100D03*
G01*
X7632700Y-1117600D03*
G01*
X5410200Y-1473200D03*
G01*
X5346700Y-1473200D03*
G01*
X5283200Y-1409700D03*
G01*
X5346700Y-1409700D03*
G01*
X5410200Y-1409700D03*
G01*
X5346700Y-1346200D03*
G01*
X5283200Y-1346200D03*
G01*
X5283200Y-1473200D03*
G01*
X5410200Y-1346200D03*
G01*
X5461000Y-3403600D03*
G01*
X5461000Y-3341979D03*
G01*
X5181600Y-4305300D03*
G01*
X5111851Y-4305300D03*
G01*
X5842000Y-4572000D03*
G01*
X5778500Y-4572000D03*
G01*
X5727700Y-4267200D03*
G01*
X5727700Y-4330700D03*
G01*
X6350000Y-3289300D03*
G01*
X6286500Y-3289300D03*
G01*
X7277100Y-2705100D03*
G01*
X7277100Y-2641600D03*
G01*
X6985000Y-2463800D03*
G01*
X7048500Y-2463800D03*
G01*
X6985000Y-2527300D03*
G01*
X7048500Y-2527300D03*
G01*
X6159500Y-2108200D03*
G01*
X6159500Y-2171700D03*
G01*
X5867400Y-2260600D03*
G01*
X5803900Y-2260600D03*
G01*
X6629400Y-5397500D03*
G01*
X6629400Y-5460288D03*
G01*
X6629400Y-5527065D03*
G01*
X6629400Y-5594807D03*
G01*
X5473700Y-5232400D03*
D55*
G01*
X6451600Y-1917700D03*
D56*
G01*
X7175500Y-2463800D03*
G01*
X7112000Y-2463800D03*
G01*
X7112000Y-2527300D03*
M02*
