G04 Layer: BottomSilkscreenLayer*
G04 EasyEDA v6.5.44, 2024-08-24 22:55:38*
G04 c584bd3c03fa4b5bb03f9f2b3921847a,c23a61fc8c4145e6967fd80801f93d45,10*
G04 Gerber Generator version 0.2*
G04 Scale: 100 percent, Rotated: No, Reflected: No *
G04 Dimensions in millimeters *
G04 leading zeros omitted , absolute positions ,4 integer and 5 decimal *
%FSLAX45Y45*%
%MOMM*%

%ADD10C,0.1100*%
%ADD11C,0.1600*%
%ADD12C,0.2540*%

%LPD*%
G36*
X1008278Y-610768D02*
G01*
X1005179Y-611378D01*
X1002334Y-613410D01*
X1000099Y-615746D01*
X1000302Y-882040D01*
X1000760Y-922172D01*
X1001115Y-930148D01*
X1002792Y-933246D01*
X1005382Y-935177D01*
X1008532Y-935888D01*
X1013561Y-934466D01*
X1014882Y-933754D01*
X1015593Y-932687D01*
X1016203Y-930859D01*
X1016711Y-927912D01*
X1017422Y-917600D01*
X1017778Y-899312D01*
X1017930Y-870712D01*
X1017981Y-616356D01*
X1014882Y-613714D01*
X1011580Y-611530D01*
G37*
G36*
X1238453Y-611327D02*
G01*
X1234897Y-612241D01*
X1232458Y-614984D01*
X1231950Y-639114D01*
X1231646Y-697230D01*
X1231646Y-847750D01*
X1231900Y-906170D01*
X1232408Y-930757D01*
X1235456Y-935126D01*
X1239774Y-936091D01*
X1244092Y-933856D01*
X1247190Y-928522D01*
X1247546Y-923645D01*
X1248054Y-890574D01*
X1248206Y-860907D01*
X1248206Y-617931D01*
X1245819Y-615035D01*
X1242314Y-612292D01*
G37*
G36*
X818641Y-611682D02*
G01*
X814933Y-612952D01*
X812444Y-615899D01*
X812139Y-622503D01*
X811733Y-664514D01*
X811580Y-824585D01*
X811834Y-887018D01*
X812495Y-922832D01*
X813053Y-924052D01*
X816102Y-927963D01*
X822909Y-934872D01*
X868222Y-977544D01*
X873506Y-982726D01*
X877011Y-986739D01*
X877112Y-1264259D01*
X877366Y-1292047D01*
X877874Y-1309522D01*
X878789Y-1319326D01*
X879398Y-1322070D01*
X880160Y-1323848D01*
X881075Y-1324965D01*
X885596Y-1328166D01*
X913892Y-1355039D01*
X918057Y-1360373D01*
X919378Y-1365453D01*
X919073Y-1372717D01*
X918362Y-1382471D01*
X912977Y-1387144D01*
X907846Y-1392377D01*
X904290Y-1397863D01*
X902258Y-1403502D01*
X901750Y-1408988D01*
X902766Y-1414322D01*
X905357Y-1419301D01*
X909421Y-1423771D01*
X915009Y-1427581D01*
X920496Y-1429816D01*
X926033Y-1430782D01*
X931367Y-1430578D01*
X936447Y-1429258D01*
X941120Y-1427073D01*
X945235Y-1424076D01*
X948639Y-1420368D01*
X951179Y-1416100D01*
X952753Y-1411478D01*
X953160Y-1406499D01*
X952296Y-1401368D01*
X950061Y-1396187D01*
X947623Y-1392631D01*
X944575Y-1389278D01*
X941679Y-1386789D01*
X939546Y-1385824D01*
X938428Y-1384249D01*
X937463Y-1380083D01*
X936802Y-1374140D01*
X936447Y-1362354D01*
X936091Y-1358849D01*
X935482Y-1356106D01*
X934466Y-1353667D01*
X932332Y-1350518D01*
X928725Y-1346454D01*
X918921Y-1337310D01*
X913688Y-1332992D01*
X908862Y-1329436D01*
X904951Y-1326946D01*
X901649Y-1325829D01*
X899109Y-1324102D01*
X893826Y-1319733D01*
X893724Y-1035862D01*
X893368Y-994359D01*
X893013Y-985062D01*
X892606Y-980694D01*
X892302Y-979779D01*
X890422Y-977188D01*
X886358Y-972819D01*
X880211Y-966774D01*
X844296Y-933246D01*
X829310Y-918870D01*
X829310Y-616813D01*
X826769Y-614476D01*
X822858Y-612140D01*
G37*
G36*
X1372870Y-614222D02*
G01*
X1369263Y-615492D01*
X1366520Y-618744D01*
X1365808Y-621487D01*
X1365300Y-628650D01*
X1364996Y-643940D01*
X1364843Y-671118D01*
X1365046Y-878078D01*
X1365300Y-905764D01*
X1365758Y-922121D01*
X1366520Y-930452D01*
X1367078Y-932535D01*
X1367739Y-933856D01*
X1369415Y-935583D01*
X1371904Y-936396D01*
X1375257Y-935685D01*
X1378305Y-933805D01*
X1380134Y-931164D01*
X1380490Y-923950D01*
X1380947Y-880465D01*
X1380947Y-754430D01*
X1380642Y-682701D01*
X1380083Y-632104D01*
X1379728Y-619963D01*
X1379524Y-618083D01*
X1376527Y-615086D01*
G37*
G36*
X1082700Y-677519D02*
G01*
X1079246Y-678484D01*
X1076502Y-681177D01*
X1075994Y-682193D01*
X1075588Y-683869D01*
X1075029Y-692150D01*
X1074724Y-711606D01*
X1074572Y-759968D01*
X1074674Y-889762D01*
X1075029Y-914603D01*
X1075842Y-927760D01*
X1076452Y-931214D01*
X1077264Y-933246D01*
X1078230Y-934415D01*
X1083513Y-937463D01*
X1088440Y-934567D01*
X1090828Y-932586D01*
X1091488Y-931773D01*
X1091996Y-923950D01*
X1092352Y-904494D01*
X1092606Y-814832D01*
X1092250Y-743000D01*
X1091387Y-691794D01*
X1090726Y-680669D01*
X1086612Y-678230D01*
G37*
G36*
X1535734Y-685800D02*
G01*
X1531467Y-686816D01*
X1528165Y-689965D01*
X1527860Y-695299D01*
X1527352Y-729792D01*
X1527098Y-786333D01*
X1527251Y-926084D01*
X1527708Y-975817D01*
X1528165Y-999185D01*
X1528216Y-1013460D01*
X1527860Y-1017676D01*
X1527200Y-1020571D01*
X1526184Y-1022451D01*
X1524762Y-1023823D01*
X1520799Y-1026515D01*
X1518615Y-1028344D01*
X1514906Y-1032408D01*
X1512671Y-1036167D01*
X1511452Y-1040028D01*
X1511096Y-1044041D01*
X1511554Y-1048003D01*
X1512722Y-1051864D01*
X1514551Y-1055573D01*
X1516888Y-1059078D01*
X1519732Y-1062177D01*
X1522933Y-1064920D01*
X1526438Y-1067155D01*
X1530146Y-1068832D01*
X1534007Y-1069797D01*
X1537919Y-1070102D01*
X1541780Y-1069543D01*
X1545488Y-1068070D01*
X1549044Y-1065631D01*
X1556766Y-1058468D01*
X1558544Y-1056081D01*
X1559661Y-1053744D01*
X1560677Y-1050239D01*
X1561084Y-1046784D01*
X1560931Y-1043990D01*
X1560169Y-1042517D01*
X1559763Y-1042111D01*
X1559255Y-1040333D01*
X1559001Y-1037894D01*
X1557731Y-1035303D01*
X1554378Y-1031595D01*
X1553819Y-1030528D01*
X1551025Y-1027785D01*
X1543761Y-1021689D01*
X1544218Y-733806D01*
X1543913Y-699617D01*
X1543608Y-692150D01*
X1543354Y-690219D01*
X1540052Y-686917D01*
G37*
G36*
X1467510Y-799084D02*
G01*
X1463751Y-799846D01*
X1461160Y-803910D01*
X1459788Y-811225D01*
X1459280Y-828497D01*
X1459077Y-890066D01*
X1459585Y-925321D01*
X1459890Y-929132D01*
X1461262Y-932180D01*
X1463192Y-934974D01*
X1465529Y-937463D01*
X1471828Y-934466D01*
X1472692Y-933653D01*
X1473352Y-932230D01*
X1473860Y-930046D01*
X1474470Y-921918D01*
X1474724Y-907135D01*
X1474774Y-803960D01*
X1472234Y-801827D01*
G37*
G36*
X1435150Y-799388D02*
G01*
X1432001Y-799744D01*
X1429156Y-801878D01*
X1428750Y-803249D01*
X1428089Y-810717D01*
X1427530Y-823264D01*
X1426870Y-857910D01*
X1426972Y-903935D01*
X1427327Y-918565D01*
X1427835Y-928878D01*
X1428191Y-931926D01*
X1428546Y-933348D01*
X1432610Y-936040D01*
X1437233Y-935532D01*
X1441246Y-932281D01*
X1443532Y-926744D01*
X1443888Y-907034D01*
X1443482Y-807262D01*
X1441246Y-803910D01*
X1438351Y-800811D01*
G37*
G36*
X1168552Y-799439D02*
G01*
X1165606Y-800557D01*
X1163370Y-803503D01*
X1162862Y-805586D01*
X1162304Y-817880D01*
X1162151Y-846531D01*
X1162456Y-931722D01*
X1166723Y-935583D01*
X1167993Y-936193D01*
X1169517Y-936142D01*
X1173480Y-934974D01*
X1174902Y-934364D01*
X1176020Y-933399D01*
X1176934Y-931875D01*
X1177645Y-929436D01*
X1178153Y-925880D01*
X1178712Y-914349D01*
X1178864Y-895197D01*
X1178560Y-805738D01*
X1175359Y-802589D01*
X1171854Y-800100D01*
G37*
G36*
X885850Y-799592D02*
G01*
X881329Y-800252D01*
X878128Y-804621D01*
X876655Y-812292D01*
X876096Y-840435D01*
X876350Y-875690D01*
X877112Y-906221D01*
X877976Y-919022D01*
X878332Y-920343D01*
X881735Y-924204D01*
X886612Y-928624D01*
X891489Y-932383D01*
X894842Y-934161D01*
X899312Y-935482D01*
X906322Y-936802D01*
X909370Y-934212D01*
X908202Y-928674D01*
X902512Y-921359D01*
X899261Y-918006D01*
X893826Y-911707D01*
X893826Y-805230D01*
X891286Y-802792D01*
G37*
G36*
X1283766Y-950315D02*
G01*
X915517Y-950620D01*
X910691Y-955802D01*
X911074Y-1201724D01*
X1014984Y-1201724D01*
X1015237Y-1091336D01*
X1015644Y-1065428D01*
X1016152Y-1060602D01*
X1016457Y-1059434D01*
X1017320Y-1058418D01*
X1035608Y-1058113D01*
X1256182Y-1057706D01*
X1358747Y-1057910D01*
X1386789Y-1058265D01*
X1387297Y-1061212D01*
X1388059Y-1080973D01*
X1388465Y-1112621D01*
X1388414Y-1165250D01*
X1387856Y-1192377D01*
X1387500Y-1200658D01*
X1386992Y-1204061D01*
X1381912Y-1204569D01*
X1347978Y-1205280D01*
X1290828Y-1205687D01*
X1184046Y-1205687D01*
X1113891Y-1205382D01*
X1035913Y-1204417D01*
X1022299Y-1203960D01*
X1017066Y-1203452D01*
X1014984Y-1201724D01*
X911074Y-1201724D01*
X911555Y-1292352D01*
X911910Y-1303578D01*
X912368Y-1308658D01*
X912977Y-1310182D01*
X916381Y-1310436D01*
X982776Y-1311249D01*
X1107287Y-1311910D01*
X1307896Y-1312367D01*
X1433626Y-1312164D01*
X1470304Y-1311910D01*
X1486560Y-1311503D01*
X1488440Y-1310995D01*
X1489303Y-1310487D01*
X1490014Y-1309471D01*
X1490624Y-1307642D01*
X1491132Y-1304747D01*
X1491894Y-1294384D01*
X1492351Y-1275994D01*
X1492554Y-1247190D01*
X1492554Y-1010208D01*
X1492300Y-984503D01*
X1491894Y-968248D01*
X1491183Y-959103D01*
X1490726Y-956411D01*
X1490167Y-954684D01*
X1488795Y-952652D01*
X1487373Y-951484D01*
X1485239Y-951128D01*
X1472234Y-950671D01*
X1440180Y-950417D01*
G37*
G36*
X1169974Y-1069543D02*
G01*
X1166368Y-1070610D01*
X1163624Y-1074013D01*
X1163269Y-1075842D01*
X1162761Y-1085240D01*
X1162304Y-1100328D01*
X1161897Y-1138834D01*
X1162202Y-1173327D01*
X1162608Y-1183538D01*
X1162913Y-1185875D01*
X1165809Y-1190701D01*
X1170127Y-1191818D01*
X1174597Y-1189431D01*
X1177696Y-1183792D01*
X1178102Y-1181252D01*
X1178661Y-1171041D01*
X1178966Y-1155649D01*
X1178864Y-1118057D01*
X1178509Y-1100023D01*
X1177899Y-1085342D01*
X1177188Y-1076147D01*
X1176731Y-1074216D01*
X1173734Y-1070762D01*
G37*
G36*
X1084275Y-1069594D02*
G01*
X1080465Y-1070813D01*
X1077315Y-1074318D01*
X1076960Y-1075994D01*
X1076401Y-1084986D01*
X1075588Y-1117955D01*
X1075334Y-1156106D01*
X1075537Y-1171651D01*
X1075893Y-1181912D01*
X1076198Y-1184402D01*
X1078280Y-1188770D01*
X1081735Y-1191158D01*
X1085850Y-1191310D01*
X1089964Y-1189075D01*
X1090320Y-1187958D01*
X1090980Y-1181608D01*
X1091996Y-1156766D01*
X1092504Y-1124102D01*
X1092403Y-1093724D01*
X1092047Y-1082548D01*
X1091539Y-1075639D01*
X1091184Y-1074267D01*
X1088085Y-1070762D01*
G37*
G36*
X1238300Y-1069644D02*
G01*
X1235456Y-1070762D01*
X1233220Y-1073302D01*
X1232865Y-1075080D01*
X1232255Y-1084427D01*
X1231493Y-1118209D01*
X1231392Y-1157173D01*
X1231646Y-1173022D01*
X1232103Y-1183436D01*
X1232458Y-1185875D01*
X1234236Y-1189532D01*
X1237183Y-1191463D01*
X1240739Y-1191514D01*
X1244396Y-1189583D01*
X1245209Y-1188110D01*
X1245971Y-1185265D01*
X1247140Y-1176020D01*
X1248003Y-1163116D01*
X1248511Y-1147724D01*
X1248714Y-1131062D01*
X1248511Y-1114399D01*
X1248003Y-1098956D01*
X1247140Y-1085900D01*
X1245971Y-1076502D01*
X1245209Y-1073556D01*
X1244396Y-1071930D01*
X1241450Y-1070051D01*
G37*
G36*
X1365808Y-1076452D02*
G01*
X1364945Y-1097178D01*
X1364386Y-1140104D01*
X1363827Y-1145082D01*
X1362659Y-1149096D01*
X1360576Y-1152652D01*
X1357426Y-1156411D01*
X1335684Y-1177290D01*
X1331823Y-1181252D01*
X1329893Y-1183589D01*
X1328521Y-1188770D01*
X1331518Y-1191615D01*
X1337462Y-1191717D01*
X1344930Y-1188567D01*
X1351991Y-1183132D01*
X1360474Y-1175512D01*
X1367536Y-1168298D01*
X1370482Y-1164082D01*
X1370787Y-1162304D01*
X1372108Y-1159611D01*
X1372362Y-1157427D01*
X1371346Y-1077214D01*
G37*
G36*
X1510436Y-1101191D02*
G01*
X1508760Y-1102512D01*
X1508455Y-1106881D01*
X1510182Y-1112164D01*
X1513687Y-1117752D01*
X1519783Y-1124204D01*
X1523390Y-1127150D01*
X1524762Y-1128776D01*
X1525828Y-1131062D01*
X1526692Y-1134313D01*
X1527352Y-1138936D01*
X1527810Y-1145387D01*
X1528318Y-1165199D01*
X1528470Y-1323797D01*
X1528267Y-1356156D01*
X1527759Y-1374546D01*
X1527352Y-1379778D01*
X1526794Y-1383080D01*
X1526082Y-1384858D01*
X1525168Y-1385722D01*
X1523441Y-1386281D01*
X1519326Y-1388465D01*
X1515973Y-1391970D01*
X1513433Y-1396390D01*
X1511757Y-1401521D01*
X1511096Y-1406906D01*
X1511452Y-1412240D01*
X1512925Y-1417269D01*
X1515567Y-1421536D01*
X1518716Y-1424838D01*
X1520596Y-1426260D01*
X1521714Y-1426616D01*
X1523034Y-1427581D01*
X1527962Y-1429816D01*
X1535226Y-1430731D01*
X1542440Y-1430274D01*
X1547469Y-1428394D01*
X1549603Y-1426921D01*
X1552956Y-1425041D01*
X1555038Y-1422095D01*
X1556715Y-1420317D01*
X1559458Y-1416304D01*
X1561134Y-1410817D01*
X1561439Y-1405737D01*
X1559255Y-1401216D01*
X1559001Y-1399641D01*
X1557629Y-1397254D01*
X1554378Y-1393037D01*
X1553413Y-1391208D01*
X1551432Y-1389329D01*
X1548892Y-1387398D01*
X1545945Y-1385620D01*
X1545183Y-1384858D01*
X1544523Y-1383030D01*
X1544066Y-1379372D01*
X1543456Y-1363065D01*
X1543151Y-1329537D01*
X1542745Y-1162608D01*
X1542440Y-1139088D01*
X1541932Y-1128623D01*
X1541526Y-1126439D01*
X1541018Y-1125169D01*
X1537157Y-1119733D01*
X1532686Y-1114907D01*
X1527708Y-1110386D01*
X1522577Y-1106474D01*
X1517751Y-1103477D01*
X1513535Y-1101648D01*
G37*
G36*
X1321765Y-1324203D02*
G01*
X1318971Y-1325270D01*
X1316431Y-1328369D01*
X1314450Y-1333500D01*
X1313281Y-1340662D01*
X1312621Y-1348841D01*
X1307998Y-1352092D01*
X1303883Y-1355801D01*
X1302105Y-1357985D01*
X1300683Y-1360220D01*
X1298549Y-1365402D01*
X1297686Y-1370736D01*
X1298041Y-1375968D01*
X1299514Y-1380947D01*
X1302054Y-1385417D01*
X1305560Y-1389278D01*
X1309928Y-1392224D01*
X1315059Y-1394104D01*
X1319936Y-1395222D01*
X1323187Y-1395730D01*
X1325422Y-1395679D01*
X1331874Y-1393698D01*
X1335278Y-1391818D01*
X1339900Y-1388059D01*
X1343964Y-1384046D01*
X1345692Y-1381252D01*
X1346149Y-1379728D01*
X1347216Y-1378051D01*
X1348232Y-1375867D01*
X1348587Y-1373022D01*
X1348282Y-1370025D01*
X1345285Y-1362354D01*
X1343609Y-1359204D01*
X1340510Y-1355344D01*
X1336954Y-1351788D01*
X1332280Y-1348587D01*
X1331366Y-1347216D01*
X1330807Y-1344676D01*
X1330350Y-1340256D01*
X1329131Y-1333195D01*
X1327150Y-1328115D01*
X1324610Y-1325118D01*
G37*
G36*
X1484528Y-1325067D02*
G01*
X1481328Y-1326286D01*
X1478686Y-1329436D01*
X1478026Y-1331010D01*
X1477568Y-1334262D01*
X1477111Y-1353515D01*
X1476857Y-1402994D01*
X1476502Y-1431544D01*
X1476095Y-1437741D01*
X1475486Y-1439926D01*
X1468729Y-1445361D01*
X1466596Y-1447393D01*
X1464767Y-1450543D01*
X1463344Y-1452422D01*
X1462684Y-1453997D01*
X1461871Y-1458264D01*
X1461617Y-1463954D01*
X1462024Y-1468831D01*
X1463040Y-1472641D01*
X1464614Y-1475232D01*
X1466189Y-1477060D01*
X1467967Y-1480667D01*
X1471117Y-1482648D01*
X1475587Y-1484223D01*
X1480870Y-1485392D01*
X1486408Y-1485950D01*
X1491538Y-1485900D01*
X1495806Y-1485138D01*
X1498549Y-1483512D01*
X1500174Y-1482090D01*
X1503375Y-1480108D01*
X1505254Y-1476908D01*
X1505661Y-1476806D01*
X1507998Y-1473962D01*
X1509522Y-1467205D01*
X1509877Y-1459280D01*
X1508709Y-1452829D01*
X1506474Y-1449679D01*
X1502714Y-1445717D01*
X1498803Y-1442364D01*
X1496212Y-1440942D01*
X1494434Y-1440738D01*
X1492961Y-1338326D01*
X1492300Y-1331163D01*
X1491792Y-1329639D01*
X1491132Y-1328674D01*
X1487881Y-1325880D01*
G37*
G36*
X1195476Y-1325524D02*
G01*
X1192479Y-1326184D01*
X1191768Y-1326845D01*
X1191158Y-1327861D01*
X1190244Y-1331874D01*
X1189634Y-1339342D01*
X1189228Y-1351330D01*
X1188008Y-1487474D01*
X1183081Y-1490268D01*
X1178966Y-1493774D01*
X1175512Y-1498092D01*
X1172667Y-1503375D01*
X1171448Y-1507591D01*
X1171295Y-1512214D01*
X1172006Y-1516938D01*
X1173480Y-1521510D01*
X1175613Y-1525625D01*
X1178255Y-1528927D01*
X1181252Y-1531112D01*
X1185214Y-1532026D01*
X1191717Y-1534566D01*
X1196543Y-1535226D01*
X1201267Y-1535176D01*
X1204671Y-1534363D01*
X1210360Y-1531416D01*
X1212951Y-1529740D01*
X1215745Y-1527251D01*
X1218336Y-1524304D01*
X1220419Y-1521206D01*
X1220876Y-1519834D01*
X1221536Y-1514805D01*
X1221587Y-1507388D01*
X1221079Y-1504188D01*
X1219657Y-1500886D01*
X1216964Y-1496110D01*
X1214729Y-1493520D01*
X1211173Y-1490573D01*
X1206703Y-1487373D01*
X1206195Y-1351330D01*
X1205687Y-1337411D01*
X1204061Y-1329232D01*
X1200810Y-1325676D01*
G37*
G36*
X1008481Y-1325575D02*
G01*
X1005281Y-1326337D01*
X1003858Y-1326896D01*
X1002792Y-1328115D01*
X1001979Y-1330807D01*
X1001369Y-1335786D01*
X1000963Y-1343863D01*
X1000556Y-1372514D01*
X1000302Y-1472438D01*
X999896Y-1537309D01*
X999642Y-1551076D01*
X999032Y-1554886D01*
X918718Y-1554886D01*
X913942Y-1559001D01*
X912876Y-1560576D01*
X912164Y-1562354D01*
X911555Y-1565960D01*
X911148Y-1578051D01*
X910742Y-1636014D01*
X910996Y-1715668D01*
X911528Y-1773986D01*
X1013764Y-1773986D01*
X1014171Y-1702968D01*
X1014780Y-1663649D01*
X1016558Y-1662023D01*
X1022248Y-1661617D01*
X1059942Y-1660956D01*
X1122426Y-1660550D01*
X1253998Y-1660448D01*
X1320495Y-1660804D01*
X1365148Y-1661363D01*
X1375410Y-1661769D01*
X1376832Y-1662023D01*
X1377238Y-1676958D01*
X1377442Y-1711045D01*
X1377391Y-1770125D01*
X1377137Y-1796237D01*
X1376934Y-1800504D01*
X1371498Y-1801012D01*
X1334262Y-1801774D01*
X1272133Y-1802231D01*
X1149959Y-1802333D01*
X1081379Y-1801977D01*
X1032764Y-1801317D01*
X1019810Y-1800860D01*
X1016355Y-1800504D01*
X1015187Y-1799285D01*
X1014526Y-1797100D01*
X1014120Y-1792884D01*
X1013764Y-1773986D01*
X911528Y-1773986D01*
X912317Y-1821891D01*
X912825Y-1836877D01*
X913231Y-1840992D01*
X916025Y-1844243D01*
X926084Y-1854352D01*
X974598Y-1900326D01*
X980186Y-1904593D01*
X982421Y-1905863D01*
X986891Y-1907844D01*
X1328420Y-1907438D01*
X1385316Y-1907133D01*
X1398981Y-1906828D01*
X1406093Y-1906473D01*
X1409141Y-1905965D01*
X1409903Y-1905660D01*
X1414272Y-1902714D01*
X1419199Y-1898599D01*
X1423365Y-1894586D01*
X1425295Y-1891792D01*
X1426616Y-1890775D01*
X1429359Y-1889455D01*
X1431442Y-1886915D01*
X1440688Y-1877872D01*
X1454200Y-1865325D01*
X1463446Y-1856333D01*
X1465021Y-1854352D01*
X1466088Y-1853590D01*
X1467713Y-1852980D01*
X1469136Y-1851710D01*
X1469796Y-1850186D01*
X1470812Y-1849170D01*
X1471980Y-1848866D01*
X1473301Y-1847748D01*
X1476197Y-1843735D01*
X1479245Y-1840585D01*
X1479600Y-1652219D01*
X1479397Y-1583182D01*
X1478788Y-1565656D01*
X1478229Y-1560982D01*
X1477568Y-1558239D01*
X1476654Y-1556816D01*
X1474266Y-1555800D01*
X1460296Y-1555445D01*
X1421536Y-1555140D01*
X1132230Y-1554734D01*
X1071880Y-1554378D01*
X1068984Y-1553565D01*
X1067409Y-1552295D01*
X1067054Y-1550974D01*
X1070914Y-1547672D01*
X1073810Y-1543405D01*
X1076198Y-1538325D01*
X1077366Y-1533652D01*
X1076198Y-1526844D01*
X1072692Y-1519377D01*
X1068070Y-1513281D01*
X1063701Y-1510792D01*
X1062990Y-1510639D01*
X1062380Y-1510080D01*
X1061923Y-1508912D01*
X1061212Y-1503934D01*
X1060754Y-1494078D01*
X1060602Y-1453438D01*
X1060805Y-1394917D01*
X1061161Y-1378661D01*
X1061466Y-1373276D01*
X1061974Y-1369364D01*
X1062583Y-1366570D01*
X1063396Y-1364640D01*
X1064412Y-1363268D01*
X1075029Y-1354175D01*
X1082649Y-1347114D01*
X1088644Y-1341120D01*
X1091438Y-1337614D01*
X1091895Y-1331264D01*
X1088644Y-1326946D01*
X1083411Y-1325727D01*
X1077772Y-1328775D01*
X1071321Y-1335024D01*
X1060958Y-1344574D01*
X1050696Y-1354531D01*
X1047445Y-1358239D01*
X1045565Y-1360830D01*
X1043279Y-1365097D01*
X1042822Y-1505559D01*
X1042365Y-1506575D01*
X1039114Y-1510284D01*
X1032256Y-1516938D01*
X1028852Y-1521561D01*
X1026617Y-1526184D01*
X1025550Y-1530807D01*
X1025652Y-1535430D01*
X1026921Y-1539951D01*
X1029360Y-1544370D01*
X1033018Y-1548638D01*
X1034542Y-1552143D01*
X1032052Y-1554530D01*
X1027074Y-1555191D01*
X1020927Y-1553514D01*
X1017981Y-1552092D01*
X1017625Y-1390700D01*
X1017371Y-1350975D01*
X1016812Y-1333855D01*
X1016406Y-1330604D01*
X1015847Y-1329232D01*
X1013256Y-1326997D01*
X1010869Y-1325880D01*
G37*
G36*
X922985Y-2089353D02*
G01*
X917803Y-2090115D01*
X913739Y-2093925D01*
X911656Y-2100376D01*
X911301Y-2108657D01*
X911047Y-2123795D01*
X911098Y-2169871D01*
X911555Y-2186482D01*
X912368Y-2192274D01*
X913841Y-2196338D01*
X916381Y-2199182D01*
X924712Y-2203500D01*
X951636Y-2215184D01*
X955497Y-2216454D01*
X957630Y-2216810D01*
X960374Y-2218029D01*
X963168Y-2219807D01*
X965708Y-2221026D01*
X967232Y-2221331D01*
X968705Y-2222042D01*
X970127Y-2223211D01*
X972972Y-2224532D01*
X976528Y-2225649D01*
X980541Y-2227376D01*
X983691Y-2229104D01*
X986434Y-2230272D01*
X988060Y-2230475D01*
X989279Y-2230932D01*
X990193Y-2231694D01*
X1000760Y-2236216D01*
X1003350Y-2237638D01*
X1006297Y-2238857D01*
X1008938Y-2239619D01*
X1011834Y-2240838D01*
X1014272Y-2242210D01*
X1017168Y-2243429D01*
X1019860Y-2244242D01*
X1023213Y-2245766D01*
X1026261Y-2247493D01*
X1029258Y-2248611D01*
X1031341Y-2248916D01*
X1033221Y-2249627D01*
X1034643Y-2250795D01*
X1037488Y-2252116D01*
X1041044Y-2253284D01*
X1045006Y-2255012D01*
X1050442Y-2257806D01*
X1051966Y-2258161D01*
X1059129Y-2261158D01*
X1062532Y-2262378D01*
X1064056Y-2262682D01*
X1064107Y-2263089D01*
X1063650Y-2263851D01*
X1060602Y-2266543D01*
X1057198Y-2268372D01*
X1051458Y-2271064D01*
X1023416Y-2282799D01*
X1020876Y-2283612D01*
X1018743Y-2284577D01*
X1016203Y-2286101D01*
X1009599Y-2288489D01*
X953414Y-2312670D01*
X943660Y-2316429D01*
X918057Y-2328164D01*
X916025Y-2329332D01*
X914450Y-2330856D01*
X913231Y-2332888D01*
X912368Y-2335733D01*
X911809Y-2339594D01*
X911250Y-2351532D01*
X911250Y-2411069D01*
X911504Y-2425649D01*
X911758Y-2429510D01*
X912114Y-2431796D01*
X912621Y-2433167D01*
X913333Y-2434132D01*
X916330Y-2436317D01*
X920546Y-2437231D01*
X925321Y-2436774D01*
X930097Y-2434945D01*
X933551Y-2433320D01*
X937920Y-2431948D01*
X943965Y-2428697D01*
X948283Y-2427325D01*
X953719Y-2424074D01*
X957732Y-2422753D01*
X964946Y-2419451D01*
X971550Y-2417419D01*
X976884Y-2414778D01*
X982421Y-2412847D01*
X987196Y-2410155D01*
X991311Y-2408936D01*
X997305Y-2405684D01*
X1001420Y-2404364D01*
X1008532Y-2401062D01*
X1014476Y-2399080D01*
X1018844Y-2396388D01*
X1023112Y-2395220D01*
X1029665Y-2391918D01*
X1036574Y-2389428D01*
X1037844Y-2388514D01*
X1038148Y-2388057D01*
X1040384Y-2387092D01*
X1043889Y-2386076D01*
X1047445Y-2384653D01*
X1049934Y-2383282D01*
X1052830Y-2382062D01*
X1055471Y-2381300D01*
X1058316Y-2379980D01*
X1060551Y-2378557D01*
X1062736Y-2377592D01*
X1064463Y-2377287D01*
X1067155Y-2376170D01*
X1070305Y-2374442D01*
X1074420Y-2372614D01*
X1078077Y-2371394D01*
X1080922Y-2370074D01*
X1082243Y-2369007D01*
X1084021Y-2368346D01*
X1086104Y-2368092D01*
X1089152Y-2366975D01*
X1092149Y-2365248D01*
X1095298Y-2363774D01*
X1097635Y-2363012D01*
X1100074Y-2361742D01*
X1102055Y-2360218D01*
X1103985Y-2359253D01*
X1106830Y-2358694D01*
X1112266Y-2356510D01*
X1114145Y-2355189D01*
X1116076Y-2354427D01*
X1118768Y-2353818D01*
X1121816Y-2352598D01*
X1124305Y-2351176D01*
X1127302Y-2349906D01*
X1129995Y-2349093D01*
X1132992Y-2347823D01*
X1135380Y-2346401D01*
X1137564Y-2345436D01*
X1139088Y-2345131D01*
X1141628Y-2344115D01*
X1144778Y-2342489D01*
X1149045Y-2340762D01*
X1153007Y-2339543D01*
X1156157Y-2338120D01*
X1157630Y-2336952D01*
X1159205Y-2336190D01*
X1160881Y-2335936D01*
X1163624Y-2334768D01*
X1166672Y-2333040D01*
X1169924Y-2331567D01*
X1172413Y-2330805D01*
X1174902Y-2329484D01*
X1176782Y-2328011D01*
X1178814Y-2327046D01*
X1180693Y-2326741D01*
X1183640Y-2325522D01*
X1186738Y-2323744D01*
X1189634Y-2322525D01*
X1191615Y-2322118D01*
X1195070Y-2320899D01*
X1201826Y-2317597D01*
X1393799Y-2317597D01*
X1454251Y-2317242D01*
X1472387Y-2316784D01*
X1475333Y-2316073D01*
X1477010Y-2315006D01*
X1478178Y-2312822D01*
X1478940Y-2308910D01*
X1479397Y-2302560D01*
X1479600Y-2280056D01*
X1479245Y-2215743D01*
X1473708Y-2210663D01*
X1249121Y-2210257D01*
X1224178Y-2209952D01*
X1208786Y-2209292D01*
X1203756Y-2208834D01*
X1199946Y-2208225D01*
X1194460Y-2206599D01*
X1184757Y-2202281D01*
X1141222Y-2183790D01*
X1118717Y-2173630D01*
X1112215Y-2171395D01*
X1048359Y-2143353D01*
X1012850Y-2128215D01*
X1006957Y-2125980D01*
X1005027Y-2125522D01*
X1003706Y-2124811D01*
X1002487Y-2123744D01*
X1000709Y-2122678D01*
X994156Y-2120239D01*
X971753Y-2110384D01*
X966266Y-2108200D01*
X961085Y-2106574D01*
X952753Y-2102662D01*
X948182Y-2100021D01*
X945997Y-2099106D01*
X944219Y-2098751D01*
X940460Y-2097328D01*
X935939Y-2095144D01*
X932332Y-2093671D01*
X930859Y-2093366D01*
X929284Y-2092604D01*
X928573Y-2092045D01*
G37*
G36*
X1414068Y-2621330D02*
G01*
X1388821Y-2621686D01*
X1383893Y-2621991D01*
X1381252Y-2622753D01*
X1380286Y-2623769D01*
X1379524Y-2625902D01*
X1378966Y-2629712D01*
X1378508Y-2635707D01*
X1378000Y-2656281D01*
X1377391Y-2816961D01*
X1376934Y-2860192D01*
X1376680Y-2866491D01*
X1372666Y-2866999D01*
X1348536Y-2867507D01*
X1303172Y-2867558D01*
X1269085Y-2867101D01*
X1256792Y-2866694D01*
X1249629Y-2866237D01*
X1248410Y-2865983D01*
X1246378Y-2864256D01*
X1246378Y-2624988D01*
X1244041Y-2623058D01*
X1242110Y-2622448D01*
X1236573Y-2622042D01*
X1224838Y-2621737D01*
X1171854Y-2621483D01*
X916736Y-2621483D01*
X913739Y-2624429D01*
X912215Y-2627122D01*
X911707Y-2628493D01*
X911199Y-2651861D01*
X910945Y-2707132D01*
X911199Y-2846882D01*
X911555Y-2914294D01*
X912114Y-2958287D01*
X912571Y-2967583D01*
X913637Y-2969361D01*
X915009Y-2970733D01*
X917295Y-2971698D01*
X921105Y-2972358D01*
X926998Y-2972714D01*
X947623Y-2973019D01*
X1007567Y-2973019D01*
X1013510Y-2968599D01*
X1014069Y-2728722D01*
X1014425Y-2727502D01*
X1015136Y-2726791D01*
X1016355Y-2726385D01*
X1020876Y-2726080D01*
X1045413Y-2725775D01*
X1099312Y-2725724D01*
X1129995Y-2725978D01*
X1143203Y-2726436D01*
X1143558Y-2731566D01*
X1144016Y-2769971D01*
X1144320Y-2934462D01*
X1144828Y-2957372D01*
X1145336Y-2963570D01*
X1146048Y-2967329D01*
X1146911Y-2969463D01*
X1148029Y-2970631D01*
X1149400Y-2971546D01*
X1152753Y-2972206D01*
X1162456Y-2972663D01*
X1231290Y-2973019D01*
X1473657Y-2973019D01*
X1479245Y-2968599D01*
X1479600Y-2679293D01*
X1479397Y-2651302D01*
X1478940Y-2634640D01*
X1478178Y-2626207D01*
X1477670Y-2624124D01*
X1477111Y-2623007D01*
X1476400Y-2622448D01*
X1474622Y-2622092D01*
X1466951Y-2621737D01*
X1438757Y-2621381D01*
G37*
G36*
X980795Y-3174390D02*
G01*
X950061Y-3174593D01*
X930351Y-3175152D01*
X923848Y-3175609D01*
X919175Y-3176219D01*
X915974Y-3176930D01*
X913993Y-3177844D01*
X912876Y-3178962D01*
X912368Y-3180232D01*
X911758Y-3183483D01*
X911402Y-3190646D01*
X910945Y-3232099D01*
X910945Y-3354984D01*
X911402Y-3438194D01*
X912063Y-3495497D01*
X912469Y-3513632D01*
X912977Y-3522878D01*
X914298Y-3524554D01*
X915974Y-3525824D01*
X918514Y-3526739D01*
X922426Y-3527348D01*
X928268Y-3527755D01*
X947826Y-3528060D01*
X996594Y-3527806D01*
X1002690Y-3527450D01*
X1006906Y-3526942D01*
X1009650Y-3526231D01*
X1011275Y-3525265D01*
X1012342Y-3524046D01*
X1012799Y-3519576D01*
X1013155Y-3506825D01*
X1013561Y-3450234D01*
X1013968Y-3312109D01*
X1014323Y-3293008D01*
X1014831Y-3284829D01*
X1015237Y-3283305D01*
X1015695Y-3282594D01*
X1016914Y-3282289D01*
X1024026Y-3281781D01*
X1052068Y-3281019D01*
X1088847Y-3280562D01*
X1122730Y-3280664D01*
X1134922Y-3280918D01*
X1142034Y-3281273D01*
X1143203Y-3281578D01*
X1143558Y-3286912D01*
X1144016Y-3326231D01*
X1144219Y-3462223D01*
X1144473Y-3498951D01*
X1144778Y-3510076D01*
X1145286Y-3517442D01*
X1145946Y-3521964D01*
X1146352Y-3523386D01*
X1147419Y-3525062D01*
X1148740Y-3525977D01*
X1150112Y-3526485D01*
X1158798Y-3526942D01*
X1201216Y-3527704D01*
X1265783Y-3528110D01*
X1374444Y-3528212D01*
X1435049Y-3527856D01*
X1456740Y-3527551D01*
X1473657Y-3526891D01*
X1476197Y-3526028D01*
X1476908Y-3525265D01*
X1477568Y-3523792D01*
X1478076Y-3521456D01*
X1478534Y-3517798D01*
X1479143Y-3505708D01*
X1479448Y-3485083D01*
X1479499Y-3349040D01*
X1479245Y-3179826D01*
X1473708Y-3174746D01*
X1396542Y-3174898D01*
X1387398Y-3175254D01*
X1385112Y-3175609D01*
X1383741Y-3176066D01*
X1381963Y-3177184D01*
X1380693Y-3178251D01*
X1379677Y-3180130D01*
X1378915Y-3183636D01*
X1378356Y-3189528D01*
X1377746Y-3212033D01*
X1377188Y-3398367D01*
X1376730Y-3421634D01*
X1363319Y-3422091D01*
X1294790Y-3422497D01*
X1263243Y-3422345D01*
X1249222Y-3421989D01*
X1248460Y-3421583D01*
X1247851Y-3420465D01*
X1247343Y-3417925D01*
X1246733Y-3405632D01*
X1246479Y-3378809D01*
X1246378Y-3179927D01*
X1241552Y-3174746D01*
G37*
G36*
X1021435Y-3727653D02*
G01*
X964437Y-3727958D01*
X945387Y-3728313D01*
X931570Y-3728821D01*
X922121Y-3729532D01*
X916228Y-3730498D01*
X913028Y-3731768D01*
X912215Y-3732479D01*
X911606Y-3734155D01*
X911758Y-3736746D01*
X911453Y-3749649D01*
X911250Y-3796690D01*
X911148Y-3978401D01*
X911555Y-4050385D01*
X912012Y-4065422D01*
X912368Y-4070197D01*
X913028Y-4074769D01*
X913637Y-4076496D01*
X914298Y-4077614D01*
X919175Y-4081373D01*
X1007008Y-4081373D01*
X1013510Y-4076039D01*
X1014018Y-3887165D01*
X1014526Y-3843985D01*
X1015034Y-3835958D01*
X1018844Y-3835298D01*
X1028649Y-3834739D01*
X1059992Y-3833926D01*
X1097381Y-3833622D01*
X1129080Y-3833977D01*
X1139139Y-3834384D01*
X1143355Y-3834993D01*
X1143711Y-3845610D01*
X1144016Y-3872890D01*
X1144320Y-3967683D01*
X1144778Y-3981754D01*
X1145133Y-3986225D01*
X1145641Y-3989324D01*
X1146251Y-3991406D01*
X1147013Y-3992676D01*
X1149096Y-3994099D01*
X1153668Y-3994454D01*
X1179322Y-3994912D01*
X1213104Y-3994962D01*
X1238554Y-3994658D01*
X1242974Y-3994302D01*
X1244396Y-3992930D01*
X1244904Y-3991559D01*
X1245666Y-3986225D01*
X1246073Y-3975709D01*
X1246327Y-3957878D01*
X1246428Y-3871671D01*
X1246733Y-3843731D01*
X1247089Y-3837889D01*
X1247648Y-3835450D01*
X1247952Y-3834993D01*
X1251966Y-3834637D01*
X1276299Y-3834129D01*
X1321968Y-3833977D01*
X1368552Y-3834485D01*
X1376730Y-3834993D01*
X1376984Y-3841242D01*
X1377340Y-3883609D01*
X1377645Y-4042664D01*
X1378254Y-4065320D01*
X1378813Y-4071467D01*
X1379524Y-4075125D01*
X1380540Y-4077208D01*
X1381760Y-4078478D01*
X1385519Y-4081373D01*
X1472742Y-4081373D01*
X1479245Y-4076039D01*
X1479550Y-3785920D01*
X1479296Y-3758234D01*
X1478788Y-3742029D01*
X1478432Y-3737203D01*
X1477924Y-3734003D01*
X1477365Y-3732072D01*
X1476654Y-3730955D01*
X1472641Y-3728008D01*
G37*
G36*
X922070Y-4262780D02*
G01*
X917092Y-4263491D01*
X913434Y-4267098D01*
X911606Y-4273296D01*
X911098Y-4281932D01*
X910844Y-4294632D01*
X910996Y-4325975D01*
X911301Y-4341469D01*
X911809Y-4354779D01*
X912723Y-4367225D01*
X913079Y-4368546D01*
X915162Y-4371035D01*
X917549Y-4373270D01*
X919987Y-4374997D01*
X944880Y-4385360D01*
X947013Y-4385767D01*
X957529Y-4390034D01*
X959103Y-4390390D01*
X961288Y-4391609D01*
X963777Y-4393387D01*
X966114Y-4394606D01*
X967689Y-4394962D01*
X970381Y-4396181D01*
X973480Y-4398010D01*
X976630Y-4399229D01*
X978712Y-4399483D01*
X980541Y-4400194D01*
X981862Y-4401261D01*
X984148Y-4402582D01*
X1002690Y-4410405D01*
X1009396Y-4413046D01*
X1012342Y-4414012D01*
X1014425Y-4415028D01*
X1016762Y-4416755D01*
X1018286Y-4417110D01*
X1039926Y-4426254D01*
X1048816Y-4430217D01*
X1051915Y-4431385D01*
X1053388Y-4431690D01*
X1055471Y-4432655D01*
X1057859Y-4434078D01*
X1060754Y-4435348D01*
X1064768Y-4436364D01*
X1060907Y-4439970D01*
X1058113Y-4441698D01*
X1055725Y-4442460D01*
X1052982Y-4443628D01*
X1050493Y-4445050D01*
X1046937Y-4446473D01*
X1043482Y-4447540D01*
X1040637Y-4448860D01*
X1039215Y-4450029D01*
X1037691Y-4450740D01*
X1036015Y-4451045D01*
X1032916Y-4452213D01*
X1027379Y-4454804D01*
X1021232Y-4456836D01*
X1015898Y-4459681D01*
X1009142Y-4461967D01*
X1005332Y-4464304D01*
X999744Y-4466132D01*
X994765Y-4468723D01*
X990904Y-4469892D01*
X970838Y-4478629D01*
X967994Y-4479493D01*
X964031Y-4481779D01*
X960882Y-4483303D01*
X947521Y-4488383D01*
X945946Y-4488688D01*
X943813Y-4489602D01*
X941324Y-4491024D01*
X937818Y-4492548D01*
X934364Y-4493666D01*
X931468Y-4494885D01*
X929792Y-4495952D01*
X927709Y-4496917D01*
X924153Y-4498187D01*
X915314Y-4502861D01*
X913841Y-4504131D01*
X912774Y-4506366D01*
X912063Y-4510227D01*
X911656Y-4516475D01*
X911352Y-4538878D01*
X911352Y-4593132D01*
X911758Y-4603038D01*
X912114Y-4605375D01*
X912621Y-4606747D01*
X913282Y-4607712D01*
X915924Y-4609592D01*
X919581Y-4610608D01*
X923645Y-4610658D01*
X927404Y-4609642D01*
X941069Y-4603445D01*
X947978Y-4600854D01*
X952093Y-4598314D01*
X955192Y-4596790D01*
X958545Y-4595622D01*
X964488Y-4592777D01*
X970381Y-4591202D01*
X974445Y-4588814D01*
X981354Y-4586478D01*
X982827Y-4585716D01*
X984656Y-4584242D01*
X986739Y-4583328D01*
X988821Y-4583023D01*
X991819Y-4581906D01*
X996594Y-4579315D01*
X1002436Y-4577232D01*
X1007465Y-4574540D01*
X1011377Y-4573320D01*
X1018286Y-4570069D01*
X1022400Y-4568748D01*
X1028446Y-4565497D01*
X1033068Y-4564176D01*
X1039469Y-4560874D01*
X1045464Y-4558893D01*
X1050442Y-4556201D01*
X1054506Y-4554829D01*
X1057503Y-4553559D01*
X1061974Y-4551172D01*
X1063498Y-4550867D01*
X1070660Y-4547870D01*
X1080414Y-4543348D01*
X1083716Y-4542028D01*
X1085240Y-4541672D01*
X1091082Y-4538675D01*
X1093927Y-4537456D01*
X1095603Y-4537049D01*
X1098296Y-4535830D01*
X1101344Y-4534052D01*
X1103985Y-4532833D01*
X1105560Y-4532477D01*
X1108049Y-4531360D01*
X1111046Y-4529632D01*
X1115060Y-4527956D01*
X1118616Y-4526788D01*
X1121460Y-4525467D01*
X1122832Y-4524298D01*
X1124254Y-4523587D01*
X1127658Y-4522825D01*
X1140155Y-4517999D01*
X1172972Y-4503775D01*
X1183182Y-4499559D01*
X1185418Y-4498848D01*
X1186586Y-4498136D01*
X1187145Y-4497425D01*
X1189380Y-4496460D01*
X1192784Y-4495393D01*
X1195832Y-4494123D01*
X1197254Y-4493158D01*
X1198626Y-4492548D01*
X1200810Y-4491990D01*
X1209294Y-4491228D01*
X1226058Y-4490770D01*
X1254302Y-4490466D01*
X1473657Y-4490364D01*
X1479245Y-4485944D01*
X1479600Y-4423714D01*
X1479448Y-4401769D01*
X1479042Y-4395266D01*
X1478432Y-4390999D01*
X1477518Y-4388307D01*
X1476197Y-4386732D01*
X1474012Y-4385360D01*
X1472692Y-4384903D01*
X1465783Y-4384344D01*
X1448257Y-4383989D01*
X1251051Y-4383735D01*
X1223264Y-4383481D01*
X1207262Y-4382973D01*
X1199438Y-4382109D01*
X1197457Y-4381550D01*
X1193749Y-4379264D01*
X1188008Y-4377131D01*
X1151483Y-4361281D01*
X1146098Y-4359249D01*
X1144168Y-4358843D01*
X1142695Y-4358132D01*
X1141476Y-4357065D01*
X1139698Y-4355998D01*
X1132840Y-4353407D01*
X1114094Y-4345482D01*
X1105255Y-4341977D01*
X1095095Y-4337050D01*
X1093622Y-4336745D01*
X1044244Y-4315053D01*
X1038656Y-4313072D01*
X1036015Y-4311853D01*
X1033678Y-4310481D01*
X1031036Y-4309262D01*
X1022146Y-4305808D01*
X980236Y-4287469D01*
X953363Y-4276344D01*
X947115Y-4273042D01*
X943152Y-4271772D01*
X934516Y-4267860D01*
X930097Y-4266488D01*
X927760Y-4265168D01*
G37*
D10*
X-9486991Y1797827D02*
G01*
X-9455172Y1797827D01*
X-9451992Y1769188D01*
X-9455172Y1772371D01*
X-9464718Y1775553D01*
X-9474263Y1775553D01*
X-9483808Y1772371D01*
X-9490174Y1766008D01*
X-9493356Y1756463D01*
X-9493356Y1750098D01*
X-9490174Y1740552D01*
X-9483808Y1734190D01*
X-9474263Y1731007D01*
X-9464718Y1731007D01*
X-9455172Y1734190D01*
X-9451992Y1737372D01*
X-9448810Y1743735D01*
X-9514354Y1797827D02*
G01*
X-9539810Y1731007D01*
X-9565264Y1797827D02*
G01*
X-9539810Y1731007D01*
X-9283753Y1670837D02*
G01*
X-9258300Y1604017D01*
X-9283753Y1670837D02*
G01*
X-9309209Y1604017D01*
X-9267845Y1626290D02*
G01*
X-9299663Y1626290D01*
X-9333390Y1642198D02*
G01*
X-9330209Y1639018D01*
X-9333390Y1635836D01*
X-9336572Y1639018D01*
X-9333390Y1642198D01*
X-9333390Y1619928D02*
G01*
X-9330209Y1616745D01*
X-9333390Y1613562D01*
X-9336572Y1616745D01*
X-9333390Y1619928D01*
D11*
X2094631Y-624459D02*
G01*
X2185314Y-624459D01*
X2094631Y-624459D02*
G01*
X2094631Y-654687D01*
X2098949Y-667641D01*
X2107585Y-676277D01*
X2116221Y-680595D01*
X2129177Y-684913D01*
X2150767Y-684913D01*
X2163721Y-680595D01*
X2172360Y-676277D01*
X2180996Y-667641D01*
X2185314Y-654687D01*
X2185314Y-624459D01*
X2133495Y-717732D02*
G01*
X2137813Y-713414D01*
X2142131Y-717732D01*
X2137813Y-722050D01*
X2133495Y-717732D01*
X2163721Y-717732D02*
G01*
X2168042Y-713414D01*
X2172360Y-717732D01*
X2168042Y-722050D01*
X2163721Y-717732D01*
X2094631Y-817051D02*
G01*
X2185314Y-851598D01*
X2094631Y-886145D02*
G01*
X2185314Y-851598D01*
X2094631Y-914643D02*
G01*
X2185314Y-914643D01*
X2094631Y-914643D02*
G01*
X2094631Y-970780D01*
X2137813Y-914643D02*
G01*
X2137813Y-949190D01*
X2185314Y-914643D02*
G01*
X2185314Y-970780D01*
X2107585Y-1059736D02*
G01*
X2098949Y-1051100D01*
X2094631Y-1038146D01*
X2094631Y-1020871D01*
X2098949Y-1007917D01*
X2107585Y-999281D01*
X2116221Y-999281D01*
X2124859Y-1003599D01*
X2129177Y-1007917D01*
X2133495Y-1016553D01*
X2142131Y-1042464D01*
X2146449Y-1051100D01*
X2150767Y-1055418D01*
X2159403Y-1059736D01*
X2172360Y-1059736D01*
X2180996Y-1051100D01*
X2185314Y-1038146D01*
X2185314Y-1020871D01*
X2180996Y-1007917D01*
X2172360Y-999281D01*
X2116221Y-1153010D02*
G01*
X2107585Y-1148692D01*
X2098949Y-1140056D01*
X2094631Y-1131420D01*
X2094631Y-1114145D01*
X2098949Y-1105509D01*
X2107585Y-1096873D01*
X2116221Y-1092555D01*
X2129177Y-1088237D01*
X2150767Y-1088237D01*
X2163721Y-1092555D01*
X2172360Y-1096873D01*
X2180996Y-1105509D01*
X2185314Y-1114145D01*
X2185314Y-1131420D01*
X2180996Y-1140056D01*
X2172360Y-1148692D01*
X2163721Y-1153010D01*
X2146449Y-1181511D02*
G01*
X2146449Y-1259238D01*
X2094631Y-1287739D02*
G01*
X2185314Y-1287739D01*
X2094631Y-1287739D02*
G01*
X2094631Y-1343875D01*
X2137813Y-1287739D02*
G01*
X2137813Y-1322285D01*
X2185314Y-1287739D02*
G01*
X2185314Y-1343875D01*
X2124859Y-1372377D02*
G01*
X2185314Y-1372377D01*
X2142131Y-1372377D02*
G01*
X2129177Y-1385331D01*
X2124859Y-1393967D01*
X2124859Y-1406921D01*
X2129177Y-1415559D01*
X2142131Y-1419877D01*
X2185314Y-1419877D01*
X2124859Y-1500195D02*
G01*
X2185314Y-1500195D01*
X2137813Y-1500195D02*
G01*
X2129177Y-1491559D01*
X2124859Y-1482923D01*
X2124859Y-1469969D01*
X2129177Y-1461333D01*
X2137813Y-1452694D01*
X2150767Y-1448376D01*
X2159403Y-1448376D01*
X2172360Y-1452694D01*
X2180996Y-1461333D01*
X2185314Y-1469969D01*
X2185314Y-1482923D01*
X2180996Y-1491559D01*
X2172360Y-1500195D01*
X2094631Y-1528696D02*
G01*
X2185314Y-1528696D01*
X2137813Y-1528696D02*
G01*
X2129177Y-1537332D01*
X2124859Y-1545968D01*
X2124859Y-1558925D01*
X2129177Y-1567561D01*
X2137813Y-1576196D01*
X2150767Y-1580514D01*
X2159403Y-1580514D01*
X2172360Y-1576196D01*
X2180996Y-1567561D01*
X2185314Y-1558925D01*
X2185314Y-1545968D01*
X2180996Y-1537332D01*
X2172360Y-1528696D01*
X2094631Y-1609016D02*
G01*
X2185314Y-1609016D01*
X2150767Y-1637515D02*
G01*
X2150767Y-1689333D01*
X2142131Y-1689333D01*
X2133495Y-1685015D01*
X2129177Y-1680697D01*
X2124859Y-1672061D01*
X2124859Y-1659107D01*
X2129177Y-1650471D01*
X2137813Y-1641833D01*
X2150767Y-1637515D01*
X2159403Y-1637515D01*
X2172360Y-1641833D01*
X2180996Y-1650471D01*
X2185314Y-1659107D01*
X2185314Y-1672061D01*
X2180996Y-1680697D01*
X2172360Y-1689333D01*
X2133495Y-1722153D02*
G01*
X2137813Y-1717835D01*
X2142131Y-1722153D01*
X2137813Y-1726471D01*
X2133495Y-1722153D01*
X2163721Y-1722153D02*
G01*
X2168042Y-1717835D01*
X2172360Y-1722153D01*
X2168042Y-1726471D01*
X2163721Y-1722153D01*
X2094631Y-1821472D02*
G01*
X2185314Y-1821472D01*
X2094631Y-1821472D02*
G01*
X2094631Y-1860336D01*
X2098949Y-1873290D01*
X2103267Y-1877608D01*
X2111903Y-1881926D01*
X2120541Y-1881926D01*
X2129177Y-1877608D01*
X2133495Y-1873290D01*
X2137813Y-1860336D01*
X2137813Y-1821472D02*
G01*
X2137813Y-1860336D01*
X2142131Y-1873290D01*
X2146449Y-1877608D01*
X2155085Y-1881926D01*
X2168042Y-1881926D01*
X2176678Y-1877608D01*
X2180996Y-1873290D01*
X2185314Y-1860336D01*
X2185314Y-1821472D01*
X2094631Y-1910427D02*
G01*
X2185314Y-1910427D01*
X2094631Y-1910427D02*
G01*
X2185314Y-1944974D01*
X2094631Y-1979521D02*
G01*
X2185314Y-1944974D01*
X2094631Y-1979521D02*
G01*
X2185314Y-1979521D01*
X2094631Y-2033930D02*
G01*
X2098949Y-2020973D01*
X2111903Y-2012337D01*
X2133495Y-2008019D01*
X2146449Y-2008019D01*
X2168042Y-2012337D01*
X2180996Y-2020973D01*
X2185314Y-2033930D01*
X2185314Y-2042566D01*
X2180996Y-2055520D01*
X2168042Y-2064156D01*
X2146449Y-2068474D01*
X2133495Y-2068474D01*
X2111903Y-2064156D01*
X2098949Y-2055520D01*
X2094631Y-2042566D01*
X2094631Y-2033930D01*
X2116221Y-2101293D02*
G01*
X2111903Y-2101293D01*
X2103267Y-2105611D01*
X2098949Y-2109929D01*
X2094631Y-2118565D01*
X2094631Y-2135840D01*
X2098949Y-2144476D01*
X2103267Y-2148794D01*
X2111903Y-2153112D01*
X2120541Y-2153112D01*
X2129177Y-2148794D01*
X2142131Y-2140158D01*
X2185314Y-2096975D01*
X2185314Y-2157430D01*
X2094631Y-2185931D02*
G01*
X2185314Y-2185931D01*
X2094631Y-2185931D02*
G01*
X2094631Y-2224796D01*
X2098949Y-2237750D01*
X2103267Y-2242068D01*
X2111903Y-2246386D01*
X2120541Y-2246386D01*
X2129177Y-2242068D01*
X2133495Y-2237750D01*
X2137813Y-2224796D01*
X2137813Y-2185931D02*
G01*
X2137813Y-2224796D01*
X2142131Y-2237750D01*
X2146449Y-2242068D01*
X2155085Y-2246386D01*
X2168042Y-2246386D01*
X2176678Y-2242068D01*
X2180996Y-2237750D01*
X2185314Y-2224796D01*
X2185314Y-2185931D01*
X2146449Y-2274887D02*
G01*
X2146449Y-2352614D01*
X2116221Y-2445887D02*
G01*
X2107585Y-2441569D01*
X2098949Y-2432933D01*
X2094631Y-2424297D01*
X2094631Y-2407025D01*
X2098949Y-2398387D01*
X2107585Y-2389751D01*
X2116221Y-2385433D01*
X2129177Y-2381115D01*
X2150767Y-2381115D01*
X2163721Y-2385433D01*
X2172360Y-2389751D01*
X2180996Y-2398387D01*
X2185314Y-2407025D01*
X2185314Y-2424297D01*
X2180996Y-2432933D01*
X2172360Y-2441569D01*
X2163721Y-2445887D01*
X2150767Y-2445887D01*
X2150767Y-2424297D02*
G01*
X2150767Y-2445887D01*
X2094631Y-2474389D02*
G01*
X2185314Y-2474389D01*
X2094631Y-2534843D02*
G01*
X2185314Y-2534843D01*
X2137813Y-2474389D02*
G01*
X2137813Y-2534843D01*
X2107585Y-2623799D02*
G01*
X2098949Y-2615163D01*
X2094631Y-2602209D01*
X2094631Y-2584935D01*
X2098949Y-2571981D01*
X2107585Y-2563345D01*
X2116221Y-2563345D01*
X2124859Y-2567663D01*
X2129177Y-2571981D01*
X2133495Y-2580617D01*
X2142131Y-2606527D01*
X2146449Y-2615163D01*
X2150767Y-2619481D01*
X2159403Y-2623799D01*
X2172360Y-2623799D01*
X2180996Y-2615163D01*
X2185314Y-2602209D01*
X2185314Y-2584935D01*
X2180996Y-2571981D01*
X2172360Y-2563345D01*
X2146449Y-2652301D02*
G01*
X2146449Y-2730027D01*
X2094631Y-2788757D02*
G01*
X2185314Y-2788757D01*
X2094631Y-2758528D02*
G01*
X2094631Y-2818983D01*
X2094631Y-2847484D02*
G01*
X2185314Y-2847484D01*
X2094631Y-2847484D02*
G01*
X2094631Y-2886349D01*
X2098949Y-2899303D01*
X2103267Y-2903621D01*
X2111903Y-2907939D01*
X2120541Y-2907939D01*
X2129177Y-2903621D01*
X2133495Y-2899303D01*
X2137813Y-2886349D01*
X2137813Y-2847484D02*
G01*
X2137813Y-2886349D01*
X2142131Y-2899303D01*
X2146449Y-2903621D01*
X2155085Y-2907939D01*
X2168042Y-2907939D01*
X2176678Y-2903621D01*
X2180996Y-2899303D01*
X2185314Y-2886349D01*
X2185314Y-2847484D01*
X2094631Y-2966666D02*
G01*
X2185314Y-2966666D01*
X2094631Y-2936440D02*
G01*
X2094631Y-2996895D01*
X2077359Y-3122124D02*
G01*
X2085995Y-3113486D01*
X2098949Y-3104850D01*
X2116221Y-3096214D01*
X2137813Y-3091896D01*
X2155085Y-3091896D01*
X2176678Y-3096214D01*
X2193950Y-3104850D01*
X2206904Y-3113486D01*
X2215542Y-3122124D01*
X2094631Y-3150623D02*
G01*
X2185314Y-3150623D01*
X2185314Y-3150623D02*
G01*
X2185314Y-3202442D01*
X2094631Y-3230943D02*
G01*
X2185314Y-3230943D01*
X2094631Y-3230943D02*
G01*
X2094631Y-3287080D01*
X2137813Y-3230943D02*
G01*
X2137813Y-3265490D01*
X2077359Y-3315581D02*
G01*
X2085995Y-3324217D01*
X2098949Y-3332853D01*
X2116221Y-3341489D01*
X2137813Y-3345807D01*
X2155085Y-3345807D01*
X2176678Y-3341489D01*
X2193950Y-3332853D01*
X2206904Y-3324217D01*
X2215542Y-3315581D01*
X2077359Y-3404537D02*
G01*
X2085995Y-3395898D01*
X2098949Y-3387262D01*
X2116221Y-3378626D01*
X2137813Y-3374308D01*
X2155085Y-3374308D01*
X2176678Y-3378626D01*
X2193950Y-3387262D01*
X2206904Y-3395898D01*
X2215542Y-3404537D01*
X2107585Y-3493490D02*
G01*
X2098949Y-3484854D01*
X2094631Y-3471900D01*
X2094631Y-3454628D01*
X2098949Y-3441672D01*
X2107585Y-3433036D01*
X2116221Y-3433036D01*
X2124859Y-3437354D01*
X2129177Y-3441672D01*
X2133495Y-3450308D01*
X2142131Y-3476218D01*
X2146449Y-3484854D01*
X2150767Y-3489172D01*
X2159403Y-3493490D01*
X2172360Y-3493490D01*
X2180996Y-3484854D01*
X2185314Y-3471900D01*
X2185314Y-3454628D01*
X2180996Y-3441672D01*
X2172360Y-3433036D01*
X2094631Y-3521991D02*
G01*
X2185314Y-3521991D01*
X2094631Y-3521991D02*
G01*
X2185314Y-3582446D01*
X2094631Y-3582446D02*
G01*
X2185314Y-3582446D01*
X2077359Y-3610947D02*
G01*
X2085995Y-3619583D01*
X2098949Y-3628219D01*
X2116221Y-3636855D01*
X2137813Y-3641176D01*
X2155085Y-3641176D01*
X2176678Y-3636855D01*
X2193950Y-3628219D01*
X2206904Y-3619583D01*
X2215542Y-3610947D01*
X1989221Y-676531D02*
G01*
X1980585Y-672213D01*
X1971949Y-663577D01*
X1967631Y-654941D01*
X1967631Y-637669D01*
X1971949Y-629030D01*
X1980585Y-620395D01*
X1989221Y-616077D01*
X2002177Y-611759D01*
X2023767Y-611759D01*
X2036721Y-616077D01*
X2045360Y-620395D01*
X2053996Y-629030D01*
X2058314Y-637669D01*
X2058314Y-654941D01*
X2053996Y-663577D01*
X2045360Y-672213D01*
X2036721Y-676531D01*
X2006495Y-709350D02*
G01*
X2010813Y-705032D01*
X2015131Y-709350D01*
X2010813Y-713668D01*
X2006495Y-709350D01*
X2036721Y-709350D02*
G01*
X2041042Y-705032D01*
X2045360Y-709350D01*
X2041042Y-713668D01*
X2036721Y-709350D01*
X1967631Y-808669D02*
G01*
X2058314Y-808669D01*
X1967631Y-808669D02*
G01*
X1967631Y-847534D01*
X1971949Y-860488D01*
X1976267Y-864806D01*
X1984903Y-869124D01*
X1993541Y-869124D01*
X2002177Y-864806D01*
X2006495Y-860488D01*
X2010813Y-847534D01*
X2010813Y-808669D01*
X2010813Y-838898D02*
G01*
X2058314Y-869124D01*
X2023767Y-897625D02*
G01*
X2023767Y-949444D01*
X2015131Y-949444D01*
X2006495Y-945126D01*
X2002177Y-940808D01*
X1997859Y-932172D01*
X1997859Y-919215D01*
X2002177Y-910579D01*
X2010813Y-901943D01*
X2023767Y-897625D01*
X2032403Y-897625D01*
X2045360Y-901943D01*
X2053996Y-910579D01*
X2058314Y-919215D01*
X2058314Y-932172D01*
X2053996Y-940808D01*
X2045360Y-949444D01*
X1997859Y-1029764D02*
G01*
X2058314Y-1029764D01*
X2010813Y-1029764D02*
G01*
X2002177Y-1021128D01*
X1997859Y-1012489D01*
X1997859Y-999535D01*
X2002177Y-990899D01*
X2010813Y-982263D01*
X2023767Y-977945D01*
X2032403Y-977945D01*
X2045360Y-982263D01*
X2053996Y-990899D01*
X2058314Y-999535D01*
X2058314Y-1012489D01*
X2053996Y-1021128D01*
X2045360Y-1029764D01*
X1997859Y-1058263D02*
G01*
X2058314Y-1058263D01*
X2023767Y-1058263D02*
G01*
X2010813Y-1062581D01*
X2002177Y-1071219D01*
X1997859Y-1079855D01*
X1997859Y-1092809D01*
X2006495Y-1125628D02*
G01*
X2010813Y-1121310D01*
X2015131Y-1125628D01*
X2010813Y-1129946D01*
X2006495Y-1125628D01*
X2036721Y-1125628D02*
G01*
X2041042Y-1121310D01*
X2045360Y-1125628D01*
X2041042Y-1129946D01*
X2036721Y-1125628D01*
X1980585Y-1285402D02*
G01*
X1971949Y-1276766D01*
X1967631Y-1263812D01*
X1967631Y-1246538D01*
X1971949Y-1233584D01*
X1980585Y-1224948D01*
X1989221Y-1224948D01*
X1997859Y-1229266D01*
X2002177Y-1233584D01*
X2006495Y-1242220D01*
X2015131Y-1268130D01*
X2019449Y-1276766D01*
X2023767Y-1281084D01*
X2032403Y-1285402D01*
X2045360Y-1285402D01*
X2053996Y-1276766D01*
X2058314Y-1263812D01*
X2058314Y-1246538D01*
X2053996Y-1233584D01*
X2045360Y-1224948D01*
X1967631Y-1313903D02*
G01*
X2058314Y-1313903D01*
X1967631Y-1313903D02*
G01*
X2058314Y-1348450D01*
X1967631Y-1382994D02*
G01*
X2058314Y-1348450D01*
X1967631Y-1382994D02*
G01*
X2058314Y-1382994D01*
X1984903Y-1411495D02*
G01*
X1980585Y-1420131D01*
X1967631Y-1433085D01*
X2058314Y-1433085D01*
X1967631Y-1513405D02*
G01*
X1967631Y-1470223D01*
X2006495Y-1465905D01*
X2002177Y-1470223D01*
X1997859Y-1483177D01*
X1997859Y-1496133D01*
X2002177Y-1509087D01*
X2010813Y-1517723D01*
X2023767Y-1522041D01*
X2032403Y-1522041D01*
X2045360Y-1517723D01*
X2053996Y-1509087D01*
X2058314Y-1496133D01*
X2058314Y-1483177D01*
X2053996Y-1470223D01*
X2049678Y-1465905D01*
X2041042Y-1461587D01*
X1967631Y-1550543D02*
G01*
X2058314Y-1550543D01*
X1967631Y-1550543D02*
G01*
X1967631Y-1589407D01*
X1971949Y-1602361D01*
X1976267Y-1606679D01*
X1984903Y-1610997D01*
X1993541Y-1610997D01*
X2002177Y-1606679D01*
X2006495Y-1602361D01*
X2010813Y-1589407D01*
X2010813Y-1550543D02*
G01*
X2010813Y-1589407D01*
X2015131Y-1602361D01*
X2019449Y-1606679D01*
X2028085Y-1610997D01*
X2041042Y-1610997D01*
X2049678Y-1606679D01*
X2053996Y-1602361D01*
X2058314Y-1589407D01*
X2058314Y-1550543D01*
X2019449Y-1639498D02*
G01*
X2019449Y-1717225D01*
X1989221Y-1810499D02*
G01*
X1980585Y-1806181D01*
X1971949Y-1797545D01*
X1967631Y-1788909D01*
X1967631Y-1771634D01*
X1971949Y-1762998D01*
X1980585Y-1754362D01*
X1989221Y-1750044D01*
X2002177Y-1745726D01*
X2023767Y-1745726D01*
X2036721Y-1750044D01*
X2045360Y-1754362D01*
X2053996Y-1762998D01*
X2058314Y-1771634D01*
X2058314Y-1788909D01*
X2053996Y-1797545D01*
X2045360Y-1806181D01*
X2036721Y-1810499D01*
X2023767Y-1810499D01*
X2023767Y-1788909D02*
G01*
X2023767Y-1810499D01*
X1967631Y-1839000D02*
G01*
X2058314Y-1839000D01*
X1967631Y-1899455D02*
G01*
X2058314Y-1899455D01*
X2010813Y-1839000D02*
G01*
X2010813Y-1899455D01*
X1980585Y-1988411D02*
G01*
X1971949Y-1979775D01*
X1967631Y-1966821D01*
X1967631Y-1949546D01*
X1971949Y-1936592D01*
X1980585Y-1927956D01*
X1989221Y-1927956D01*
X1997859Y-1932274D01*
X2002177Y-1936592D01*
X2006495Y-1945228D01*
X2015131Y-1971139D01*
X2019449Y-1979775D01*
X2023767Y-1984093D01*
X2032403Y-1988411D01*
X2045360Y-1988411D01*
X2053996Y-1979775D01*
X2058314Y-1966821D01*
X2058314Y-1949546D01*
X2053996Y-1936592D01*
X2045360Y-1927956D01*
X2019449Y-2016912D02*
G01*
X2019449Y-2094638D01*
X1967631Y-2153366D02*
G01*
X2058314Y-2153366D01*
X1967631Y-2123140D02*
G01*
X1967631Y-2183594D01*
X1967631Y-2212096D02*
G01*
X2058314Y-2212096D01*
X1967631Y-2212096D02*
G01*
X1967631Y-2250960D01*
X1971949Y-2263914D01*
X1976267Y-2268232D01*
X1984903Y-2272550D01*
X1993541Y-2272550D01*
X2002177Y-2268232D01*
X2006495Y-2263914D01*
X2010813Y-2250960D01*
X2010813Y-2212096D02*
G01*
X2010813Y-2250960D01*
X2015131Y-2263914D01*
X2019449Y-2268232D01*
X2028085Y-2272550D01*
X2041042Y-2272550D01*
X2049678Y-2268232D01*
X2053996Y-2263914D01*
X2058314Y-2250960D01*
X2058314Y-2212096D01*
X1950359Y-2331278D02*
G01*
X1958995Y-2322642D01*
X1971949Y-2314006D01*
X1989221Y-2305370D01*
X2010813Y-2301052D01*
X2028085Y-2301052D01*
X2049678Y-2305370D01*
X2066950Y-2314006D01*
X2079904Y-2322642D01*
X2088542Y-2331278D01*
X1967631Y-2359779D02*
G01*
X2058314Y-2359779D01*
X2058314Y-2359779D02*
G01*
X2058314Y-2411597D01*
X1967631Y-2440096D02*
G01*
X2058314Y-2440096D01*
X1967631Y-2440096D02*
G01*
X1967631Y-2496235D01*
X2010813Y-2440096D02*
G01*
X2010813Y-2474643D01*
X1950359Y-2524734D02*
G01*
X1958995Y-2533370D01*
X1971949Y-2542009D01*
X1989221Y-2550645D01*
X2010813Y-2554963D01*
X2028085Y-2554963D01*
X2049678Y-2550645D01*
X2066950Y-2542009D01*
X2079904Y-2533370D01*
X2088542Y-2524734D01*
X1950359Y-2613690D02*
G01*
X1958995Y-2605054D01*
X1971949Y-2596418D01*
X1989221Y-2587782D01*
X2010813Y-2583464D01*
X2028085Y-2583464D01*
X2049678Y-2587782D01*
X2066950Y-2596418D01*
X2079904Y-2605054D01*
X2088542Y-2613690D01*
X1980585Y-2702646D02*
G01*
X1971949Y-2694010D01*
X1967631Y-2681056D01*
X1967631Y-2663781D01*
X1971949Y-2650827D01*
X1980585Y-2642191D01*
X1989221Y-2642191D01*
X1997859Y-2646509D01*
X2002177Y-2650827D01*
X2006495Y-2659463D01*
X2015131Y-2685374D01*
X2019449Y-2694010D01*
X2023767Y-2698328D01*
X2032403Y-2702646D01*
X2045360Y-2702646D01*
X2053996Y-2694010D01*
X2058314Y-2681056D01*
X2058314Y-2663781D01*
X2053996Y-2650827D01*
X2045360Y-2642191D01*
X1967631Y-2731147D02*
G01*
X2058314Y-2731147D01*
X1967631Y-2731147D02*
G01*
X2058314Y-2791602D01*
X1967631Y-2791602D02*
G01*
X2058314Y-2791602D01*
X1950359Y-2820101D02*
G01*
X1958995Y-2828739D01*
X1971949Y-2837375D01*
X1989221Y-2846011D01*
X2010813Y-2850329D01*
X2028085Y-2850329D01*
X2049678Y-2846011D01*
X2066950Y-2837375D01*
X2079904Y-2828739D01*
X2088542Y-2820101D01*
X1840631Y-611759D02*
G01*
X1931314Y-611759D01*
X1840631Y-611759D02*
G01*
X1840631Y-650623D01*
X1844949Y-663577D01*
X1849267Y-667895D01*
X1857903Y-672213D01*
X1866541Y-672213D01*
X1875177Y-667895D01*
X1879495Y-663577D01*
X1883813Y-650623D01*
X1883813Y-611759D02*
G01*
X1883813Y-650623D01*
X1888131Y-663577D01*
X1892449Y-667895D01*
X1901085Y-672213D01*
X1914042Y-672213D01*
X1922678Y-667895D01*
X1926996Y-663577D01*
X1931314Y-650623D01*
X1931314Y-611759D01*
X1879495Y-705032D02*
G01*
X1883813Y-700714D01*
X1888131Y-705032D01*
X1883813Y-709350D01*
X1879495Y-705032D01*
X1909721Y-705032D02*
G01*
X1914042Y-700714D01*
X1918360Y-705032D01*
X1914042Y-709350D01*
X1909721Y-705032D01*
X1840631Y-804351D02*
G01*
X1931314Y-804351D01*
X1840631Y-804351D02*
G01*
X1840631Y-860488D01*
X1883813Y-804351D02*
G01*
X1883813Y-838898D01*
X1870859Y-888989D02*
G01*
X1931314Y-888989D01*
X1896767Y-888989D02*
G01*
X1883813Y-893307D01*
X1875177Y-901943D01*
X1870859Y-910579D01*
X1870859Y-923536D01*
X1870859Y-973627D02*
G01*
X1875177Y-964989D01*
X1883813Y-956353D01*
X1896767Y-952035D01*
X1905403Y-952035D01*
X1918360Y-956353D01*
X1926996Y-964989D01*
X1931314Y-973627D01*
X1931314Y-986581D01*
X1926996Y-995217D01*
X1918360Y-1003853D01*
X1905403Y-1008171D01*
X1896767Y-1008171D01*
X1883813Y-1003853D01*
X1875177Y-995217D01*
X1870859Y-986581D01*
X1870859Y-973627D01*
X1870859Y-1036673D02*
G01*
X1931314Y-1036673D01*
X1888131Y-1036673D02*
G01*
X1875177Y-1049627D01*
X1870859Y-1058263D01*
X1870859Y-1071219D01*
X1875177Y-1079855D01*
X1888131Y-1084173D01*
X1931314Y-1084173D01*
X1840631Y-1125628D02*
G01*
X1914042Y-1125628D01*
X1926996Y-1129946D01*
X1931314Y-1138582D01*
X1931314Y-1147218D01*
X1870859Y-1112674D02*
G01*
X1870859Y-1142900D01*
X1879495Y-1180038D02*
G01*
X1883813Y-1175720D01*
X1888131Y-1180038D01*
X1883813Y-1184356D01*
X1879495Y-1180038D01*
X1909721Y-1180038D02*
G01*
X1914042Y-1175720D01*
X1918360Y-1180038D01*
X1914042Y-1184356D01*
X1909721Y-1180038D01*
X1853585Y-1339811D02*
G01*
X1844949Y-1331175D01*
X1840631Y-1318221D01*
X1840631Y-1300949D01*
X1844949Y-1287993D01*
X1853585Y-1279357D01*
X1862221Y-1279357D01*
X1870859Y-1283675D01*
X1875177Y-1287993D01*
X1879495Y-1296629D01*
X1888131Y-1322539D01*
X1892449Y-1331175D01*
X1896767Y-1335493D01*
X1905403Y-1339811D01*
X1918360Y-1339811D01*
X1926996Y-1331175D01*
X1931314Y-1318221D01*
X1931314Y-1300949D01*
X1926996Y-1287993D01*
X1918360Y-1279357D01*
X1840631Y-1368313D02*
G01*
X1931314Y-1368313D01*
X1840631Y-1368313D02*
G01*
X1931314Y-1402859D01*
X1840631Y-1437403D02*
G01*
X1931314Y-1402859D01*
X1840631Y-1437403D02*
G01*
X1931314Y-1437403D01*
X1857903Y-1465905D02*
G01*
X1853585Y-1474541D01*
X1840631Y-1487495D01*
X1931314Y-1487495D01*
X1840631Y-1567814D02*
G01*
X1840631Y-1524632D01*
X1879495Y-1520314D01*
X1875177Y-1524632D01*
X1870859Y-1537586D01*
X1870859Y-1550543D01*
X1875177Y-1563496D01*
X1883813Y-1572132D01*
X1896767Y-1576451D01*
X1905403Y-1576451D01*
X1918360Y-1572132D01*
X1926996Y-1563496D01*
X1931314Y-1550543D01*
X1931314Y-1537586D01*
X1926996Y-1524632D01*
X1922678Y-1520314D01*
X1914042Y-1515996D01*
X1840631Y-1604952D02*
G01*
X1931314Y-1604952D01*
X1840631Y-1604952D02*
G01*
X1840631Y-1643816D01*
X1844949Y-1656770D01*
X1849267Y-1661088D01*
X1857903Y-1665406D01*
X1866541Y-1665406D01*
X1875177Y-1661088D01*
X1879495Y-1656770D01*
X1883813Y-1643816D01*
X1883813Y-1604952D02*
G01*
X1883813Y-1643816D01*
X1888131Y-1656770D01*
X1892449Y-1661088D01*
X1901085Y-1665406D01*
X1914042Y-1665406D01*
X1922678Y-1661088D01*
X1926996Y-1656770D01*
X1931314Y-1643816D01*
X1931314Y-1604952D01*
X1892449Y-1693908D02*
G01*
X1892449Y-1771634D01*
X1862221Y-1864908D02*
G01*
X1853585Y-1860590D01*
X1844949Y-1851954D01*
X1840631Y-1843318D01*
X1840631Y-1826046D01*
X1844949Y-1817408D01*
X1853585Y-1808772D01*
X1862221Y-1804454D01*
X1875177Y-1800136D01*
X1896767Y-1800136D01*
X1909721Y-1804454D01*
X1918360Y-1808772D01*
X1926996Y-1817408D01*
X1931314Y-1826046D01*
X1931314Y-1843318D01*
X1926996Y-1851954D01*
X1918360Y-1860590D01*
X1909721Y-1864908D01*
X1896767Y-1864908D01*
X1896767Y-1843318D02*
G01*
X1896767Y-1864908D01*
X1840631Y-1893409D02*
G01*
X1931314Y-1893409D01*
X1840631Y-1953864D02*
G01*
X1931314Y-1953864D01*
X1883813Y-1893409D02*
G01*
X1883813Y-1953864D01*
X1853585Y-2042820D02*
G01*
X1844949Y-2034184D01*
X1840631Y-2021230D01*
X1840631Y-2003955D01*
X1844949Y-1991001D01*
X1853585Y-1982365D01*
X1862221Y-1982365D01*
X1870859Y-1986683D01*
X1875177Y-1991001D01*
X1879495Y-1999637D01*
X1888131Y-2025548D01*
X1892449Y-2034184D01*
X1896767Y-2038502D01*
X1905403Y-2042820D01*
X1918360Y-2042820D01*
X1926996Y-2034184D01*
X1931314Y-2021230D01*
X1931314Y-2003955D01*
X1926996Y-1991001D01*
X1918360Y-1982365D01*
X1892449Y-2071321D02*
G01*
X1892449Y-2149048D01*
X1840631Y-2207778D02*
G01*
X1931314Y-2207778D01*
X1840631Y-2177549D02*
G01*
X1840631Y-2238004D01*
X1840631Y-2266505D02*
G01*
X1931314Y-2266505D01*
X1840631Y-2266505D02*
G01*
X1840631Y-2305370D01*
X1844949Y-2318324D01*
X1849267Y-2322642D01*
X1857903Y-2326960D01*
X1866541Y-2326960D01*
X1875177Y-2322642D01*
X1879495Y-2318324D01*
X1883813Y-2305370D01*
X1883813Y-2266505D02*
G01*
X1883813Y-2305370D01*
X1888131Y-2318324D01*
X1892449Y-2322642D01*
X1901085Y-2326960D01*
X1914042Y-2326960D01*
X1922678Y-2322642D01*
X1926996Y-2318324D01*
X1931314Y-2305370D01*
X1931314Y-2266505D01*
X1823359Y-2385687D02*
G01*
X1831995Y-2377051D01*
X1844949Y-2368415D01*
X1862221Y-2359779D01*
X1883813Y-2355461D01*
X1901085Y-2355461D01*
X1922678Y-2359779D01*
X1939950Y-2368415D01*
X1952904Y-2377051D01*
X1961542Y-2385687D01*
X1840631Y-2414188D02*
G01*
X1931314Y-2414188D01*
X1931314Y-2414188D02*
G01*
X1931314Y-2466007D01*
X1840631Y-2494508D02*
G01*
X1931314Y-2494508D01*
X1840631Y-2494508D02*
G01*
X1840631Y-2550645D01*
X1883813Y-2494508D02*
G01*
X1883813Y-2529052D01*
X1823359Y-2579143D02*
G01*
X1831995Y-2587782D01*
X1844949Y-2596418D01*
X1862221Y-2605054D01*
X1883813Y-2609372D01*
X1901085Y-2609372D01*
X1922678Y-2605054D01*
X1939950Y-2596418D01*
X1952904Y-2587782D01*
X1961542Y-2579143D01*
X1823359Y-2668099D02*
G01*
X1831995Y-2659463D01*
X1844949Y-2650827D01*
X1862221Y-2642191D01*
X1883813Y-2637873D01*
X1901085Y-2637873D01*
X1922678Y-2642191D01*
X1939950Y-2650827D01*
X1952904Y-2659463D01*
X1961542Y-2668099D01*
X1853585Y-2757055D02*
G01*
X1844949Y-2748419D01*
X1840631Y-2735465D01*
X1840631Y-2718191D01*
X1844949Y-2705237D01*
X1853585Y-2696601D01*
X1862221Y-2696601D01*
X1870859Y-2700919D01*
X1875177Y-2705237D01*
X1879495Y-2713873D01*
X1888131Y-2739783D01*
X1892449Y-2748419D01*
X1896767Y-2752737D01*
X1905403Y-2757055D01*
X1918360Y-2757055D01*
X1926996Y-2748419D01*
X1931314Y-2735465D01*
X1931314Y-2718191D01*
X1926996Y-2705237D01*
X1918360Y-2696601D01*
X1840631Y-2785557D02*
G01*
X1931314Y-2785557D01*
X1840631Y-2785557D02*
G01*
X1931314Y-2846011D01*
X1840631Y-2846011D02*
G01*
X1931314Y-2846011D01*
X1823359Y-2874512D02*
G01*
X1831995Y-2883148D01*
X1844949Y-2891784D01*
X1862221Y-2900420D01*
X1883813Y-2904738D01*
X1901085Y-2904738D01*
X1922678Y-2900420D01*
X1939950Y-2891784D01*
X1952904Y-2883148D01*
X1961542Y-2874512D01*
X1712945Y-651410D02*
G01*
X1803628Y-616864D01*
X1712945Y-651410D02*
G01*
X1803628Y-685954D01*
X1773400Y-629818D02*
G01*
X1773400Y-673000D01*
X1751810Y-718774D02*
G01*
X1756128Y-714456D01*
X1760446Y-718774D01*
X1756128Y-723092D01*
X1751810Y-718774D01*
X1782036Y-718774D02*
G01*
X1786356Y-714456D01*
X1790674Y-718774D01*
X1786356Y-723092D01*
X1782036Y-718774D01*
X1712945Y-818093D02*
G01*
X1803628Y-818093D01*
X1712945Y-818093D02*
G01*
X1712945Y-874229D01*
X1756128Y-818093D02*
G01*
X1756128Y-852639D01*
X1712945Y-902731D02*
G01*
X1717263Y-907049D01*
X1712945Y-911367D01*
X1708627Y-907049D01*
X1712945Y-902731D01*
X1743174Y-907049D02*
G01*
X1803628Y-907049D01*
X1743174Y-939868D02*
G01*
X1803628Y-939868D01*
X1760446Y-939868D02*
G01*
X1747492Y-952822D01*
X1743174Y-961458D01*
X1743174Y-974415D01*
X1747492Y-983051D01*
X1760446Y-987369D01*
X1803628Y-987369D01*
X1743174Y-1067686D02*
G01*
X1812264Y-1067686D01*
X1825218Y-1063368D01*
X1829536Y-1059050D01*
X1833857Y-1050414D01*
X1833857Y-1037460D01*
X1829536Y-1028824D01*
X1756128Y-1067686D02*
G01*
X1747492Y-1059050D01*
X1743174Y-1050414D01*
X1743174Y-1037460D01*
X1747492Y-1028824D01*
X1756128Y-1020185D01*
X1769082Y-1015867D01*
X1777718Y-1015867D01*
X1790674Y-1020185D01*
X1799310Y-1028824D01*
X1803628Y-1037460D01*
X1803628Y-1050414D01*
X1799310Y-1059050D01*
X1790674Y-1067686D01*
X1769082Y-1096187D02*
G01*
X1769082Y-1148006D01*
X1760446Y-1148006D01*
X1751810Y-1143688D01*
X1747492Y-1139370D01*
X1743174Y-1130734D01*
X1743174Y-1117780D01*
X1747492Y-1109141D01*
X1756128Y-1100505D01*
X1769082Y-1096187D01*
X1777718Y-1096187D01*
X1790674Y-1100505D01*
X1799310Y-1109141D01*
X1803628Y-1117780D01*
X1803628Y-1130734D01*
X1799310Y-1139370D01*
X1790674Y-1148006D01*
X1743174Y-1176507D02*
G01*
X1803628Y-1176507D01*
X1769082Y-1176507D02*
G01*
X1756128Y-1180825D01*
X1747492Y-1189461D01*
X1743174Y-1198097D01*
X1743174Y-1211054D01*
X1743174Y-1239553D02*
G01*
X1833857Y-1239553D01*
X1756128Y-1239553D02*
G01*
X1747492Y-1248189D01*
X1743174Y-1256825D01*
X1743174Y-1269781D01*
X1747492Y-1278417D01*
X1756128Y-1287053D01*
X1769082Y-1291371D01*
X1777718Y-1291371D01*
X1790674Y-1287053D01*
X1799310Y-1278417D01*
X1803628Y-1269781D01*
X1803628Y-1256825D01*
X1799310Y-1248189D01*
X1790674Y-1239553D01*
X1743174Y-1319872D02*
G01*
X1803628Y-1319872D01*
X1769082Y-1319872D02*
G01*
X1756128Y-1324190D01*
X1747492Y-1332826D01*
X1743174Y-1341462D01*
X1743174Y-1354419D01*
X1712945Y-1382918D02*
G01*
X1717263Y-1387236D01*
X1712945Y-1391554D01*
X1708627Y-1387236D01*
X1712945Y-1382918D01*
X1743174Y-1387236D02*
G01*
X1803628Y-1387236D01*
X1743174Y-1420055D02*
G01*
X1803628Y-1420055D01*
X1760446Y-1420055D02*
G01*
X1747492Y-1433009D01*
X1743174Y-1441645D01*
X1743174Y-1454602D01*
X1747492Y-1463238D01*
X1760446Y-1467556D01*
X1803628Y-1467556D01*
X1712945Y-1509011D02*
G01*
X1786356Y-1509011D01*
X1799310Y-1513329D01*
X1803628Y-1521965D01*
X1803628Y-1530601D01*
X1743174Y-1496057D02*
G01*
X1743174Y-1526283D01*
X1725899Y-1686059D02*
G01*
X1717263Y-1677421D01*
X1712945Y-1664467D01*
X1712945Y-1647195D01*
X1717263Y-1634238D01*
X1725899Y-1625602D01*
X1734535Y-1625602D01*
X1743174Y-1629920D01*
X1747492Y-1634238D01*
X1751810Y-1642877D01*
X1760446Y-1668785D01*
X1764764Y-1677421D01*
X1769082Y-1681739D01*
X1777718Y-1686059D01*
X1790674Y-1686059D01*
X1799310Y-1677421D01*
X1803628Y-1664467D01*
X1803628Y-1647195D01*
X1799310Y-1634238D01*
X1790674Y-1625602D01*
X1769082Y-1714558D02*
G01*
X1769082Y-1766376D01*
X1760446Y-1766376D01*
X1751810Y-1762058D01*
X1747492Y-1757740D01*
X1743174Y-1749104D01*
X1743174Y-1736150D01*
X1747492Y-1727512D01*
X1756128Y-1718876D01*
X1769082Y-1714558D01*
X1777718Y-1714558D01*
X1790674Y-1718876D01*
X1799310Y-1727512D01*
X1803628Y-1736150D01*
X1803628Y-1749104D01*
X1799310Y-1757740D01*
X1790674Y-1766376D01*
X1743174Y-1794878D02*
G01*
X1803628Y-1794878D01*
X1760446Y-1794878D02*
G01*
X1747492Y-1807832D01*
X1743174Y-1816468D01*
X1743174Y-1829424D01*
X1747492Y-1838060D01*
X1760446Y-1842378D01*
X1803628Y-1842378D01*
X1756128Y-1918378D02*
G01*
X1747492Y-1914060D01*
X1743174Y-1901106D01*
X1743174Y-1888152D01*
X1747492Y-1875195D01*
X1756128Y-1870877D01*
X1764764Y-1875195D01*
X1769082Y-1883834D01*
X1773400Y-1905424D01*
X1777718Y-1914060D01*
X1786356Y-1918378D01*
X1790674Y-1918378D01*
X1799310Y-1914060D01*
X1803628Y-1901106D01*
X1803628Y-1888152D01*
X1799310Y-1875195D01*
X1790674Y-1870877D01*
X1743174Y-1968469D02*
G01*
X1747492Y-1959833D01*
X1756128Y-1951197D01*
X1769082Y-1946879D01*
X1777718Y-1946879D01*
X1790674Y-1951197D01*
X1799310Y-1959833D01*
X1803628Y-1968469D01*
X1803628Y-1981426D01*
X1799310Y-1990062D01*
X1790674Y-1998698D01*
X1777718Y-2003016D01*
X1769082Y-2003016D01*
X1756128Y-1998698D01*
X1747492Y-1990062D01*
X1743174Y-1981426D01*
X1743174Y-1968469D01*
X1743174Y-2031517D02*
G01*
X1803628Y-2031517D01*
X1769082Y-2031517D02*
G01*
X1756128Y-2035835D01*
X1747492Y-2044471D01*
X1743174Y-2053107D01*
X1743174Y-2066063D01*
X1751810Y-2098880D02*
G01*
X1756128Y-2094562D01*
X1760446Y-2098880D01*
X1756128Y-2103198D01*
X1751810Y-2098880D01*
X1782036Y-2098880D02*
G01*
X1786356Y-2094562D01*
X1790674Y-2098880D01*
X1786356Y-2103198D01*
X1782036Y-2098880D01*
X1712945Y-2198199D02*
G01*
X1803628Y-2198199D01*
X1712945Y-2198199D02*
G01*
X1712945Y-2237064D01*
X1717263Y-2250018D01*
X1721581Y-2254336D01*
X1730217Y-2258656D01*
X1738856Y-2258656D01*
X1747492Y-2254336D01*
X1751810Y-2250018D01*
X1756128Y-2237064D01*
X1756128Y-2198199D02*
G01*
X1756128Y-2237064D01*
X1760446Y-2250018D01*
X1764764Y-2254336D01*
X1773400Y-2258656D01*
X1786356Y-2258656D01*
X1794992Y-2254336D01*
X1799310Y-2250018D01*
X1803628Y-2237064D01*
X1803628Y-2198199D01*
X1712945Y-2287155D02*
G01*
X1803628Y-2287155D01*
X1712945Y-2287155D02*
G01*
X1803628Y-2321702D01*
X1712945Y-2356248D02*
G01*
X1803628Y-2321702D01*
X1712945Y-2356248D02*
G01*
X1803628Y-2356248D01*
X1712945Y-2410658D02*
G01*
X1717263Y-2397701D01*
X1730217Y-2389065D01*
X1751810Y-2384747D01*
X1764764Y-2384747D01*
X1786356Y-2389065D01*
X1799310Y-2397701D01*
X1803628Y-2410658D01*
X1803628Y-2419294D01*
X1799310Y-2432248D01*
X1786356Y-2440884D01*
X1764764Y-2445202D01*
X1751810Y-2445202D01*
X1730217Y-2440884D01*
X1717263Y-2432248D01*
X1712945Y-2419294D01*
X1712945Y-2410658D01*
X1725899Y-2525521D02*
G01*
X1717263Y-2521204D01*
X1712945Y-2508250D01*
X1712945Y-2499613D01*
X1717263Y-2486657D01*
X1730217Y-2478021D01*
X1751810Y-2473703D01*
X1773400Y-2473703D01*
X1790674Y-2478021D01*
X1799310Y-2486657D01*
X1803628Y-2499613D01*
X1803628Y-2503931D01*
X1799310Y-2516886D01*
X1790674Y-2525521D01*
X1777718Y-2529839D01*
X1773400Y-2529839D01*
X1760446Y-2525521D01*
X1751810Y-2516886D01*
X1747492Y-2503931D01*
X1747492Y-2499613D01*
X1751810Y-2486657D01*
X1760446Y-2478021D01*
X1773400Y-2473703D01*
X1712945Y-2558341D02*
G01*
X1803628Y-2558341D01*
X1712945Y-2558341D02*
G01*
X1712945Y-2597205D01*
X1717263Y-2610159D01*
X1721581Y-2614477D01*
X1730217Y-2618795D01*
X1738856Y-2618795D01*
X1747492Y-2614477D01*
X1751810Y-2610159D01*
X1756128Y-2597205D01*
X1756128Y-2558341D02*
G01*
X1756128Y-2597205D01*
X1760446Y-2610159D01*
X1764764Y-2614477D01*
X1773400Y-2618795D01*
X1786356Y-2618795D01*
X1794992Y-2614477D01*
X1799310Y-2610159D01*
X1803628Y-2597205D01*
X1803628Y-2558341D01*
X1764764Y-2647297D02*
G01*
X1764764Y-2725023D01*
X1734535Y-2818297D02*
G01*
X1725899Y-2813979D01*
X1717263Y-2805343D01*
X1712945Y-2796707D01*
X1712945Y-2779435D01*
X1717263Y-2770797D01*
X1725899Y-2762161D01*
X1734535Y-2757843D01*
X1747492Y-2753525D01*
X1769082Y-2753525D01*
X1782036Y-2757843D01*
X1790674Y-2762161D01*
X1799310Y-2770797D01*
X1803628Y-2779435D01*
X1803628Y-2796707D01*
X1799310Y-2805343D01*
X1790674Y-2813979D01*
X1782036Y-2818297D01*
X1769082Y-2818297D01*
X1769082Y-2796707D02*
G01*
X1769082Y-2818297D01*
X1712945Y-2846798D02*
G01*
X1803628Y-2846798D01*
X1712945Y-2907253D02*
G01*
X1803628Y-2907253D01*
X1756128Y-2846798D02*
G01*
X1756128Y-2907253D01*
X1725899Y-2996209D02*
G01*
X1717263Y-2987573D01*
X1712945Y-2974619D01*
X1712945Y-2957344D01*
X1717263Y-2944390D01*
X1725899Y-2935754D01*
X1734535Y-2935754D01*
X1743174Y-2940072D01*
X1747492Y-2944390D01*
X1751810Y-2953026D01*
X1760446Y-2978937D01*
X1764764Y-2987573D01*
X1769082Y-2991891D01*
X1777718Y-2996209D01*
X1790674Y-2996209D01*
X1799310Y-2987573D01*
X1803628Y-2974619D01*
X1803628Y-2957344D01*
X1799310Y-2944390D01*
X1790674Y-2935754D01*
X1764764Y-3024710D02*
G01*
X1764764Y-3102437D01*
X1712945Y-3161167D02*
G01*
X1803628Y-3161167D01*
X1712945Y-3130938D02*
G01*
X1712945Y-3191393D01*
X1712945Y-3219894D02*
G01*
X1803628Y-3219894D01*
X1712945Y-3219894D02*
G01*
X1712945Y-3258759D01*
X1717263Y-3271713D01*
X1721581Y-3276031D01*
X1730217Y-3280349D01*
X1738856Y-3280349D01*
X1747492Y-3276031D01*
X1751810Y-3271713D01*
X1756128Y-3258759D01*
X1756128Y-3219894D02*
G01*
X1756128Y-3258759D01*
X1760446Y-3271713D01*
X1764764Y-3276031D01*
X1773400Y-3280349D01*
X1786356Y-3280349D01*
X1794992Y-3276031D01*
X1799310Y-3271713D01*
X1803628Y-3258759D01*
X1803628Y-3219894D01*
X1712945Y-3339076D02*
G01*
X1803628Y-3339076D01*
X1712945Y-3308850D02*
G01*
X1712945Y-3369304D01*
X1695673Y-3428032D02*
G01*
X1704309Y-3419396D01*
X1717263Y-3410760D01*
X1734535Y-3402124D01*
X1756128Y-3397806D01*
X1773400Y-3397806D01*
X1794992Y-3402124D01*
X1812264Y-3410760D01*
X1825218Y-3419396D01*
X1833857Y-3428032D01*
X1712945Y-3456533D02*
G01*
X1803628Y-3456533D01*
X1803628Y-3456533D02*
G01*
X1803628Y-3508352D01*
X1712945Y-3536850D02*
G01*
X1803628Y-3536850D01*
X1712945Y-3536850D02*
G01*
X1712945Y-3592990D01*
X1756128Y-3536850D02*
G01*
X1756128Y-3571397D01*
X1695673Y-3621488D02*
G01*
X1704309Y-3630124D01*
X1717263Y-3638763D01*
X1734535Y-3647399D01*
X1756128Y-3651717D01*
X1773400Y-3651717D01*
X1794992Y-3647399D01*
X1812264Y-3638763D01*
X1825218Y-3630124D01*
X1833857Y-3621488D01*
X1695673Y-3710444D02*
G01*
X1704309Y-3701808D01*
X1717263Y-3693172D01*
X1734535Y-3684536D01*
X1756128Y-3680216D01*
X1773400Y-3680216D01*
X1794992Y-3684536D01*
X1812264Y-3693172D01*
X1825218Y-3701808D01*
X1833857Y-3710444D01*
X1725899Y-3799400D02*
G01*
X1717263Y-3790764D01*
X1712945Y-3777810D01*
X1712945Y-3760536D01*
X1717263Y-3747582D01*
X1725899Y-3738946D01*
X1734535Y-3738946D01*
X1743174Y-3743264D01*
X1747492Y-3747582D01*
X1751810Y-3756218D01*
X1760446Y-3782128D01*
X1764764Y-3790764D01*
X1769082Y-3795082D01*
X1777718Y-3799400D01*
X1790674Y-3799400D01*
X1799310Y-3790764D01*
X1803628Y-3777810D01*
X1803628Y-3760536D01*
X1799310Y-3747582D01*
X1790674Y-3738946D01*
X1712945Y-3827901D02*
G01*
X1803628Y-3827901D01*
X1712945Y-3827901D02*
G01*
X1803628Y-3888356D01*
X1712945Y-3888356D02*
G01*
X1803628Y-3888356D01*
X1695673Y-3916855D02*
G01*
X1704309Y-3925493D01*
X1717263Y-3934129D01*
X1734535Y-3942765D01*
X1756128Y-3947083D01*
X1773400Y-3947083D01*
X1794992Y-3942765D01*
X1812264Y-3934129D01*
X1825218Y-3925493D01*
X1833857Y-3916855D01*
X1695673Y-4005811D02*
G01*
X1704309Y-3997175D01*
X1717263Y-3988539D01*
X1734535Y-3979903D01*
X1756128Y-3975585D01*
X1773400Y-3975585D01*
X1794992Y-3979903D01*
X1812264Y-3988539D01*
X1825218Y-3997175D01*
X1833857Y-4005811D01*
X1712945Y-4034312D02*
G01*
X1803628Y-4034312D01*
X1712945Y-4034312D02*
G01*
X1803628Y-4094767D01*
X1712945Y-4094767D02*
G01*
X1803628Y-4094767D01*
X1695673Y-4123268D02*
G01*
X1704309Y-4131904D01*
X1717263Y-4140540D01*
X1734535Y-4149176D01*
X1756128Y-4153494D01*
X1773400Y-4153494D01*
X1794992Y-4149176D01*
X1812264Y-4140540D01*
X1825218Y-4131904D01*
X1833857Y-4123268D01*
X1602125Y-674372D02*
G01*
X1593489Y-670054D01*
X1584853Y-661418D01*
X1580535Y-652782D01*
X1580535Y-635510D01*
X1584853Y-626871D01*
X1593489Y-618236D01*
X1602125Y-613918D01*
X1615081Y-609600D01*
X1636671Y-609600D01*
X1649625Y-613918D01*
X1658264Y-618236D01*
X1666900Y-626871D01*
X1671218Y-635510D01*
X1671218Y-652782D01*
X1666900Y-661418D01*
X1658264Y-670054D01*
X1649625Y-674372D01*
X1610763Y-724463D02*
G01*
X1615081Y-715827D01*
X1623717Y-707191D01*
X1636671Y-702873D01*
X1645307Y-702873D01*
X1658264Y-707191D01*
X1666900Y-715827D01*
X1671218Y-724463D01*
X1671218Y-737420D01*
X1666900Y-746056D01*
X1658264Y-754692D01*
X1645307Y-759010D01*
X1636671Y-759010D01*
X1623717Y-754692D01*
X1615081Y-746056D01*
X1610763Y-737420D01*
X1610763Y-724463D01*
X1610763Y-787511D02*
G01*
X1671218Y-787511D01*
X1628035Y-787511D02*
G01*
X1615081Y-800465D01*
X1610763Y-809101D01*
X1610763Y-822055D01*
X1615081Y-830694D01*
X1628035Y-835012D01*
X1671218Y-835012D01*
X1580535Y-876467D02*
G01*
X1653946Y-876467D01*
X1666900Y-880785D01*
X1671218Y-889421D01*
X1671218Y-898057D01*
X1610763Y-863511D02*
G01*
X1610763Y-893739D01*
X1610763Y-926558D02*
G01*
X1671218Y-926558D01*
X1636671Y-926558D02*
G01*
X1623717Y-930876D01*
X1615081Y-939512D01*
X1610763Y-948148D01*
X1610763Y-961102D01*
X1610763Y-1011194D02*
G01*
X1615081Y-1002558D01*
X1623717Y-993922D01*
X1636671Y-989604D01*
X1645307Y-989604D01*
X1658264Y-993922D01*
X1666900Y-1002558D01*
X1671218Y-1011194D01*
X1671218Y-1024150D01*
X1666900Y-1032786D01*
X1658264Y-1041422D01*
X1645307Y-1045740D01*
X1636671Y-1045740D01*
X1623717Y-1041422D01*
X1615081Y-1032786D01*
X1610763Y-1024150D01*
X1610763Y-1011194D01*
X1580535Y-1074242D02*
G01*
X1671218Y-1074242D01*
X1580535Y-1169243D02*
G01*
X1671218Y-1169243D01*
X1580535Y-1169243D02*
G01*
X1580535Y-1208107D01*
X1584853Y-1221061D01*
X1589171Y-1225379D01*
X1597807Y-1229697D01*
X1606445Y-1229697D01*
X1615081Y-1225379D01*
X1619399Y-1221061D01*
X1623717Y-1208107D01*
X1623717Y-1169243D02*
G01*
X1623717Y-1208107D01*
X1628035Y-1221061D01*
X1632353Y-1225379D01*
X1640989Y-1229697D01*
X1653946Y-1229697D01*
X1662582Y-1225379D01*
X1666900Y-1221061D01*
X1671218Y-1208107D01*
X1671218Y-1169243D01*
X1610763Y-1279789D02*
G01*
X1615081Y-1271153D01*
X1623717Y-1262517D01*
X1636671Y-1258199D01*
X1645307Y-1258199D01*
X1658264Y-1262517D01*
X1666900Y-1271153D01*
X1671218Y-1279789D01*
X1671218Y-1292743D01*
X1666900Y-1301381D01*
X1658264Y-1310017D01*
X1645307Y-1314335D01*
X1636671Y-1314335D01*
X1623717Y-1310017D01*
X1615081Y-1301381D01*
X1610763Y-1292743D01*
X1610763Y-1279789D01*
X1610763Y-1394655D02*
G01*
X1671218Y-1394655D01*
X1623717Y-1394655D02*
G01*
X1615081Y-1386017D01*
X1610763Y-1377381D01*
X1610763Y-1364427D01*
X1615081Y-1355791D01*
X1623717Y-1347155D01*
X1636671Y-1342834D01*
X1645307Y-1342834D01*
X1658264Y-1347155D01*
X1666900Y-1355791D01*
X1671218Y-1364427D01*
X1671218Y-1377381D01*
X1666900Y-1386017D01*
X1658264Y-1394655D01*
X1610763Y-1423154D02*
G01*
X1671218Y-1423154D01*
X1636671Y-1423154D02*
G01*
X1623717Y-1427472D01*
X1615081Y-1436108D01*
X1610763Y-1444746D01*
X1610763Y-1457700D01*
X1580535Y-1538020D02*
G01*
X1671218Y-1538020D01*
X1623717Y-1538020D02*
G01*
X1615081Y-1529382D01*
X1610763Y-1520746D01*
X1610763Y-1507792D01*
X1615081Y-1499156D01*
X1623717Y-1490520D01*
X1636671Y-1486199D01*
X1645307Y-1486199D01*
X1658264Y-1490520D01*
X1666900Y-1499156D01*
X1671218Y-1507792D01*
X1671218Y-1520746D01*
X1666900Y-1529382D01*
X1658264Y-1538020D01*
X1602125Y-1697794D02*
G01*
X1593489Y-1693476D01*
X1584853Y-1684840D01*
X1580535Y-1676201D01*
X1580535Y-1658929D01*
X1584853Y-1650293D01*
X1593489Y-1641657D01*
X1602125Y-1637339D01*
X1615081Y-1633021D01*
X1636671Y-1633021D01*
X1649625Y-1637339D01*
X1658264Y-1641657D01*
X1666900Y-1650293D01*
X1671218Y-1658929D01*
X1671218Y-1676201D01*
X1666900Y-1684840D01*
X1658264Y-1693476D01*
X1649625Y-1697794D01*
X1610763Y-1747885D02*
G01*
X1615081Y-1739249D01*
X1623717Y-1730613D01*
X1636671Y-1726295D01*
X1645307Y-1726295D01*
X1658264Y-1730613D01*
X1666900Y-1739249D01*
X1671218Y-1747885D01*
X1671218Y-1760839D01*
X1666900Y-1769475D01*
X1658264Y-1778114D01*
X1645307Y-1782432D01*
X1636671Y-1782432D01*
X1623717Y-1778114D01*
X1615081Y-1769475D01*
X1610763Y-1760839D01*
X1610763Y-1747885D01*
X1610763Y-1810931D02*
G01*
X1671218Y-1810931D01*
X1628035Y-1810931D02*
G01*
X1615081Y-1823887D01*
X1610763Y-1832523D01*
X1610763Y-1845477D01*
X1615081Y-1854113D01*
X1628035Y-1858431D01*
X1671218Y-1858431D01*
X1580535Y-1921479D02*
G01*
X1580535Y-1912840D01*
X1584853Y-1904204D01*
X1597807Y-1899886D01*
X1671218Y-1899886D01*
X1610763Y-1886932D02*
G01*
X1610763Y-1917161D01*
X1580535Y-1949978D02*
G01*
X1584853Y-1954296D01*
X1580535Y-1958614D01*
X1576217Y-1954296D01*
X1580535Y-1949978D01*
X1610763Y-1954296D02*
G01*
X1671218Y-1954296D01*
X1610763Y-2038934D02*
G01*
X1679854Y-2038934D01*
X1692808Y-2034616D01*
X1697126Y-2030298D01*
X1701446Y-2021662D01*
X1701446Y-2008705D01*
X1697126Y-2000069D01*
X1623717Y-2038934D02*
G01*
X1615081Y-2030298D01*
X1610763Y-2021662D01*
X1610763Y-2008705D01*
X1615081Y-2000069D01*
X1623717Y-1991433D01*
X1636671Y-1987115D01*
X1645307Y-1987115D01*
X1658264Y-1991433D01*
X1666900Y-2000069D01*
X1671218Y-2008705D01*
X1671218Y-2021662D01*
X1666900Y-2030298D01*
X1658264Y-2038934D01*
X1610763Y-2067435D02*
G01*
X1653946Y-2067435D01*
X1666900Y-2071753D01*
X1671218Y-2080389D01*
X1671218Y-2093343D01*
X1666900Y-2101979D01*
X1653946Y-2114936D01*
X1610763Y-2114936D02*
G01*
X1671218Y-2114936D01*
X1610763Y-2143434D02*
G01*
X1671218Y-2143434D01*
X1636671Y-2143434D02*
G01*
X1623717Y-2147752D01*
X1615081Y-2156391D01*
X1610763Y-2165027D01*
X1610763Y-2177981D01*
X1610763Y-2258301D02*
G01*
X1671218Y-2258301D01*
X1623717Y-2258301D02*
G01*
X1615081Y-2249665D01*
X1610763Y-2241026D01*
X1610763Y-2228072D01*
X1615081Y-2219436D01*
X1623717Y-2210800D01*
X1636671Y-2206482D01*
X1645307Y-2206482D01*
X1658264Y-2210800D01*
X1666900Y-2219436D01*
X1671218Y-2228072D01*
X1671218Y-2241026D01*
X1666900Y-2249665D01*
X1658264Y-2258301D01*
X1580535Y-2299756D02*
G01*
X1653946Y-2299756D01*
X1666900Y-2304074D01*
X1671218Y-2312710D01*
X1671218Y-2321346D01*
X1610763Y-2286800D02*
G01*
X1610763Y-2317028D01*
X1580535Y-2349847D02*
G01*
X1584853Y-2354165D01*
X1580535Y-2358483D01*
X1576217Y-2354165D01*
X1580535Y-2349847D01*
X1610763Y-2354165D02*
G01*
X1671218Y-2354165D01*
X1610763Y-2408575D02*
G01*
X1615081Y-2399939D01*
X1623717Y-2391303D01*
X1636671Y-2386982D01*
X1645307Y-2386982D01*
X1658264Y-2391303D01*
X1666900Y-2399939D01*
X1671218Y-2408575D01*
X1671218Y-2421529D01*
X1666900Y-2430165D01*
X1658264Y-2438803D01*
X1645307Y-2443121D01*
X1636671Y-2443121D01*
X1623717Y-2438803D01*
X1615081Y-2430165D01*
X1610763Y-2421529D01*
X1610763Y-2408575D01*
X1610763Y-2471620D02*
G01*
X1671218Y-2471620D01*
X1628035Y-2471620D02*
G01*
X1615081Y-2484574D01*
X1610763Y-2493213D01*
X1610763Y-2506167D01*
X1615081Y-2514803D01*
X1628035Y-2519121D01*
X1671218Y-2519121D01*
X1619399Y-2551940D02*
G01*
X1623717Y-2547622D01*
X1628035Y-2551940D01*
X1623717Y-2556258D01*
X1619399Y-2551940D01*
X1649625Y-2551940D02*
G01*
X1653946Y-2547622D01*
X1658264Y-2551940D01*
X1653946Y-2556258D01*
X1649625Y-2551940D01*
D12*
X780110Y-566064D02*
G01*
X2278710Y-566064D01*
X2278710Y-4668164D01*
X780110Y-4668164D01*
X780110Y-566064D01*
M02*
