G04 Layer: TopPasteMaskLayer*
G04 EasyEDA v6.5.44, 2024-08-24 22:55:38*
G04 c584bd3c03fa4b5bb03f9f2b3921847a,c23a61fc8c4145e6967fd80801f93d45,10*
G04 Gerber Generator version 0.2*
G04 Scale: 100 percent, Rotated: No, Reflected: No *
G04 Dimensions in millimeters *
G04 leading zeros omitted , absolute positions ,4 integer and 5 decimal *
%FSLAX45Y45*%
%MOMM*%

%AMMACRO1*21,1,$1,$2,0,0,$3*%
%ADD10R,0.7000X1.2500*%
%ADD11R,1.0450X0.5320*%
%ADD12R,0.9000X0.8000*%
%ADD13R,1.2500X0.7000*%
%ADD14R,0.8000X0.9000*%
%ADD15MACRO1,0.602X1.7018X90.0000*%
%ADD16R,2.8000X1.0000*%
%ADD17R,1.7000X0.6000*%
%ADD18MACRO1,1.0008X2.7X90.0000*%
%ADD19MACRO1,0.5994X1.7018X90.0000*%
%ADD20R,0.8000X1.5000*%
%ADD21R,0.9500X2.1000*%
%ADD22R,2.1000X0.9500*%
%ADD23R,0.9000X0.9000*%
%ADD24MACRO1,0.9982X2.7991X90.0000*%
%ADD25O,2.0379944X0.5739892*%
%ADD26O,0.0102X0.5739892*%

%LPD*%
G36*
X6217818Y-5835091D02*
G01*
X6212789Y-5840120D01*
X6212789Y-5920079D01*
X6217818Y-5925108D01*
X6297777Y-5925108D01*
X6302806Y-5920079D01*
X6302806Y-5897321D01*
X6265824Y-5897321D01*
X6265824Y-5864301D01*
X6302806Y-5864301D01*
X6302806Y-5840120D01*
X6297777Y-5835091D01*
G37*
G36*
X6376822Y-5835091D02*
G01*
X6371793Y-5840120D01*
X6371793Y-5862878D01*
X6408775Y-5862878D01*
X6408775Y-5895898D01*
X6371793Y-5895898D01*
X6371793Y-5920079D01*
X6376822Y-5925108D01*
X6456781Y-5925108D01*
X6461810Y-5920079D01*
X6461810Y-5840120D01*
X6456781Y-5835091D01*
G37*
G36*
X6374892Y-5341315D02*
G01*
X6369913Y-5346293D01*
X6369913Y-5461304D01*
X6374892Y-5466283D01*
X6416903Y-5465826D01*
X6416903Y-5421782D01*
X6461912Y-5421782D01*
X6461912Y-5466791D01*
X6502907Y-5466283D01*
X6507886Y-5461304D01*
X6507886Y-5346293D01*
X6502907Y-5341315D01*
G37*
G36*
X6415887Y-5556808D02*
G01*
X6374892Y-5557316D01*
X6369913Y-5562295D01*
X6369913Y-5677306D01*
X6374892Y-5682284D01*
X6502907Y-5682284D01*
X6507886Y-5677306D01*
X6507886Y-5562295D01*
X6502907Y-5557316D01*
X6460896Y-5557774D01*
X6460896Y-5601817D01*
X6415887Y-5601817D01*
G37*
G36*
X5176418Y-5352491D02*
G01*
X5171389Y-5357520D01*
X5171389Y-5437479D01*
X5176418Y-5442508D01*
X5256377Y-5442508D01*
X5261406Y-5437479D01*
X5261406Y-5414721D01*
X5224424Y-5414721D01*
X5224424Y-5381701D01*
X5261406Y-5381701D01*
X5261406Y-5357520D01*
X5256377Y-5352491D01*
G37*
G36*
X5335422Y-5352491D02*
G01*
X5330393Y-5357520D01*
X5330393Y-5380278D01*
X5367375Y-5380278D01*
X5367375Y-5413298D01*
X5330393Y-5413298D01*
X5330393Y-5437479D01*
X5335422Y-5442508D01*
X5415381Y-5442508D01*
X5420410Y-5437479D01*
X5420410Y-5357520D01*
X5415381Y-5352491D01*
G37*
G36*
X5176418Y-5517591D02*
G01*
X5171389Y-5522620D01*
X5171389Y-5602579D01*
X5176418Y-5607608D01*
X5256377Y-5607608D01*
X5261406Y-5602579D01*
X5261406Y-5579821D01*
X5224424Y-5579821D01*
X5224424Y-5546801D01*
X5261406Y-5546801D01*
X5261406Y-5522620D01*
X5256377Y-5517591D01*
G37*
G36*
X5335422Y-5517591D02*
G01*
X5330393Y-5522620D01*
X5330393Y-5545378D01*
X5367375Y-5545378D01*
X5367375Y-5578398D01*
X5330393Y-5578398D01*
X5330393Y-5602579D01*
X5335422Y-5607608D01*
X5415381Y-5607608D01*
X5420410Y-5602579D01*
X5420410Y-5522620D01*
X5415381Y-5517591D01*
G37*
G36*
X7237120Y-2313889D02*
G01*
X7232091Y-2318918D01*
X7232091Y-2398877D01*
X7237120Y-2403906D01*
X7259878Y-2403906D01*
X7259878Y-2366873D01*
X7292898Y-2366873D01*
X7292898Y-2403906D01*
X7317079Y-2403906D01*
X7322108Y-2398877D01*
X7322108Y-2318918D01*
X7317079Y-2313889D01*
G37*
G36*
X7237120Y-2472893D02*
G01*
X7232091Y-2477922D01*
X7232091Y-2557881D01*
X7237120Y-2562910D01*
X7317079Y-2562910D01*
X7322108Y-2557881D01*
X7322108Y-2477922D01*
X7317079Y-2472893D01*
X7294321Y-2472893D01*
X7294321Y-2509926D01*
X7261301Y-2509926D01*
X7261301Y-2472893D01*
G37*
G36*
X7657693Y-1293317D02*
G01*
X7650683Y-1298295D01*
X7650683Y-1343304D01*
X7657693Y-1348282D01*
X7705699Y-1348282D01*
X7710678Y-1343304D01*
X7710678Y-1298295D01*
X7705699Y-1293317D01*
G37*
G36*
X7559700Y-1293317D02*
G01*
X7554722Y-1298295D01*
X7554722Y-1343304D01*
X7559700Y-1348282D01*
X7607706Y-1348282D01*
X7614716Y-1343304D01*
X7614716Y-1298295D01*
X7607706Y-1293317D01*
G37*
G36*
X6835495Y-1103122D02*
G01*
X6830517Y-1108100D01*
X6830517Y-1156106D01*
X6835495Y-1163116D01*
X6880504Y-1163116D01*
X6885482Y-1156106D01*
X6885482Y-1108100D01*
X6880504Y-1103122D01*
G37*
G36*
X6835495Y-1199083D02*
G01*
X6830517Y-1206093D01*
X6830517Y-1254099D01*
X6835495Y-1259078D01*
X6880504Y-1259078D01*
X6885482Y-1254099D01*
X6885482Y-1206093D01*
X6880504Y-1199083D01*
G37*
G36*
X5691581Y-5259120D02*
G01*
X5688279Y-5259527D01*
X5685078Y-5260695D01*
X5682335Y-5262626D01*
X5681116Y-5263794D01*
X5679186Y-5266588D01*
X5678017Y-5269738D01*
X5677611Y-5273090D01*
X5677712Y-5326786D01*
X5678525Y-5330088D01*
X5679186Y-5331612D01*
X5681116Y-5334406D01*
X5683656Y-5336641D01*
X5686653Y-5338165D01*
X5689904Y-5338978D01*
X5693308Y-5338978D01*
X5696559Y-5338165D01*
X5699556Y-5336641D01*
X5702096Y-5334406D01*
X5704027Y-5331612D01*
X5705195Y-5328462D01*
X5705602Y-5325110D01*
X5705500Y-5271414D01*
X5704687Y-5268112D01*
X5704027Y-5266588D01*
X5702096Y-5263794D01*
X5699556Y-5261559D01*
X5696559Y-5260035D01*
X5693308Y-5259222D01*
G37*
G36*
X5741619Y-5259120D02*
G01*
X5738266Y-5259527D01*
X5735066Y-5260695D01*
X5732322Y-5262626D01*
X5731103Y-5263794D01*
X5729173Y-5266588D01*
X5728004Y-5269738D01*
X5727598Y-5273090D01*
X5727700Y-5326786D01*
X5728512Y-5330088D01*
X5729173Y-5331612D01*
X5731103Y-5334406D01*
X5733643Y-5336641D01*
X5736640Y-5338165D01*
X5739892Y-5338978D01*
X5743295Y-5338978D01*
X5746546Y-5338165D01*
X5749544Y-5336641D01*
X5752084Y-5334406D01*
X5754014Y-5331612D01*
X5755182Y-5328462D01*
X5755589Y-5325110D01*
X5755487Y-5271414D01*
X5754674Y-5268112D01*
X5754014Y-5266588D01*
X5752084Y-5263794D01*
X5749544Y-5261559D01*
X5746546Y-5260035D01*
X5743295Y-5259222D01*
G37*
G36*
X5791606Y-5259120D02*
G01*
X5788253Y-5259527D01*
X5785104Y-5260695D01*
X5782310Y-5262626D01*
X5780074Y-5265166D01*
X5778500Y-5268112D01*
X5777687Y-5271414D01*
X5777585Y-5325110D01*
X5777992Y-5328462D01*
X5779211Y-5331612D01*
X5781141Y-5334406D01*
X5783630Y-5336641D01*
X5786628Y-5338165D01*
X5789930Y-5338978D01*
X5793282Y-5338978D01*
X5796584Y-5338165D01*
X5799582Y-5336641D01*
X5802071Y-5334406D01*
X5804001Y-5331612D01*
X5805220Y-5328462D01*
X5805627Y-5325110D01*
X5805525Y-5271414D01*
X5804712Y-5268112D01*
X5803138Y-5265166D01*
X5800902Y-5262626D01*
X5798108Y-5260695D01*
X5794959Y-5259527D01*
G37*
G36*
X5841593Y-5259120D02*
G01*
X5838240Y-5259527D01*
X5835091Y-5260695D01*
X5832297Y-5262626D01*
X5830062Y-5265166D01*
X5828487Y-5268112D01*
X5827674Y-5271414D01*
X5827572Y-5325110D01*
X5827979Y-5328462D01*
X5829198Y-5331612D01*
X5831128Y-5334406D01*
X5833618Y-5336641D01*
X5836615Y-5338165D01*
X5839917Y-5338978D01*
X5843270Y-5338978D01*
X5846572Y-5338165D01*
X5849569Y-5336641D01*
X5852058Y-5334406D01*
X5853988Y-5331612D01*
X5855208Y-5328462D01*
X5855614Y-5325110D01*
X5855512Y-5271414D01*
X5854700Y-5268112D01*
X5853125Y-5265166D01*
X5850890Y-5262626D01*
X5848096Y-5260695D01*
X5844946Y-5259527D01*
G37*
G36*
X5891580Y-5259120D02*
G01*
X5888278Y-5259527D01*
X5885078Y-5260695D01*
X5882335Y-5262626D01*
X5881116Y-5263794D01*
X5879185Y-5266588D01*
X5878017Y-5269738D01*
X5877610Y-5273090D01*
X5877712Y-5326786D01*
X5878525Y-5330088D01*
X5879185Y-5331612D01*
X5881116Y-5334406D01*
X5883656Y-5336641D01*
X5886653Y-5338165D01*
X5889904Y-5338978D01*
X5893308Y-5338978D01*
X5896559Y-5338165D01*
X5899556Y-5336641D01*
X5902096Y-5334406D01*
X5904026Y-5331612D01*
X5905195Y-5328462D01*
X5905601Y-5325110D01*
X5905500Y-5271414D01*
X5904687Y-5268112D01*
X5904026Y-5266588D01*
X5902096Y-5263794D01*
X5899556Y-5261559D01*
X5896559Y-5260035D01*
X5893308Y-5259222D01*
G37*
G36*
X5941618Y-5259120D02*
G01*
X5938266Y-5259527D01*
X5935065Y-5260695D01*
X5932322Y-5262626D01*
X5931103Y-5263794D01*
X5929172Y-5266588D01*
X5928004Y-5269738D01*
X5927598Y-5273090D01*
X5927699Y-5326786D01*
X5928512Y-5330088D01*
X5929172Y-5331612D01*
X5931103Y-5334406D01*
X5933643Y-5336641D01*
X5936640Y-5338165D01*
X5939891Y-5338978D01*
X5943295Y-5338978D01*
X5946546Y-5338165D01*
X5949543Y-5336641D01*
X5952083Y-5334406D01*
X5954014Y-5331612D01*
X5955182Y-5328462D01*
X5955588Y-5325110D01*
X5955487Y-5271414D01*
X5954674Y-5268112D01*
X5954014Y-5266588D01*
X5952083Y-5263794D01*
X5949543Y-5261559D01*
X5946546Y-5260035D01*
X5943295Y-5259222D01*
G37*
G36*
X5990590Y-5360873D02*
G01*
X5987237Y-5361279D01*
X5984087Y-5362498D01*
X5981293Y-5364429D01*
X5979058Y-5366918D01*
X5977534Y-5369915D01*
X5976721Y-5373217D01*
X5976721Y-5376570D01*
X5977534Y-5379872D01*
X5979058Y-5382869D01*
X5981293Y-5385358D01*
X5984087Y-5387289D01*
X5987237Y-5388508D01*
X5990590Y-5388914D01*
X6044285Y-5388813D01*
X6047587Y-5388000D01*
X6050534Y-5386425D01*
X6053074Y-5384190D01*
X6055004Y-5381396D01*
X6056172Y-5378246D01*
X6056579Y-5374894D01*
X6056172Y-5371541D01*
X6055004Y-5368391D01*
X6053074Y-5365597D01*
X6050534Y-5363362D01*
X6047587Y-5361787D01*
X6044285Y-5360974D01*
G37*
G36*
X5990590Y-5410098D02*
G01*
X5987237Y-5410504D01*
X5984087Y-5411673D01*
X5981293Y-5413603D01*
X5979058Y-5416143D01*
X5977534Y-5419140D01*
X5976721Y-5422392D01*
X5976721Y-5425795D01*
X5977534Y-5429046D01*
X5979058Y-5432044D01*
X5981293Y-5434584D01*
X5984087Y-5436514D01*
X5987237Y-5437682D01*
X5990590Y-5438089D01*
X6044285Y-5437987D01*
X6047587Y-5437174D01*
X6049111Y-5436514D01*
X6051905Y-5434584D01*
X6054140Y-5432044D01*
X6055664Y-5429046D01*
X6056477Y-5425795D01*
X6056477Y-5422392D01*
X6055664Y-5419140D01*
X6054140Y-5416143D01*
X6051905Y-5413603D01*
X6049111Y-5411673D01*
X6045962Y-5410504D01*
X6042609Y-5410098D01*
G37*
G36*
X5990590Y-5460085D02*
G01*
X5987237Y-5460492D01*
X5984087Y-5461711D01*
X5981293Y-5463641D01*
X5979058Y-5466130D01*
X5977534Y-5469128D01*
X5976721Y-5472430D01*
X5976721Y-5475782D01*
X5977534Y-5479084D01*
X5979058Y-5482082D01*
X5981293Y-5484571D01*
X5984087Y-5486501D01*
X5987237Y-5487720D01*
X5990590Y-5488127D01*
X6044285Y-5488025D01*
X6047587Y-5487212D01*
X6050534Y-5485638D01*
X6053074Y-5483402D01*
X6055004Y-5480608D01*
X6056172Y-5477459D01*
X6056579Y-5474106D01*
X6056172Y-5470753D01*
X6055004Y-5467604D01*
X6053074Y-5464810D01*
X6050534Y-5462574D01*
X6047587Y-5461000D01*
X6044285Y-5460187D01*
G37*
G36*
X5990590Y-5510072D02*
G01*
X5987237Y-5510479D01*
X5984087Y-5511698D01*
X5981293Y-5513628D01*
X5979058Y-5516118D01*
X5977534Y-5519115D01*
X5976721Y-5522417D01*
X5976721Y-5525770D01*
X5977534Y-5529072D01*
X5979058Y-5532069D01*
X5981293Y-5534558D01*
X5984087Y-5536488D01*
X5987237Y-5537708D01*
X5990590Y-5538114D01*
X6044285Y-5538012D01*
X6047587Y-5537200D01*
X6050534Y-5535625D01*
X6053074Y-5533390D01*
X6055004Y-5530596D01*
X6056172Y-5527446D01*
X6056579Y-5524093D01*
X6056172Y-5520740D01*
X6055004Y-5517591D01*
X6053074Y-5514797D01*
X6050534Y-5512562D01*
X6047587Y-5510987D01*
X6044285Y-5510174D01*
G37*
G36*
X5990590Y-5560110D02*
G01*
X5987237Y-5560517D01*
X5984087Y-5561685D01*
X5981293Y-5563616D01*
X5979058Y-5566156D01*
X5977534Y-5569153D01*
X5976721Y-5572404D01*
X5976721Y-5575808D01*
X5977534Y-5579059D01*
X5979058Y-5582056D01*
X5981293Y-5584596D01*
X5984087Y-5586526D01*
X5987237Y-5587695D01*
X5990590Y-5588101D01*
X6044285Y-5588000D01*
X6047587Y-5587187D01*
X6049111Y-5586526D01*
X6051905Y-5584596D01*
X6054140Y-5582056D01*
X6055664Y-5579059D01*
X6056477Y-5575808D01*
X6056477Y-5572404D01*
X6055664Y-5569153D01*
X6054140Y-5566156D01*
X6051905Y-5563616D01*
X6049111Y-5561685D01*
X6045962Y-5560517D01*
X6042609Y-5560110D01*
G37*
G36*
X5990590Y-5610098D02*
G01*
X5987237Y-5610504D01*
X5984087Y-5611672D01*
X5981293Y-5613603D01*
X5979058Y-5616143D01*
X5977534Y-5619140D01*
X5976721Y-5622391D01*
X5976721Y-5625795D01*
X5977534Y-5629046D01*
X5979058Y-5632043D01*
X5981293Y-5634583D01*
X5984087Y-5636514D01*
X5987237Y-5637682D01*
X5990590Y-5638088D01*
X6044285Y-5637987D01*
X6047587Y-5637174D01*
X6049111Y-5636514D01*
X6051905Y-5634583D01*
X6054140Y-5632043D01*
X6055664Y-5629046D01*
X6056477Y-5625795D01*
X6056477Y-5622391D01*
X6055664Y-5619140D01*
X6054140Y-5616143D01*
X6051905Y-5613603D01*
X6049111Y-5611672D01*
X6045962Y-5610504D01*
X6042609Y-5610098D01*
G37*
G36*
X5941618Y-5659120D02*
G01*
X5938266Y-5659526D01*
X5935065Y-5660694D01*
X5932322Y-5662625D01*
X5931103Y-5663793D01*
X5929172Y-5666587D01*
X5928004Y-5669737D01*
X5927598Y-5673090D01*
X5927699Y-5726785D01*
X5928512Y-5730087D01*
X5929172Y-5731611D01*
X5931103Y-5734405D01*
X5933643Y-5736640D01*
X5936640Y-5738164D01*
X5939891Y-5738977D01*
X5943295Y-5738977D01*
X5946546Y-5738164D01*
X5949543Y-5736640D01*
X5952083Y-5734405D01*
X5954014Y-5731611D01*
X5955182Y-5728462D01*
X5955588Y-5725109D01*
X5955487Y-5671413D01*
X5954674Y-5668111D01*
X5954014Y-5666587D01*
X5952083Y-5663793D01*
X5949543Y-5661558D01*
X5946546Y-5660034D01*
X5943295Y-5659221D01*
G37*
G36*
X5891580Y-5659120D02*
G01*
X5888278Y-5659526D01*
X5885078Y-5660694D01*
X5882335Y-5662625D01*
X5881116Y-5663793D01*
X5879185Y-5666587D01*
X5878017Y-5669737D01*
X5877610Y-5673090D01*
X5877712Y-5726785D01*
X5878525Y-5730087D01*
X5879185Y-5731611D01*
X5881116Y-5734405D01*
X5883656Y-5736640D01*
X5886653Y-5738164D01*
X5889904Y-5738977D01*
X5893308Y-5738977D01*
X5896559Y-5738164D01*
X5899556Y-5736640D01*
X5902096Y-5734405D01*
X5904026Y-5731611D01*
X5905195Y-5728462D01*
X5905601Y-5725109D01*
X5905500Y-5671413D01*
X5904687Y-5668111D01*
X5904026Y-5666587D01*
X5902096Y-5663793D01*
X5899556Y-5661558D01*
X5896559Y-5660034D01*
X5893308Y-5659221D01*
G37*
G36*
X5841593Y-5659120D02*
G01*
X5838240Y-5659526D01*
X5835091Y-5660694D01*
X5832297Y-5662625D01*
X5830062Y-5665165D01*
X5828487Y-5668111D01*
X5827674Y-5671413D01*
X5827572Y-5725109D01*
X5827979Y-5728462D01*
X5829198Y-5731611D01*
X5831128Y-5734405D01*
X5833618Y-5736640D01*
X5836615Y-5738164D01*
X5839917Y-5738977D01*
X5843270Y-5738977D01*
X5846572Y-5738164D01*
X5849569Y-5736640D01*
X5852058Y-5734405D01*
X5853988Y-5731611D01*
X5855208Y-5728462D01*
X5855614Y-5725109D01*
X5855512Y-5671413D01*
X5854700Y-5668111D01*
X5853125Y-5665165D01*
X5850890Y-5662625D01*
X5848096Y-5660694D01*
X5844946Y-5659526D01*
G37*
G36*
X5791606Y-5659120D02*
G01*
X5788253Y-5659526D01*
X5785104Y-5660694D01*
X5782310Y-5662625D01*
X5780074Y-5665165D01*
X5778500Y-5668111D01*
X5777687Y-5671413D01*
X5777585Y-5725109D01*
X5777992Y-5728462D01*
X5779211Y-5731611D01*
X5781141Y-5734405D01*
X5783630Y-5736640D01*
X5786628Y-5738164D01*
X5789930Y-5738977D01*
X5793282Y-5738977D01*
X5796584Y-5738164D01*
X5799582Y-5736640D01*
X5802071Y-5734405D01*
X5804001Y-5731611D01*
X5805220Y-5728462D01*
X5805627Y-5725109D01*
X5805525Y-5671413D01*
X5804712Y-5668111D01*
X5803138Y-5665165D01*
X5800902Y-5662625D01*
X5798108Y-5660694D01*
X5794959Y-5659526D01*
G37*
G36*
X5741619Y-5659120D02*
G01*
X5738266Y-5659526D01*
X5735066Y-5660694D01*
X5732322Y-5662625D01*
X5731103Y-5663793D01*
X5729173Y-5666587D01*
X5728004Y-5669737D01*
X5727598Y-5673090D01*
X5727700Y-5726785D01*
X5728512Y-5730087D01*
X5729173Y-5731611D01*
X5731103Y-5734405D01*
X5733643Y-5736640D01*
X5736640Y-5738164D01*
X5739892Y-5738977D01*
X5743295Y-5738977D01*
X5746546Y-5738164D01*
X5749544Y-5736640D01*
X5752084Y-5734405D01*
X5754014Y-5731611D01*
X5755182Y-5728462D01*
X5755589Y-5725109D01*
X5755487Y-5671413D01*
X5754674Y-5668111D01*
X5754014Y-5666587D01*
X5752084Y-5663793D01*
X5749544Y-5661558D01*
X5746546Y-5660034D01*
X5743295Y-5659221D01*
G37*
G36*
X5691581Y-5659120D02*
G01*
X5688279Y-5659526D01*
X5685078Y-5660694D01*
X5682335Y-5662625D01*
X5681116Y-5663793D01*
X5679186Y-5666587D01*
X5678017Y-5669737D01*
X5677611Y-5673090D01*
X5677712Y-5726785D01*
X5678525Y-5730087D01*
X5679186Y-5731611D01*
X5681116Y-5734405D01*
X5683656Y-5736640D01*
X5686653Y-5738164D01*
X5689904Y-5738977D01*
X5693308Y-5738977D01*
X5696559Y-5738164D01*
X5699556Y-5736640D01*
X5702096Y-5734405D01*
X5704027Y-5731611D01*
X5705195Y-5728462D01*
X5705602Y-5725109D01*
X5705500Y-5671413D01*
X5704687Y-5668111D01*
X5704027Y-5666587D01*
X5702096Y-5663793D01*
X5699556Y-5661558D01*
X5696559Y-5660034D01*
X5693308Y-5659221D01*
G37*
G36*
X5590590Y-5610098D02*
G01*
X5587238Y-5610504D01*
X5584088Y-5611672D01*
X5581294Y-5613603D01*
X5579059Y-5616143D01*
X5577535Y-5619140D01*
X5576722Y-5622391D01*
X5576722Y-5625795D01*
X5577535Y-5629046D01*
X5579059Y-5632043D01*
X5581294Y-5634583D01*
X5584088Y-5636514D01*
X5587238Y-5637682D01*
X5590590Y-5638088D01*
X5644286Y-5637987D01*
X5647588Y-5637174D01*
X5649112Y-5636514D01*
X5651906Y-5634583D01*
X5654141Y-5632043D01*
X5655665Y-5629046D01*
X5656478Y-5625795D01*
X5656478Y-5622391D01*
X5655665Y-5619140D01*
X5654141Y-5616143D01*
X5651906Y-5613603D01*
X5649112Y-5611672D01*
X5645962Y-5610504D01*
X5642610Y-5610098D01*
G37*
G36*
X5590590Y-5560110D02*
G01*
X5587238Y-5560517D01*
X5584088Y-5561685D01*
X5581294Y-5563616D01*
X5579059Y-5566156D01*
X5577535Y-5569153D01*
X5576722Y-5572404D01*
X5576722Y-5575808D01*
X5577535Y-5579059D01*
X5579059Y-5582056D01*
X5581294Y-5584596D01*
X5584088Y-5586526D01*
X5587238Y-5587695D01*
X5590590Y-5588101D01*
X5644286Y-5588000D01*
X5647588Y-5587187D01*
X5649112Y-5586526D01*
X5651906Y-5584596D01*
X5654141Y-5582056D01*
X5655665Y-5579059D01*
X5656478Y-5575808D01*
X5656478Y-5572404D01*
X5655665Y-5569153D01*
X5654141Y-5566156D01*
X5651906Y-5563616D01*
X5649112Y-5561685D01*
X5645962Y-5560517D01*
X5642610Y-5560110D01*
G37*
G36*
X5590590Y-5510072D02*
G01*
X5587238Y-5510479D01*
X5584088Y-5511698D01*
X5581294Y-5513628D01*
X5579059Y-5516118D01*
X5577535Y-5519115D01*
X5576722Y-5522417D01*
X5576722Y-5525770D01*
X5577535Y-5529072D01*
X5579059Y-5532069D01*
X5581294Y-5534558D01*
X5584088Y-5536488D01*
X5587238Y-5537708D01*
X5590590Y-5538114D01*
X5644286Y-5538012D01*
X5647588Y-5537200D01*
X5650534Y-5535625D01*
X5653074Y-5533390D01*
X5655005Y-5530596D01*
X5656173Y-5527446D01*
X5656580Y-5524093D01*
X5656173Y-5520740D01*
X5655005Y-5517591D01*
X5653074Y-5514797D01*
X5650534Y-5512562D01*
X5647588Y-5510987D01*
X5644286Y-5510174D01*
G37*
G36*
X5590590Y-5460085D02*
G01*
X5587238Y-5460492D01*
X5584088Y-5461711D01*
X5581294Y-5463641D01*
X5579059Y-5466130D01*
X5577535Y-5469128D01*
X5576722Y-5472430D01*
X5576722Y-5475782D01*
X5577535Y-5479084D01*
X5579059Y-5482082D01*
X5581294Y-5484571D01*
X5584088Y-5486501D01*
X5587238Y-5487720D01*
X5590590Y-5488127D01*
X5644286Y-5488025D01*
X5647588Y-5487212D01*
X5650534Y-5485638D01*
X5653074Y-5483402D01*
X5655005Y-5480608D01*
X5656173Y-5477459D01*
X5656580Y-5474106D01*
X5656173Y-5470753D01*
X5655005Y-5467604D01*
X5653074Y-5464810D01*
X5650534Y-5462574D01*
X5647588Y-5461000D01*
X5644286Y-5460187D01*
G37*
G36*
X5590590Y-5410098D02*
G01*
X5587238Y-5410504D01*
X5584088Y-5411673D01*
X5581294Y-5413603D01*
X5579059Y-5416143D01*
X5577535Y-5419140D01*
X5576722Y-5422392D01*
X5576722Y-5425795D01*
X5577535Y-5429046D01*
X5579059Y-5432044D01*
X5581294Y-5434584D01*
X5584088Y-5436514D01*
X5587238Y-5437682D01*
X5590590Y-5438089D01*
X5644286Y-5437987D01*
X5647588Y-5437174D01*
X5649112Y-5436514D01*
X5651906Y-5434584D01*
X5654141Y-5432044D01*
X5655665Y-5429046D01*
X5656478Y-5425795D01*
X5656478Y-5422392D01*
X5655665Y-5419140D01*
X5654141Y-5416143D01*
X5651906Y-5413603D01*
X5649112Y-5411673D01*
X5645962Y-5410504D01*
X5642610Y-5410098D01*
G37*
G36*
X5590590Y-5360111D02*
G01*
X5587238Y-5360517D01*
X5584088Y-5361686D01*
X5581294Y-5363616D01*
X5579059Y-5366156D01*
X5577535Y-5369153D01*
X5576722Y-5372404D01*
X5576722Y-5375808D01*
X5577535Y-5379059D01*
X5579059Y-5382056D01*
X5581294Y-5384596D01*
X5584088Y-5386527D01*
X5587238Y-5387695D01*
X5590590Y-5388102D01*
X5644286Y-5388000D01*
X5647588Y-5387187D01*
X5649112Y-5386527D01*
X5651906Y-5384596D01*
X5654141Y-5382056D01*
X5655665Y-5379059D01*
X5656478Y-5375808D01*
X5656478Y-5372404D01*
X5655665Y-5369153D01*
X5654141Y-5366156D01*
X5651906Y-5363616D01*
X5649112Y-5361686D01*
X5645962Y-5360517D01*
X5642610Y-5360111D01*
G37*
G36*
X5708599Y-5392369D02*
G01*
X5708599Y-5608320D01*
X5924600Y-5608320D01*
X5924600Y-5392369D01*
G37*
G36*
X6516522Y-2482291D02*
G01*
X6511493Y-2487320D01*
X6511493Y-2510078D01*
X6548475Y-2510078D01*
X6548475Y-2543098D01*
X6511493Y-2543098D01*
X6511493Y-2567279D01*
X6516522Y-2572308D01*
X6596481Y-2572308D01*
X6601510Y-2567279D01*
X6601510Y-2487320D01*
X6596481Y-2482291D01*
G37*
G36*
X6357518Y-2482291D02*
G01*
X6352489Y-2487320D01*
X6352489Y-2567279D01*
X6357518Y-2572308D01*
X6437477Y-2572308D01*
X6442506Y-2567279D01*
X6442506Y-2544521D01*
X6405524Y-2544521D01*
X6405524Y-2511501D01*
X6442506Y-2511501D01*
X6442506Y-2487320D01*
X6437477Y-2482291D01*
G37*
G36*
X4963820Y-891489D02*
G01*
X4958791Y-896518D01*
X4958791Y-976477D01*
X4963820Y-981506D01*
X4986578Y-981506D01*
X4986578Y-944473D01*
X5019598Y-944473D01*
X5019598Y-981506D01*
X5043779Y-981506D01*
X5048808Y-976477D01*
X5048808Y-896518D01*
X5043779Y-891489D01*
G37*
G36*
X4963820Y-1050493D02*
G01*
X4958791Y-1055522D01*
X4958791Y-1135481D01*
X4963820Y-1140510D01*
X5043779Y-1140510D01*
X5048808Y-1135481D01*
X5048808Y-1055522D01*
X5043779Y-1050493D01*
X5021021Y-1050493D01*
X5021021Y-1087526D01*
X4988001Y-1087526D01*
X4988001Y-1050493D01*
G37*
G36*
X4960518Y-1237691D02*
G01*
X4955489Y-1242720D01*
X4955489Y-1322679D01*
X4960518Y-1327708D01*
X5040477Y-1327708D01*
X5045506Y-1322679D01*
X5045506Y-1299921D01*
X5008524Y-1299921D01*
X5008524Y-1266901D01*
X5045506Y-1266901D01*
X5045506Y-1242720D01*
X5040477Y-1237691D01*
G37*
G36*
X5119522Y-1237691D02*
G01*
X5114493Y-1242720D01*
X5114493Y-1265478D01*
X5151475Y-1265478D01*
X5151475Y-1298498D01*
X5114493Y-1298498D01*
X5114493Y-1322679D01*
X5119522Y-1327708D01*
X5199481Y-1327708D01*
X5204510Y-1322679D01*
X5204510Y-1242720D01*
X5199481Y-1237691D01*
G37*
G36*
X4833518Y-526491D02*
G01*
X4828489Y-531520D01*
X4828489Y-611479D01*
X4833518Y-616508D01*
X4913477Y-616508D01*
X4918506Y-611479D01*
X4918506Y-588721D01*
X4881524Y-588721D01*
X4881524Y-555701D01*
X4918506Y-555701D01*
X4918506Y-531520D01*
X4913477Y-526491D01*
G37*
G36*
X4992522Y-526491D02*
G01*
X4987493Y-531520D01*
X4987493Y-554278D01*
X5024475Y-554278D01*
X5024475Y-587298D01*
X4987493Y-587298D01*
X4987493Y-611479D01*
X4992522Y-616508D01*
X5072481Y-616508D01*
X5077510Y-611479D01*
X5077510Y-531520D01*
X5072481Y-526491D01*
G37*
G36*
X5043322Y-107391D02*
G01*
X5038293Y-112420D01*
X5038293Y-135178D01*
X5075275Y-135178D01*
X5075275Y-168198D01*
X5038293Y-168198D01*
X5038293Y-192379D01*
X5043322Y-197408D01*
X5123281Y-197408D01*
X5128310Y-192379D01*
X5128310Y-112420D01*
X5123281Y-107391D01*
G37*
G36*
X4884318Y-107391D02*
G01*
X4879289Y-112420D01*
X4879289Y-192379D01*
X4884318Y-197408D01*
X4964277Y-197408D01*
X4969306Y-192379D01*
X4969306Y-169621D01*
X4932324Y-169621D01*
X4932324Y-136601D01*
X4969306Y-136601D01*
X4969306Y-112420D01*
X4964277Y-107391D01*
G37*
G36*
X3436518Y-539191D02*
G01*
X3431489Y-544220D01*
X3431489Y-624179D01*
X3436518Y-629208D01*
X3516477Y-629208D01*
X3521506Y-624179D01*
X3521506Y-601421D01*
X3484524Y-601421D01*
X3484524Y-568401D01*
X3521506Y-568401D01*
X3521506Y-544220D01*
X3516477Y-539191D01*
G37*
G36*
X3595522Y-539191D02*
G01*
X3590493Y-544220D01*
X3590493Y-566978D01*
X3627475Y-566978D01*
X3627475Y-599998D01*
X3590493Y-599998D01*
X3590493Y-624179D01*
X3595522Y-629208D01*
X3675481Y-629208D01*
X3680510Y-624179D01*
X3680510Y-544220D01*
X3675481Y-539191D01*
G37*
G36*
X3735222Y-81991D02*
G01*
X3730193Y-87020D01*
X3730193Y-109778D01*
X3767175Y-109778D01*
X3767175Y-142798D01*
X3730193Y-142798D01*
X3730193Y-166979D01*
X3735222Y-172008D01*
X3815181Y-172008D01*
X3820210Y-166979D01*
X3820210Y-87020D01*
X3815181Y-81991D01*
G37*
G36*
X3576218Y-81991D02*
G01*
X3571189Y-87020D01*
X3571189Y-166979D01*
X3576218Y-172008D01*
X3656177Y-172008D01*
X3661206Y-166979D01*
X3661206Y-144221D01*
X3624224Y-144221D01*
X3624224Y-111201D01*
X3661206Y-111201D01*
X3661206Y-87020D01*
X3656177Y-81991D01*
G37*
G36*
X3652418Y-1097991D02*
G01*
X3647389Y-1103020D01*
X3647389Y-1182979D01*
X3652418Y-1188008D01*
X3732377Y-1188008D01*
X3737406Y-1182979D01*
X3737406Y-1160221D01*
X3700424Y-1160221D01*
X3700424Y-1127201D01*
X3737406Y-1127201D01*
X3737406Y-1103020D01*
X3732377Y-1097991D01*
G37*
G36*
X3811422Y-1097991D02*
G01*
X3806393Y-1103020D01*
X3806393Y-1125778D01*
X3843375Y-1125778D01*
X3843375Y-1158798D01*
X3806393Y-1158798D01*
X3806393Y-1182979D01*
X3811422Y-1188008D01*
X3891381Y-1188008D01*
X3896410Y-1182979D01*
X3896410Y-1103020D01*
X3891381Y-1097991D01*
G37*
G36*
X3541420Y-726389D02*
G01*
X3536391Y-731418D01*
X3536391Y-811377D01*
X3541420Y-816406D01*
X3564178Y-816406D01*
X3564178Y-779373D01*
X3597198Y-779373D01*
X3597198Y-816406D01*
X3621379Y-816406D01*
X3626408Y-811377D01*
X3626408Y-731418D01*
X3621379Y-726389D01*
G37*
G36*
X3541420Y-885393D02*
G01*
X3536391Y-890422D01*
X3536391Y-970381D01*
X3541420Y-975410D01*
X3621379Y-975410D01*
X3626408Y-970381D01*
X3626408Y-890422D01*
X3621379Y-885393D01*
X3598621Y-885393D01*
X3598621Y-922426D01*
X3565601Y-922426D01*
X3565601Y-885393D01*
G37*
G36*
X3390696Y-3334258D02*
G01*
X3380689Y-3344265D01*
X3380689Y-3615334D01*
X3390696Y-3625342D01*
X3661714Y-3625342D01*
X3671722Y-3615334D01*
X3671722Y-3539286D01*
X3661714Y-3529279D01*
X3582771Y-3529279D01*
X3572764Y-3519271D01*
X3572764Y-3440328D01*
X3582771Y-3430320D01*
X3661714Y-3430320D01*
X3671722Y-3420313D01*
X3671722Y-3344265D01*
X3661714Y-3334258D01*
G37*
G36*
X3856685Y-3334258D02*
G01*
X3846677Y-3344265D01*
X3846677Y-3420313D01*
X3856685Y-3430320D01*
X3935628Y-3430320D01*
X3945636Y-3440328D01*
X3945636Y-3519271D01*
X3935628Y-3529279D01*
X3856685Y-3529279D01*
X3846677Y-3539286D01*
X3846677Y-3615334D01*
X3856685Y-3625342D01*
X4127703Y-3625342D01*
X4137710Y-3615334D01*
X4137710Y-3344265D01*
X4127703Y-3334258D01*
G37*
D10*
G01*
X7004304Y-2081199D03*
G01*
X7194295Y-2081199D03*
G01*
X7099300Y-1881200D03*
D11*
G01*
X7111542Y-1327404D03*
G01*
X7111542Y-1422400D03*
G01*
X7111542Y-1517395D03*
G01*
X7341057Y-1517395D03*
G01*
X7341057Y-1327404D03*
D12*
G01*
X6616700Y-5771997D03*
G01*
X6616700Y-5912002D03*
G01*
X6223000Y-5530697D03*
G01*
X6223000Y-5670702D03*
D13*
G01*
X3887800Y-311404D03*
G01*
X3887800Y-501395D03*
G01*
X4087799Y-406400D03*
G01*
X5170500Y-311404D03*
G01*
X5170500Y-501395D03*
G01*
X5370499Y-406400D03*
G01*
X3887800Y-717804D03*
G01*
X3887800Y-907795D03*
G01*
X4087799Y-812800D03*
G01*
X5170500Y-705104D03*
G01*
X5170500Y-895095D03*
G01*
X5370499Y-800100D03*
D14*
G01*
X6102197Y-2514600D03*
G01*
X6242202Y-2514600D03*
G01*
X6699402Y-2705100D03*
G01*
X6559397Y-2705100D03*
G01*
X6877202Y-2527300D03*
G01*
X6737197Y-2527300D03*
G01*
X4095902Y-1689100D03*
G01*
X3955897Y-1689100D03*
D12*
G01*
X5156200Y-1594002D03*
G01*
X5156200Y-1453997D03*
D15*
G01*
X6233299Y-1351203D03*
D16*
G01*
X6568313Y-2213711D03*
G01*
X6568313Y-1113713D03*
D17*
G01*
X6233312Y-1476197D03*
G01*
X6233312Y-1601215D03*
G01*
X6233312Y-1726209D03*
G01*
X6233312Y-1851202D03*
G01*
X6233312Y-1976221D03*
D18*
G01*
X4605154Y-248157D03*
G01*
X4605154Y-2368042D03*
D19*
G01*
X4310242Y-433069D03*
G01*
X4310242Y-558038D03*
D15*
G01*
X4310242Y-683132D03*
D19*
G01*
X4310242Y-808227D03*
G01*
X4310242Y-933196D03*
G01*
X4310242Y-1058164D03*
G01*
X4310242Y-1183132D03*
G01*
X4310242Y-1308100D03*
G01*
X4310242Y-1433067D03*
G01*
X4310242Y-1558035D03*
D15*
G01*
X4310242Y-1683130D03*
D19*
G01*
X4310242Y-1808226D03*
G01*
X4310242Y-1933193D03*
G01*
X4310242Y-2058161D03*
G01*
X4310242Y-2183130D03*
D18*
G01*
X5849754Y-248157D03*
G01*
X5849754Y-2368042D03*
D19*
G01*
X5554842Y-433069D03*
G01*
X5554842Y-558038D03*
D15*
G01*
X5554842Y-683132D03*
D19*
G01*
X5554842Y-808227D03*
G01*
X5554842Y-933196D03*
G01*
X5554842Y-1058164D03*
G01*
X5554842Y-1183132D03*
G01*
X5554842Y-1308100D03*
G01*
X5554842Y-1433067D03*
G01*
X5554842Y-1558035D03*
D15*
G01*
X5554842Y-1683130D03*
D19*
G01*
X5554842Y-1808226D03*
G01*
X5554842Y-1933193D03*
G01*
X5554842Y-2058161D03*
G01*
X5554842Y-2183130D03*
D20*
G01*
X6248400Y-857986D03*
G01*
X6502400Y-857986D03*
G01*
X6502400Y-157987D03*
G01*
X6248400Y-157987D03*
D21*
G01*
X6678752Y-2960801D03*
G01*
X6551752Y-2960801D03*
G01*
X6424752Y-2960801D03*
G01*
X6297752Y-2960801D03*
G01*
X6170752Y-2960801D03*
G01*
X6043752Y-2960801D03*
G01*
X5916752Y-2960801D03*
G01*
X5789752Y-2960801D03*
G01*
X5662752Y-2960801D03*
G01*
X5535752Y-2960801D03*
G01*
X5408752Y-2960801D03*
G01*
X5281752Y-2960801D03*
G01*
X5154752Y-2960801D03*
G01*
X5027752Y-2960801D03*
D22*
G01*
X4878247Y-3289325D03*
G01*
X4878247Y-3416325D03*
G01*
X4878247Y-3543325D03*
G01*
X4878247Y-3670325D03*
G01*
X4878247Y-3797325D03*
G01*
X4878247Y-3924325D03*
G01*
X4878247Y-4051325D03*
G01*
X4878247Y-4178325D03*
G01*
X4878247Y-4305325D03*
G01*
X4878247Y-4432325D03*
D21*
G01*
X5027752Y-4760798D03*
G01*
X5154752Y-4760798D03*
G01*
X5281752Y-4760798D03*
G01*
X5408752Y-4760798D03*
G01*
X5535752Y-4760798D03*
G01*
X5662752Y-4760798D03*
G01*
X5789752Y-4760798D03*
G01*
X5916752Y-4760798D03*
G01*
X6043752Y-4760798D03*
G01*
X6170752Y-4760798D03*
G01*
X6297752Y-4760798D03*
G01*
X6424752Y-4760798D03*
G01*
X6551752Y-4760798D03*
G01*
X6678752Y-4760798D03*
D23*
G01*
X5910656Y-3710787D03*
G01*
X5910656Y-3570808D03*
G01*
X5910656Y-3850792D03*
G01*
X6050661Y-3850792D03*
G01*
X6050661Y-3710812D03*
G01*
X6050661Y-3570808D03*
G01*
X5770651Y-3570808D03*
G01*
X5770651Y-3710812D03*
G01*
X5770651Y-3850792D03*
D24*
G01*
X7050912Y-120799D03*
D16*
G01*
X7050887Y-615797D03*
D19*
G01*
X6715887Y-430753D03*
G01*
X6715887Y-305785D03*
D14*
G01*
X3753002Y-3098800D03*
G01*
X3612997Y-3098800D03*
D25*
G01*
X4036110Y-2819400D03*
G01*
X4036110Y-2692400D03*
G01*
X4036110Y-2565400D03*
G01*
X4036110Y-2438400D03*
G01*
X4036110Y-2311400D03*
G01*
X4036110Y-2184400D03*
G01*
X4036110Y-2057400D03*
G01*
X3482289Y-2819400D03*
G01*
X3482289Y-2692400D03*
G01*
X3482289Y-2565400D03*
G01*
X3482289Y-2438400D03*
G01*
X3482289Y-2311400D03*
G01*
X3482289Y-2184400D03*
G01*
X3482289Y-2057400D03*
G36*
X895400Y-3460800D02*
G01*
X1695399Y-3460800D01*
X1695399Y-4260799D01*
X895400Y-4260799D01*
G37*
M02*
