G04 Layer: BottomLayer*
G04 EasyEDA v6.5.44, 2024-08-24 22:55:38*
G04 c584bd3c03fa4b5bb03f9f2b3921847a,c23a61fc8c4145e6967fd80801f93d45,10*
G04 Gerber Generator version 0.2*
G04 Scale: 100 percent, Rotated: No, Reflected: No *
G04 Dimensions in millimeters *
G04 leading zeros omitted , absolute positions ,4 integer and 5 decimal *
%FSLAX45Y45*%
%MOMM*%

%ADD10C,3.0000*%
%ADD11C,0.6000*%
%ADD12C,0.8000*%
%ADD13C,0.5000*%
%ADD14C,0.2540*%
%ADD15C,1.0000*%
%ADD16C,2.5000*%
%ADD17C,1.8000*%
%ADD18C,1.6000*%
%ADD19R,1.8000X1.6000*%
%ADD20C,4.0000*%
%ADD21C,3.5000*%
%ADD22R,3.0000X3.0000*%
%ADD23C,7.0000*%
%ADD24C,0.5000*%
%ADD25C,0.6200*%
%ADD26C,0.6100*%
%ADD27C,0.0109*%

%LPD*%
G36*
X5451144Y-1625092D02*
G01*
X5447030Y-1624228D01*
X5443626Y-1621739D01*
X5441492Y-1618132D01*
X5441035Y-1613916D01*
X5442305Y-1609902D01*
X5445099Y-1606753D01*
X5447792Y-1604772D01*
X5454446Y-1597812D01*
X5459831Y-1589836D01*
X5463844Y-1581048D01*
X5466232Y-1571701D01*
X5467096Y-1562100D01*
X5466232Y-1552498D01*
X5463844Y-1543151D01*
X5459831Y-1534363D01*
X5454446Y-1526387D01*
X5447792Y-1519428D01*
X5440019Y-1513687D01*
X5431383Y-1509318D01*
X5422188Y-1506524D01*
X5412638Y-1505254D01*
X5402986Y-1505712D01*
X5399582Y-1506169D01*
X5350002Y-1506169D01*
X5342229Y-1505254D01*
X5332577Y-1505712D01*
X5329174Y-1506169D01*
X4754778Y-1506169D01*
X4750612Y-1505305D01*
X4747209Y-1502765D01*
X4745126Y-1499057D01*
X4744720Y-1494840D01*
X4746091Y-1490827D01*
X4748987Y-1487678D01*
X4752898Y-1486052D01*
X4757420Y-1485188D01*
X4762754Y-1482852D01*
X4767834Y-1479092D01*
X4934864Y-1324000D01*
X4938064Y-1322019D01*
X4941773Y-1321308D01*
X5509564Y-1321308D01*
X5513425Y-1322070D01*
X5516727Y-1324305D01*
X5671058Y-1478635D01*
X5675833Y-1482445D01*
X5681065Y-1484934D01*
X5686704Y-1486204D01*
X5689904Y-1486408D01*
X6462268Y-1486408D01*
X6466535Y-1487373D01*
X6470040Y-1490014D01*
X6472072Y-1493926D01*
X6472275Y-1498346D01*
X6470548Y-1502410D01*
X6466281Y-1508506D01*
X6462115Y-1517396D01*
X6459575Y-1526895D01*
X6458712Y-1536700D01*
X6459575Y-1546504D01*
X6462115Y-1556004D01*
X6466281Y-1564894D01*
X6471920Y-1572920D01*
X6478879Y-1579880D01*
X6486906Y-1585518D01*
X6495796Y-1589684D01*
X6505295Y-1592224D01*
X6515100Y-1593088D01*
X6524904Y-1592224D01*
X6534404Y-1589684D01*
X6536740Y-1588566D01*
X6541058Y-1587601D01*
X6565341Y-1587601D01*
X6569659Y-1588566D01*
X6571996Y-1589684D01*
X6581495Y-1592224D01*
X6591300Y-1593088D01*
X6601104Y-1592224D01*
X6610603Y-1589684D01*
X6612940Y-1588566D01*
X6617258Y-1587601D01*
X7122871Y-1587601D01*
X7126986Y-1588465D01*
X7130389Y-1590954D01*
X7132523Y-1594561D01*
X7132980Y-1598726D01*
X7131710Y-1602740D01*
X7128967Y-1605889D01*
X7106056Y-1623060D01*
X7103211Y-1624584D01*
X7099960Y-1625092D01*
G37*

%LPD*%
G36*
X6113018Y-2345232D02*
G01*
X6108649Y-2345080D01*
X6104737Y-2343048D01*
X6102045Y-2339543D01*
X6101130Y-2335225D01*
X6101130Y-2057857D01*
X6100216Y-2047697D01*
X6097676Y-2038299D01*
X6093561Y-2029460D01*
X6087973Y-2021484D01*
X6081115Y-2014626D01*
X6073140Y-2009038D01*
X6064300Y-2004923D01*
X6054902Y-2002383D01*
X6044742Y-2001469D01*
X5983884Y-2001469D01*
X5979515Y-2000504D01*
X5975959Y-1997710D01*
X5973978Y-1993696D01*
X5973978Y-1989175D01*
X5975858Y-1985111D01*
X5979312Y-1982266D01*
X5986119Y-1978812D01*
X5993892Y-1973072D01*
X6000546Y-1966112D01*
X6005931Y-1958136D01*
X6009944Y-1949348D01*
X6012332Y-1940001D01*
X6013196Y-1930400D01*
X6012332Y-1920798D01*
X6009944Y-1911451D01*
X6005931Y-1902663D01*
X6000546Y-1894687D01*
X5993892Y-1887728D01*
X5991199Y-1885746D01*
X5988405Y-1882597D01*
X5987135Y-1878584D01*
X5987592Y-1874367D01*
X5989726Y-1870760D01*
X5993130Y-1868271D01*
X5997244Y-1867407D01*
X6479336Y-1867407D01*
X6483096Y-1868119D01*
X6486347Y-1870252D01*
X6488582Y-1873402D01*
X6489446Y-1877161D01*
X6488887Y-1880971D01*
X6485483Y-1890674D01*
X6483858Y-1900174D01*
X6483858Y-1909825D01*
X6485483Y-1919325D01*
X6488988Y-1929231D01*
X6489547Y-1932584D01*
X6489598Y-1940712D01*
X6488988Y-1944166D01*
X6485483Y-1954174D01*
X6483858Y-1963674D01*
X6483858Y-1973325D01*
X6485483Y-1982825D01*
X6488684Y-1991918D01*
X6493357Y-2000351D01*
X6499453Y-2007870D01*
X6506667Y-2014220D01*
X6518351Y-2021484D01*
X6520586Y-2024684D01*
X6521450Y-2028545D01*
X6520789Y-2032406D01*
X6518706Y-2035708D01*
X6515506Y-2037994D01*
X6511696Y-2038908D01*
X6507886Y-2039112D01*
X6498437Y-2041143D01*
X6491630Y-2043836D01*
X6487820Y-2044598D01*
X6413703Y-2044598D01*
X6409080Y-2044801D01*
X6404660Y-2045360D01*
X6400342Y-2046325D01*
X6396075Y-2047646D01*
X6392011Y-2049373D01*
X6388049Y-2051405D01*
X6384290Y-2053793D01*
X6380784Y-2056485D01*
X6377330Y-2059635D01*
X6224727Y-2212289D01*
X6144564Y-2294077D01*
X6139484Y-2297836D01*
X6133236Y-2304084D01*
X6128156Y-2311349D01*
X6124397Y-2319426D01*
X6122111Y-2327960D01*
X6121400Y-2336139D01*
X6120079Y-2340305D01*
X6117082Y-2343556D01*
G37*

%LPD*%
G36*
X7371638Y-2768600D02*
G01*
X7365542Y-2768092D01*
X7323023Y-2768092D01*
X7319111Y-2767330D01*
X7315809Y-2765094D01*
X7313625Y-2761843D01*
X7312863Y-2757932D01*
X7313625Y-2754020D01*
X7321194Y-2743200D01*
X7330084Y-2724404D01*
X7332624Y-2714904D01*
X7333488Y-2705100D01*
X7332624Y-2695295D01*
X7330084Y-2685796D01*
X7328966Y-2683459D01*
X7328001Y-2679141D01*
X7328001Y-2667558D01*
X7328966Y-2663240D01*
X7330084Y-2660904D01*
X7332624Y-2651404D01*
X7333488Y-2641600D01*
X7332624Y-2631795D01*
X7330084Y-2622296D01*
X7325918Y-2613406D01*
X7320280Y-2605379D01*
X7313320Y-2598420D01*
X7305294Y-2592781D01*
X7296403Y-2588615D01*
X7286548Y-2585974D01*
X7282789Y-2584094D01*
X7280148Y-2580792D01*
X7279030Y-2576728D01*
X7279690Y-2572562D01*
X7281976Y-2569006D01*
X7351064Y-2499969D01*
X7354214Y-2496515D01*
X7356906Y-2493010D01*
X7359294Y-2489250D01*
X7361326Y-2485288D01*
X7363053Y-2481224D01*
X7364374Y-2476957D01*
X7365339Y-2472639D01*
X7365898Y-2468219D01*
X7366101Y-2463596D01*
X7366101Y-2054961D01*
X7366863Y-2051100D01*
X7369098Y-2047798D01*
X7372400Y-2045563D01*
X7376261Y-2044801D01*
X7721142Y-2044801D01*
X7730439Y-2043988D01*
X7738973Y-2041702D01*
X7747050Y-2037943D01*
X7754315Y-2032863D01*
X7760563Y-2026615D01*
X7765643Y-2019350D01*
X7769402Y-2011273D01*
X7771688Y-2002739D01*
X7772501Y-1993442D01*
X7772501Y-1537157D01*
X7771688Y-1527860D01*
X7769402Y-1519326D01*
X7765643Y-1511249D01*
X7760563Y-1503984D01*
X7754315Y-1497736D01*
X7747050Y-1492656D01*
X7738973Y-1488897D01*
X7730439Y-1486611D01*
X7721142Y-1485798D01*
X7147864Y-1485798D01*
X7144003Y-1485036D01*
X7140702Y-1482801D01*
X7138466Y-1479499D01*
X7137704Y-1475638D01*
X7138466Y-1471726D01*
X7140702Y-1468424D01*
X7180935Y-1428242D01*
X7184745Y-1423466D01*
X7187234Y-1418234D01*
X7188504Y-1412595D01*
X7188708Y-1409395D01*
X7188708Y-1130858D01*
X7188047Y-1124762D01*
X7186168Y-1119276D01*
X7183120Y-1114348D01*
X7178649Y-1109827D01*
X6912864Y-894638D01*
X6907479Y-891184D01*
X6902043Y-889253D01*
X6895490Y-888492D01*
X5678322Y-888492D01*
X5674614Y-887780D01*
X5671413Y-885799D01*
X5666790Y-881532D01*
X5664403Y-878179D01*
X5663539Y-874166D01*
X5664352Y-870102D01*
X5666689Y-866749D01*
X5670194Y-864565D01*
X5674258Y-863955D01*
X5677204Y-864108D01*
X5993841Y-864108D01*
X6000140Y-863396D01*
X6005626Y-861466D01*
X6010503Y-858418D01*
X6014618Y-854303D01*
X6017666Y-849426D01*
X6019596Y-843940D01*
X6020308Y-837641D01*
X6020308Y-660958D01*
X6019596Y-654659D01*
X6017666Y-649173D01*
X6014618Y-644296D01*
X6010503Y-640181D01*
X6005626Y-637133D01*
X6000140Y-635203D01*
X5993841Y-634492D01*
X5639358Y-634492D01*
X5633059Y-635203D01*
X5627573Y-637133D01*
X5622696Y-640181D01*
X5618581Y-644296D01*
X5615533Y-649173D01*
X5613603Y-654659D01*
X5612892Y-660958D01*
X5612892Y-799795D01*
X5613044Y-802843D01*
X5614111Y-807821D01*
X5614060Y-812038D01*
X5612333Y-815898D01*
X5609132Y-818743D01*
X5605119Y-820013D01*
X5600903Y-819505D01*
X5597245Y-817321D01*
X5515559Y-741984D01*
X5510326Y-738733D01*
X5504840Y-736803D01*
X5498541Y-736092D01*
X4900726Y-736142D01*
X4894630Y-737260D01*
X4889347Y-739597D01*
X4884216Y-743356D01*
X4792776Y-827786D01*
X4789424Y-829818D01*
X4785614Y-830478D01*
X4781804Y-829614D01*
X4778603Y-827379D01*
X4776470Y-824128D01*
X4775708Y-820318D01*
X4775708Y-660958D01*
X4774996Y-654659D01*
X4773066Y-649173D01*
X4770018Y-644296D01*
X4765903Y-640181D01*
X4761026Y-637133D01*
X4755540Y-635203D01*
X4749241Y-634492D01*
X4077004Y-634492D01*
X4070959Y-635152D01*
X4065473Y-637082D01*
X4060545Y-640181D01*
X4058158Y-642264D01*
X4007764Y-692658D01*
X4003954Y-697433D01*
X4001465Y-702665D01*
X4000195Y-708304D01*
X3999992Y-711504D01*
X3999992Y-787095D01*
X4000652Y-793140D01*
X4002582Y-798626D01*
X4005681Y-803554D01*
X4007764Y-805942D01*
X4058158Y-856335D01*
X4062933Y-860145D01*
X4068165Y-862634D01*
X4073804Y-863904D01*
X4077004Y-864108D01*
X4727397Y-864108D01*
X4731359Y-864920D01*
X4734661Y-867156D01*
X4736846Y-870559D01*
X4737557Y-874521D01*
X4736642Y-878484D01*
X4734306Y-881735D01*
X4729886Y-885799D01*
X4726686Y-887780D01*
X4722977Y-888492D01*
X4053535Y-888492D01*
X4049674Y-887730D01*
X4046372Y-885494D01*
X3432505Y-271627D01*
X3430270Y-268325D01*
X3429508Y-264464D01*
X3429508Y-127304D01*
X3428847Y-121259D01*
X3426917Y-115773D01*
X3423818Y-110845D01*
X3421735Y-108458D01*
X3371342Y-58064D01*
X3366566Y-54254D01*
X3361334Y-51765D01*
X3355695Y-50495D01*
X3352495Y-50292D01*
X3251098Y-50292D01*
X3247288Y-49530D01*
X3244037Y-47447D01*
X3241802Y-44297D01*
X3240938Y-40487D01*
X3240786Y-36423D01*
X3241446Y-32461D01*
X3243630Y-29006D01*
X3246983Y-26720D01*
X3250946Y-25908D01*
X7621879Y-25908D01*
X7625842Y-26720D01*
X7629144Y-29006D01*
X7631328Y-32359D01*
X7632039Y-36372D01*
X7631125Y-40284D01*
X7628737Y-43535D01*
X7625283Y-45618D01*
X7610856Y-50800D01*
X7586014Y-61722D01*
X7562037Y-74472D01*
X7539024Y-88849D01*
X7517130Y-104902D01*
X7496454Y-122478D01*
X7477099Y-141478D01*
X7459116Y-161848D01*
X7442708Y-183489D01*
X7427874Y-206197D01*
X7414768Y-229971D01*
X7403338Y-254558D01*
X7393736Y-279958D01*
X7386015Y-305968D01*
X7380173Y-332486D01*
X7376312Y-359359D01*
X7374331Y-386435D01*
X7374331Y-413562D01*
X7376312Y-440639D01*
X7380173Y-467512D01*
X7386015Y-494030D01*
X7393736Y-520039D01*
X7403338Y-545439D01*
X7414768Y-570026D01*
X7427874Y-593801D01*
X7442708Y-616508D01*
X7459116Y-638149D01*
X7477099Y-658520D01*
X7496454Y-677519D01*
X7517130Y-695096D01*
X7539024Y-711149D01*
X7562037Y-725525D01*
X7586014Y-738276D01*
X7610856Y-749198D01*
X7636408Y-758342D01*
X7662570Y-765606D01*
X7689189Y-770940D01*
X7716113Y-774344D01*
X7743190Y-775817D01*
X7770317Y-775360D01*
X7797342Y-772922D01*
X7824165Y-768502D01*
X7850530Y-762203D01*
X7876438Y-753973D01*
X7901635Y-743966D01*
X7926070Y-732129D01*
X7949590Y-718566D01*
X7972044Y-703326D01*
X7993329Y-686511D01*
X8013395Y-668172D01*
X8032038Y-648462D01*
X8049259Y-627481D01*
X8064855Y-605282D01*
X8078876Y-582066D01*
X8091119Y-557834D01*
X8095284Y-548030D01*
X8097469Y-544728D01*
X8100771Y-542544D01*
X8104682Y-541782D01*
X8108543Y-542544D01*
X8111845Y-544779D01*
X8114030Y-548081D01*
X8114792Y-551942D01*
X8114792Y-2237740D01*
X8114030Y-2241651D01*
X8111794Y-2244902D01*
X8108543Y-2247138D01*
X8104631Y-2247900D01*
X7915859Y-2247900D01*
X7912100Y-2247188D01*
X7886141Y-2236774D01*
X7860284Y-2228596D01*
X7833868Y-2222296D01*
X7807096Y-2217877D01*
X7780070Y-2215438D01*
X7752892Y-2214981D01*
X7725816Y-2216454D01*
X7698892Y-2219858D01*
X7672273Y-2225192D01*
X7646111Y-2232456D01*
X7620558Y-2241600D01*
X7595717Y-2252522D01*
X7571740Y-2265273D01*
X7548727Y-2279650D01*
X7526832Y-2295702D01*
X7506157Y-2313279D01*
X7486802Y-2332278D01*
X7468870Y-2352649D01*
X7452410Y-2374290D01*
X7437628Y-2396998D01*
X7424470Y-2420772D01*
X7413040Y-2445359D01*
X7403490Y-2470759D01*
X7395768Y-2496769D01*
X7389926Y-2523286D01*
X7386015Y-2550160D01*
X7384034Y-2577236D01*
X7384034Y-2604363D01*
X7386015Y-2631440D01*
X7389926Y-2658313D01*
X7395768Y-2684830D01*
X7403490Y-2710840D01*
X7413040Y-2736240D01*
X7421372Y-2754172D01*
X7422286Y-2758135D01*
X7421625Y-2762097D01*
X7419441Y-2765501D01*
X7416139Y-2767787D01*
X7412177Y-2768600D01*
G37*

%LPC*%
G36*
X5474258Y-610108D02*
G01*
X5993841Y-610108D01*
X6000140Y-609396D01*
X6005626Y-607466D01*
X6010503Y-604418D01*
X6014618Y-600303D01*
X6017666Y-595426D01*
X6019596Y-589940D01*
X6020308Y-583641D01*
X6020308Y-343458D01*
X6019596Y-337159D01*
X6017666Y-331673D01*
X6014618Y-326796D01*
X6010503Y-322681D01*
X6005626Y-319633D01*
X6000140Y-317703D01*
X5993841Y-316992D01*
X5474258Y-316992D01*
X5467959Y-317703D01*
X5462473Y-319633D01*
X5457596Y-322681D01*
X5453481Y-326796D01*
X5450433Y-331673D01*
X5448503Y-337159D01*
X5447792Y-343458D01*
X5447792Y-583641D01*
X5448503Y-589940D01*
X5450433Y-595426D01*
X5453481Y-600303D01*
X5457596Y-604418D01*
X5462473Y-607466D01*
X5467959Y-609396D01*
G37*
G36*
X4077004Y-610108D02*
G01*
X4749241Y-610108D01*
X4755540Y-609396D01*
X4761026Y-607466D01*
X4765903Y-604418D01*
X4770018Y-600303D01*
X4773066Y-595426D01*
X4774996Y-589940D01*
X4775708Y-583641D01*
X4775708Y-330758D01*
X4774996Y-324459D01*
X4773066Y-318973D01*
X4770018Y-314096D01*
X4765903Y-309981D01*
X4761026Y-306933D01*
X4755540Y-305003D01*
X4749241Y-304292D01*
X4064304Y-304292D01*
X4058259Y-304952D01*
X4052773Y-306882D01*
X4047845Y-309981D01*
X4045458Y-312064D01*
X4007764Y-349758D01*
X4003954Y-354533D01*
X4001465Y-359765D01*
X4000195Y-365404D01*
X3999992Y-368604D01*
X3999992Y-533095D01*
X4000652Y-539140D01*
X4002582Y-544626D01*
X4005681Y-549554D01*
X4007764Y-551942D01*
X4058158Y-602335D01*
X4062933Y-606145D01*
X4068165Y-608634D01*
X4073804Y-609904D01*
G37*

%LPD*%
G36*
X6219698Y-3298951D02*
G01*
X6215938Y-3298139D01*
X6212789Y-3296005D01*
X6137198Y-3220364D01*
X6134963Y-3217113D01*
X6134201Y-3213201D01*
X6134201Y-3086252D01*
X6134963Y-3082340D01*
X6137198Y-3079038D01*
X6335064Y-2880918D01*
X6338163Y-2877515D01*
X6340906Y-2873959D01*
X6343294Y-2870250D01*
X6345326Y-2866288D01*
X6347002Y-2862224D01*
X6348374Y-2857957D01*
X6349339Y-2853639D01*
X6349898Y-2849219D01*
X6350101Y-2844596D01*
X6350101Y-2385466D01*
X6350914Y-2381504D01*
X6353200Y-2378202D01*
X6424168Y-2309266D01*
X6457289Y-2276144D01*
X6460540Y-2273909D01*
X6464452Y-2273147D01*
X6654850Y-2273147D01*
X6659473Y-2272944D01*
X6663893Y-2272385D01*
X6668211Y-2271420D01*
X6672478Y-2270099D01*
X6676542Y-2268372D01*
X6680504Y-2266340D01*
X6684264Y-2263952D01*
X6687769Y-2261260D01*
X6691223Y-2258110D01*
X6728764Y-2220569D01*
X6731914Y-2217115D01*
X6734606Y-2213610D01*
X6736994Y-2209850D01*
X6739026Y-2205888D01*
X6740753Y-2201824D01*
X6742074Y-2197557D01*
X6743039Y-2193239D01*
X6743598Y-2188819D01*
X6743801Y-2184196D01*
X6743801Y-2006803D01*
X6743598Y-2002180D01*
X6743039Y-1997760D01*
X6742074Y-1993442D01*
X6740753Y-1989175D01*
X6739026Y-1985111D01*
X6736994Y-1981149D01*
X6734606Y-1977389D01*
X6731914Y-1973884D01*
X6728764Y-1970430D01*
X6690969Y-1932635D01*
X6687515Y-1929485D01*
X6684009Y-1926793D01*
X6680250Y-1924405D01*
X6676288Y-1922373D01*
X6672224Y-1920646D01*
X6667957Y-1919325D01*
X6663639Y-1918360D01*
X6659219Y-1917801D01*
X6654596Y-1917598D01*
X6607352Y-1917598D01*
X6603288Y-1916734D01*
X6599885Y-1914296D01*
X6597751Y-1910740D01*
X6597243Y-1906574D01*
X6597396Y-1905000D01*
X6596532Y-1895398D01*
X6594144Y-1886051D01*
X6592163Y-1881733D01*
X6591300Y-1877822D01*
X6591960Y-1873859D01*
X6594144Y-1870456D01*
X6597497Y-1868220D01*
X6601459Y-1867407D01*
X7152792Y-1867407D01*
X7155535Y-1867763D01*
X7158024Y-1868881D01*
X7214768Y-1902764D01*
X7220559Y-1904796D01*
X7226858Y-1905507D01*
X7619441Y-1905507D01*
X7625740Y-1904796D01*
X7631226Y-1902866D01*
X7636103Y-1899818D01*
X7640218Y-1895703D01*
X7643266Y-1890826D01*
X7645196Y-1885340D01*
X7645908Y-1879041D01*
X7645908Y-1613458D01*
X7645196Y-1607159D01*
X7643063Y-1601114D01*
X7642504Y-1597304D01*
X7643418Y-1593545D01*
X7645653Y-1590446D01*
X7648905Y-1588363D01*
X7652664Y-1587601D01*
X7660538Y-1587601D01*
X7664399Y-1588363D01*
X7667701Y-1590598D01*
X7669936Y-1593900D01*
X7670698Y-1597761D01*
X7670698Y-1932838D01*
X7669936Y-1936699D01*
X7667701Y-1940001D01*
X7664399Y-1942236D01*
X7660538Y-1942998D01*
X7315657Y-1942998D01*
X7306360Y-1943811D01*
X7297826Y-1946097D01*
X7289749Y-1949856D01*
X7282484Y-1954936D01*
X7276236Y-1961184D01*
X7271156Y-1968449D01*
X7267397Y-1976526D01*
X7265111Y-1985060D01*
X7264298Y-1994357D01*
X7264298Y-2438501D01*
X7263536Y-2442413D01*
X7261301Y-2445664D01*
X7131964Y-2575001D01*
X7128713Y-2577236D01*
X7124801Y-2577998D01*
X6782003Y-2577998D01*
X6777380Y-2578201D01*
X6772960Y-2578760D01*
X6768642Y-2579725D01*
X6764375Y-2581046D01*
X6760311Y-2582773D01*
X6756349Y-2584805D01*
X6752590Y-2587193D01*
X6749084Y-2589885D01*
X6745630Y-2593035D01*
X6517335Y-2821330D01*
X6514185Y-2824784D01*
X6511493Y-2828290D01*
X6509105Y-2832049D01*
X6507073Y-2836011D01*
X6505346Y-2840075D01*
X6504025Y-2844342D01*
X6503060Y-2848660D01*
X6502501Y-2853080D01*
X6502298Y-2857703D01*
X6502298Y-3022701D01*
X6501536Y-3026613D01*
X6499301Y-3029864D01*
X6408064Y-3121101D01*
X6404813Y-3123336D01*
X6400901Y-3124098D01*
X6287058Y-3124098D01*
X6282740Y-3123133D01*
X6280404Y-3122015D01*
X6270904Y-3119475D01*
X6261100Y-3118612D01*
X6251295Y-3119475D01*
X6241796Y-3122015D01*
X6232906Y-3126181D01*
X6224879Y-3131820D01*
X6217920Y-3138779D01*
X6212281Y-3146806D01*
X6208115Y-3155696D01*
X6205575Y-3165195D01*
X6204712Y-3175000D01*
X6205575Y-3184804D01*
X6208115Y-3194304D01*
X6212281Y-3203194D01*
X6217920Y-3211220D01*
X6224879Y-3218180D01*
X6232906Y-3223818D01*
X6241796Y-3227984D01*
X6245809Y-3229051D01*
X6249568Y-3230930D01*
X6252210Y-3234232D01*
X6253327Y-3238296D01*
X6252667Y-3242513D01*
X6250330Y-3246018D01*
X6243320Y-3253079D01*
X6237681Y-3261106D01*
X6233515Y-3269996D01*
X6230975Y-3279495D01*
X6230112Y-3289706D01*
X6229045Y-3293364D01*
X6226708Y-3296412D01*
X6223457Y-3298342D01*
G37*

%LPC*%
G36*
X7035800Y-2418588D02*
G01*
X7041540Y-2418130D01*
X7106259Y-2418130D01*
X7112000Y-2418588D01*
X7121804Y-2417724D01*
X7131303Y-2415184D01*
X7140194Y-2411018D01*
X7148220Y-2405380D01*
X7155180Y-2398420D01*
X7160818Y-2390394D01*
X7164984Y-2381504D01*
X7167524Y-2372004D01*
X7168388Y-2362200D01*
X7167524Y-2352395D01*
X7164984Y-2342896D01*
X7160818Y-2334006D01*
X7155180Y-2325979D01*
X7148220Y-2319020D01*
X7140194Y-2313381D01*
X7131303Y-2309215D01*
X7121804Y-2306675D01*
X7112000Y-2305812D01*
X7106259Y-2306269D01*
X7041540Y-2306269D01*
X7035800Y-2305812D01*
X7030059Y-2306269D01*
X6936790Y-2306269D01*
X6932879Y-2305507D01*
X6929577Y-2303322D01*
X6927392Y-2300020D01*
X6926630Y-2296109D01*
X6926630Y-2202840D01*
X6927088Y-2197100D01*
X6926224Y-2187295D01*
X6923684Y-2177796D01*
X6919518Y-2168906D01*
X6916674Y-2164842D01*
X6915048Y-2161032D01*
X6915048Y-2156968D01*
X6916674Y-2153158D01*
X6919518Y-2149094D01*
X6923684Y-2140204D01*
X6926224Y-2130704D01*
X6927088Y-2120900D01*
X6926224Y-2111095D01*
X6923684Y-2101596D01*
X6919518Y-2092706D01*
X6913880Y-2084679D01*
X6906920Y-2077720D01*
X6898894Y-2072081D01*
X6890003Y-2067915D01*
X6880504Y-2065375D01*
X6870700Y-2064512D01*
X6860895Y-2065375D01*
X6851396Y-2067915D01*
X6842506Y-2072081D01*
X6834479Y-2077720D01*
X6827520Y-2084679D01*
X6821881Y-2092706D01*
X6817715Y-2101596D01*
X6815175Y-2111095D01*
X6814312Y-2120900D01*
X6815175Y-2130704D01*
X6817715Y-2140204D01*
X6821881Y-2149094D01*
X6824725Y-2153158D01*
X6826351Y-2156968D01*
X6826351Y-2161032D01*
X6824725Y-2164842D01*
X6821881Y-2168906D01*
X6817715Y-2177796D01*
X6815175Y-2187295D01*
X6814312Y-2197100D01*
X6814769Y-2202840D01*
X6814769Y-2336596D01*
X6815023Y-2341676D01*
X6815632Y-2346502D01*
X6816699Y-2351278D01*
X6818172Y-2355900D01*
X6820052Y-2360422D01*
X6822287Y-2364740D01*
X6824929Y-2368854D01*
X6827875Y-2372715D01*
X6831330Y-2376474D01*
X6856425Y-2401570D01*
X6860184Y-2405024D01*
X6864045Y-2407970D01*
X6868159Y-2410612D01*
X6872478Y-2412847D01*
X6876999Y-2414727D01*
X6881622Y-2416200D01*
X6886397Y-2417267D01*
X6891223Y-2417876D01*
X6896303Y-2418130D01*
X7030059Y-2418130D01*
G37*

%LPD*%
G36*
X5811418Y-5244592D02*
G01*
X5807506Y-5243830D01*
X5804204Y-5241594D01*
X5765393Y-5202783D01*
X5763260Y-5199634D01*
X5762447Y-5195824D01*
X5763107Y-5192064D01*
X5765088Y-5188762D01*
X5768187Y-5186476D01*
X5771946Y-5185460D01*
X5779617Y-5185003D01*
X5793181Y-5182260D01*
X5806338Y-5177840D01*
X5818733Y-5171694D01*
X5830265Y-5164023D01*
X5840679Y-5154879D01*
X5849823Y-5144465D01*
X5857494Y-5132933D01*
X5863640Y-5120538D01*
X5868060Y-5107381D01*
X5870803Y-5093817D01*
X5871667Y-5080000D01*
X5870803Y-5066182D01*
X5868060Y-5052618D01*
X5863640Y-5039461D01*
X5857494Y-5027066D01*
X5849823Y-5015534D01*
X5840679Y-5005120D01*
X5830265Y-4995976D01*
X5818733Y-4988306D01*
X5806338Y-4982159D01*
X5793181Y-4977739D01*
X5779617Y-4974996D01*
X5765800Y-4974132D01*
X5751982Y-4974996D01*
X5738418Y-4977739D01*
X5725261Y-4982159D01*
X5712866Y-4988306D01*
X5701334Y-4995976D01*
X5690920Y-5005120D01*
X5681776Y-5015534D01*
X5674106Y-5027066D01*
X5667959Y-5039461D01*
X5663539Y-5052618D01*
X5660796Y-5066182D01*
X5659932Y-5080000D01*
X5660542Y-5089652D01*
X5659882Y-5094020D01*
X5657342Y-5097729D01*
X5653532Y-5099964D01*
X5649112Y-5100370D01*
X5641238Y-5099354D01*
X5631586Y-5099812D01*
X5629351Y-5100269D01*
X5625592Y-5100370D01*
X5622086Y-5099100D01*
X5619242Y-5096662D01*
X5617514Y-5093360D01*
X5617057Y-5089652D01*
X5617667Y-5080000D01*
X5616803Y-5066182D01*
X5614060Y-5052618D01*
X5609640Y-5039461D01*
X5603494Y-5027066D01*
X5595823Y-5015534D01*
X5586679Y-5005120D01*
X5576265Y-4995976D01*
X5564733Y-4988306D01*
X5552338Y-4982159D01*
X5539181Y-4977739D01*
X5525617Y-4974996D01*
X5511800Y-4974132D01*
X5497982Y-4974996D01*
X5484418Y-4977739D01*
X5471261Y-4982159D01*
X5458866Y-4988306D01*
X5447334Y-4995976D01*
X5436920Y-5005120D01*
X5427776Y-5015534D01*
X5420106Y-5027066D01*
X5413959Y-5039461D01*
X5409539Y-5052618D01*
X5406796Y-5066182D01*
X5405932Y-5080000D01*
X5406796Y-5093817D01*
X5409539Y-5107381D01*
X5413959Y-5120538D01*
X5420106Y-5132933D01*
X5427776Y-5144465D01*
X5436920Y-5154879D01*
X5447334Y-5164023D01*
X5448858Y-5164988D01*
X5451805Y-5168087D01*
X5453278Y-5172100D01*
X5452922Y-5176316D01*
X5450890Y-5180076D01*
X5447487Y-5182666D01*
X5445506Y-5183581D01*
X5437479Y-5189220D01*
X5430520Y-5196179D01*
X5424322Y-5205018D01*
X5421833Y-5207508D01*
X5418632Y-5208981D01*
X5415127Y-5209286D01*
X5411724Y-5208371D01*
X5404104Y-5204815D01*
X5394604Y-5202275D01*
X5384800Y-5201412D01*
X5374995Y-5202275D01*
X5365496Y-5204815D01*
X5356606Y-5208981D01*
X5344261Y-5217871D01*
X5340350Y-5218633D01*
X5336438Y-5217871D01*
X5324094Y-5208981D01*
X5315204Y-5204815D01*
X5305704Y-5202275D01*
X5295900Y-5201412D01*
X5289448Y-5202021D01*
X5285282Y-5201513D01*
X5282133Y-5199634D01*
X5280609Y-5202123D01*
X5277408Y-5204460D01*
X5267706Y-5208981D01*
X5259679Y-5214620D01*
X5258054Y-5216194D01*
X5254752Y-5218430D01*
X5250891Y-5219192D01*
X5214518Y-5219192D01*
X5210606Y-5218430D01*
X5207304Y-5216194D01*
X5083505Y-5092395D01*
X5081270Y-5089093D01*
X5080508Y-5085181D01*
X5080508Y-4858918D01*
X5081270Y-4855006D01*
X5083505Y-4851704D01*
X5408117Y-4527092D01*
X5410200Y-4525467D01*
X5412638Y-4524502D01*
X5416804Y-4523384D01*
X5425694Y-4519218D01*
X5433720Y-4513580D01*
X5435346Y-4512005D01*
X5438648Y-4509770D01*
X5442508Y-4509008D01*
X5454091Y-4509008D01*
X5457952Y-4509770D01*
X5461254Y-4512005D01*
X5462879Y-4513580D01*
X5470906Y-4519218D01*
X5479796Y-4523384D01*
X5489295Y-4525924D01*
X5499100Y-4526788D01*
X5508904Y-4525924D01*
X5517946Y-4523486D01*
X5522315Y-4523282D01*
X5526379Y-4524959D01*
X5529376Y-4528210D01*
X5530697Y-4532426D01*
X5530088Y-4536795D01*
X5527751Y-4540504D01*
X5218430Y-4849825D01*
X5214975Y-4853584D01*
X5212029Y-4857445D01*
X5209387Y-4861560D01*
X5207152Y-4865878D01*
X5205272Y-4870399D01*
X5203799Y-4875022D01*
X5202732Y-4879797D01*
X5202123Y-4884623D01*
X5201869Y-4889703D01*
X5201869Y-4984851D01*
X5201361Y-4988102D01*
X5199786Y-4991049D01*
X5197398Y-4993284D01*
X5193334Y-4995976D01*
X5182920Y-5005120D01*
X5173776Y-5015534D01*
X5166106Y-5027066D01*
X5159959Y-5039461D01*
X5155539Y-5052618D01*
X5152796Y-5066182D01*
X5151932Y-5080000D01*
X5152796Y-5093817D01*
X5155539Y-5107381D01*
X5159959Y-5120538D01*
X5166106Y-5132933D01*
X5173776Y-5144465D01*
X5182920Y-5154879D01*
X5193334Y-5164023D01*
X5204866Y-5171694D01*
X5217261Y-5177840D01*
X5230418Y-5182260D01*
X5243982Y-5185003D01*
X5257800Y-5185867D01*
X5272278Y-5184952D01*
X5276392Y-5185511D01*
X5279491Y-5187442D01*
X5281676Y-5184394D01*
X5285282Y-5182260D01*
X5298338Y-5177840D01*
X5310733Y-5171694D01*
X5322265Y-5164023D01*
X5332679Y-5154879D01*
X5341823Y-5144465D01*
X5349494Y-5132933D01*
X5355640Y-5120538D01*
X5360060Y-5107381D01*
X5362803Y-5093817D01*
X5363667Y-5080000D01*
X5362803Y-5066182D01*
X5360060Y-5052618D01*
X5355640Y-5039461D01*
X5349494Y-5027066D01*
X5341823Y-5015534D01*
X5332679Y-5005120D01*
X5322265Y-4995976D01*
X5318201Y-4993284D01*
X5315813Y-4991049D01*
X5314238Y-4988102D01*
X5313730Y-4984851D01*
X5313730Y-4916881D01*
X5314492Y-4912969D01*
X5316677Y-4909667D01*
X5652770Y-4573574D01*
X5656224Y-4569815D01*
X5659170Y-4565954D01*
X5661812Y-4561840D01*
X5664047Y-4557522D01*
X5666587Y-4550968D01*
X5668822Y-4547108D01*
X5672480Y-4544568D01*
X5676900Y-4543856D01*
X5681167Y-4545126D01*
X5684520Y-4548073D01*
X5688787Y-4554016D01*
X5691835Y-4557369D01*
X5724042Y-4589526D01*
X5726074Y-4592421D01*
X5729681Y-4600194D01*
X5735320Y-4608220D01*
X5742279Y-4615180D01*
X5750306Y-4620818D01*
X5759196Y-4624984D01*
X5768695Y-4627524D01*
X5778500Y-4628388D01*
X5788304Y-4627524D01*
X5797804Y-4624984D01*
X5800140Y-4623866D01*
X5804458Y-4622901D01*
X5816041Y-4622901D01*
X5820359Y-4623866D01*
X5822696Y-4624984D01*
X5832195Y-4627524D01*
X5842000Y-4628388D01*
X5851804Y-4627524D01*
X5861304Y-4624984D01*
X5870194Y-4620818D01*
X5878220Y-4615180D01*
X5885180Y-4608220D01*
X5890818Y-4600194D01*
X5894984Y-4591304D01*
X5897524Y-4581804D01*
X5898388Y-4572000D01*
X5897524Y-4562195D01*
X5894984Y-4552696D01*
X5890818Y-4543806D01*
X5885180Y-4535779D01*
X5878220Y-4528820D01*
X5870194Y-4523181D01*
X5861304Y-4519015D01*
X5851804Y-4516475D01*
X5842000Y-4515612D01*
X5832195Y-4516475D01*
X5822696Y-4519015D01*
X5820359Y-4520133D01*
X5816041Y-4521098D01*
X5804458Y-4521098D01*
X5800140Y-4520133D01*
X5796026Y-4517542D01*
X5781598Y-4503064D01*
X5779363Y-4499813D01*
X5778601Y-4495901D01*
X5778601Y-4356658D01*
X5779566Y-4352340D01*
X5780684Y-4350004D01*
X5783224Y-4340504D01*
X5784088Y-4330700D01*
X5783224Y-4320895D01*
X5780684Y-4311396D01*
X5779566Y-4309059D01*
X5778601Y-4304741D01*
X5778601Y-4293158D01*
X5779566Y-4288840D01*
X5780684Y-4286504D01*
X5783224Y-4277004D01*
X5784088Y-4267200D01*
X5783224Y-4257395D01*
X5780684Y-4247896D01*
X5776518Y-4239006D01*
X5770880Y-4230979D01*
X5763920Y-4224020D01*
X5755894Y-4218381D01*
X5747004Y-4214215D01*
X5737504Y-4211675D01*
X5727700Y-4210812D01*
X5717895Y-4211675D01*
X5708396Y-4214215D01*
X5699506Y-4218381D01*
X5691479Y-4224020D01*
X5686653Y-4228846D01*
X5683351Y-4231030D01*
X5679490Y-4231792D01*
X5675579Y-4231030D01*
X5672277Y-4228846D01*
X5670092Y-4225544D01*
X5669330Y-4221632D01*
X5669330Y-4154881D01*
X5670092Y-4150969D01*
X5672277Y-4147667D01*
X5747867Y-4072077D01*
X5751169Y-4069892D01*
X5755081Y-4069130D01*
X6260896Y-4069130D01*
X6265976Y-4068876D01*
X6270802Y-4068267D01*
X6275578Y-4067200D01*
X6280200Y-4065727D01*
X6284722Y-4063847D01*
X6289040Y-4061612D01*
X6293154Y-4058970D01*
X6297015Y-4056024D01*
X6300774Y-4052570D01*
X6617970Y-3735374D01*
X6621424Y-3731615D01*
X6624370Y-3727754D01*
X6627012Y-3723640D01*
X6629247Y-3719322D01*
X6631127Y-3714800D01*
X6632600Y-3710178D01*
X6633667Y-3705402D01*
X6634276Y-3700576D01*
X6634530Y-3695496D01*
X6634530Y-3440480D01*
X6635445Y-3429000D01*
X6634530Y-3417519D01*
X6634530Y-3364280D01*
X6635496Y-3352800D01*
X6634632Y-3343198D01*
X6632244Y-3333851D01*
X6628231Y-3325063D01*
X6622846Y-3317087D01*
X6616192Y-3310128D01*
X6608419Y-3304387D01*
X6599783Y-3300018D01*
X6590588Y-3297224D01*
X6581038Y-3295954D01*
X6571386Y-3296412D01*
X6561937Y-3298444D01*
X6552996Y-3302000D01*
X6544767Y-3307079D01*
X6537553Y-3313429D01*
X6531457Y-3320948D01*
X6526784Y-3329381D01*
X6523583Y-3338474D01*
X6521957Y-3347974D01*
X6521957Y-3357626D01*
X6522669Y-3362909D01*
X6522669Y-3418890D01*
X6521957Y-3424174D01*
X6521957Y-3433826D01*
X6522669Y-3439109D01*
X6522669Y-3668318D01*
X6521907Y-3672230D01*
X6519722Y-3675532D01*
X6240932Y-3954322D01*
X6237630Y-3956507D01*
X6233718Y-3957269D01*
X5727903Y-3957269D01*
X5722823Y-3957523D01*
X5717997Y-3958132D01*
X5713222Y-3959199D01*
X5708599Y-3960672D01*
X5704078Y-3962552D01*
X5699760Y-3964787D01*
X5695645Y-3967429D01*
X5691784Y-3970375D01*
X5688025Y-3973829D01*
X5574030Y-4087825D01*
X5570575Y-4091584D01*
X5567629Y-4095445D01*
X5564987Y-4099560D01*
X5562752Y-4103878D01*
X5560872Y-4108399D01*
X5559399Y-4113022D01*
X5558332Y-4117797D01*
X5557723Y-4122623D01*
X5557469Y-4127703D01*
X5557469Y-4424832D01*
X5556707Y-4428744D01*
X5554522Y-4432046D01*
X5551220Y-4434230D01*
X5547309Y-4434992D01*
X5543448Y-4434230D01*
X5540146Y-4432046D01*
X5535320Y-4427220D01*
X5527294Y-4421581D01*
X5518404Y-4417415D01*
X5508904Y-4414875D01*
X5499100Y-4414012D01*
X5489295Y-4414875D01*
X5479796Y-4417415D01*
X5470906Y-4421581D01*
X5462879Y-4427220D01*
X5461254Y-4428794D01*
X5457952Y-4431030D01*
X5454091Y-4431792D01*
X5442508Y-4431792D01*
X5438648Y-4431030D01*
X5435346Y-4428794D01*
X5433720Y-4427220D01*
X5425694Y-4421581D01*
X5416804Y-4417415D01*
X5407304Y-4414875D01*
X5397500Y-4414012D01*
X5387695Y-4414875D01*
X5378196Y-4417415D01*
X5369306Y-4421581D01*
X5361279Y-4427220D01*
X5354320Y-4434179D01*
X5348681Y-4442206D01*
X5344515Y-4451096D01*
X5341975Y-4460595D01*
X5341112Y-4470400D01*
X5341874Y-4478985D01*
X5341315Y-4483354D01*
X5338927Y-4487062D01*
X5014976Y-4811064D01*
X5009845Y-4817262D01*
X5006289Y-4823968D01*
X5004104Y-4831181D01*
X5003292Y-4839208D01*
X5003292Y-5104892D01*
X5004104Y-5112918D01*
X5006289Y-5120132D01*
X5009845Y-5126837D01*
X5014976Y-5133035D01*
X5032959Y-5151069D01*
X5035143Y-5154320D01*
X5035905Y-5158232D01*
X5035143Y-5162143D01*
X5032959Y-5165394D01*
X5029657Y-5167630D01*
X5025745Y-5168392D01*
X4632960Y-5168392D01*
X4629048Y-5167630D01*
X4625797Y-5165394D01*
X4623562Y-5162143D01*
X4622800Y-5158232D01*
X4622800Y-5100878D01*
X4623612Y-5096916D01*
X4625848Y-5093614D01*
X4629200Y-5091430D01*
X4637938Y-5087975D01*
X4650689Y-5080965D01*
X4662474Y-5072380D01*
X4673041Y-5062423D01*
X4682337Y-5051196D01*
X4690160Y-5038953D01*
X4696358Y-5025745D01*
X4700828Y-5011928D01*
X4703572Y-4997602D01*
X4704486Y-4983124D01*
X4703572Y-4968595D01*
X4700828Y-4954270D01*
X4696358Y-4940452D01*
X4690160Y-4927295D01*
X4682337Y-4915001D01*
X4673041Y-4903774D01*
X4662474Y-4893818D01*
X4650689Y-4885232D01*
X4637938Y-4878222D01*
X4629200Y-4874818D01*
X4625848Y-4872583D01*
X4623612Y-4869281D01*
X4622800Y-4865370D01*
X4622800Y-4498390D01*
X4623562Y-4494479D01*
X4625797Y-4491177D01*
X4629048Y-4488992D01*
X4632960Y-4488230D01*
X4688382Y-4488230D01*
X4691786Y-4488688D01*
X4701438Y-4489145D01*
X4709210Y-4488230D01*
X4850942Y-4488230D01*
X4861102Y-4487316D01*
X4870500Y-4484776D01*
X4879340Y-4480661D01*
X4887315Y-4475073D01*
X4892446Y-4469942D01*
X4895748Y-4467758D01*
X4899609Y-4466996D01*
X4903520Y-4467758D01*
X4906822Y-4469942D01*
X4909007Y-4473244D01*
X4909769Y-4477156D01*
X4909820Y-4496765D01*
X4910937Y-4506772D01*
X4913680Y-4516120D01*
X4917998Y-4524857D01*
X4923739Y-4532680D01*
X4931105Y-4539742D01*
X4993995Y-4590034D01*
X5001209Y-4594961D01*
X5010099Y-4599076D01*
X5019497Y-4601616D01*
X5029657Y-4602530D01*
X5082082Y-4602530D01*
X5085486Y-4602988D01*
X5095138Y-4603445D01*
X5102910Y-4602530D01*
X5145582Y-4602530D01*
X5148986Y-4602988D01*
X5158638Y-4603445D01*
X5168188Y-4602175D01*
X5177383Y-4599381D01*
X5186019Y-4595012D01*
X5193792Y-4589272D01*
X5200446Y-4582312D01*
X5205831Y-4574336D01*
X5209844Y-4565548D01*
X5212232Y-4556201D01*
X5213096Y-4546600D01*
X5212232Y-4536998D01*
X5209844Y-4527651D01*
X5205831Y-4518863D01*
X5200446Y-4510887D01*
X5193792Y-4503928D01*
X5186019Y-4498187D01*
X5177383Y-4493818D01*
X5168188Y-4491024D01*
X5158638Y-4489754D01*
X5148986Y-4490212D01*
X5145582Y-4490669D01*
X5102910Y-4490669D01*
X5095138Y-4489754D01*
X5085486Y-4490212D01*
X5082082Y-4490669D01*
X5052364Y-4490669D01*
X5049012Y-4490110D01*
X5046014Y-4488484D01*
X5025440Y-4471974D01*
X5022596Y-4468469D01*
X5021630Y-4464050D01*
X5021630Y-2895803D01*
X5021376Y-2890723D01*
X5020767Y-2885897D01*
X5019700Y-2881122D01*
X5018227Y-2876499D01*
X5016347Y-2871978D01*
X5014112Y-2867660D01*
X5011470Y-2863545D01*
X5008524Y-2859684D01*
X5005070Y-2855925D01*
X4861306Y-2712161D01*
X4859121Y-2708859D01*
X4858359Y-2704947D01*
X4859121Y-2701086D01*
X4861306Y-2697784D01*
X4864608Y-2695600D01*
X4868519Y-2694787D01*
X5080152Y-2694787D01*
X5084013Y-2695600D01*
X5087315Y-2697784D01*
X5089499Y-2701086D01*
X5090312Y-2704947D01*
X5090312Y-2806293D01*
X5091125Y-2817012D01*
X5093563Y-2827070D01*
X5097526Y-2836621D01*
X5102910Y-2845409D01*
X5109616Y-2853283D01*
X5117490Y-2859989D01*
X5126278Y-2865374D01*
X5135829Y-2869336D01*
X5145887Y-2871774D01*
X5156200Y-2872587D01*
X5166512Y-2871774D01*
X5176570Y-2869336D01*
X5186121Y-2865374D01*
X5194909Y-2859989D01*
X5202783Y-2853283D01*
X5209489Y-2845409D01*
X5214874Y-2836621D01*
X5218836Y-2827070D01*
X5221274Y-2817012D01*
X5222087Y-2806293D01*
X5222087Y-2786735D01*
X5222849Y-2782976D01*
X5224881Y-2779725D01*
X5228031Y-2777490D01*
X5231739Y-2776575D01*
X5235549Y-2777083D01*
X5238851Y-2779014D01*
X5244490Y-2783789D01*
X5253278Y-2789174D01*
X5262829Y-2793136D01*
X5272887Y-2795574D01*
X5283200Y-2796387D01*
X5293512Y-2795574D01*
X5303570Y-2793136D01*
X5313121Y-2789174D01*
X5321909Y-2783789D01*
X5329783Y-2777083D01*
X5336489Y-2769209D01*
X5342229Y-2759811D01*
X5344820Y-2757017D01*
X5348224Y-2755341D01*
X5352034Y-2755036D01*
X5355640Y-2756154D01*
X5358638Y-2758541D01*
X5363616Y-2764383D01*
X5371490Y-2771089D01*
X5380278Y-2776474D01*
X5389829Y-2780436D01*
X5399887Y-2782874D01*
X5410200Y-2783687D01*
X5420512Y-2782874D01*
X5430570Y-2780436D01*
X5440121Y-2776474D01*
X5448909Y-2771089D01*
X5456783Y-2764383D01*
X5463489Y-2756509D01*
X5468620Y-2748178D01*
X5471160Y-2745384D01*
X5474614Y-2743708D01*
X5478424Y-2743403D01*
X5482031Y-2744520D01*
X5485028Y-2746908D01*
X5490159Y-2753004D01*
X5498033Y-2759760D01*
X5506821Y-2765196D01*
X5516321Y-2769209D01*
X5526379Y-2771648D01*
X5536692Y-2772511D01*
X5547004Y-2771749D01*
X5557062Y-2769362D01*
X5566613Y-2765450D01*
X5575452Y-2760065D01*
X5583326Y-2753410D01*
X5590082Y-2745536D01*
X5595518Y-2736748D01*
X5599531Y-2727248D01*
X5601970Y-2717190D01*
X5602833Y-2706471D01*
X5603087Y-2642260D01*
X5602325Y-2631541D01*
X5599938Y-2621483D01*
X5596026Y-2611932D01*
X5593334Y-2606751D01*
X5592978Y-2604008D01*
X5593130Y-2502204D01*
X5592876Y-2497023D01*
X5592267Y-2492298D01*
X5591200Y-2487422D01*
X5589778Y-2482850D01*
X5587847Y-2478278D01*
X5585663Y-2474010D01*
X5582970Y-2469845D01*
X5580075Y-2466035D01*
X5576570Y-2462225D01*
X5346801Y-2232558D01*
X5344414Y-2229307D01*
X5343499Y-2225344D01*
X5344210Y-2221382D01*
X5346395Y-2217978D01*
X5349697Y-2215692D01*
X5353659Y-2214930D01*
X5895238Y-2214930D01*
X5899099Y-2215692D01*
X5902401Y-2217877D01*
X5904636Y-2221179D01*
X5905398Y-2225090D01*
X5905398Y-2667101D01*
X5904636Y-2671013D01*
X5901385Y-2675280D01*
X5898032Y-2677566D01*
X5892596Y-2679700D01*
X5884367Y-2684780D01*
X5877153Y-2691130D01*
X5871057Y-2698648D01*
X5866384Y-2707081D01*
X5863183Y-2716174D01*
X5861558Y-2725674D01*
X5861558Y-2735326D01*
X5862269Y-2740609D01*
X5862269Y-2783890D01*
X5861558Y-2789174D01*
X5861558Y-2798826D01*
X5863183Y-2808325D01*
X5866384Y-2817418D01*
X5871057Y-2825851D01*
X5877153Y-2833370D01*
X5884367Y-2839720D01*
X5892596Y-2844800D01*
X5901537Y-2848356D01*
X5910986Y-2850388D01*
X5920638Y-2850845D01*
X5930188Y-2849575D01*
X5939383Y-2846781D01*
X5948019Y-2842412D01*
X5955792Y-2836672D01*
X5962446Y-2829712D01*
X5967831Y-2821736D01*
X5971946Y-2812491D01*
X5973876Y-2808681D01*
X5977178Y-2805988D01*
X5981344Y-2804922D01*
X5985560Y-2805633D01*
X5989116Y-2808020D01*
X5991352Y-2811678D01*
X5993384Y-2817418D01*
X5998057Y-2825851D01*
X6004153Y-2833370D01*
X6011367Y-2839720D01*
X6019596Y-2844800D01*
X6028537Y-2848356D01*
X6037986Y-2850388D01*
X6047638Y-2850845D01*
X6057188Y-2849575D01*
X6066383Y-2846781D01*
X6074003Y-2842920D01*
X6077915Y-2841853D01*
X6081877Y-2842412D01*
X6085382Y-2844444D01*
X6087770Y-2847695D01*
X6088735Y-2851607D01*
X6088075Y-2855620D01*
X6084874Y-2860141D01*
X5933135Y-3011830D01*
X5929985Y-3015284D01*
X5927293Y-3018790D01*
X5924905Y-3022549D01*
X5922873Y-3026511D01*
X5921146Y-3030575D01*
X5919825Y-3034842D01*
X5918860Y-3039160D01*
X5918301Y-3043580D01*
X5918098Y-3048203D01*
X5918098Y-3276396D01*
X5918301Y-3281019D01*
X5918860Y-3285439D01*
X5919825Y-3289757D01*
X5921146Y-3294024D01*
X5922873Y-3298088D01*
X5924905Y-3302050D01*
X5927293Y-3305810D01*
X5929985Y-3309315D01*
X5933135Y-3312769D01*
X6066180Y-3445764D01*
X6068568Y-3449574D01*
X6069584Y-3452418D01*
X6074257Y-3460851D01*
X6080353Y-3468370D01*
X6087567Y-3474720D01*
X6095796Y-3479800D01*
X6101232Y-3481933D01*
X6104585Y-3484219D01*
X6129680Y-3509264D01*
X6132068Y-3513074D01*
X6133084Y-3515918D01*
X6137757Y-3524351D01*
X6143853Y-3531870D01*
X6151067Y-3538220D01*
X6159296Y-3543300D01*
X6168237Y-3546856D01*
X6177686Y-3548887D01*
X6187338Y-3549345D01*
X6196888Y-3548075D01*
X6206083Y-3545281D01*
X6214719Y-3540912D01*
X6222492Y-3535172D01*
X6229146Y-3528212D01*
X6234531Y-3520236D01*
X6238544Y-3511448D01*
X6240526Y-3503676D01*
X6242456Y-3499865D01*
X6245809Y-3497173D01*
X6249924Y-3496106D01*
X6254140Y-3496818D01*
X6257696Y-3499205D01*
X6264757Y-3511651D01*
X6270853Y-3519170D01*
X6278067Y-3525520D01*
X6286296Y-3530600D01*
X6295237Y-3534156D01*
X6304686Y-3536187D01*
X6314338Y-3536645D01*
X6323888Y-3535375D01*
X6333083Y-3532581D01*
X6341719Y-3528212D01*
X6349492Y-3522472D01*
X6356146Y-3515512D01*
X6361531Y-3507536D01*
X6365544Y-3498748D01*
X6367932Y-3489401D01*
X6368796Y-3479800D01*
X6367932Y-3470198D01*
X6365544Y-3460851D01*
X6363716Y-3456838D01*
X6362801Y-3452672D01*
X6362801Y-3443427D01*
X6363716Y-3439261D01*
X6365544Y-3435248D01*
X6367932Y-3425901D01*
X6368796Y-3416300D01*
X6367932Y-3406698D01*
X6365544Y-3397351D01*
X6361531Y-3388563D01*
X6356146Y-3380587D01*
X6349492Y-3373628D01*
X6341719Y-3367887D01*
X6333896Y-3363925D01*
X6330746Y-3361486D01*
X6328816Y-3357981D01*
X6328359Y-3354070D01*
X6329426Y-3350209D01*
X6331915Y-3347110D01*
X6335420Y-3345179D01*
X6339382Y-3344722D01*
X6350000Y-3345687D01*
X6359804Y-3344824D01*
X6369304Y-3342284D01*
X6371640Y-3341166D01*
X6375958Y-3340201D01*
X6451396Y-3340201D01*
X6456019Y-3339998D01*
X6460439Y-3339439D01*
X6464757Y-3338474D01*
X6469024Y-3337153D01*
X6473088Y-3335426D01*
X6477050Y-3333394D01*
X6480810Y-3331006D01*
X6484315Y-3328314D01*
X6487769Y-3325164D01*
X6716064Y-3096869D01*
X6719214Y-3093415D01*
X6721856Y-3089960D01*
X6724903Y-3085033D01*
X6727901Y-3081883D01*
X6731965Y-3080308D01*
X6736334Y-3080613D01*
X6740144Y-3082645D01*
X6742785Y-3086100D01*
X6743700Y-3090367D01*
X6743700Y-3769614D01*
X6742734Y-3773982D01*
X6739991Y-3777487D01*
X6736029Y-3779469D01*
X6731558Y-3779621D01*
X6727494Y-3777792D01*
X6722719Y-3774287D01*
X6714083Y-3769918D01*
X6704888Y-3767124D01*
X6695338Y-3765854D01*
X6685686Y-3766312D01*
X6676237Y-3768344D01*
X6667296Y-3771900D01*
X6659067Y-3776979D01*
X6651853Y-3783329D01*
X6645808Y-3790696D01*
X6584950Y-3851554D01*
X6575653Y-3859529D01*
X6569557Y-3867048D01*
X6566763Y-3871874D01*
X6522466Y-3927195D01*
X6517538Y-3934409D01*
X6513423Y-3943299D01*
X6510883Y-3952697D01*
X6509969Y-3962857D01*
X6509969Y-4963922D01*
X6509207Y-4967833D01*
X6507022Y-4971135D01*
X6503720Y-4973320D01*
X6499809Y-4974082D01*
X6438392Y-4974082D01*
X6432042Y-4974793D01*
X6426606Y-4976723D01*
X6421678Y-4979771D01*
X6417614Y-4983886D01*
X6414516Y-4988763D01*
X6412585Y-4994249D01*
X6411874Y-5000548D01*
X6411874Y-5159451D01*
X6412585Y-5165750D01*
X6414516Y-5171236D01*
X6417614Y-5176113D01*
X6421678Y-5180228D01*
X6426606Y-5183276D01*
X6432042Y-5185206D01*
X6438392Y-5185918D01*
X6617208Y-5185918D01*
X6623558Y-5185206D01*
X6628079Y-5183632D01*
X6631889Y-5183073D01*
X6635648Y-5183936D01*
X6638798Y-5186172D01*
X6640880Y-5189423D01*
X6641592Y-5193182D01*
X6641592Y-5196332D01*
X6640830Y-5200243D01*
X6638594Y-5203494D01*
X6635343Y-5205730D01*
X6631431Y-5206492D01*
X6172708Y-5206492D01*
X6164681Y-5207304D01*
X6157468Y-5209489D01*
X6150762Y-5213045D01*
X6144564Y-5218176D01*
X6121095Y-5241594D01*
X6117793Y-5243830D01*
X6113881Y-5244592D01*
G37*

%LPC*%
G36*
X6019800Y-5185867D02*
G01*
X6033617Y-5185003D01*
X6047181Y-5182260D01*
X6060338Y-5177840D01*
X6072733Y-5171694D01*
X6084265Y-5164023D01*
X6094679Y-5154879D01*
X6103823Y-5144465D01*
X6111494Y-5132933D01*
X6117640Y-5120538D01*
X6122060Y-5107381D01*
X6124803Y-5093817D01*
X6125667Y-5080000D01*
X6124803Y-5066182D01*
X6122060Y-5052618D01*
X6117640Y-5039461D01*
X6111494Y-5027066D01*
X6103823Y-5015534D01*
X6094679Y-5005120D01*
X6084265Y-4995976D01*
X6072733Y-4988306D01*
X6060338Y-4982159D01*
X6047181Y-4977739D01*
X6033617Y-4974996D01*
X6019800Y-4974132D01*
X6005982Y-4974996D01*
X5992418Y-4977739D01*
X5979261Y-4982159D01*
X5966866Y-4988306D01*
X5955334Y-4995976D01*
X5944920Y-5005120D01*
X5935776Y-5015534D01*
X5928106Y-5027066D01*
X5921959Y-5039461D01*
X5917539Y-5052618D01*
X5914796Y-5066182D01*
X5913932Y-5080000D01*
X5914796Y-5093817D01*
X5917539Y-5107381D01*
X5921959Y-5120538D01*
X5928106Y-5132933D01*
X5935776Y-5144465D01*
X5944920Y-5154879D01*
X5955334Y-5164023D01*
X5966866Y-5171694D01*
X5979261Y-5177840D01*
X5992418Y-5182260D01*
X6005982Y-5185003D01*
G37*
G36*
X5111851Y-4361688D02*
G01*
X5121656Y-4360824D01*
X5131155Y-4358284D01*
X5133543Y-4357166D01*
X5137810Y-4356201D01*
X5155641Y-4356201D01*
X5159959Y-4357166D01*
X5162296Y-4358284D01*
X5171795Y-4360824D01*
X5181600Y-4361688D01*
X5191404Y-4360824D01*
X5200904Y-4358284D01*
X5209794Y-4354118D01*
X5217820Y-4348480D01*
X5224780Y-4341520D01*
X5230418Y-4333494D01*
X5234025Y-4325721D01*
X5236057Y-4322826D01*
X5319064Y-4239869D01*
X5322214Y-4236415D01*
X5324906Y-4232910D01*
X5327294Y-4229150D01*
X5329326Y-4225188D01*
X5331053Y-4221124D01*
X5332374Y-4216857D01*
X5333339Y-4212539D01*
X5333898Y-4208119D01*
X5334101Y-4203496D01*
X5334101Y-3555898D01*
X5334863Y-3551986D01*
X5337098Y-3548735D01*
X5428183Y-3457651D01*
X5431586Y-3455365D01*
X5435650Y-3454654D01*
X5439664Y-3455619D01*
X5441696Y-3456584D01*
X5451195Y-3459124D01*
X5461000Y-3459987D01*
X5470804Y-3459124D01*
X5480304Y-3456584D01*
X5489194Y-3452418D01*
X5497220Y-3446779D01*
X5504180Y-3439820D01*
X5509818Y-3431794D01*
X5513984Y-3422904D01*
X5516524Y-3413404D01*
X5517388Y-3403600D01*
X5516524Y-3393795D01*
X5513984Y-3384296D01*
X5512866Y-3381959D01*
X5511901Y-3377641D01*
X5511901Y-3367938D01*
X5512866Y-3363671D01*
X5513984Y-3361283D01*
X5516524Y-3351784D01*
X5517388Y-3341979D01*
X5516524Y-3332226D01*
X5513984Y-3322726D01*
X5509818Y-3313785D01*
X5504180Y-3305759D01*
X5497220Y-3298799D01*
X5489194Y-3293160D01*
X5480304Y-3288995D01*
X5470804Y-3286455D01*
X5461000Y-3285642D01*
X5451195Y-3286455D01*
X5441696Y-3288995D01*
X5432806Y-3293160D01*
X5424779Y-3298799D01*
X5417820Y-3305759D01*
X5412181Y-3313785D01*
X5408015Y-3322726D01*
X5405475Y-3332226D01*
X5404612Y-3341979D01*
X5404510Y-3347110D01*
X5403088Y-3350260D01*
X5400700Y-3352698D01*
X5397652Y-3354273D01*
X5392775Y-3355797D01*
X5388711Y-3357473D01*
X5384749Y-3359505D01*
X5380990Y-3361893D01*
X5377484Y-3364585D01*
X5374030Y-3367735D01*
X5247335Y-3494430D01*
X5244185Y-3497884D01*
X5241493Y-3501390D01*
X5239105Y-3505149D01*
X5237073Y-3509111D01*
X5235346Y-3513175D01*
X5234025Y-3517442D01*
X5233060Y-3521760D01*
X5232501Y-3526180D01*
X5232298Y-3530803D01*
X5232298Y-4178401D01*
X5231536Y-4182313D01*
X5229301Y-4185564D01*
X5164074Y-4250842D01*
X5159959Y-4253433D01*
X5155641Y-4254398D01*
X5137810Y-4254398D01*
X5133543Y-4253433D01*
X5131155Y-4252315D01*
X5121656Y-4249775D01*
X5111851Y-4248912D01*
X5102098Y-4249775D01*
X5092598Y-4252315D01*
X5083657Y-4256481D01*
X5075631Y-4262120D01*
X5068671Y-4269079D01*
X5063032Y-4277106D01*
X5058867Y-4285996D01*
X5056327Y-4295495D01*
X5055514Y-4305300D01*
X5056327Y-4315104D01*
X5058867Y-4324604D01*
X5063032Y-4333494D01*
X5068671Y-4341520D01*
X5075631Y-4348480D01*
X5083657Y-4354118D01*
X5092598Y-4358284D01*
X5102098Y-4360824D01*
G37*

%LPD*%
G36*
X2866847Y-5676341D02*
G01*
X2862580Y-5674868D01*
X2859379Y-5671718D01*
X2857855Y-5667502D01*
X2858312Y-5663031D01*
X2860294Y-5657088D01*
X2867101Y-5630773D01*
X2871978Y-5604103D01*
X2874924Y-5577128D01*
X2875889Y-5550001D01*
X2874924Y-5522874D01*
X2871978Y-5495899D01*
X2867101Y-5469178D01*
X2860294Y-5442915D01*
X2851658Y-5417159D01*
X2841142Y-5392166D01*
X2828848Y-5367934D01*
X2814878Y-5344668D01*
X2799232Y-5322519D01*
X2782062Y-5301488D01*
X2763367Y-5281777D01*
X2743352Y-5263489D01*
X2722016Y-5246674D01*
X2699562Y-5231434D01*
X2676042Y-5217871D01*
X2651658Y-5206034D01*
X2626410Y-5195976D01*
X2600553Y-5187797D01*
X2574137Y-5181498D01*
X2547366Y-5177078D01*
X2520340Y-5174640D01*
X2493213Y-5174132D01*
X2466086Y-5175605D01*
X2439162Y-5179060D01*
X2412542Y-5184394D01*
X2386431Y-5191658D01*
X2360828Y-5200802D01*
X2336038Y-5211724D01*
X2312009Y-5224424D01*
X2289048Y-5238851D01*
X2267153Y-5254904D01*
X2246426Y-5272481D01*
X2227072Y-5291480D01*
X2209139Y-5311851D01*
X2192731Y-5333441D01*
X2177897Y-5356199D01*
X2164740Y-5379923D01*
X2153361Y-5404561D01*
X2143760Y-5429961D01*
X2136038Y-5455970D01*
X2130196Y-5482488D01*
X2126284Y-5509361D01*
X2124354Y-5536438D01*
X2124354Y-5563565D01*
X2126284Y-5590641D01*
X2130196Y-5617514D01*
X2136038Y-5643981D01*
X2140153Y-5657951D01*
X2140458Y-5662371D01*
X2138832Y-5666486D01*
X2135632Y-5669534D01*
X2131415Y-5670956D01*
X2126996Y-5670397D01*
X2123236Y-5668010D01*
X2073605Y-5618327D01*
X2071370Y-5615025D01*
X2070607Y-5611164D01*
X2070607Y-5321706D01*
X2070303Y-5317896D01*
X2068271Y-5310835D01*
X2065528Y-5305958D01*
X2062734Y-5302707D01*
X1936292Y-5176266D01*
X1933397Y-5173776D01*
X1926945Y-5170220D01*
X1921560Y-5168696D01*
X1917293Y-5168392D01*
X1851660Y-5168392D01*
X1847748Y-5167630D01*
X1844497Y-5165394D01*
X1842262Y-5162143D01*
X1841500Y-5158232D01*
X1841500Y-36068D01*
X1842262Y-32156D01*
X1844497Y-28905D01*
X1847748Y-26670D01*
X1851660Y-25908D01*
X2225040Y-25908D01*
X2228951Y-26670D01*
X2232202Y-28905D01*
X2234438Y-32156D01*
X2235200Y-36068D01*
X2235200Y-316484D01*
X2236216Y-317500D01*
X2757932Y-317500D01*
X2761843Y-318262D01*
X2765094Y-320497D01*
X2767330Y-323748D01*
X2768092Y-327660D01*
X2768092Y-964895D01*
X2768752Y-970940D01*
X2770682Y-976426D01*
X2773781Y-981354D01*
X2775864Y-983742D01*
X2826258Y-1034135D01*
X2831033Y-1037945D01*
X2836265Y-1040434D01*
X2841904Y-1041704D01*
X2845104Y-1041908D01*
X3350564Y-1041908D01*
X3354425Y-1042669D01*
X3357727Y-1044905D01*
X3791458Y-1478635D01*
X3796233Y-1482445D01*
X3801465Y-1484934D01*
X3807104Y-1486204D01*
X3810304Y-1486408D01*
X3852875Y-1486408D01*
X3857091Y-1487322D01*
X3860596Y-1489964D01*
X3862628Y-1493774D01*
X3862933Y-1498092D01*
X3861358Y-1502156D01*
X3858310Y-1505153D01*
X3854196Y-1506626D01*
X3851097Y-1507032D01*
X3846322Y-1508099D01*
X3841699Y-1509572D01*
X3837178Y-1511452D01*
X3832860Y-1513687D01*
X3828745Y-1516329D01*
X3824884Y-1519275D01*
X3821125Y-1522730D01*
X3618229Y-1725625D01*
X3614775Y-1729384D01*
X3611829Y-1733245D01*
X3609187Y-1737360D01*
X3606952Y-1741678D01*
X3605072Y-1746199D01*
X3603599Y-1750822D01*
X3602532Y-1755597D01*
X3602126Y-1758696D01*
X3600653Y-1762810D01*
X3597656Y-1765858D01*
X3593592Y-1767433D01*
X3589274Y-1767128D01*
X3585464Y-1765096D01*
X3582822Y-1761642D01*
X3581908Y-1757375D01*
X3581908Y-1651558D01*
X3581196Y-1645259D01*
X3579266Y-1639773D01*
X3576218Y-1634896D01*
X3572103Y-1630781D01*
X3567226Y-1627733D01*
X3561740Y-1625803D01*
X3555441Y-1625092D01*
X3162858Y-1625092D01*
X3156559Y-1625803D01*
X3151073Y-1627733D01*
X3146196Y-1630781D01*
X3142081Y-1634896D01*
X3139033Y-1639773D01*
X3137103Y-1645259D01*
X3136392Y-1651558D01*
X3136392Y-1815541D01*
X3137103Y-1821840D01*
X3139033Y-1827326D01*
X3142081Y-1832203D01*
X3146196Y-1836318D01*
X3151073Y-1839366D01*
X3156559Y-1841296D01*
X3162858Y-1842007D01*
X3555441Y-1842007D01*
X3561740Y-1841296D01*
X3567226Y-1839366D01*
X3572103Y-1836318D01*
X3576218Y-1832203D01*
X3579266Y-1827326D01*
X3581196Y-1821840D01*
X3581450Y-1819706D01*
X3582822Y-1815592D01*
X3585870Y-1812442D01*
X3589934Y-1810816D01*
X3594252Y-1811070D01*
X3598113Y-1813102D01*
X3600754Y-1816607D01*
X3601669Y-1820875D01*
X3601669Y-2463596D01*
X3601923Y-2468676D01*
X3602532Y-2473502D01*
X3603599Y-2478278D01*
X3605072Y-2482900D01*
X3606952Y-2487422D01*
X3609187Y-2491740D01*
X3611829Y-2495854D01*
X3614775Y-2499715D01*
X3618229Y-2503474D01*
X3712108Y-2597404D01*
X3718153Y-2604770D01*
X3725367Y-2611120D01*
X3733596Y-2616200D01*
X3742537Y-2619756D01*
X3751986Y-2621788D01*
X3761638Y-2622245D01*
X3769410Y-2621330D01*
X3812082Y-2621330D01*
X3815486Y-2621788D01*
X3825138Y-2622245D01*
X3834688Y-2620975D01*
X3843883Y-2618181D01*
X3852519Y-2613812D01*
X3860292Y-2608072D01*
X3866946Y-2601112D01*
X3872331Y-2593136D01*
X3876344Y-2584348D01*
X3878732Y-2575001D01*
X3879596Y-2565400D01*
X3878732Y-2555798D01*
X3876344Y-2546451D01*
X3872331Y-2537663D01*
X3866946Y-2529687D01*
X3860292Y-2522728D01*
X3852519Y-2516987D01*
X3843883Y-2512618D01*
X3834688Y-2509824D01*
X3825138Y-2508554D01*
X3815486Y-2509012D01*
X3812082Y-2509469D01*
X3786581Y-2509469D01*
X3782669Y-2508707D01*
X3779367Y-2506522D01*
X3716477Y-2443632D01*
X3714292Y-2440330D01*
X3713530Y-2436418D01*
X3713530Y-1792681D01*
X3714292Y-1788769D01*
X3716477Y-1785467D01*
X3736746Y-1765198D01*
X3740048Y-1763014D01*
X3743909Y-1762252D01*
X3747820Y-1763014D01*
X3751122Y-1765198D01*
X3753307Y-1768500D01*
X3754069Y-1772412D01*
X3754069Y-2174290D01*
X3753358Y-2179574D01*
X3753358Y-2189226D01*
X3754983Y-2198725D01*
X3758184Y-2207818D01*
X3762857Y-2216251D01*
X3768953Y-2223770D01*
X3776167Y-2230120D01*
X3784396Y-2235200D01*
X3793337Y-2238756D01*
X3802786Y-2240788D01*
X3812438Y-2241245D01*
X3820210Y-2240330D01*
X3862882Y-2240330D01*
X3866286Y-2240788D01*
X3875938Y-2241245D01*
X3885488Y-2239975D01*
X3894683Y-2237181D01*
X3903319Y-2232812D01*
X3911092Y-2227072D01*
X3917746Y-2220112D01*
X3923131Y-2212136D01*
X3927144Y-2203348D01*
X3929532Y-2194001D01*
X3930396Y-2184400D01*
X3929532Y-2174798D01*
X3927144Y-2165451D01*
X3923131Y-2156663D01*
X3917746Y-2148687D01*
X3911092Y-2141728D01*
X3903319Y-2135987D01*
X3894683Y-2131618D01*
X3885488Y-2128824D01*
X3874820Y-2127504D01*
X3871315Y-2126386D01*
X3868470Y-2124151D01*
X3866591Y-2121001D01*
X3865930Y-2117394D01*
X3865930Y-1792681D01*
X3866692Y-1788769D01*
X3868877Y-1785467D01*
X3906367Y-1747977D01*
X3909669Y-1745792D01*
X3913581Y-1745030D01*
X3972915Y-1745030D01*
X3976827Y-1745792D01*
X3980129Y-1748028D01*
X3982313Y-1751330D01*
X3983075Y-1755241D01*
X3982262Y-1759102D01*
X3980027Y-1762404D01*
X3976674Y-1764588D01*
X3974896Y-1765300D01*
X3966667Y-1770380D01*
X3959453Y-1776730D01*
X3953357Y-1784248D01*
X3948684Y-1792681D01*
X3945483Y-1801774D01*
X3943858Y-1811274D01*
X3943858Y-1820925D01*
X3945483Y-1830425D01*
X3948684Y-1839518D01*
X3953357Y-1847951D01*
X3959453Y-1855470D01*
X3966667Y-1861820D01*
X3974896Y-1866900D01*
X3983075Y-1870151D01*
X3986428Y-1872386D01*
X3988663Y-1875688D01*
X3989476Y-1879600D01*
X3988663Y-1883511D01*
X3986428Y-1886813D01*
X3983075Y-1889048D01*
X3974896Y-1892300D01*
X3966667Y-1897380D01*
X3959453Y-1903730D01*
X3953357Y-1911248D01*
X3948684Y-1919681D01*
X3945483Y-1928774D01*
X3943858Y-1938274D01*
X3943858Y-1947925D01*
X3945483Y-1957425D01*
X3948684Y-1966518D01*
X3953357Y-1974951D01*
X3959453Y-1982470D01*
X3966667Y-1988820D01*
X3974896Y-1993900D01*
X3983837Y-1997456D01*
X3993286Y-1999488D01*
X4002938Y-1999945D01*
X4010710Y-1999030D01*
X4053382Y-1999030D01*
X4056786Y-1999488D01*
X4066438Y-1999945D01*
X4074210Y-1999030D01*
X4150918Y-1999030D01*
X4154830Y-1999792D01*
X4158132Y-2001977D01*
X4432655Y-2276500D01*
X4434890Y-2279904D01*
X4435602Y-2283866D01*
X4434738Y-2287778D01*
X4432452Y-2291080D01*
X4428998Y-2293213D01*
X4424984Y-2293823D01*
X4419346Y-2293569D01*
X4252010Y-2293569D01*
X4244238Y-2292654D01*
X4234586Y-2293112D01*
X4231182Y-2293569D01*
X4188510Y-2293569D01*
X4180738Y-2292654D01*
X4171086Y-2293112D01*
X4161637Y-2295144D01*
X4152696Y-2298700D01*
X4144467Y-2303780D01*
X4137253Y-2310130D01*
X4131157Y-2317648D01*
X4126484Y-2326081D01*
X4123283Y-2335174D01*
X4121658Y-2344674D01*
X4121658Y-2354326D01*
X4123283Y-2363825D01*
X4126484Y-2372918D01*
X4131157Y-2381351D01*
X4137253Y-2388870D01*
X4144467Y-2395220D01*
X4152696Y-2400300D01*
X4161637Y-2403856D01*
X4171086Y-2405888D01*
X4180738Y-2406345D01*
X4188510Y-2405430D01*
X4231182Y-2405430D01*
X4234586Y-2405888D01*
X4244238Y-2406345D01*
X4252010Y-2405430D01*
X4392218Y-2405430D01*
X4396130Y-2406192D01*
X4399432Y-2408377D01*
X4546701Y-2555646D01*
X4548886Y-2558948D01*
X4549648Y-2562809D01*
X4548886Y-2566720D01*
X4546701Y-2570022D01*
X4543399Y-2572207D01*
X4539488Y-2572969D01*
X4264710Y-2572969D01*
X4256938Y-2572054D01*
X4247286Y-2572512D01*
X4237837Y-2574544D01*
X4228896Y-2578100D01*
X4220667Y-2583180D01*
X4213453Y-2589530D01*
X4207408Y-2596896D01*
X4159250Y-2645054D01*
X4149953Y-2653030D01*
X4143857Y-2660548D01*
X4139184Y-2668981D01*
X4135983Y-2678074D01*
X4134358Y-2687574D01*
X4134358Y-2697226D01*
X4135983Y-2706725D01*
X4139184Y-2715818D01*
X4143857Y-2724251D01*
X4149953Y-2731770D01*
X4157167Y-2738120D01*
X4165396Y-2743200D01*
X4174337Y-2746756D01*
X4183786Y-2748788D01*
X4198772Y-2749499D01*
X4202582Y-2751734D01*
X4205122Y-2755392D01*
X4205833Y-2759760D01*
X4204563Y-2764028D01*
X4201668Y-2767380D01*
X4186732Y-2778302D01*
X4166057Y-2795879D01*
X4146702Y-2814878D01*
X4128770Y-2835249D01*
X4112310Y-2856890D01*
X4097477Y-2879598D01*
X4084370Y-2903372D01*
X4072940Y-2927959D01*
X4063390Y-2953359D01*
X4055618Y-2979369D01*
X4049776Y-3005886D01*
X4045915Y-3032760D01*
X4043934Y-3059836D01*
X4043934Y-3086963D01*
X4045915Y-3114040D01*
X4049776Y-3140913D01*
X4052925Y-3155035D01*
X4053027Y-3158642D01*
X4051909Y-3162096D01*
X4049572Y-3164941D01*
X4046423Y-3166770D01*
X4042867Y-3167380D01*
X3658666Y-3162300D01*
X3657600Y-3163316D01*
X3670300Y-3834384D01*
X3671265Y-3835400D01*
X3806494Y-3835400D01*
X3809796Y-3835958D01*
X3812743Y-3837533D01*
X3920388Y-3921251D01*
X3922471Y-3923487D01*
X3923842Y-3926230D01*
X3924300Y-3929278D01*
X3924300Y-5158232D01*
X3923537Y-5162143D01*
X3921302Y-5165394D01*
X3918051Y-5167630D01*
X3914140Y-5168392D01*
X3090773Y-5168392D01*
X3087217Y-5168646D01*
X3080156Y-5170678D01*
X3075178Y-5173370D01*
X3072130Y-5175910D01*
X2941370Y-5302402D01*
X2938678Y-5305450D01*
X2935122Y-5311851D01*
X2934004Y-5315204D01*
X2933192Y-5321909D01*
X2933192Y-5611164D01*
X2932430Y-5615025D01*
X2930194Y-5618327D01*
X2875127Y-5673445D01*
X2871317Y-5675833D01*
G37*

%LPC*%
G36*
X3481324Y-5098745D02*
G01*
X3495852Y-5098745D01*
X3510279Y-5096916D01*
X3524402Y-5093309D01*
X3537915Y-5087975D01*
X3550665Y-5080965D01*
X3562451Y-5072380D01*
X3573068Y-5062423D01*
X3582365Y-5051196D01*
X3590137Y-5038953D01*
X3596335Y-5025745D01*
X3600856Y-5011928D01*
X3603548Y-4997602D01*
X3604463Y-4983124D01*
X3603548Y-4968595D01*
X3600856Y-4954270D01*
X3596335Y-4940452D01*
X3590137Y-4927295D01*
X3582365Y-4915001D01*
X3573068Y-4903774D01*
X3562451Y-4893818D01*
X3550665Y-4885232D01*
X3537915Y-4878222D01*
X3524402Y-4872888D01*
X3510279Y-4869281D01*
X3495852Y-4867452D01*
X3481324Y-4867452D01*
X3466896Y-4869281D01*
X3452774Y-4872888D01*
X3439261Y-4878222D01*
X3426510Y-4885232D01*
X3414725Y-4893818D01*
X3404108Y-4903774D01*
X3394811Y-4915001D01*
X3387039Y-4927295D01*
X3380841Y-4940452D01*
X3376320Y-4954270D01*
X3373628Y-4968595D01*
X3372713Y-4983124D01*
X3373628Y-4997602D01*
X3376320Y-5011928D01*
X3380841Y-5025745D01*
X3387039Y-5038953D01*
X3394811Y-5051196D01*
X3404108Y-5062423D01*
X3414725Y-5072380D01*
X3426510Y-5080965D01*
X3439261Y-5087975D01*
X3452774Y-5093309D01*
X3466896Y-5096916D01*
G37*
G36*
X2798521Y-5052618D02*
G01*
X2816555Y-5051247D01*
X2834386Y-5047996D01*
X2851759Y-5042916D01*
X2868574Y-5036108D01*
X2884525Y-5027574D01*
X2899562Y-5017465D01*
X2913481Y-5005882D01*
X2926130Y-4992928D01*
X2937357Y-4978704D01*
X2947060Y-4963414D01*
X2955188Y-4947208D01*
X2961538Y-4930292D01*
X2966161Y-4912766D01*
X2968955Y-4894884D01*
X2969869Y-4876800D01*
X2968955Y-4858715D01*
X2966161Y-4840833D01*
X2961538Y-4823307D01*
X2955188Y-4806340D01*
X2947060Y-4790135D01*
X2937357Y-4774895D01*
X2926130Y-4760671D01*
X2913481Y-4747717D01*
X2899562Y-4736084D01*
X2884525Y-4725974D01*
X2868574Y-4717491D01*
X2851759Y-4710684D01*
X2834386Y-4705604D01*
X2816555Y-4702352D01*
X2798521Y-4700930D01*
X2780436Y-4701438D01*
X2762453Y-4703724D01*
X2744825Y-4707890D01*
X2727706Y-4713833D01*
X2711348Y-4721555D01*
X2695803Y-4730851D01*
X2681325Y-4741722D01*
X2668016Y-4754016D01*
X2656078Y-4767630D01*
X2645562Y-4782413D01*
X2636672Y-4798161D01*
X2629408Y-4814722D01*
X2623921Y-4831994D01*
X2620213Y-4849723D01*
X2618333Y-4867757D01*
X2618333Y-4885842D01*
X2620213Y-4903876D01*
X2623921Y-4921605D01*
X2629408Y-4938826D01*
X2636672Y-4955438D01*
X2645562Y-4971186D01*
X2656078Y-4985969D01*
X2668016Y-4999532D01*
X2681325Y-5011877D01*
X2695803Y-5022748D01*
X2711348Y-5032044D01*
X2727706Y-5039715D01*
X2744825Y-5045659D01*
X2762453Y-5049824D01*
X2780436Y-5052161D01*
G37*

%LPD*%
G36*
X5402681Y-5856630D02*
G01*
X5398516Y-5855970D01*
X5395010Y-5853684D01*
X5133543Y-5592165D01*
X5131308Y-5588863D01*
X5130546Y-5585002D01*
X5130546Y-5273192D01*
X5131308Y-5269280D01*
X5133543Y-5265978D01*
X5136794Y-5263794D01*
X5140706Y-5263032D01*
X5144617Y-5263794D01*
X5147868Y-5265978D01*
X5166664Y-5284724D01*
X5172862Y-5289854D01*
X5179568Y-5293410D01*
X5186781Y-5295595D01*
X5194808Y-5296408D01*
X5250891Y-5296408D01*
X5254752Y-5297170D01*
X5258054Y-5299405D01*
X5259679Y-5300980D01*
X5267706Y-5306618D01*
X5276596Y-5310784D01*
X5286095Y-5313324D01*
X5295900Y-5314188D01*
X5305704Y-5313324D01*
X5315204Y-5310784D01*
X5324094Y-5306618D01*
X5332272Y-5300878D01*
X5335778Y-5299303D01*
X5339588Y-5299151D01*
X5343194Y-5300370D01*
X5346090Y-5302859D01*
X5347817Y-5306263D01*
X5349189Y-5310632D01*
X5352745Y-5317337D01*
X5357876Y-5323535D01*
X5382564Y-5348224D01*
X5388762Y-5353354D01*
X5395468Y-5356910D01*
X5402681Y-5359095D01*
X5410708Y-5359908D01*
X5511292Y-5359908D01*
X5519318Y-5359095D01*
X5526532Y-5356910D01*
X5533237Y-5353354D01*
X5539435Y-5348224D01*
X5545328Y-5342331D01*
X5548223Y-5340350D01*
X5551627Y-5339435D01*
X5559704Y-5338724D01*
X5569204Y-5336184D01*
X5578094Y-5332018D01*
X5586120Y-5326380D01*
X5587746Y-5324805D01*
X5591048Y-5322570D01*
X5594908Y-5321808D01*
X5612892Y-5321808D01*
X5620918Y-5320995D01*
X5628132Y-5318810D01*
X5634837Y-5315254D01*
X5641035Y-5310124D01*
X5646928Y-5304231D01*
X5649823Y-5302250D01*
X5653227Y-5301335D01*
X5661304Y-5300624D01*
X5670804Y-5298084D01*
X5679694Y-5293918D01*
X5687720Y-5288280D01*
X5694680Y-5281320D01*
X5700318Y-5273294D01*
X5702554Y-5268468D01*
X5704840Y-5265318D01*
X5708142Y-5263286D01*
X5711952Y-5262575D01*
X5715762Y-5263388D01*
X5718962Y-5265572D01*
X5763564Y-5310124D01*
X5769762Y-5315254D01*
X5776468Y-5318810D01*
X5783681Y-5320995D01*
X5791708Y-5321808D01*
X6133592Y-5321808D01*
X6141618Y-5320995D01*
X6148832Y-5318810D01*
X6155537Y-5315254D01*
X6161735Y-5310124D01*
X6185204Y-5286705D01*
X6188506Y-5284470D01*
X6192418Y-5283708D01*
X6679692Y-5283708D01*
X6687718Y-5282895D01*
X6694931Y-5280710D01*
X6701637Y-5277154D01*
X6707479Y-5272379D01*
X6712254Y-5266537D01*
X6715810Y-5259832D01*
X6717995Y-5252618D01*
X6718808Y-5244592D01*
X6718808Y-4605020D01*
X6719519Y-4601210D01*
X6721652Y-4597958D01*
X6725107Y-4594047D01*
X6728206Y-4591050D01*
X6732270Y-4589627D01*
X6736537Y-4589983D01*
X6740245Y-4592116D01*
X6742785Y-4595520D01*
X6743700Y-4599736D01*
X6743700Y-4926584D01*
X6744716Y-4927600D01*
X6760159Y-4927600D01*
X6764121Y-4928412D01*
X6767474Y-4930698D01*
X6769658Y-4934153D01*
X6771589Y-4939334D01*
X6773875Y-4943195D01*
X6776466Y-4946192D01*
X6991807Y-5161534D01*
X6994702Y-5164023D01*
X7001154Y-5167579D01*
X7006539Y-5169103D01*
X7010806Y-5169408D01*
X7236764Y-5169408D01*
X7240625Y-5170170D01*
X7243927Y-5172405D01*
X7375194Y-5303672D01*
X7377430Y-5306974D01*
X7378192Y-5310835D01*
X7378192Y-5381548D01*
X7377328Y-5385714D01*
X7374788Y-5389118D01*
X7371080Y-5391251D01*
X7366863Y-5391658D01*
X7362850Y-5390286D01*
X7359751Y-5387390D01*
X7349236Y-5372506D01*
X7332014Y-5351526D01*
X7313371Y-5331815D01*
X7293305Y-5313476D01*
X7272020Y-5296662D01*
X7249566Y-5281422D01*
X7226046Y-5267858D01*
X7201611Y-5256022D01*
X7176414Y-5246014D01*
X7150557Y-5237784D01*
X7124141Y-5231485D01*
X7097369Y-5227066D01*
X7070344Y-5224627D01*
X7043166Y-5224170D01*
X7016089Y-5225643D01*
X6989165Y-5229047D01*
X6962546Y-5234381D01*
X6936384Y-5241645D01*
X6910831Y-5250789D01*
X6885990Y-5261711D01*
X6862013Y-5274462D01*
X6839000Y-5288838D01*
X6817106Y-5304891D01*
X6796430Y-5322468D01*
X6777075Y-5341467D01*
X6759143Y-5361838D01*
X6742684Y-5383479D01*
X6727901Y-5406186D01*
X6724345Y-5412536D01*
X6721398Y-5415889D01*
X6717334Y-5417616D01*
X6712915Y-5417464D01*
X6709003Y-5415483D01*
X6706260Y-5411978D01*
X6705295Y-5407660D01*
X6705295Y-5397855D01*
X6704431Y-5386171D01*
X6701891Y-5375148D01*
X6697776Y-5364581D01*
X6692087Y-5354777D01*
X6685025Y-5345887D01*
X6676694Y-5338165D01*
X6667347Y-5331764D01*
X6657136Y-5326888D01*
X6646265Y-5323535D01*
X6635089Y-5321808D01*
X6623710Y-5321808D01*
X6612534Y-5323535D01*
X6601663Y-5326888D01*
X6591452Y-5331764D01*
X6582105Y-5338165D01*
X6573774Y-5345887D01*
X6566712Y-5354777D01*
X6561023Y-5364581D01*
X6556908Y-5375148D01*
X6554368Y-5386171D01*
X6553504Y-5397855D01*
X6553504Y-5742838D01*
X6552742Y-5746750D01*
X6550507Y-5750052D01*
X6461252Y-5839307D01*
X6457950Y-5841542D01*
X6454038Y-5842304D01*
X6233261Y-5842304D01*
X6229350Y-5841542D01*
X6226048Y-5839307D01*
X6188405Y-5801614D01*
X6186170Y-5798362D01*
X6185408Y-5794451D01*
X6185408Y-5740704D01*
X6184747Y-5734659D01*
X6182817Y-5729173D01*
X6179718Y-5724245D01*
X6177635Y-5721858D01*
X6114542Y-5658764D01*
X6109766Y-5654954D01*
X6104534Y-5652465D01*
X6098895Y-5651195D01*
X6095695Y-5650992D01*
X6007658Y-5650992D01*
X6001359Y-5651703D01*
X5995873Y-5653633D01*
X5990996Y-5656681D01*
X5986881Y-5660796D01*
X5983833Y-5665673D01*
X5981903Y-5671159D01*
X5981192Y-5677458D01*
X5981192Y-5743244D01*
X5980430Y-5747105D01*
X5978194Y-5750407D01*
X5974943Y-5752642D01*
X5971032Y-5753404D01*
X5486755Y-5753404D01*
X5475071Y-5754268D01*
X5464048Y-5756808D01*
X5453481Y-5760923D01*
X5443677Y-5766612D01*
X5434787Y-5773674D01*
X5427065Y-5782005D01*
X5420664Y-5791352D01*
X5415788Y-5801563D01*
X5412435Y-5812434D01*
X5410708Y-5823610D01*
X5410708Y-5834989D01*
X5412232Y-5844946D01*
X5411978Y-5849162D01*
X5410047Y-5852922D01*
X5406796Y-5855563D01*
G37*

%LPD*%
G36*
X3162300Y-1651000D02*
G01*
X3162300Y-1816100D01*
X3556000Y-1816100D01*
X3556000Y-1651000D01*
G37*
G36*
X4876800Y-1866900D02*
G01*
X4876800Y-1993900D01*
X5181600Y-1993900D01*
X5181600Y-1866900D01*
G37*
G36*
X6007100Y-5676900D02*
G01*
X6007100Y-5880100D01*
X6159500Y-5880100D01*
X6159500Y-5740400D01*
X6096000Y-5676900D01*
G37*
G36*
X2844800Y-76200D02*
G01*
X2794000Y-127000D01*
X2794000Y-965200D01*
X2844800Y-1016000D01*
X3365500Y-1016000D01*
X3810000Y-1460500D01*
X4749800Y-1460500D01*
X4927600Y-1295400D01*
X5524500Y-1295400D01*
X5689600Y-1460500D01*
X7112000Y-1460500D01*
X7162800Y-1409700D01*
X7162800Y-1130300D01*
X6896100Y-914400D01*
X5664200Y-914400D01*
X5499100Y-762000D01*
X4902200Y-762000D01*
X4737100Y-914400D01*
X4038600Y-914400D01*
X3403600Y-279400D01*
X3403600Y-127000D01*
X3352800Y-76200D01*
G37*
G36*
X7162800Y-1612900D02*
G01*
X7112000Y-1651000D01*
X4394200Y-1651000D01*
X4394200Y-1803400D01*
X4432300Y-1841500D01*
X7162800Y-1841500D01*
X7226300Y-1879600D01*
X7620000Y-1879600D01*
X7620000Y-1612900D01*
G37*
G36*
X4076700Y-660400D02*
G01*
X4025900Y-711200D01*
X4025900Y-787400D01*
X4076700Y-838200D01*
X4749800Y-838200D01*
X4749800Y-660400D01*
G37*
G36*
X5638800Y-660400D02*
G01*
X5638800Y-800100D01*
X5676900Y-838200D01*
X5994400Y-838200D01*
X5994400Y-660400D01*
G37*
G36*
X5473700Y-342900D02*
G01*
X5473700Y-584200D01*
X5994400Y-584200D01*
X5994400Y-342900D01*
G37*
G36*
X4064000Y-330200D02*
G01*
X4025900Y-368300D01*
X4025900Y-533400D01*
X4076700Y-584200D01*
X4749800Y-584200D01*
X4749800Y-330200D01*
G37*
D10*
X3788663Y-3982973D02*
G01*
X2468625Y-3982973D01*
X2286000Y-4165600D01*
X2286000Y-4876800D01*
D11*
X4064000Y-1943100D02*
G01*
X4000500Y-1943100D01*
D12*
X4914900Y-2628900D02*
G01*
X4838700Y-2628900D01*
X5283200Y-2667000D02*
G01*
X5283200Y-2578100D01*
X5219700Y-2514600D01*
X5054600Y-2514600D01*
X5054600Y-2514600D02*
G01*
X4965700Y-2514600D01*
X5156200Y-2806700D02*
G01*
X5156200Y-2730500D01*
X5283200Y-2730500D02*
G01*
X5283200Y-2667000D01*
X5536945Y-2706623D02*
G01*
X5537200Y-2641600D01*
X5410200Y-2717800D02*
G01*
X5410200Y-2654300D01*
D11*
X5334000Y-1930400D02*
G01*
X5888753Y-1930400D01*
X5888753Y-1930400D02*
G01*
X5956300Y-1930400D01*
X5257800Y-1930400D02*
G01*
X5334000Y-1930400D01*
X3924300Y-1562100D02*
G01*
X4025900Y-1562100D01*
X5339826Y-1562100D02*
G01*
X5410200Y-1562100D01*
X3759200Y-2565400D02*
G01*
X3822700Y-2565400D01*
X3873500Y-2184400D02*
G01*
X3810000Y-2184400D01*
X5918200Y-2730500D02*
G01*
X5918200Y-2730500D01*
X5918200Y-2794000D01*
X4655555Y-2057524D02*
G01*
X4655677Y-2057400D01*
X4711700Y-2057400D01*
X6045200Y-2730014D02*
G01*
X6045200Y-2794000D01*
X4655550Y-1930400D02*
G01*
X4724400Y-1930400D01*
D13*
X6515100Y-2095500D02*
G01*
X6591300Y-2095500D01*
X6540500Y-1968500D02*
G01*
X6540500Y-1905000D01*
D11*
X5092700Y-4546600D02*
G01*
X5156200Y-4546600D01*
X4622800Y-4432300D02*
G01*
X4699000Y-4432300D01*
X4191000Y-2692400D02*
G01*
X4254500Y-2628900D01*
X4178300Y-2349500D02*
G01*
X4241800Y-2349500D01*
X6413500Y-4271518D02*
G01*
X6413500Y-4165600D01*
X6413500Y-4378561D02*
G01*
X6413500Y-4271518D01*
X6578600Y-3429000D02*
G01*
X6578600Y-3352800D01*
X6616700Y-3898900D02*
G01*
X6692900Y-3822700D01*
D12*
X5156200Y-2730500D02*
G01*
X5156200Y-2667000D01*
X5118100Y-2628900D01*
X4914900Y-2628900D01*
D14*
X6972300Y-1739900D02*
G01*
X7213600Y-1739900D01*
D13*
X6121400Y-3429000D02*
G01*
X5969000Y-3276600D01*
X5969000Y-3048000D01*
X6121400Y-2895600D01*
X6172200Y-2842257D01*
X5461000Y-3341989D02*
G01*
X5461000Y-3403600D01*
X5181600Y-4305300D02*
G01*
X5111861Y-4305300D01*
X5461000Y-3403600D02*
G01*
X5410200Y-3403600D01*
X5283200Y-3530600D01*
X5283200Y-4203700D01*
X5181600Y-4305300D01*
X5842000Y-4572000D02*
G01*
X5778500Y-4572000D01*
X5727700Y-4330700D02*
G01*
X5727700Y-4267200D01*
X6286500Y-3289300D02*
G01*
X6350000Y-3289300D01*
X7277100Y-2705100D02*
G01*
X7277100Y-2641600D01*
X7277100Y-2705100D02*
G01*
X7277100Y-2641600D01*
X6299200Y-2359660D02*
G01*
X6388100Y-2273300D01*
X6439154Y-2222245D01*
X6655054Y-2222245D01*
X6692900Y-2184400D01*
X6692900Y-2006600D01*
X6654800Y-1968500D01*
X6540500Y-1968500D01*
X6299200Y-2844800D02*
G01*
X6299200Y-2359660D01*
X6172200Y-2842260D02*
G01*
X6172200Y-2336800D01*
X6172200Y-2338616D02*
G01*
X6261100Y-2247900D01*
X6413500Y-2095500D01*
X6515100Y-2095500D01*
X5918200Y-2730500D02*
G01*
X5956300Y-2692400D01*
X5956300Y-2197100D01*
X5918200Y-2159000D01*
D15*
X6273800Y-5346700D02*
G01*
X6337300Y-5410200D01*
X6337300Y-5765800D01*
X6629400Y-5460276D02*
G01*
X6629400Y-5397500D01*
X6629400Y-5527070D02*
G01*
X6629400Y-5460276D01*
X6629400Y-5594802D02*
G01*
X6629400Y-5527070D01*
D11*
X6527800Y-5080000D02*
G01*
X6565900Y-5080000D01*
X6565900Y-3962400D01*
X6616700Y-3898900D01*
X6273800Y-5080000D02*
G01*
X6413500Y-4940300D01*
X6413500Y-4378561D01*
X6680200Y-4483100D02*
G01*
X6680200Y-4559300D01*
X5257800Y-5080000D02*
G01*
X5257800Y-4889500D01*
X5613400Y-4533900D01*
X5613400Y-4127500D01*
X5727700Y-4013200D01*
X6261100Y-4013200D01*
X6578600Y-3695700D01*
X6578600Y-3429000D01*
D14*
X5384800Y-5257800D02*
G01*
X5295900Y-5257800D01*
D15*
X5486400Y-5829300D02*
G01*
X6108700Y-5829300D01*
X6057900Y-5778500D02*
G01*
X6197600Y-5918200D01*
X6489700Y-5918200D01*
X6629400Y-5778500D01*
X6629400Y-5594802D01*
D14*
X5384800Y-5257800D02*
G01*
X5194300Y-5257800D01*
X5041900Y-5105400D01*
X5041900Y-4838700D01*
X5410200Y-4470400D01*
X5499100Y-4470400D01*
D11*
X5029200Y-4546600D02*
G01*
X5041900Y-4546600D01*
X5092700Y-4546600D01*
X4711700Y-2057400D02*
G01*
X4813300Y-2159000D01*
X5918200Y-2159000D01*
X4254500Y-2628900D02*
G01*
X4572000Y-2628900D01*
X4851400Y-2908300D01*
X4851400Y-4432300D01*
X4622800Y-4432300D01*
X4241800Y-2349500D02*
G01*
X4419600Y-2349500D01*
X4965700Y-2895600D01*
X4965700Y-4495800D01*
X5029200Y-4546600D01*
X5410200Y-2654300D02*
G01*
X5410200Y-2540000D01*
X5270500Y-2400300D01*
X4635500Y-2400300D01*
X4178300Y-1943100D01*
X4064000Y-1943100D01*
X4000500Y-1816100D02*
G01*
X4064000Y-1816100D01*
X3810000Y-2184400D02*
G01*
X3810000Y-1765300D01*
X3886200Y-1689100D01*
X4076700Y-1689100D01*
X4203700Y-1562100D01*
X5339841Y-1562100D01*
D13*
X5778500Y-4572000D02*
G01*
X5727700Y-4521200D01*
X5727700Y-4330700D01*
X6515100Y-1536700D02*
G01*
X6591300Y-1536700D01*
X6591300Y-1536700D02*
G01*
X7721600Y-1536700D01*
X7721600Y-1993900D01*
D11*
X6870700Y-2197100D02*
G01*
X6870700Y-2336800D01*
X6896100Y-2362200D01*
X7035800Y-2362200D01*
X7035800Y-2362200D02*
G01*
X7112000Y-2362200D01*
D13*
X7721600Y-1993900D02*
G01*
X7315200Y-1993900D01*
X7315200Y-2463800D01*
X7150100Y-2628900D01*
X6781800Y-2628900D01*
X6553200Y-2857500D01*
X6553200Y-3048000D01*
X6426200Y-3175000D01*
X6261100Y-3175000D01*
D11*
X4724400Y-1930400D02*
G01*
X4851400Y-2057400D01*
X6045200Y-2057400D01*
X6045200Y-2729992D01*
X4064000Y-1816100D02*
G01*
X4267200Y-1816100D01*
X4724400Y-2273300D01*
X5308600Y-2273300D01*
X5537200Y-2501900D01*
X5536890Y-2706507D01*
X3759200Y-2565400D02*
G01*
X3657600Y-2463800D01*
X3657600Y-1765300D01*
X3860800Y-1562100D01*
X3924300Y-1562100D01*
D13*
X7277100Y-2641600D02*
G01*
X7277100Y-2717800D01*
X6845300Y-2717800D01*
X6680200Y-2882900D01*
X6680200Y-3060700D01*
X6451600Y-3289300D01*
X6350000Y-3289300D01*
X6311900Y-3416300D02*
G01*
X6311900Y-3479800D01*
D14*
X5511545Y-5232654D02*
G01*
X5473700Y-5232400D01*
D13*
X6184900Y-3492500D02*
G01*
X6121400Y-3429000D01*
X6311900Y-3416300D02*
G01*
X6261100Y-3416300D01*
X6083300Y-3238500D01*
X6083300Y-3060954D01*
X6299200Y-2844800D01*
D14*
X5651500Y-5245100D02*
G01*
X5613400Y-5283200D01*
X5549900Y-5283200D01*
X6680200Y-4559300D02*
G01*
X6680200Y-5245100D01*
X6172200Y-5245100D01*
X6134100Y-5283200D01*
X5791200Y-5283200D01*
X5664200Y-5156200D01*
X5638800Y-5156200D01*
X5511545Y-5232654D02*
G01*
X5524754Y-5219700D01*
X5562600Y-5219700D01*
X5626100Y-5156200D01*
X5638800Y-5156200D01*
X5549900Y-5283200D02*
G01*
X5511800Y-5321300D01*
X5410200Y-5321300D01*
X5384800Y-5295900D01*
X5384800Y-5257800D01*
D16*
G01*
X3788613Y-3983101D03*
G01*
X4288586Y-3983101D03*
D17*
G01*
X4588611Y-4983098D03*
G01*
X3488588Y-4983098D03*
D18*
G01*
X5257800Y-5080000D03*
G01*
X5511800Y-5080000D03*
G01*
X5765800Y-5080000D03*
G01*
X6019800Y-5080000D03*
G01*
X6273800Y-5080000D03*
D19*
G01*
X6527800Y-5080000D03*
D20*
G01*
X3048000Y-304800D03*
G01*
X2032000Y-304800D03*
D21*
G01*
X1016000Y-304800D03*
D10*
G01*
X1270000Y-4876800D03*
D22*
G01*
X2286000Y-4876800D03*
D10*
G01*
X2794000Y-4876800D03*
D23*
G01*
X380009Y-699998D03*
G01*
X380009Y-4499990D03*
G01*
X7749997Y-399999D03*
G01*
X7049998Y-5599988D03*
G01*
X7759700Y-2590800D03*
G01*
X2499995Y-5550001D03*
G01*
X4419600Y-3073400D03*
D24*
G01*
X5910656Y-3780789D03*
G01*
X6050661Y-3780789D03*
G01*
X6050661Y-3640785D03*
G01*
X5910656Y-3640785D03*
G01*
X5840653Y-3570782D03*
G01*
X5980658Y-3570782D03*
G01*
X5770651Y-3640785D03*
G01*
X5770651Y-3780789D03*
G01*
X5980658Y-3850792D03*
G01*
X5980658Y-3710787D03*
G01*
X5840653Y-3710787D03*
G01*
X5840653Y-3850792D03*
D25*
G01*
X4445000Y-1689100D03*
G01*
X4445000Y-1765300D03*
G01*
X4495800Y-1803400D03*
G01*
X4495800Y-1727200D03*
G01*
X4546600Y-1765300D03*
G01*
X4597400Y-1803400D03*
G01*
X4597400Y-1727200D03*
G01*
X4546600Y-1689100D03*
G01*
X4648200Y-1765300D03*
G01*
X4699000Y-1803400D03*
G01*
X4699000Y-1727200D03*
G01*
X4648200Y-1689100D03*
G01*
X5892800Y-1689100D03*
G01*
X5943600Y-1727200D03*
G01*
X5892800Y-1765300D03*
G01*
X5943600Y-1803400D03*
G01*
X5842000Y-1803400D03*
G01*
X5842000Y-1727200D03*
G01*
X5791200Y-1765300D03*
G01*
X5740400Y-1803400D03*
G01*
X5689600Y-1765300D03*
G01*
X5740400Y-1727200D03*
G01*
X5689600Y-1689100D03*
G01*
X5791200Y-1689100D03*
G01*
X4445000Y-952500D03*
G01*
X4445000Y-1028700D03*
G01*
X4495800Y-990600D03*
G01*
X4445000Y-1104900D03*
G01*
X4495800Y-1143000D03*
G01*
X4445000Y-1181100D03*
G01*
X4495800Y-1066800D03*
G01*
X4495800Y-1371600D03*
G01*
X4445000Y-1409700D03*
G01*
X4445000Y-1333500D03*
G01*
X4495800Y-1295400D03*
G01*
X4445000Y-1257300D03*
G01*
X4495800Y-1219200D03*
G01*
X4597400Y-1219200D03*
G01*
X4546600Y-1409700D03*
G01*
X4597400Y-1371600D03*
G01*
X4546600Y-1333500D03*
G01*
X4597400Y-1295400D03*
G01*
X4546600Y-1257300D03*
G01*
X4546600Y-1181100D03*
G01*
X4597400Y-1143000D03*
G01*
X4546600Y-1104900D03*
G01*
X4597400Y-1066800D03*
G01*
X4546600Y-1028700D03*
G01*
X4597400Y-990600D03*
G01*
X4546600Y-952500D03*
G01*
X4699000Y-1219200D03*
G01*
X4648200Y-1409700D03*
G01*
X4699000Y-1371600D03*
G01*
X4648200Y-1333500D03*
G01*
X4699000Y-1295400D03*
G01*
X4648200Y-1257300D03*
G01*
X4648200Y-1181100D03*
G01*
X4699000Y-1143000D03*
G01*
X4648200Y-1104900D03*
G01*
X4699000Y-1066800D03*
G01*
X4648200Y-1028700D03*
G01*
X4699000Y-990600D03*
G01*
X4648200Y-952500D03*
G01*
X5892800Y-952500D03*
G01*
X5943600Y-990600D03*
G01*
X5892800Y-1028700D03*
G01*
X5943600Y-1066800D03*
G01*
X5892800Y-1104900D03*
G01*
X5943600Y-1143000D03*
G01*
X5892800Y-1181100D03*
G01*
X5892800Y-1257300D03*
G01*
X5943600Y-1295400D03*
G01*
X5892800Y-1333500D03*
G01*
X5943600Y-1371600D03*
G01*
X5892800Y-1409700D03*
G01*
X5943600Y-1219200D03*
G01*
X5842000Y-1371600D03*
G01*
X5791200Y-1409700D03*
G01*
X5740400Y-1371600D03*
G01*
X5689600Y-1409700D03*
G01*
X5689600Y-1333500D03*
G01*
X5740400Y-1295400D03*
G01*
X5791200Y-1333500D03*
G01*
X5842000Y-1295400D03*
G01*
X5791200Y-1257300D03*
G01*
X5740400Y-1219200D03*
G01*
X5689600Y-1257300D03*
G01*
X5689600Y-1181100D03*
G01*
X5740400Y-1143000D03*
G01*
X5689600Y-1104900D03*
G01*
X5740400Y-1066800D03*
G01*
X5689600Y-1028700D03*
G01*
X5740400Y-990600D03*
G01*
X5689600Y-952500D03*
G01*
X5791200Y-952500D03*
G01*
X5842000Y-990600D03*
G01*
X5791200Y-1028700D03*
G01*
X5842000Y-1066800D03*
G01*
X5791200Y-1104900D03*
G01*
X5842000Y-1143000D03*
G01*
X5791200Y-1181100D03*
G01*
X5842000Y-1219200D03*
G01*
X4711700Y-711200D03*
G01*
X4711700Y-787400D03*
G01*
X4660900Y-749300D03*
G01*
X4559300Y-749300D03*
G01*
X4610100Y-711200D03*
G01*
X4610100Y-787400D03*
G01*
X4457700Y-749300D03*
G01*
X4508500Y-711200D03*
G01*
X4508500Y-787400D03*
G01*
X5702300Y-749300D03*
G01*
X5753100Y-711200D03*
G01*
X5753100Y-787400D03*
G01*
X5803900Y-749300D03*
G01*
X5854700Y-711200D03*
G01*
X5854700Y-787400D03*
G01*
X5905500Y-749300D03*
G01*
X5956300Y-787400D03*
G01*
X5956300Y-711200D03*
G01*
X4457700Y-499237D03*
G01*
X4508500Y-461137D03*
G01*
X4508500Y-537337D03*
G01*
X4559300Y-499237D03*
G01*
X4610100Y-461137D03*
G01*
X4610100Y-537337D03*
G01*
X4660900Y-499237D03*
G01*
X4711700Y-537337D03*
G01*
X4711700Y-461137D03*
G01*
X5702300Y-499237D03*
G01*
X5753100Y-461137D03*
G01*
X5753100Y-537337D03*
G01*
X5803900Y-499237D03*
G01*
X5854700Y-461137D03*
G01*
X5854700Y-537337D03*
G01*
X5905500Y-499237D03*
G01*
X5956300Y-537337D03*
G01*
X5956300Y-461137D03*
G01*
X6959600Y-1422400D03*
G01*
X6959600Y-1295400D03*
G01*
X6959600Y-1358900D03*
G01*
X6959600Y-1231900D03*
G01*
X7023100Y-1231900D03*
G01*
X7086600Y-1231900D03*
G01*
X7023100Y-1168400D03*
G01*
X7086600Y-1168400D03*
G01*
X7391400Y-1676400D03*
G01*
X7454900Y-1676400D03*
G01*
X7518400Y-1676400D03*
G01*
X7493000Y-1739900D03*
G01*
X7429500Y-1739900D03*
G01*
X7366000Y-1739900D03*
G01*
X7556500Y-1739900D03*
G01*
X7467600Y-1803400D03*
G01*
X7404100Y-1803400D03*
G01*
X7531100Y-1803400D03*
G01*
X7124700Y-1739900D03*
G01*
X7035800Y-1739900D03*
G01*
X6972300Y-1739900D03*
G01*
X4241800Y-2349500D03*
G01*
X4254500Y-2628900D03*
G01*
X4178300Y-2349500D03*
G01*
X4191000Y-2692400D03*
G01*
X5156200Y-4546600D03*
G01*
X5092700Y-4546600D03*
G01*
X4699000Y-4432300D03*
G01*
X4622800Y-4432300D03*
G01*
X6578600Y-3352800D03*
G01*
X6578600Y-3429000D03*
G01*
X6692900Y-3822700D03*
G01*
X6616700Y-3898900D03*
G01*
X6311900Y-3416300D03*
G01*
X6121400Y-3429000D03*
G01*
X6311900Y-3479800D03*
G01*
X6184900Y-3492500D03*
G01*
X6591300Y-2095500D03*
G01*
X6540500Y-1905000D03*
G01*
X6540500Y-1968500D03*
G01*
X6515100Y-2095500D03*
G01*
X4711700Y-2057400D03*
G01*
X4724400Y-1930400D03*
G01*
X4655540Y-1930400D03*
G01*
X4655565Y-2057527D03*
G01*
X5918200Y-2794000D03*
G01*
X5918200Y-2730500D03*
G01*
X6045200Y-2794000D03*
G01*
X6045200Y-2730017D03*
G01*
X3759200Y-2565400D03*
G01*
X3822700Y-2565400D03*
G01*
X3873500Y-2184400D03*
G01*
X3810000Y-2184400D03*
G01*
X4025900Y-1562100D03*
G01*
X3924300Y-1562100D03*
G01*
X5410200Y-1562100D03*
G01*
X5339816Y-1562100D03*
G01*
X5334000Y-1930400D03*
G01*
X5257800Y-1930400D03*
G01*
X5956300Y-1930400D03*
G01*
X5888761Y-1930400D03*
G01*
X5156200Y-2730500D03*
G01*
X5156200Y-2806700D03*
G01*
X5283200Y-2667000D03*
G01*
X5410200Y-2654300D03*
G01*
X5537200Y-2641600D03*
G01*
X5283200Y-2730500D03*
G01*
X5410200Y-2717800D03*
G01*
X5536895Y-2706496D03*
G01*
X5054600Y-2514600D03*
G01*
X4965700Y-2514600D03*
G01*
X4838700Y-2628900D03*
G01*
X4914900Y-2628900D03*
G01*
X4914900Y-1905000D03*
G01*
X4914900Y-1968500D03*
G01*
X5143500Y-1968500D03*
G01*
X5143500Y-1905000D03*
G01*
X4000500Y-1816100D03*
G01*
X4064000Y-1816100D03*
G01*
X4000500Y-1943100D03*
G01*
X4064000Y-1943100D03*
G01*
X3517900Y-1689100D03*
G01*
X3517900Y-1778000D03*
G01*
X3200400Y-1778000D03*
G01*
X3200400Y-1689100D03*
G01*
X5524500Y-3835400D03*
G01*
X5524500Y-3771900D03*
G01*
X5524500Y-3708400D03*
G01*
X5524500Y-3644900D03*
G01*
X5524500Y-3581400D03*
G01*
X5461000Y-3835400D03*
G01*
X5461000Y-3771900D03*
G01*
X5461000Y-3708400D03*
G01*
X5461000Y-3644900D03*
G01*
X5461000Y-3581400D03*
G01*
X5397500Y-3835400D03*
G01*
X5397500Y-3771900D03*
G01*
X5397500Y-3708400D03*
G01*
X5397500Y-3644900D03*
G01*
X5397500Y-3581400D03*
G01*
X6388100Y-1917700D03*
G01*
X6451600Y-1981200D03*
G01*
X6388100Y-1981200D03*
G01*
X6529857Y-2387600D03*
G01*
X6464300Y-2387600D03*
G01*
X5461000Y-2247900D03*
G01*
X5537200Y-2247900D03*
D26*
G01*
X5384800Y-5257800D03*
G01*
X5295900Y-5257800D03*
G01*
X5549900Y-5283200D03*
G01*
X5651500Y-5245100D03*
D25*
G01*
X5092700Y-3835400D03*
G01*
X5092700Y-3771900D03*
G01*
X5092700Y-3708400D03*
G01*
X5092700Y-3644900D03*
G01*
X5092700Y-3581400D03*
G01*
X5156200Y-3644900D03*
G01*
X5156200Y-3708400D03*
G01*
X5156200Y-3771900D03*
G01*
X5156200Y-3835400D03*
G01*
X5156200Y-3581400D03*
G01*
X5486400Y-5829300D03*
G01*
X5549900Y-5829300D03*
G01*
X5613400Y-5829300D03*
G01*
X6057900Y-5715000D03*
G01*
X6121400Y-5753100D03*
G01*
X6057900Y-5778500D03*
G01*
X6680200Y-4559300D03*
G01*
X6680200Y-4483100D03*
G01*
X5638800Y-5156200D03*
D15*
G01*
X6273800Y-5346700D03*
G01*
X6337300Y-5765800D03*
D26*
G01*
X5397500Y-4470400D03*
G01*
X5499100Y-4470400D03*
G01*
X6413500Y-4165600D03*
G01*
X6413500Y-4271518D03*
G01*
X6413500Y-4378553D03*
D25*
G01*
X5867400Y-4356100D03*
G01*
X5867400Y-4292600D03*
G01*
X5867400Y-4229100D03*
G01*
X5867400Y-4165600D03*
G01*
X5930900Y-4165600D03*
G01*
X5930900Y-4229100D03*
G01*
X5930900Y-4292600D03*
G01*
X5930900Y-4356100D03*
G01*
X5994400Y-4356100D03*
G01*
X5994400Y-4292600D03*
G01*
X5994400Y-4229100D03*
G01*
X5994400Y-4165600D03*
G01*
X6057900Y-4165600D03*
G01*
X6057900Y-4229100D03*
G01*
X6057900Y-4292600D03*
G01*
X6057900Y-4356100D03*
D15*
G01*
X3937000Y-3086100D03*
G01*
X3937000Y-2971800D03*
D26*
G01*
X6870700Y-2197100D03*
G01*
X7112000Y-2362200D03*
G01*
X7035800Y-2362200D03*
G01*
X6870700Y-2120900D03*
G01*
X6515100Y-1536700D03*
G01*
X6591300Y-1536700D03*
G01*
X6261100Y-3175000D03*
G01*
X4953000Y-266700D03*
G01*
X4953000Y-330200D03*
G01*
X4953000Y-393700D03*
G01*
X4953000Y-457200D03*
G01*
X5016500Y-457200D03*
G01*
X5016500Y-393700D03*
G01*
X5016500Y-330200D03*
G01*
X5016500Y-266700D03*
G01*
X3746500Y-431800D03*
G01*
X3683000Y-431800D03*
G01*
X3746500Y-368300D03*
G01*
X3746500Y-304800D03*
G01*
X3746500Y-241300D03*
G01*
X3683000Y-241300D03*
G01*
X3683000Y-304800D03*
G01*
X3683000Y-368300D03*
G01*
X3568700Y-1549400D03*
G01*
X3568700Y-1485900D03*
G01*
X3568700Y-1422400D03*
G01*
X3505200Y-1422400D03*
G01*
X3505200Y-1485900D03*
G01*
X3505200Y-1549400D03*
G01*
X3568700Y-1358900D03*
G01*
X3505200Y-1358900D03*
G01*
X3505200Y-1295400D03*
G01*
X3695700Y-1549400D03*
G01*
X3695700Y-1485900D03*
G01*
X3632200Y-1422400D03*
G01*
X3632200Y-1485900D03*
G01*
X3632200Y-1549400D03*
G01*
X7315200Y-1117600D03*
G01*
X7315200Y-1054100D03*
G01*
X7315200Y-990600D03*
G01*
X7315200Y-927100D03*
G01*
X7442200Y-1117600D03*
G01*
X7378700Y-1117600D03*
G01*
X7442200Y-1054100D03*
G01*
X7442200Y-990600D03*
G01*
X7442200Y-927100D03*
G01*
X7378700Y-927100D03*
G01*
X7378700Y-990600D03*
G01*
X7378700Y-1054100D03*
G01*
X7569200Y-1117600D03*
G01*
X7505700Y-1117600D03*
G01*
X7569200Y-1054100D03*
G01*
X7569200Y-990600D03*
G01*
X7569200Y-927100D03*
G01*
X7505700Y-927100D03*
G01*
X7505700Y-990600D03*
G01*
X7505700Y-1054100D03*
G01*
X7378700Y-863600D03*
G01*
X7315200Y-863600D03*
G01*
X7378700Y-800100D03*
G01*
X7315200Y-800100D03*
G01*
X7505700Y-863600D03*
G01*
X7442200Y-863600D03*
G01*
X7442200Y-800100D03*
G01*
X7632700Y-990600D03*
G01*
X7632700Y-1054100D03*
G01*
X7632700Y-1117600D03*
G01*
X5410200Y-1473200D03*
G01*
X5346700Y-1473200D03*
G01*
X5283200Y-1409700D03*
G01*
X5346700Y-1409700D03*
G01*
X5410200Y-1409700D03*
G01*
X5346700Y-1346200D03*
G01*
X5283200Y-1346200D03*
G01*
X5283200Y-1473200D03*
G01*
X5410200Y-1346200D03*
G01*
X5461000Y-3403600D03*
G01*
X5461000Y-3341979D03*
G01*
X5181600Y-4305300D03*
G01*
X5111851Y-4305300D03*
G01*
X5842000Y-4572000D03*
G01*
X5778500Y-4572000D03*
G01*
X5727700Y-4267200D03*
G01*
X5727700Y-4330700D03*
G01*
X6350000Y-3289300D03*
G01*
X6286500Y-3289300D03*
G01*
X7277100Y-2705100D03*
G01*
X7277100Y-2641600D03*
G01*
X6985000Y-2463800D03*
G01*
X7048500Y-2463800D03*
G01*
X6985000Y-2527300D03*
G01*
X7048500Y-2527300D03*
G01*
X6159500Y-2108200D03*
G01*
X6159500Y-2171700D03*
G01*
X5867400Y-2260600D03*
G01*
X5803900Y-2260600D03*
G01*
X6629400Y-5397500D03*
G01*
X6629400Y-5460288D03*
G01*
X6629400Y-5527065D03*
G01*
X6629400Y-5594807D03*
G01*
X5473700Y-5232400D03*
D25*
G01*
X6451600Y-1917700D03*
D26*
G01*
X7175500Y-2463800D03*
G01*
X7112000Y-2463800D03*
G01*
X7112000Y-2527300D03*
M02*
